<?xml version="1.0" encoding="UTF-8" standalone="no"?>
<!DOCTYPE svg PUBLIC "-//W3C//DTD SVG 1.1//EN" "http://www.w3.org/Graphics/SVG/1.1/DTD/svg11.dtd">
<svg xmlns="http://www.w3.org/2000/svg" xmlns:xlink="http://www.w3.org/1999/xlink" version="1.1" width="596pt" height="843pt" viewBox="0 0 596 843">
<g enable-background="new">
<clipPath id="cp1415">
<path d="M 0 0 L 596 0 L 596 842.95706 L 0 842.95706 Z " fill-rule="evenodd"/>
</clipPath>
<g clip-path="url(#cp1415)">
<path transform="matrix(.7506297,0,0,.7506297,0,-26974.629)" d="M 0 35936 L 794 35936 L 794 37059 L 0 37059 Z " fill="#ffffff"/>
<path transform="matrix(.7506297,0,0,.7506297,0,-26974.629)" d="M 0 35936 L 794 35936 L 794 37059 L 0 37059 Z " fill="#ffffff"/>
<path transform="matrix(.7506297,0,0,.7506297,0,-26974.629)" d="M 0 0 L 794 0 L 794 44920 L 0 44920 Z " fill="#ffffff"/>
<path transform="matrix(.7506297,0,0,.7506297,0,-26974.629)" d="M 0 35936 L 794 35936 L 794 37059 L 0 37059 Z " fill="#ffffff"/>
<path transform="matrix(.7506297,0,0,.7506297,0,-26974.629)" d="M 0 36030 L 794 36030 L 794 37059 L 0 37059 Z " fill="#ffffff"/>
<path transform="matrix(.7506297,0,0,.7506297,0,-26974.629)" d="M 76 36030 L 719 36030 L 719 36980 L 76 36980 Z " fill="#f8f8f8"/>
</g>
<clipPath id="cp1416">
<path d="M 57.04786 70.56055 L 539.70278 70.56055 L 539.70278 783.6582 L 57.04786 783.6582 Z " fill-rule="evenodd"/>
</clipPath>
<g clip-path="url(#cp1416)">
<path transform="matrix(.7506297,0,0,.7506297,0,-26974.629)" d="M 83 36037 L 273 36037 L 273 36053 L 83 36053 Z " fill="#f8f8f8"/>
</g>
<clipPath id="cp1417">
<path d="M 57.04786 70.56055 L 539.70278 70.56055 L 539.70278 783.6582 L 57.04786 783.6582 Z " fill-rule="evenodd"/>
</clipPath>
<g clip-path="url(#cp1417)">
<path transform="matrix(.7506297,0,0,.7506297,0,-26974.629)" d="M 83 36055 L 112 36055 L 112 36071 L 83 36071 Z " fill="#f8f8f8"/>
</g>
<clipPath id="cp1418">
<path d="M 57.04786 70.56055 L 539.70278 70.56055 L 539.70278 783.6582 L 57.04786 783.6582 Z " fill-rule="evenodd"/>
</clipPath>
<g clip-path="url(#cp1418)">
<path transform="matrix(.7506297,0,0,.7506297,0,-26974.629)" d="M 83 36073 L 207 36073 L 207 36089 L 83 36089 Z " fill="#f8f8f8"/>
</g>
<clipPath id="cp1419">
<path d="M 57.04786 70.56055 L 539.70278 70.56055 L 539.70278 783.6582 L 57.04786 783.6582 Z " fill-rule="evenodd"/>
</clipPath>
<g clip-path="url(#cp1419)">
<path transform="matrix(.7506297,0,0,.7506297,0,-26974.629)" d="M 83 36091 L 273 36091 L 273 36107 L 83 36107 Z " fill="#f8f8f8"/>
</g>
<clipPath id="cp1420">
<path d="M 57.04786 70.56055 L 539.70278 70.56055 L 539.70278 783.6582 L 57.04786 783.6582 Z " fill-rule="evenodd"/>
</clipPath>
<g clip-path="url(#cp1420)">
<path transform="matrix(.7506297,0,0,.7506297,0,-26974.629)" d="M 83 36127 L 383 36127 L 383 36143 L 83 36143 Z " fill="#f8f8f8"/>
</g>
<clipPath id="cp1421">
<path d="M 57.04786 70.56055 L 539.70278 70.56055 L 539.70278 783.6582 L 57.04786 783.6582 Z " fill-rule="evenodd"/>
</clipPath>
<g clip-path="url(#cp1421)">
<path transform="matrix(.7506297,0,0,.7506297,0,-26974.629)" d="M 83 36145 L 288 36145 L 288 36161 L 83 36161 Z " fill="#f8f8f8"/>
</g>
<clipPath id="cp1422">
<path d="M 57.04786 70.56055 L 539.70278 70.56055 L 539.70278 783.6582 L 57.04786 783.6582 Z " fill-rule="evenodd"/>
</clipPath>
<g clip-path="url(#cp1422)">
<path transform="matrix(.7506297,0,0,.7506297,0,-26974.629)" d="M 83 36163 L 112 36163 L 112 36179 L 83 36179 Z " fill="#f8f8f8"/>
</g>
<clipPath id="cp1423">
<path d="M 57.04786 70.56055 L 539.70278 70.56055 L 539.70278 783.6582 L 57.04786 783.6582 Z " fill-rule="evenodd"/>
</clipPath>
<g clip-path="url(#cp1423)">
<path transform="matrix(.7506297,0,0,.7506297,0,-26974.629)" d="M 83 36181 L 207 36181 L 207 36197 L 83 36197 Z " fill="#f8f8f8"/>
</g>
<clipPath id="cp1424">
<path d="M 57.04786 70.56055 L 539.70278 70.56055 L 539.70278 783.6582 L 57.04786 783.6582 Z " fill-rule="evenodd"/>
</clipPath>
<g clip-path="url(#cp1424)">
<path transform="matrix(.7506297,0,0,.7506297,0,-26974.629)" d="M 83 36199 L 207 36199 L 207 36215 L 83 36215 Z " fill="#f8f8f8"/>
</g>
<clipPath id="cp1425">
<path d="M 57.04786 70.56055 L 539.70278 70.56055 L 539.70278 783.6582 L 57.04786 783.6582 Z " fill-rule="evenodd"/>
</clipPath>
<g clip-path="url(#cp1425)">
<path transform="matrix(.7506297,0,0,.7506297,0,-26974.629)" d="M 83 36217 L 288 36217 L 288 36233 L 83 36233 Z " fill="#f8f8f8"/>
</g>
<clipPath id="cp1426">
<path d="M 57.04786 70.56055 L 539.70278 70.56055 L 539.70278 783.6582 L 57.04786 783.6582 Z " fill-rule="evenodd"/>
</clipPath>
<g clip-path="url(#cp1426)">
<path transform="matrix(.7506297,0,0,.7506297,0,-26974.629)" d="M 83 36235 L 280 36235 L 280 36251 L 83 36251 Z " fill="#f8f8f8"/>
</g>
<clipPath id="cp1427">
<path d="M 57.04786 70.56055 L 539.70278 70.56055 L 539.70278 783.6582 L 57.04786 783.6582 Z " fill-rule="evenodd"/>
</clipPath>
<g clip-path="url(#cp1427)">
<path transform="matrix(.7506297,0,0,.7506297,0,-26974.629)" d="M 83 36253 L 112 36253 L 112 36269 L 83 36269 Z " fill="#f8f8f8"/>
</g>
<clipPath id="cp1428">
<path d="M 57.04786 70.56055 L 539.70278 70.56055 L 539.70278 783.6582 L 57.04786 783.6582 Z " fill-rule="evenodd"/>
</clipPath>
<g clip-path="url(#cp1428)">
<path transform="matrix(.7506297,0,0,.7506297,0,-26974.629)" d="M 83 36271 L 207 36271 L 207 36287 L 83 36287 Z " fill="#f8f8f8"/>
</g>
<clipPath id="cp1429">
<path d="M 57.04786 70.56055 L 539.70278 70.56055 L 539.70278 783.6582 L 57.04786 783.6582 Z " fill-rule="evenodd"/>
</clipPath>
<g clip-path="url(#cp1429)">
<path transform="matrix(.7506297,0,0,.7506297,0,-26974.629)" d="M 83 36289 L 207 36289 L 207 36305 L 83 36305 Z " fill="#f8f8f8"/>
</g>
<clipPath id="cp1430">
<path d="M 57.04786 70.56055 L 539.70278 70.56055 L 539.70278 783.6582 L 57.04786 783.6582 Z " fill-rule="evenodd"/>
</clipPath>
<g clip-path="url(#cp1430)">
<path transform="matrix(.7506297,0,0,.7506297,0,-26974.629)" d="M 83 36307 L 280 36307 L 280 36323 L 83 36323 Z " fill="#f8f8f8"/>
</g>
<clipPath id="cp1431">
<path d="M 57.04786 70.56055 L 539.70278 70.56055 L 539.70278 783.6582 L 57.04786 783.6582 Z " fill-rule="evenodd"/>
</clipPath>
<g clip-path="url(#cp1431)">
<path transform="matrix(.7506297,0,0,.7506297,0,-26974.629)" d="M 83 36325 L 295 36325 L 295 36341 L 83 36341 Z " fill="#f8f8f8"/>
</g>
<clipPath id="cp1432">
<path d="M 57.04786 70.56055 L 539.70278 70.56055 L 539.70278 783.6582 L 57.04786 783.6582 Z " fill-rule="evenodd"/>
</clipPath>
<g clip-path="url(#cp1432)">
<path transform="matrix(.7506297,0,0,.7506297,0,-26974.629)" d="M 83 36343 L 112 36343 L 112 36359 L 83 36359 Z " fill="#f8f8f8"/>
</g>
<clipPath id="cp1433">
<path d="M 57.04786 70.56055 L 539.70278 70.56055 L 539.70278 783.6582 L 57.04786 783.6582 Z " fill-rule="evenodd"/>
</clipPath>
<g clip-path="url(#cp1433)">
<path transform="matrix(.7506297,0,0,.7506297,0,-26974.629)" d="M 83 36361 L 207 36361 L 207 36377 L 83 36377 Z " fill="#f8f8f8"/>
</g>
<clipPath id="cp1434">
<path d="M 57.04786 70.56055 L 539.70278 70.56055 L 539.70278 783.6582 L 57.04786 783.6582 Z " fill-rule="evenodd"/>
</clipPath>
<g clip-path="url(#cp1434)">
<path transform="matrix(.7506297,0,0,.7506297,0,-26974.629)" d="M 83 36379 L 251 36379 L 251 36395 L 83 36395 Z " fill="#f8f8f8"/>
</g>
<clipPath id="cp1435">
<path d="M 57.04786 70.56055 L 539.70278 70.56055 L 539.70278 783.6582 L 57.04786 783.6582 Z " fill-rule="evenodd"/>
</clipPath>
<g clip-path="url(#cp1435)">
<path transform="matrix(.7506297,0,0,.7506297,0,-26974.629)" d="M 83 36415 L 390 36415 L 390 36431 L 83 36431 Z " fill="#f8f8f8"/>
</g>
<clipPath id="cp1436">
<path d="M 57.04786 70.56055 L 539.70278 70.56055 L 539.70278 783.6582 L 57.04786 783.6582 Z " fill-rule="evenodd"/>
</clipPath>
<g clip-path="url(#cp1436)">
<path transform="matrix(.7506297,0,0,.7506297,0,-26974.629)" d="M 83 36433 L 112 36433 L 112 36449 L 83 36449 Z " fill="#f8f8f8"/>
</g>
<clipPath id="cp1437">
<path d="M 57.04786 70.56055 L 539.70278 70.56055 L 539.70278 783.6582 L 57.04786 783.6582 Z " fill-rule="evenodd"/>
</clipPath>
<g clip-path="url(#cp1437)">
<path transform="matrix(.7506297,0,0,.7506297,0,-26974.629)" d="M 83 36451 L 207 36451 L 207 36467 L 83 36467 Z " fill="#f8f8f8"/>
</g>
<clipPath id="cp1438">
<path d="M 57.04786 70.56055 L 539.70278 70.56055 L 539.70278 783.6582 L 57.04786 783.6582 Z " fill-rule="evenodd"/>
</clipPath>
<g clip-path="url(#cp1438)">
<path transform="matrix(.7506297,0,0,.7506297,0,-26974.629)" d="M 83 36469 L 207 36469 L 207 36485 L 83 36485 Z " fill="#f8f8f8"/>
</g>
<clipPath id="cp1439">
<path d="M 57.04786 70.56055 L 539.70278 70.56055 L 539.70278 783.6582 L 57.04786 783.6582 Z " fill-rule="evenodd"/>
</clipPath>
<g clip-path="url(#cp1439)">
<path transform="matrix(.7506297,0,0,.7506297,0,-26974.629)" d="M 83 36487 L 302 36487 L 302 36503 L 83 36503 Z " fill="#f8f8f8"/>
</g>
<clipPath id="cp1440">
<path d="M 57.04786 70.56055 L 539.70278 70.56055 L 539.70278 783.6582 L 57.04786 783.6582 Z " fill-rule="evenodd"/>
</clipPath>
<g clip-path="url(#cp1440)">
<path transform="matrix(.7506297,0,0,.7506297,0,-26974.629)" d="M 83 36505 L 427 36505 L 427 36521 L 83 36521 Z " fill="#f8f8f8"/>
</g>
<clipPath id="cp1441">
<path d="M 57.04786 70.56055 L 539.70278 70.56055 L 539.70278 783.6582 L 57.04786 783.6582 Z " fill-rule="evenodd"/>
</clipPath>
<g clip-path="url(#cp1441)">
<path transform="matrix(.7506297,0,0,.7506297,0,-26974.629)" d="M 83 36523 L 112 36523 L 112 36539 L 83 36539 Z " fill="#f8f8f8"/>
</g>
<clipPath id="cp1442">
<path d="M 57.04786 70.56055 L 539.70278 70.56055 L 539.70278 783.6582 L 57.04786 783.6582 Z " fill-rule="evenodd"/>
</clipPath>
<g clip-path="url(#cp1442)">
<path transform="matrix(.7506297,0,0,.7506297,0,-26974.629)" d="M 83 36541 L 207 36541 L 207 36557 L 83 36557 Z " fill="#f8f8f8"/>
</g>
<clipPath id="cp1443">
<path d="M 57.04786 70.56055 L 539.70278 70.56055 L 539.70278 783.6582 L 57.04786 783.6582 Z " fill-rule="evenodd"/>
</clipPath>
<g clip-path="url(#cp1443)">
<path transform="matrix(.7506297,0,0,.7506297,0,-26974.629)" d="M 83 36559 L 207 36559 L 207 36575 L 83 36575 Z " fill="#f8f8f8"/>
</g>
<clipPath id="cp1444">
<path d="M 57.04786 70.56055 L 539.70278 70.56055 L 539.70278 783.6582 L 57.04786 783.6582 Z " fill-rule="evenodd"/>
</clipPath>
<g clip-path="url(#cp1444)">
<path transform="matrix(.7506297,0,0,.7506297,0,-26974.629)" d="M 83 36577 L 324 36577 L 324 36593 L 83 36593 Z " fill="#f8f8f8"/>
</g>
<clipPath id="cp1445">
<path d="M 57.04786 70.56055 L 539.70278 70.56055 L 539.70278 783.6582 L 57.04786 783.6582 Z " fill-rule="evenodd"/>
</clipPath>
<g clip-path="url(#cp1445)">
<path transform="matrix(.7506297,0,0,.7506297,0,-26974.629)" d="M 83 36613 L 368 36613 L 368 36629 L 83 36629 Z " fill="#f8f8f8"/>
</g>
<clipPath id="cp1446">
<path d="M 57.04786 70.56055 L 539.70278 70.56055 L 539.70278 783.6582 L 57.04786 783.6582 Z " fill-rule="evenodd"/>
</clipPath>
<g clip-path="url(#cp1446)">
<path transform="matrix(.7506297,0,0,.7506297,0,-26974.629)" d="M 83 36631 L 112 36631 L 112 36647 L 83 36647 Z " fill="#f8f8f8"/>
</g>
<clipPath id="cp1447">
<path d="M 57.04786 70.56055 L 539.70278 70.56055 L 539.70278 783.6582 L 57.04786 783.6582 Z " fill-rule="evenodd"/>
</clipPath>
<g clip-path="url(#cp1447)">
<path transform="matrix(.7506297,0,0,.7506297,0,-26974.629)" d="M 83 36649 L 207 36649 L 207 36665 L 83 36665 Z " fill="#f8f8f8"/>
</g>
<clipPath id="cp1448">
<path d="M 57.04786 70.56055 L 539.70278 70.56055 L 539.70278 783.6582 L 57.04786 783.6582 Z " fill-rule="evenodd"/>
</clipPath>
<g clip-path="url(#cp1448)">
<path transform="matrix(.7506297,0,0,.7506297,0,-26974.629)" d="M 83 36667 L 207 36667 L 207 36683 L 83 36683 Z " fill="#f8f8f8"/>
</g>
<clipPath id="cp1449">
<path d="M 57.04786 70.56055 L 539.70278 70.56055 L 539.70278 783.6582 L 57.04786 783.6582 Z " fill-rule="evenodd"/>
</clipPath>
<g clip-path="url(#cp1449)">
<path transform="matrix(.7506297,0,0,.7506297,0,-26974.629)" d="M 83 36685 L 280 36685 L 280 36701 L 83 36701 Z " fill="#f8f8f8"/>
</g>
<clipPath id="cp1450">
<path d="M 57.04786 70.56055 L 539.70278 70.56055 L 539.70278 783.6582 L 57.04786 783.6582 Z " fill-rule="evenodd"/>
</clipPath>
<g clip-path="url(#cp1450)">
<path transform="matrix(.7506297,0,0,.7506297,0,-26974.629)" d="M 83 36703 L 405 36703 L 405 36719 L 83 36719 Z " fill="#f8f8f8"/>
</g>
<clipPath id="cp1451">
<path d="M 57.04786 70.56055 L 539.70278 70.56055 L 539.70278 783.6582 L 57.04786 783.6582 Z " fill-rule="evenodd"/>
</clipPath>
<g clip-path="url(#cp1451)">
<path transform="matrix(.7506297,0,0,.7506297,0,-26974.629)" d="M 83 36721 L 112 36721 L 112 36737 L 83 36737 Z " fill="#f8f8f8"/>
</g>
<clipPath id="cp1452">
<path d="M 57.04786 70.56055 L 539.70278 70.56055 L 539.70278 783.6582 L 57.04786 783.6582 Z " fill-rule="evenodd"/>
</clipPath>
<g clip-path="url(#cp1452)">
<path transform="matrix(.7506297,0,0,.7506297,0,-26974.629)" d="M 83 36739 L 207 36739 L 207 36755 L 83 36755 Z " fill="#f8f8f8"/>
</g>
<clipPath id="cp1453">
<path d="M 57.04786 70.56055 L 539.70278 70.56055 L 539.70278 783.6582 L 57.04786 783.6582 Z " fill-rule="evenodd"/>
</clipPath>
<g clip-path="url(#cp1453)">
<path transform="matrix(.7506297,0,0,.7506297,0,-26974.629)" d="M 83 36757 L 207 36757 L 207 36773 L 83 36773 Z " fill="#f8f8f8"/>
</g>
<clipPath id="cp1454">
<path d="M 57.04786 70.56055 L 539.70278 70.56055 L 539.70278 783.6582 L 57.04786 783.6582 Z " fill-rule="evenodd"/>
</clipPath>
<g clip-path="url(#cp1454)">
<path transform="matrix(.7506297,0,0,.7506297,0,-26974.629)" d="M 83 36775 L 302 36775 L 302 36791 L 83 36791 Z " fill="#f8f8f8"/>
</g>
<clipPath id="cp1455">
<path d="M 57.04786 70.56055 L 539.70278 70.56055 L 539.70278 783.6582 L 57.04786 783.6582 Z " fill-rule="evenodd"/>
</clipPath>
<g clip-path="url(#cp1455)">
<path transform="matrix(.7506297,0,0,.7506297,0,-26974.629)" d="M 83 36811 L 376 36811 L 376 36827 L 83 36827 Z " fill="#f8f8f8"/>
</g>
<clipPath id="cp1456">
<path d="M 57.04786 70.56055 L 539.70278 70.56055 L 539.70278 783.6582 L 57.04786 783.6582 Z " fill-rule="evenodd"/>
</clipPath>
<g clip-path="url(#cp1456)">
<path transform="matrix(.7506297,0,0,.7506297,0,-26974.629)" d="M 83 36829 L 112 36829 L 112 36845 L 83 36845 Z " fill="#f8f8f8"/>
</g>
<clipPath id="cp1457">
<path d="M 57.04786 70.56055 L 539.70278 70.56055 L 539.70278 783.6582 L 57.04786 783.6582 Z " fill-rule="evenodd"/>
</clipPath>
<g clip-path="url(#cp1457)">
<path transform="matrix(.7506297,0,0,.7506297,0,-26974.629)" d="M 83 36847 L 207 36847 L 207 36863 L 83 36863 Z " fill="#f8f8f8"/>
</g>
<clipPath id="cp1458">
<path d="M 57.04786 70.56055 L 539.70278 70.56055 L 539.70278 783.6582 L 57.04786 783.6582 Z " fill-rule="evenodd"/>
</clipPath>
<g clip-path="url(#cp1458)">
<path transform="matrix(.7506297,0,0,.7506297,0,-26974.629)" d="M 83 36865 L 207 36865 L 207 36881 L 83 36881 Z " fill="#f8f8f8"/>
</g>
<clipPath id="cp1459">
<path d="M 57.04786 70.56055 L 539.70278 70.56055 L 539.70278 783.6582 L 57.04786 783.6582 Z " fill-rule="evenodd"/>
</clipPath>
<g clip-path="url(#cp1459)">
<path transform="matrix(.7506297,0,0,.7506297,0,-26974.629)" d="M 83 36883 L 266 36883 L 266 36899 L 83 36899 Z " fill="#f8f8f8"/>
</g>
<clipPath id="cp1460">
<path d="M 57.04786 70.56055 L 539.70278 70.56055 L 539.70278 783.6582 L 57.04786 783.6582 Z " fill-rule="evenodd"/>
</clipPath>
<g clip-path="url(#cp1460)">
<path transform="matrix(.7506297,0,0,.7506297,0,-26974.629)" d="M 83 36901 L 398 36901 L 398 36917 L 83 36917 Z " fill="#f8f8f8"/>
</g>
<clipPath id="cp1461">
<path d="M 57.04786 70.56055 L 539.70278 70.56055 L 539.70278 783.6582 L 57.04786 783.6582 Z " fill-rule="evenodd"/>
</clipPath>
<g clip-path="url(#cp1461)">
<path transform="matrix(.7506297,0,0,.7506297,0,-26974.629)" d="M 83 36919 L 112 36919 L 112 36935 L 83 36935 Z " fill="#f8f8f8"/>
</g>
<clipPath id="cp1462">
<path d="M 57.04786 70.56055 L 539.70278 70.56055 L 539.70278 783.6582 L 57.04786 783.6582 Z " fill-rule="evenodd"/>
</clipPath>
<g clip-path="url(#cp1462)">
<path transform="matrix(.7506297,0,0,.7506297,0,-26974.629)" d="M 83 36937 L 207 36937 L 207 36953 L 83 36953 Z " fill="#f8f8f8"/>
</g>
<clipPath id="cp1463">
<path d="M 57.04786 70.56055 L 539.70278 70.56055 L 539.70278 783.6582 L 57.04786 783.6582 Z " fill-rule="evenodd"/>
</clipPath>
<g clip-path="url(#cp1463)">
<path transform="matrix(.7506297,0,0,.7506297,0,-26974.629)" d="M 83 36955 L 207 36955 L 207 36971 L 83 36971 Z " fill="#f8f8f8"/>
</g>
<clipPath id="cp1464">
<path d="M 57.04786 70.56055 L 539.70278 70.56055 L 539.70278 783.6582 L 57.04786 783.6582 Z " fill-rule="evenodd"/>
</clipPath>
<g clip-path="url(#cp1464)">
<text fill="#990000" xml:space="preserve" transform="matrix(.7506297 0 0 .7506297 0 -26974.629)" font-size="13.33" font-family="Consolas" font-weight="bold"><tspan y="36050" x="82.59375 89.921619 97.24948 104.57735">eval</tspan></text>
<path transform="matrix(.7506297,0,0,.7506297,0,-26974.629)" d="M 0 0 L 0 0 L 0 0 L 0 0 Z " fill="#990000"/>
<text fill-opacity="0" xml:space="preserve" transform="matrix(.7506297 0 0 .7506297 0 -26974.629)" font-size="13.33" font-family="Gautami"><tspan y="36050" x="111.90521">&#x200b;</tspan></text>
<text fill="#333333" xml:space="preserve" transform="matrix(.7506297 0 0 .7506297 0 -26974.629)" font-size="13.33" font-family="Consolas"><tspan y="36050" x="111.90521 119.23308"> (</tspan></text>
<text fill="#333333" xml:space="preserve" transform="matrix(.7506297 0 0 .7506297 0 -26974.629)" font-size="13.33" font-family="Gautami"><tspan y="36050" x="126.56094">&#x200b;</tspan></text>
<text fill="#445588" xml:space="preserve" transform="matrix(.7506297 0 0 .7506297 0 -26974.629)" font-size="13.33" font-family="Consolas" font-weight="bold"><tspan y="36050" x="126.56094 133.88881 141.21668 148.54454 155.8724 163.20027 170.52814 177.856 185.18387">UnaryNode</tspan></text>
<path transform="matrix(.7506297,0,0,.7506297,0,-26974.629)" d="M 0 0 L 0 0 L 0 0 L 0 0 Z " fill="#445588"/>
<text fill-opacity="0" xml:space="preserve" transform="matrix(.7506297 0 0 .7506297 0 -26974.629)" font-size="13.33" font-family="Gautami"><tspan y="36050" x="192.51174">&#x200b;</tspan></text>
<text fill="#333333" xml:space="preserve" transform="matrix(.7506297 0 0 .7506297 0 -26974.629)" font-size="13.33" font-family="Consolas"><tspan y="36050" x="192.51174"> </tspan></text>
<text fill="#333333" xml:space="preserve" transform="matrix(.7506297 0 0 .7506297 0 -26974.629)" font-size="13.33" font-family="Gautami"><tspan y="36050" x="199.8396">&#x200b;</tspan></text>
<text fill="#445588" xml:space="preserve" transform="matrix(.7506297 0 0 .7506297 0 -26974.629)" font-size="13.33" font-family="Consolas" font-weight="bold"><tspan y="36050" x="199.8396 207.16747 214.49533 221.8232 229.15106">Minus</tspan></text>
<path transform="matrix(.7506297,0,0,.7506297,0,-26974.629)" d="M 0 0 L 0 0 L 0 0 L 0 0 Z " fill="#445588"/>
<text fill-opacity="0" xml:space="preserve" transform="matrix(.7506297 0 0 .7506297 0 -26974.629)" font-size="13.33" font-family="Gautami"><tspan y="36050" x="236.47893">&#x200b;</tspan></text>
<text fill="#333333" xml:space="preserve" transform="matrix(.7506297 0 0 .7506297 0 -26974.629)" font-size="13.33" font-family="Consolas"><tspan y="36050" x="236.47893 243.8068 251.13466 258.46253 265.7904"> e1)=</tspan></text>
</g>
<clipPath id="cp1465">
<path d="M 57.04786 70.56055 L 539.70278 70.56055 L 539.70278 783.6582 L 57.04786 783.6582 Z " fill-rule="evenodd"/>
</clipPath>
<g clip-path="url(#cp1465)">
<text fill="#333333" xml:space="preserve" transform="matrix(.7506297 0 0 .7506297 0 -26974.629)" font-size="13.33" font-family="Consolas"><tspan y="36050" x="273.10939"> </tspan></text>
</g>
<clipPath id="cp1466">
<path d="M 57.04786 70.56055 L 539.70278 70.56055 L 539.70278 783.6582 L 57.04786 783.6582 Z " fill-rule="evenodd"/>
</clipPath>
<g clip-path="url(#cp1466)">
<text fill="#333333" xml:space="preserve" transform="matrix(.7506297 0 0 .7506297 0 -26974.629)" font-size="13.33" font-family="Consolas"><tspan y="36068" x="82.59375 89.921619">  </tspan></text>
<text fill="#333333" xml:space="preserve" transform="matrix(.7506297 0 0 .7506297 0 -26974.629)" font-size="13.33" font-family="Gautami"><tspan y="36068" x="97.24948">&#x200b;</tspan></text>
<text fill="#333333" xml:space="preserve" transform="matrix(.7506297 0 0 .7506297 0 -26974.629)" font-size="13.33" font-family="Consolas" font-weight="bold"><tspan y="36068" x="97.24948 104.57735">do</tspan></text>
</g>
<clipPath id="cp1467">
<path d="M 57.04786 70.56055 L 539.70278 70.56055 L 539.70278 783.6582 L 57.04786 783.6582 Z " fill-rule="evenodd"/>
</clipPath>
<g clip-path="url(#cp1467)">
<text fill="#333333" xml:space="preserve" transform="matrix(.7506297 0 0 .7506297 0 -26974.629)" font-size="13.33" font-family="Consolas"><tspan y="36068" x="111.890628"> </tspan></text>
</g>
<clipPath id="cp1468">
<path d="M 57.04786 70.56055 L 539.70278 70.56055 L 539.70278 783.6582 L 57.04786 783.6582 Z " fill-rule="evenodd"/>
</clipPath>
<g clip-path="url(#cp1468)">
<text fill="#333333" xml:space="preserve" transform="matrix(.7506297 0 0 .7506297 0 -26974.629)" font-size="13.33" font-family="Consolas"><tspan y="36068" x="119.203128"> </tspan></text>
</g>
<clipPath id="cp1469">
<path d="M 57.04786 70.56055 L 539.70278 70.56055 L 539.70278 783.6582 L 57.04786 783.6582 Z " fill-rule="evenodd"/>
</clipPath>
<g clip-path="url(#cp1469)">
<text fill="#333333" xml:space="preserve" transform="matrix(.7506297 0 0 .7506297 0 -26974.629)" font-size="13.33" font-family="Consolas"><tspan y="36086" x="82.59375 89.921619 97.24948 104.57735 111.90521 119.23308 126.56094 133.88881 141.21668 148.54454 155.8724 163.20027 170.52814 177.856 185.18387 192.51174 199.8396">    v1 &#x003c;- eval e1</tspan></text>
</g>
<clipPath id="cp1470">
<path d="M 57.04786 70.56055 L 539.70278 70.56055 L 539.70278 783.6582 L 57.04786 783.6582 Z " fill-rule="evenodd"/>
</clipPath>
<g clip-path="url(#cp1470)">
<text fill="#333333" xml:space="preserve" transform="matrix(.7506297 0 0 .7506297 0 -26974.629)" font-size="13.33" font-family="Consolas"><tspan y="36086" x="207.15625"> </tspan></text>
</g>
<clipPath id="cp1471">
<path d="M 57.04786 70.56055 L 539.70278 70.56055 L 539.70278 783.6582 L 57.04786 783.6582 Z " fill-rule="evenodd"/>
</clipPath>
<g clip-path="url(#cp1471)">
<text fill="#333333" xml:space="preserve" transform="matrix(.7506297 0 0 .7506297 0 -26974.629)" font-size="13.33" font-family="Consolas"><tspan y="36104" x="82.59375 89.921619 97.24948 104.57735 111.90521 119.23308 126.56094 133.88881 141.21668 148.54454 155.8724 163.20027">    return (</tspan></text>
<text fill="#333333" xml:space="preserve" transform="matrix(.7506297 0 0 .7506297 0 -26974.629)" font-size="13.33" font-family="Gautami"><tspan y="36104" x="170.52814">&#x200b;</tspan></text>
<text fill="#445588" xml:space="preserve" transform="matrix(.7506297 0 0 .7506297 0 -26974.629)" font-size="13.33" font-family="Consolas" font-weight="bold"><tspan y="36104" x="170.52814 177.856 185.18387 192.51174 199.8396 207.16747">IntVal</tspan></text>
<path transform="matrix(.7506297,0,0,.7506297,0,-26974.629)" d="M 0 0 L 0 0 L 0 0 L 0 0 Z " fill="#445588"/>
<text fill-opacity="0" xml:space="preserve" transform="matrix(.7506297 0 0 .7506297 0 -26974.629)" font-size="13.33" font-family="Gautami"><tspan y="36104" x="214.49533">&#x200b;</tspan></text>
<text fill="#333333" xml:space="preserve" transform="matrix(.7506297 0 0 .7506297 0 -26974.629)" font-size="13.33" font-family="Consolas"><tspan y="36104" x="214.49533"> </tspan></text>
<text fill="#333333" xml:space="preserve" transform="matrix(.7506297 0 0 .7506297 0 -26974.629)" font-size="13.33" font-family="Gautami"><tspan y="36104" x="221.8232">&#x200b;</tspan></text>
<text fill="#008080" xml:space="preserve" transform="matrix(.7506297 0 0 .7506297 0 -26974.629)" font-size="13.33" font-family="Consolas"><tspan y="36104" x="221.8232">0</tspan></text>
<text fill="#008080" xml:space="preserve" transform="matrix(.7506297 0 0 .7506297 0 -26974.629)" font-size="13.33" font-family="Gautami"><tspan y="36104" x="229.15106">&#x200b;</tspan></text>
<text fill="#333333" xml:space="preserve" transform="matrix(.7506297 0 0 .7506297 0 -26974.629)" font-size="13.33" font-family="Consolas"><tspan y="36104" x="229.15106 236.47893 243.8068 251.13466 258.46253 265.7904"> - v1)</tspan></text>
</g>
<clipPath id="cp1472">
<path d="M 57.04786 70.56055 L 539.70278 70.56055 L 539.70278 783.6582 L 57.04786 783.6582 Z " fill-rule="evenodd"/>
</clipPath>
<g clip-path="url(#cp1472)">
<text fill="#333333" xml:space="preserve" transform="matrix(.7506297 0 0 .7506297 0 -26974.629)" font-size="13.33" font-family="Consolas"><tspan y="36104" x="273.10939"> </tspan></text>
</g>
<clipPath id="cp1473">
<path d="M 57.04786 70.56055 L 539.70278 70.56055 L 539.70278 783.6582 L 57.04786 783.6582 Z " fill-rule="evenodd"/>
</clipPath>
<g clip-path="url(#cp1473)">
<text fill="#333333" xml:space="preserve" transform="matrix(.7506297 0 0 .7506297 0 -26974.629)" font-size="13.33" font-family="Consolas"><tspan y="36122" x="82.59375"> </tspan></text>
</g>
<clipPath id="cp1474">
<path d="M 57.04786 70.56055 L 539.70278 70.56055 L 539.70278 783.6582 L 57.04786 783.6582 Z " fill-rule="evenodd"/>
</clipPath>
<g clip-path="url(#cp1474)">
<text fill="#990000" xml:space="preserve" transform="matrix(.7506297 0 0 .7506297 0 -26974.629)" font-size="13.33" font-family="Consolas" font-weight="bold"><tspan y="36140" x="82.59375 89.921619 97.24948 104.57735">eval</tspan></text>
<path transform="matrix(.7506297,0,0,.7506297,0,-26974.629)" d="M 0 0 L 0 0 L 0 0 L 0 0 Z " fill="#990000"/>
<text fill-opacity="0" xml:space="preserve" transform="matrix(.7506297 0 0 .7506297 0 -26974.629)" font-size="13.33" font-family="Gautami"><tspan y="36140" x="111.90521">&#x200b;</tspan></text>
<text fill="#333333" xml:space="preserve" transform="matrix(.7506297 0 0 .7506297 0 -26974.629)" font-size="13.33" font-family="Consolas"><tspan y="36140" x="111.90521 119.23308"> (</tspan></text>
<text fill="#333333" xml:space="preserve" transform="matrix(.7506297 0 0 .7506297 0 -26974.629)" font-size="13.33" font-family="Gautami"><tspan y="36140" x="126.56094">&#x200b;</tspan></text>
<text fill="#445588" xml:space="preserve" transform="matrix(.7506297 0 0 .7506297 0 -26974.629)" font-size="13.33" font-family="Consolas" font-weight="bold"><tspan y="36140" x="126.56094 133.88881 141.21668 148.54454 155.8724 163.20027 170.52814 177.856">BoolNode</tspan></text>
<path transform="matrix(.7506297,0,0,.7506297,0,-26974.629)" d="M 0 0 L 0 0 L 0 0 L 0 0 Z " fill="#445588"/>
<text fill-opacity="0" xml:space="preserve" transform="matrix(.7506297 0 0 .7506297 0 -26974.629)" font-size="13.33" font-family="Gautami"><tspan y="36140" x="185.18387">&#x200b;</tspan></text>
<text fill="#333333" xml:space="preserve" transform="matrix(.7506297 0 0 .7506297 0 -26974.629)" font-size="13.33" font-family="Consolas"><tspan y="36140" x="185.18387 192.51174 199.8396 207.16747 214.49533 221.8232"> n) = </tspan></text>
<text fill="#333333" xml:space="preserve" transform="matrix(.7506297 0 0 .7506297 0 -26974.629)" font-size="13.33" font-family="Gautami"><tspan y="36140" x="229.15106">&#x200b;</tspan></text>
<text fill="#333333" xml:space="preserve" transform="matrix(.7506297 0 0 .7506297 0 -26974.629)" font-size="13.33" font-family="Consolas" font-weight="bold"><tspan y="36140" x="229.15106 236.47893">do</tspan></text>
<path transform="matrix(.7506297,0,0,.7506297,0,-26974.629)" d="M 0 0 L 0 0 L 0 0 L 0 0 Z " fill="#333333"/>
<text fill-opacity="0" xml:space="preserve" transform="matrix(.7506297 0 0 .7506297 0 -26974.629)" font-size="13.33" font-family="Gautami"><tspan y="36140" x="243.8068">&#x200b;</tspan></text>
<text fill="#333333" xml:space="preserve" transform="matrix(.7506297 0 0 .7506297 0 -26974.629)" font-size="13.33" font-family="Consolas"><tspan y="36140" x="243.8068 251.13466 258.46253 265.7904 273.11827 280.4461 287.774 295.10188 302.42973"> return (</tspan></text>
<text fill="#333333" xml:space="preserve" transform="matrix(.7506297 0 0 .7506297 0 -26974.629)" font-size="13.33" font-family="Gautami"><tspan y="36140" x="309.75758">&#x200b;</tspan></text>
<text fill="#445588" xml:space="preserve" transform="matrix(.7506297 0 0 .7506297 0 -26974.629)" font-size="13.33" font-family="Consolas" font-weight="bold"><tspan y="36140" x="309.75758 317.08546 324.4133 331.74116 339.06904 346.3969 353.72477">BoolVal</tspan></text>
<path transform="matrix(.7506297,0,0,.7506297,0,-26974.629)" d="M 0 0 L 0 0 L 0 0 L 0 0 Z " fill="#445588"/>
<text fill-opacity="0" xml:space="preserve" transform="matrix(.7506297 0 0 .7506297 0 -26974.629)" font-size="13.33" font-family="Gautami"><tspan y="36140" x="361.0526">&#x200b;</tspan></text>
<text fill="#333333" xml:space="preserve" transform="matrix(.7506297 0 0 .7506297 0 -26974.629)" font-size="13.33" font-family="Consolas"><tspan y="36140" x="361.05265 368.3805 375.70838"> n)</tspan></text>
</g>
<clipPath id="cp1475">
<path d="M 57.04786 70.56055 L 539.70278 70.56055 L 539.70278 783.6582 L 57.04786 783.6582 Z " fill-rule="evenodd"/>
</clipPath>
<g clip-path="url(#cp1475)">
<text fill="#333333" xml:space="preserve" transform="matrix(.7506297 0 0 .7506297 0 -26974.629)" font-size="13.33" font-family="Consolas"><tspan y="36140" x="383.03126"> </tspan></text>
</g>
<clipPath id="cp1476">
<path d="M 57.04786 70.56055 L 539.70278 70.56055 L 539.70278 783.6582 L 57.04786 783.6582 Z " fill-rule="evenodd"/>
</clipPath>
<g clip-path="url(#cp1476)">
<text fill="#990000" xml:space="preserve" transform="matrix(.7506297 0 0 .7506297 0 -26974.629)" font-size="13.33" font-family="Consolas" font-weight="bold"><tspan y="36158" x="82.59375 89.921619 97.24948 104.57735">eval</tspan></text>
<path transform="matrix(.7506297,0,0,.7506297,0,-26974.629)" d="M 0 0 L 0 0 L 0 0 L 0 0 Z " fill="#990000"/>
<text fill-opacity="0" xml:space="preserve" transform="matrix(.7506297 0 0 .7506297 0 -26974.629)" font-size="13.33" font-family="Gautami"><tspan y="36158" x="111.90521">&#x200b;</tspan></text>
<text fill="#333333" xml:space="preserve" transform="matrix(.7506297 0 0 .7506297 0 -26974.629)" font-size="13.33" font-family="Consolas"><tspan y="36158" x="111.90521 119.23308"> (</tspan></text>
<text fill="#333333" xml:space="preserve" transform="matrix(.7506297 0 0 .7506297 0 -26974.629)" font-size="13.33" font-family="Gautami"><tspan y="36158" x="126.56094">&#x200b;</tspan></text>
<text fill="#445588" xml:space="preserve" transform="matrix(.7506297 0 0 .7506297 0 -26974.629)" font-size="13.33" font-family="Consolas" font-weight="bold"><tspan y="36158" x="126.56094 133.88881 141.21668 148.54454 155.8724 163.20027 170.52814 177.856 185.18387">LogicNode</tspan></text>
<path transform="matrix(.7506297,0,0,.7506297,0,-26974.629)" d="M 0 0 L 0 0 L 0 0 L 0 0 Z " fill="#445588"/>
<text fill-opacity="0" xml:space="preserve" transform="matrix(.7506297 0 0 .7506297 0 -26974.629)" font-size="13.33" font-family="Gautami"><tspan y="36158" x="192.51174">&#x200b;</tspan></text>
<text fill="#333333" xml:space="preserve" transform="matrix(.7506297 0 0 .7506297 0 -26974.629)" font-size="13.33" font-family="Consolas"><tspan y="36158" x="192.51174"> </tspan></text>
<text fill="#333333" xml:space="preserve" transform="matrix(.7506297 0 0 .7506297 0 -26974.629)" font-size="13.33" font-family="Gautami"><tspan y="36158" x="199.8396">&#x200b;</tspan></text>
<text fill="#445588" xml:space="preserve" transform="matrix(.7506297 0 0 .7506297 0 -26974.629)" font-size="13.33" font-family="Consolas" font-weight="bold"><tspan y="36158" x="199.8396 207.16747 214.49533">And</tspan></text>
<path transform="matrix(.7506297,0,0,.7506297,0,-26974.629)" d="M 0 0 L 0 0 L 0 0 L 0 0 Z " fill="#445588"/>
<text fill-opacity="0" xml:space="preserve" transform="matrix(.7506297 0 0 .7506297 0 -26974.629)" font-size="13.33" font-family="Gautami"><tspan y="36158" x="221.8232">&#x200b;</tspan></text>
<text fill="#333333" xml:space="preserve" transform="matrix(.7506297 0 0 .7506297 0 -26974.629)" font-size="13.33" font-family="Consolas"><tspan y="36158" x="221.8232 229.15106 236.47893 243.8068 251.13466 258.46253 265.7904 273.11827 280.4461"> e1 e2) =</tspan></text>
</g>
<clipPath id="cp1477">
<path d="M 57.04786 70.56055 L 539.70278 70.56055 L 539.70278 783.6582 L 57.04786 783.6582 Z " fill-rule="evenodd"/>
</clipPath>
<g clip-path="url(#cp1477)">
<text fill="#333333" xml:space="preserve" transform="matrix(.7506297 0 0 .7506297 0 -26974.629)" font-size="13.33" font-family="Consolas"><tspan y="36158" x="287.76564"> </tspan></text>
</g>
<clipPath id="cp1478">
<path d="M 57.04786 70.56055 L 539.70278 70.56055 L 539.70278 783.6582 L 57.04786 783.6582 Z " fill-rule="evenodd"/>
</clipPath>
<g clip-path="url(#cp1478)">
<text fill="#333333" xml:space="preserve" transform="matrix(.7506297 0 0 .7506297 0 -26974.629)" font-size="13.33" font-family="Consolas"><tspan y="36176" x="82.59375 89.921619">  </tspan></text>
<text fill="#333333" xml:space="preserve" transform="matrix(.7506297 0 0 .7506297 0 -26974.629)" font-size="13.33" font-family="Gautami"><tspan y="36176" x="97.24948">&#x200b;</tspan></text>
<text fill="#333333" xml:space="preserve" transform="matrix(.7506297 0 0 .7506297 0 -26974.629)" font-size="13.33" font-family="Consolas" font-weight="bold"><tspan y="36176" x="97.24948 104.57735">do</tspan></text>
</g>
<clipPath id="cp1479">
<path d="M 57.04786 70.56055 L 539.70278 70.56055 L 539.70278 783.6582 L 57.04786 783.6582 Z " fill-rule="evenodd"/>
</clipPath>
<g clip-path="url(#cp1479)">
<text fill="#333333" xml:space="preserve" transform="matrix(.7506297 0 0 .7506297 0 -26974.629)" font-size="13.33" font-family="Consolas"><tspan y="36176" x="111.890628"> </tspan></text>
</g>
<clipPath id="cp1480">
<path d="M 57.04786 70.56055 L 539.70278 70.56055 L 539.70278 783.6582 L 57.04786 783.6582 Z " fill-rule="evenodd"/>
</clipPath>
<g clip-path="url(#cp1480)">
<text fill="#333333" xml:space="preserve" transform="matrix(.7506297 0 0 .7506297 0 -26974.629)" font-size="13.33" font-family="Consolas"><tspan y="36176" x="119.203128"> </tspan></text>
</g>
<clipPath id="cp1481">
<path d="M 57.04786 70.56055 L 539.70278 70.56055 L 539.70278 783.6582 L 57.04786 783.6582 Z " fill-rule="evenodd"/>
</clipPath>
<g clip-path="url(#cp1481)">
<text fill="#333333" xml:space="preserve" transform="matrix(.7506297 0 0 .7506297 0 -26974.629)" font-size="13.33" font-family="Consolas"><tspan y="36194" x="82.59375 89.921619 97.24948 104.57735 111.90521 119.23308 126.56094 133.88881 141.21668 148.54454 155.8724 163.20027 170.52814 177.856 185.18387 192.51174 199.8396">    v1 &#x003c;- eval e1</tspan></text>
</g>
<clipPath id="cp1482">
<path d="M 57.04786 70.56055 L 539.70278 70.56055 L 539.70278 783.6582 L 57.04786 783.6582 Z " fill-rule="evenodd"/>
</clipPath>
<g clip-path="url(#cp1482)">
<text fill="#333333" xml:space="preserve" transform="matrix(.7506297 0 0 .7506297 0 -26974.629)" font-size="13.33" font-family="Consolas"><tspan y="36194" x="207.15625"> </tspan></text>
</g>
<clipPath id="cp1483">
<path d="M 57.04786 70.56055 L 539.70278 70.56055 L 539.70278 783.6582 L 57.04786 783.6582 Z " fill-rule="evenodd"/>
</clipPath>
<g clip-path="url(#cp1483)">
<text fill="#333333" xml:space="preserve" transform="matrix(.7506297 0 0 .7506297 0 -26974.629)" font-size="13.33" font-family="Consolas"><tspan y="36212" x="82.59375 89.921619 97.24948 104.57735 111.90521 119.23308 126.56094 133.88881 141.21668 148.54454 155.8724 163.20027 170.52814 177.856 185.18387 192.51174 199.8396">    v2 &#x003c;- eval e2</tspan></text>
</g>
<clipPath id="cp1484">
<path d="M 57.04786 70.56055 L 539.70278 70.56055 L 539.70278 783.6582 L 57.04786 783.6582 Z " fill-rule="evenodd"/>
</clipPath>
<g clip-path="url(#cp1484)">
<text fill="#333333" xml:space="preserve" transform="matrix(.7506297 0 0 .7506297 0 -26974.629)" font-size="13.33" font-family="Consolas"><tspan y="36212" x="207.15625"> </tspan></text>
</g>
<clipPath id="cp1485">
<path d="M 57.04786 70.56055 L 539.70278 70.56055 L 539.70278 783.6582 L 57.04786 783.6582 Z " fill-rule="evenodd"/>
</clipPath>
<g clip-path="url(#cp1485)">
<text fill="#333333" xml:space="preserve" transform="matrix(.7506297 0 0 .7506297 0 -26974.629)" font-size="13.33" font-family="Consolas"><tspan y="36230" x="82.59375 89.921619 97.24948 104.57735 111.90521 119.23308 126.56094 133.88881 141.21668 148.54454 155.8724 163.20027 170.52814 177.856 185.18387 192.51174 199.8396 207.16747 214.49533 221.8232 229.15106 236.47893 243.8068 251.13466 258.46253 265.7904 273.11827 280.4461">    return (m_and (v1) (v2))</tspan></text>
</g>
<clipPath id="cp1486">
<path d="M 57.04786 70.56055 L 539.70278 70.56055 L 539.70278 783.6582 L 57.04786 783.6582 Z " fill-rule="evenodd"/>
</clipPath>
<g clip-path="url(#cp1486)">
<text fill="#333333" xml:space="preserve" transform="matrix(.7506297 0 0 .7506297 0 -26974.629)" font-size="13.33" font-family="Consolas"><tspan y="36230" x="287.76564"> </tspan></text>
</g>
<clipPath id="cp1487">
<path d="M 57.04786 70.56055 L 539.70278 70.56055 L 539.70278 783.6582 L 57.04786 783.6582 Z " fill-rule="evenodd"/>
</clipPath>
<g clip-path="url(#cp1487)">
<text fill="#990000" xml:space="preserve" transform="matrix(.7506297 0 0 .7506297 0 -26974.629)" font-size="13.33" font-family="Consolas" font-weight="bold"><tspan y="36248" x="82.59375 89.921619 97.24948 104.57735">eval</tspan></text>
<path transform="matrix(.7506297,0,0,.7506297,0,-26974.629)" d="M 0 0 L 0 0 L 0 0 L 0 0 Z " fill="#990000"/>
<text fill-opacity="0" xml:space="preserve" transform="matrix(.7506297 0 0 .7506297 0 -26974.629)" font-size="13.33" font-family="Gautami"><tspan y="36248" x="111.90521">&#x200b;</tspan></text>
<text fill="#333333" xml:space="preserve" transform="matrix(.7506297 0 0 .7506297 0 -26974.629)" font-size="13.33" font-family="Consolas"><tspan y="36248" x="111.90521 119.23308"> (</tspan></text>
<text fill="#333333" xml:space="preserve" transform="matrix(.7506297 0 0 .7506297 0 -26974.629)" font-size="13.33" font-family="Gautami"><tspan y="36248" x="126.56094">&#x200b;</tspan></text>
<text fill="#445588" xml:space="preserve" transform="matrix(.7506297 0 0 .7506297 0 -26974.629)" font-size="13.33" font-family="Consolas" font-weight="bold"><tspan y="36248" x="126.56094 133.88881 141.21668 148.54454 155.8724 163.20027 170.52814 177.856 185.18387">LogicNode</tspan></text>
<path transform="matrix(.7506297,0,0,.7506297,0,-26974.629)" d="M 0 0 L 0 0 L 0 0 L 0 0 Z " fill="#445588"/>
<text fill-opacity="0" xml:space="preserve" transform="matrix(.7506297 0 0 .7506297 0 -26974.629)" font-size="13.33" font-family="Gautami"><tspan y="36248" x="192.51174">&#x200b;</tspan></text>
<text fill="#333333" xml:space="preserve" transform="matrix(.7506297 0 0 .7506297 0 -26974.629)" font-size="13.33" font-family="Consolas"><tspan y="36248" x="192.51174"> </tspan></text>
<text fill="#333333" xml:space="preserve" transform="matrix(.7506297 0 0 .7506297 0 -26974.629)" font-size="13.33" font-family="Gautami"><tspan y="36248" x="199.8396">&#x200b;</tspan></text>
<text fill="#445588" xml:space="preserve" transform="matrix(.7506297 0 0 .7506297 0 -26974.629)" font-size="13.33" font-family="Consolas" font-weight="bold"><tspan y="36248" x="199.8396 207.16747">Or</tspan></text>
<path transform="matrix(.7506297,0,0,.7506297,0,-26974.629)" d="M 0 0 L 0 0 L 0 0 L 0 0 Z " fill="#445588"/>
<text fill-opacity="0" xml:space="preserve" transform="matrix(.7506297 0 0 .7506297 0 -26974.629)" font-size="13.33" font-family="Gautami"><tspan y="36248" x="214.49533">&#x200b;</tspan></text>
<text fill="#333333" xml:space="preserve" transform="matrix(.7506297 0 0 .7506297 0 -26974.629)" font-size="13.33" font-family="Consolas"><tspan y="36248" x="214.49533 221.8232 229.15106 236.47893 243.8068 251.13466 258.46253 265.7904 273.11827"> e1 e2) =</tspan></text>
</g>
<clipPath id="cp1488">
<path d="M 57.04786 70.56055 L 539.70278 70.56055 L 539.70278 783.6582 L 57.04786 783.6582 Z " fill-rule="evenodd"/>
</clipPath>
<g clip-path="url(#cp1488)">
<text fill="#333333" xml:space="preserve" transform="matrix(.7506297 0 0 .7506297 0 -26974.629)" font-size="13.33" font-family="Consolas"><tspan y="36248" x="280.4375"> </tspan></text>
</g>
<clipPath id="cp1489">
<path d="M 57.04786 70.56055 L 539.70278 70.56055 L 539.70278 783.6582 L 57.04786 783.6582 Z " fill-rule="evenodd"/>
</clipPath>
<g clip-path="url(#cp1489)">
<text fill="#333333" xml:space="preserve" transform="matrix(.7506297 0 0 .7506297 0 -26974.629)" font-size="13.33" font-family="Consolas"><tspan y="36266" x="82.59375 89.921619">  </tspan></text>
<text fill="#333333" xml:space="preserve" transform="matrix(.7506297 0 0 .7506297 0 -26974.629)" font-size="13.33" font-family="Gautami"><tspan y="36266" x="97.24948">&#x200b;</tspan></text>
<text fill="#333333" xml:space="preserve" transform="matrix(.7506297 0 0 .7506297 0 -26974.629)" font-size="13.33" font-family="Consolas" font-weight="bold"><tspan y="36266" x="97.24948 104.57735">do</tspan></text>
</g>
<clipPath id="cp1490">
<path d="M 57.04786 70.56055 L 539.70278 70.56055 L 539.70278 783.6582 L 57.04786 783.6582 Z " fill-rule="evenodd"/>
</clipPath>
<g clip-path="url(#cp1490)">
<text fill="#333333" xml:space="preserve" transform="matrix(.7506297 0 0 .7506297 0 -26974.629)" font-size="13.33" font-family="Consolas"><tspan y="36266" x="111.890628"> </tspan></text>
</g>
<clipPath id="cp1491">
<path d="M 57.04786 70.56055 L 539.70278 70.56055 L 539.70278 783.6582 L 57.04786 783.6582 Z " fill-rule="evenodd"/>
</clipPath>
<g clip-path="url(#cp1491)">
<text fill="#333333" xml:space="preserve" transform="matrix(.7506297 0 0 .7506297 0 -26974.629)" font-size="13.33" font-family="Consolas"><tspan y="36266" x="119.203128"> </tspan></text>
</g>
<clipPath id="cp1492">
<path d="M 57.04786 70.56055 L 539.70278 70.56055 L 539.70278 783.6582 L 57.04786 783.6582 Z " fill-rule="evenodd"/>
</clipPath>
<g clip-path="url(#cp1492)">
<text fill="#333333" xml:space="preserve" transform="matrix(.7506297 0 0 .7506297 0 -26974.629)" font-size="13.33" font-family="Consolas"><tspan y="36284" x="82.59375 89.921619 97.24948 104.57735 111.90521 119.23308 126.56094 133.88881 141.21668 148.54454 155.8724 163.20027 170.52814 177.856 185.18387 192.51174 199.8396">    v1 &#x003c;- eval e1</tspan></text>
</g>
<clipPath id="cp1493">
<path d="M 57.04786 70.56055 L 539.70278 70.56055 L 539.70278 783.6582 L 57.04786 783.6582 Z " fill-rule="evenodd"/>
</clipPath>
<g clip-path="url(#cp1493)">
<text fill="#333333" xml:space="preserve" transform="matrix(.7506297 0 0 .7506297 0 -26974.629)" font-size="13.33" font-family="Consolas"><tspan y="36284" x="207.15625"> </tspan></text>
</g>
<clipPath id="cp1494">
<path d="M 57.04786 70.56055 L 539.70278 70.56055 L 539.70278 783.6582 L 57.04786 783.6582 Z " fill-rule="evenodd"/>
</clipPath>
<g clip-path="url(#cp1494)">
<text fill="#333333" xml:space="preserve" transform="matrix(.7506297 0 0 .7506297 0 -26974.629)" font-size="13.33" font-family="Consolas"><tspan y="36302" x="82.59375 89.921619 97.24948 104.57735 111.90521 119.23308 126.56094 133.88881 141.21668 148.54454 155.8724 163.20027 170.52814 177.856 185.18387 192.51174 199.8396">    v2 &#x003c;- eval e2</tspan></text>
</g>
<clipPath id="cp1495">
<path d="M 57.04786 70.56055 L 539.70278 70.56055 L 539.70278 783.6582 L 57.04786 783.6582 Z " fill-rule="evenodd"/>
</clipPath>
<g clip-path="url(#cp1495)">
<text fill="#333333" xml:space="preserve" transform="matrix(.7506297 0 0 .7506297 0 -26974.629)" font-size="13.33" font-family="Consolas"><tspan y="36302" x="207.15625"> </tspan></text>
</g>
<clipPath id="cp1496">
<path d="M 57.04786 70.56055 L 539.70278 70.56055 L 539.70278 783.6582 L 57.04786 783.6582 Z " fill-rule="evenodd"/>
</clipPath>
<g clip-path="url(#cp1496)">
<text fill="#333333" xml:space="preserve" transform="matrix(.7506297 0 0 .7506297 0 -26974.629)" font-size="13.33" font-family="Consolas"><tspan y="36320" x="82.59375 89.921619 97.24948 104.57735 111.90521 119.23308 126.56094 133.88881 141.21668 148.54454 155.8724 163.20027 170.52814 177.856 185.18387 192.51174 199.8396 207.16747 214.49533 221.8232 229.15106 236.47893 243.8068 251.13466 258.46253 265.7904 273.11827">    return (m_or (v1) (v2))</tspan></text>
</g>
<clipPath id="cp1497">
<path d="M 57.04786 70.56055 L 539.70278 70.56055 L 539.70278 783.6582 L 57.04786 783.6582 Z " fill-rule="evenodd"/>
</clipPath>
<g clip-path="url(#cp1497)">
<text fill="#333333" xml:space="preserve" transform="matrix(.7506297 0 0 .7506297 0 -26974.629)" font-size="13.33" font-family="Consolas"><tspan y="36320" x="280.4375"> </tspan></text>
</g>
<clipPath id="cp1498">
<path d="M 57.04786 70.56055 L 539.70278 70.56055 L 539.70278 783.6582 L 57.04786 783.6582 Z " fill-rule="evenodd"/>
</clipPath>
<g clip-path="url(#cp1498)">
<text fill="#990000" xml:space="preserve" transform="matrix(.7506297 0 0 .7506297 0 -26974.629)" font-size="13.33" font-family="Consolas" font-weight="bold"><tspan y="36338" x="82.59375 89.921619 97.24948 104.57735">eval</tspan></text>
<path transform="matrix(.7506297,0,0,.7506297,0,-26974.629)" d="M 0 0 L 0 0 L 0 0 L 0 0 Z " fill="#990000"/>
<text fill-opacity="0" xml:space="preserve" transform="matrix(.7506297 0 0 .7506297 0 -26974.629)" font-size="13.33" font-family="Gautami"><tspan y="36338" x="111.90521">&#x200b;</tspan></text>
<text fill="#333333" xml:space="preserve" transform="matrix(.7506297 0 0 .7506297 0 -26974.629)" font-size="13.33" font-family="Consolas"><tspan y="36338" x="111.90521 119.23308"> (</tspan></text>
<text fill="#333333" xml:space="preserve" transform="matrix(.7506297 0 0 .7506297 0 -26974.629)" font-size="13.33" font-family="Gautami"><tspan y="36338" x="126.56094">&#x200b;</tspan></text>
<text fill="#445588" xml:space="preserve" transform="matrix(.7506297 0 0 .7506297 0 -26974.629)" font-size="13.33" font-family="Consolas" font-weight="bold"><tspan y="36338" x="126.56094 133.88881 141.21668 148.54454 155.8724 163.20027 170.52814 177.856 185.18387 192.51174 199.8396 207.16747 214.49533">UnaryBoolNode</tspan></text>
<path transform="matrix(.7506297,0,0,.7506297,0,-26974.629)" d="M 0 0 L 0 0 L 0 0 L 0 0 Z " fill="#445588"/>
<text fill-opacity="0" xml:space="preserve" transform="matrix(.7506297 0 0 .7506297 0 -26974.629)" font-size="13.33" font-family="Gautami"><tspan y="36338" x="221.8232">&#x200b;</tspan></text>
<text fill="#333333" xml:space="preserve" transform="matrix(.7506297 0 0 .7506297 0 -26974.629)" font-size="13.33" font-family="Consolas"><tspan y="36338" x="221.8232"> </tspan></text>
<text fill="#333333" xml:space="preserve" transform="matrix(.7506297 0 0 .7506297 0 -26974.629)" font-size="13.33" font-family="Gautami"><tspan y="36338" x="229.15106">&#x200b;</tspan></text>
<text fill="#445588" xml:space="preserve" transform="matrix(.7506297 0 0 .7506297 0 -26974.629)" font-size="13.33" font-family="Consolas" font-weight="bold"><tspan y="36338" x="229.15106 236.47893 243.8068">Not</tspan></text>
<path transform="matrix(.7506297,0,0,.7506297,0,-26974.629)" d="M 0 0 L 0 0 L 0 0 L 0 0 Z " fill="#445588"/>
<text fill-opacity="0" xml:space="preserve" transform="matrix(.7506297 0 0 .7506297 0 -26974.629)" font-size="13.33" font-family="Gautami"><tspan y="36338" x="251.13466">&#x200b;</tspan></text>
<text fill="#333333" xml:space="preserve" transform="matrix(.7506297 0 0 .7506297 0 -26974.629)" font-size="13.33" font-family="Consolas"><tspan y="36338" x="251.13466 258.46253 265.7904 273.11827 280.4461 287.774"> e1) =</tspan></text>
</g>
<clipPath id="cp1499">
<path d="M 57.04786 70.56055 L 539.70278 70.56055 L 539.70278 783.6582 L 57.04786 783.6582 Z " fill-rule="evenodd"/>
</clipPath>
<g clip-path="url(#cp1499)">
<text fill="#333333" xml:space="preserve" transform="matrix(.7506297 0 0 .7506297 0 -26974.629)" font-size="13.33" font-family="Consolas"><tspan y="36338" x="295.09376"> </tspan></text>
</g>
<clipPath id="cp1500">
<path d="M 57.04786 70.56055 L 539.70278 70.56055 L 539.70278 783.6582 L 57.04786 783.6582 Z " fill-rule="evenodd"/>
</clipPath>
<g clip-path="url(#cp1500)">
<text fill="#333333" xml:space="preserve" transform="matrix(.7506297 0 0 .7506297 0 -26974.629)" font-size="13.33" font-family="Consolas"><tspan y="36356" x="82.59375 89.921619">  </tspan></text>
<text fill="#333333" xml:space="preserve" transform="matrix(.7506297 0 0 .7506297 0 -26974.629)" font-size="13.33" font-family="Gautami"><tspan y="36356" x="97.24948">&#x200b;</tspan></text>
<text fill="#333333" xml:space="preserve" transform="matrix(.7506297 0 0 .7506297 0 -26974.629)" font-size="13.33" font-family="Consolas" font-weight="bold"><tspan y="36356" x="97.24948 104.57735">do</tspan></text>
</g>
<clipPath id="cp1501">
<path d="M 57.04786 70.56055 L 539.70278 70.56055 L 539.70278 783.6582 L 57.04786 783.6582 Z " fill-rule="evenodd"/>
</clipPath>
<g clip-path="url(#cp1501)">
<text fill="#333333" xml:space="preserve" transform="matrix(.7506297 0 0 .7506297 0 -26974.629)" font-size="13.33" font-family="Consolas"><tspan y="36356" x="111.890628"> </tspan></text>
</g>
<clipPath id="cp1502">
<path d="M 57.04786 70.56055 L 539.70278 70.56055 L 539.70278 783.6582 L 57.04786 783.6582 Z " fill-rule="evenodd"/>
</clipPath>
<g clip-path="url(#cp1502)">
<text fill="#333333" xml:space="preserve" transform="matrix(.7506297 0 0 .7506297 0 -26974.629)" font-size="13.33" font-family="Consolas"><tspan y="36356" x="119.203128"> </tspan></text>
</g>
<clipPath id="cp1503">
<path d="M 57.04786 70.56055 L 539.70278 70.56055 L 539.70278 783.6582 L 57.04786 783.6582 Z " fill-rule="evenodd"/>
</clipPath>
<g clip-path="url(#cp1503)">
<text fill="#333333" xml:space="preserve" transform="matrix(.7506297 0 0 .7506297 0 -26974.629)" font-size="13.33" font-family="Consolas"><tspan y="36374" x="82.59375 89.921619 97.24948 104.57735 111.90521 119.23308 126.56094 133.88881 141.21668 148.54454 155.8724 163.20027 170.52814 177.856 185.18387 192.51174 199.8396">    v1 &#x003c;- eval e1</tspan></text>
</g>
<clipPath id="cp1504">
<path d="M 57.04786 70.56055 L 539.70278 70.56055 L 539.70278 783.6582 L 57.04786 783.6582 Z " fill-rule="evenodd"/>
</clipPath>
<g clip-path="url(#cp1504)">
<text fill="#333333" xml:space="preserve" transform="matrix(.7506297 0 0 .7506297 0 -26974.629)" font-size="13.33" font-family="Consolas"><tspan y="36374" x="207.15625"> </tspan></text>
</g>
<clipPath id="cp1505">
<path d="M 57.04786 70.56055 L 539.70278 70.56055 L 539.70278 783.6582 L 57.04786 783.6582 Z " fill-rule="evenodd"/>
</clipPath>
<g clip-path="url(#cp1505)">
<text fill="#333333" xml:space="preserve" transform="matrix(.7506297 0 0 .7506297 0 -26974.629)" font-size="13.33" font-family="Consolas"><tspan y="36392" x="82.59375 89.921619 97.24948 104.57735 111.90521 119.23308 126.56094 133.88881 141.21668 148.54454 155.8724 163.20027 170.52814 177.856 185.18387 192.51174 199.8396 207.16747 214.49533 221.8232 229.15106 236.47893 243.8068">    return (m_not (v1))</tspan></text>
</g>
<clipPath id="cp1506">
<path d="M 57.04786 70.56055 L 539.70278 70.56055 L 539.70278 783.6582 L 57.04786 783.6582 Z " fill-rule="evenodd"/>
</clipPath>
<g clip-path="url(#cp1506)">
<text fill="#333333" xml:space="preserve" transform="matrix(.7506297 0 0 .7506297 0 -26974.629)" font-size="13.33" font-family="Consolas"><tspan y="36392" x="251.125"> </tspan></text>
</g>
<clipPath id="cp1507">
<path d="M 57.04786 70.56055 L 539.70278 70.56055 L 539.70278 783.6582 L 57.04786 783.6582 Z " fill-rule="evenodd"/>
</clipPath>
<g clip-path="url(#cp1507)">
<text fill="#333333" xml:space="preserve" transform="matrix(.7506297 0 0 .7506297 0 -26974.629)" font-size="13.33" font-family="Consolas"><tspan y="36410" x="82.59375"> </tspan></text>
</g>
<clipPath id="cp1508">
<path d="M 57.04786 70.56055 L 539.70278 70.56055 L 539.70278 783.6582 L 57.04786 783.6582 Z " fill-rule="evenodd"/>
</clipPath>
<g clip-path="url(#cp1508)">
<text fill="#990000" xml:space="preserve" transform="matrix(.7506297 0 0 .7506297 0 -26974.629)" font-size="13.33" font-family="Consolas" font-weight="bold"><tspan y="36428" x="82.59375 89.921619 97.24948 104.57735">eval</tspan></text>
<path transform="matrix(.7506297,0,0,.7506297,0,-26974.629)" d="M 0 0 L 0 0 L 0 0 L 0 0 Z " fill="#990000"/>
<text fill-opacity="0" xml:space="preserve" transform="matrix(.7506297 0 0 .7506297 0 -26974.629)" font-size="13.33" font-family="Gautami"><tspan y="36428" x="111.90521">&#x200b;</tspan></text>
<text fill="#333333" xml:space="preserve" transform="matrix(.7506297 0 0 .7506297 0 -26974.629)" font-size="13.33" font-family="Consolas"><tspan y="36428" x="111.90521 119.23308"> (</tspan></text>
<text fill="#333333" xml:space="preserve" transform="matrix(.7506297 0 0 .7506297 0 -26974.629)" font-size="13.33" font-family="Gautami"><tspan y="36428" x="126.56094">&#x200b;</tspan></text>
<text fill="#445588" xml:space="preserve" transform="matrix(.7506297 0 0 .7506297 0 -26974.629)" font-size="13.33" font-family="Consolas" font-weight="bold"><tspan y="36428" x="126.56094 133.88881 141.21668 148.54454 155.8724 163.20027 170.52814 177.856 185.18387 192.51174 199.8396 207.16747 214.49533 221.8232 229.15106 236.47893 243.8068 251.13466 258.46253">ArithmeticLogicNode</tspan></text>
<path transform="matrix(.7506297,0,0,.7506297,0,-26974.629)" d="M 0 0 L 0 0 L 0 0 L 0 0 Z " fill="#445588"/>
<text fill-opacity="0" xml:space="preserve" transform="matrix(.7506297 0 0 .7506297 0 -26974.629)" font-size="13.33" font-family="Gautami"><tspan y="36428" x="265.7904">&#x200b;</tspan></text>
<text fill="#333333" xml:space="preserve" transform="matrix(.7506297 0 0 .7506297 0 -26974.629)" font-size="13.33" font-family="Consolas"><tspan y="36428" x="265.7904"> </tspan></text>
<text fill="#333333" xml:space="preserve" transform="matrix(.7506297 0 0 .7506297 0 -26974.629)" font-size="13.33" font-family="Gautami"><tspan y="36428" x="273.1183">&#x200b;</tspan></text>
<text fill="#445588" xml:space="preserve" transform="matrix(.7506297 0 0 .7506297 0 -26974.629)" font-size="13.33" font-family="Consolas" font-weight="bold"><tspan y="36428" x="273.11827 280.4461 287.774 295.10188 302.42973 309.75758 317.08546">Greater</tspan></text>
<path transform="matrix(.7506297,0,0,.7506297,0,-26974.629)" d="M 0 0 L 0 0 L 0 0 L 0 0 Z " fill="#445588"/>
<text fill-opacity="0" xml:space="preserve" transform="matrix(.7506297 0 0 .7506297 0 -26974.629)" font-size="13.33" font-family="Gautami"><tspan y="36428" x="324.41334">&#x200b;</tspan></text>
<text fill="#333333" xml:space="preserve" transform="matrix(.7506297 0 0 .7506297 0 -26974.629)" font-size="13.33" font-family="Consolas"><tspan y="36428" x="324.41334 331.7412 339.06907 346.3969 353.7248 361.05268 368.38053 375.70838 383.03627"> e1 e2) =</tspan></text>
</g>
<clipPath id="cp1509">
<path d="M 57.04786 70.56055 L 539.70278 70.56055 L 539.70278 783.6582 L 57.04786 783.6582 Z " fill-rule="evenodd"/>
</clipPath>
<g clip-path="url(#cp1509)">
<text fill="#333333" xml:space="preserve" transform="matrix(.7506297 0 0 .7506297 0 -26974.629)" font-size="13.33" font-family="Consolas"><tspan y="36428" x="390.35939"> </tspan></text>
</g>
<clipPath id="cp1510">
<path d="M 57.04786 70.56055 L 539.70278 70.56055 L 539.70278 783.6582 L 57.04786 783.6582 Z " fill-rule="evenodd"/>
</clipPath>
<g clip-path="url(#cp1510)">
<text fill="#333333" xml:space="preserve" transform="matrix(.7506297 0 0 .7506297 0 -26974.629)" font-size="13.33" font-family="Consolas"><tspan y="36446" x="82.59375 89.921619">  </tspan></text>
<text fill="#333333" xml:space="preserve" transform="matrix(.7506297 0 0 .7506297 0 -26974.629)" font-size="13.33" font-family="Gautami"><tspan y="36446" x="97.24948">&#x200b;</tspan></text>
<text fill="#333333" xml:space="preserve" transform="matrix(.7506297 0 0 .7506297 0 -26974.629)" font-size="13.33" font-family="Consolas" font-weight="bold"><tspan y="36446" x="97.24948 104.57735">do</tspan></text>
</g>
<clipPath id="cp1511">
<path d="M 57.04786 70.56055 L 539.70278 70.56055 L 539.70278 783.6582 L 57.04786 783.6582 Z " fill-rule="evenodd"/>
</clipPath>
<g clip-path="url(#cp1511)">
<text fill="#333333" xml:space="preserve" transform="matrix(.7506297 0 0 .7506297 0 -26974.629)" font-size="13.33" font-family="Consolas"><tspan y="36446" x="111.890628"> </tspan></text>
</g>
<clipPath id="cp1512">
<path d="M 57.04786 70.56055 L 539.70278 70.56055 L 539.70278 783.6582 L 57.04786 783.6582 Z " fill-rule="evenodd"/>
</clipPath>
<g clip-path="url(#cp1512)">
<text fill="#333333" xml:space="preserve" transform="matrix(.7506297 0 0 .7506297 0 -26974.629)" font-size="13.33" font-family="Consolas"><tspan y="36446" x="119.203128"> </tspan></text>
</g>
<clipPath id="cp1513">
<path d="M 57.04786 70.56055 L 539.70278 70.56055 L 539.70278 783.6582 L 57.04786 783.6582 Z " fill-rule="evenodd"/>
</clipPath>
<g clip-path="url(#cp1513)">
<text fill="#333333" xml:space="preserve" transform="matrix(.7506297 0 0 .7506297 0 -26974.629)" font-size="13.33" font-family="Consolas"><tspan y="36464" x="82.59375 89.921619 97.24948 104.57735 111.90521 119.23308 126.56094 133.88881 141.21668 148.54454 155.8724 163.20027 170.52814 177.856 185.18387 192.51174 199.8396">    v1 &#x003c;- eval e1</tspan></text>
</g>
<clipPath id="cp1514">
<path d="M 57.04786 70.56055 L 539.70278 70.56055 L 539.70278 783.6582 L 57.04786 783.6582 Z " fill-rule="evenodd"/>
</clipPath>
<g clip-path="url(#cp1514)">
<text fill="#333333" xml:space="preserve" transform="matrix(.7506297 0 0 .7506297 0 -26974.629)" font-size="13.33" font-family="Consolas"><tspan y="36464" x="207.15625"> </tspan></text>
</g>
<clipPath id="cp1515">
<path d="M 57.04786 70.56055 L 539.70278 70.56055 L 539.70278 783.6582 L 57.04786 783.6582 Z " fill-rule="evenodd"/>
</clipPath>
<g clip-path="url(#cp1515)">
<text fill="#333333" xml:space="preserve" transform="matrix(.7506297 0 0 .7506297 0 -26974.629)" font-size="13.33" font-family="Consolas"><tspan y="36482" x="82.59375 89.921619 97.24948 104.57735 111.90521 119.23308 126.56094 133.88881 141.21668 148.54454 155.8724 163.20027 170.52814 177.856 185.18387 192.51174 199.8396">    v2 &#x003c;- eval e2</tspan></text>
</g>
<clipPath id="cp1516">
<path d="M 57.04786 70.56055 L 539.70278 70.56055 L 539.70278 783.6582 L 57.04786 783.6582 Z " fill-rule="evenodd"/>
</clipPath>
<g clip-path="url(#cp1516)">
<text fill="#333333" xml:space="preserve" transform="matrix(.7506297 0 0 .7506297 0 -26974.629)" font-size="13.33" font-family="Consolas"><tspan y="36482" x="207.15625"> </tspan></text>
</g>
<clipPath id="cp1517">
<path d="M 57.04786 70.56055 L 539.70278 70.56055 L 539.70278 783.6582 L 57.04786 783.6582 Z " fill-rule="evenodd"/>
</clipPath>
<g clip-path="url(#cp1517)">
<text fill="#333333" xml:space="preserve" transform="matrix(.7506297 0 0 .7506297 0 -26974.629)" font-size="13.33" font-family="Consolas"><tspan y="36500" x="82.59375 89.921619 97.24948 104.57735 111.90521 119.23308 126.56094 133.88881 141.21668 148.54454 155.8724 163.20027 170.52814 177.856 185.18387 192.51174 199.8396 207.16747 214.49533 221.8232 229.15106 236.47893 243.8068 251.13466 258.46253 265.7904 273.11827 280.4461 287.774 295.10188">    return (greater (v1) (v2))</tspan></text>
</g>
<clipPath id="cp1518">
<path d="M 57.04786 70.56055 L 539.70278 70.56055 L 539.70278 783.6582 L 57.04786 783.6582 Z " fill-rule="evenodd"/>
</clipPath>
<g clip-path="url(#cp1518)">
<text fill="#333333" xml:space="preserve" transform="matrix(.7506297 0 0 .7506297 0 -26974.629)" font-size="13.33" font-family="Consolas"><tspan y="36500" x="302.42189"> </tspan></text>
</g>
<clipPath id="cp1519">
<path d="M 57.04786 70.56055 L 539.70278 70.56055 L 539.70278 783.6582 L 57.04786 783.6582 Z " fill-rule="evenodd"/>
</clipPath>
<g clip-path="url(#cp1519)">
<text fill="#990000" xml:space="preserve" transform="matrix(.7506297 0 0 .7506297 0 -26974.629)" font-size="13.33" font-family="Consolas" font-weight="bold"><tspan y="36518" x="82.59375 89.921619 97.24948 104.57735">eval</tspan></text>
<path transform="matrix(.7506297,0,0,.7506297,0,-26974.629)" d="M 0 0 L 0 0 L 0 0 L 0 0 Z " fill="#990000"/>
<text fill-opacity="0" xml:space="preserve" transform="matrix(.7506297 0 0 .7506297 0 -26974.629)" font-size="13.33" font-family="Gautami"><tspan y="36518" x="111.90521">&#x200b;</tspan></text>
<text fill="#333333" xml:space="preserve" transform="matrix(.7506297 0 0 .7506297 0 -26974.629)" font-size="13.33" font-family="Consolas"><tspan y="36518" x="111.90521 119.23308"> (</tspan></text>
<text fill="#333333" xml:space="preserve" transform="matrix(.7506297 0 0 .7506297 0 -26974.629)" font-size="13.33" font-family="Gautami"><tspan y="36518" x="126.56094">&#x200b;</tspan></text>
<text fill="#445588" xml:space="preserve" transform="matrix(.7506297 0 0 .7506297 0 -26974.629)" font-size="13.33" font-family="Consolas" font-weight="bold"><tspan y="36518" x="126.56094 133.88881 141.21668 148.54454 155.8724 163.20027 170.52814 177.856 185.18387 192.51174 199.8396 207.16747 214.49533 221.8232 229.15106 236.47893 243.8068 251.13466 258.46253">ArithmeticLogicNode</tspan></text>
<path transform="matrix(.7506297,0,0,.7506297,0,-26974.629)" d="M 0 0 L 0 0 L 0 0 L 0 0 Z " fill="#445588"/>
<text fill-opacity="0" xml:space="preserve" transform="matrix(.7506297 0 0 .7506297 0 -26974.629)" font-size="13.33" font-family="Gautami"><tspan y="36518" x="265.7904">&#x200b;</tspan></text>
<text fill="#333333" xml:space="preserve" transform="matrix(.7506297 0 0 .7506297 0 -26974.629)" font-size="13.33" font-family="Consolas"><tspan y="36518" x="265.7904"> </tspan></text>
<text fill="#333333" xml:space="preserve" transform="matrix(.7506297 0 0 .7506297 0 -26974.629)" font-size="13.33" font-family="Gautami"><tspan y="36518" x="273.1183">&#x200b;</tspan></text>
<text fill="#445588" xml:space="preserve" transform="matrix(.7506297 0 0 .7506297 0 -26974.629)" font-size="13.33" font-family="Consolas" font-weight="bold"><tspan y="36518" x="273.11827 280.4461 287.774 295.10188 302.42973 309.75758 317.08546 324.41334 331.74119 339.06904 346.3969 353.7248">GreaterEqual</tspan></text>
<path transform="matrix(.7506297,0,0,.7506297,0,-26974.629)" d="M 0 0 L 0 0 L 0 0 L 0 0 Z " fill="#445588"/>
<text fill-opacity="0" xml:space="preserve" transform="matrix(.7506297 0 0 .7506297 0 -26974.629)" font-size="13.33" font-family="Gautami"><tspan y="36518" x="361.05265">&#x200b;</tspan></text>
<text fill="#333333" xml:space="preserve" transform="matrix(.7506297 0 0 .7506297 0 -26974.629)" font-size="13.33" font-family="Consolas"><tspan y="36518" x="361.05265 368.3805 375.70838 383.03627 390.3641 397.69197 405.01985 412.34773 419.67558"> e1 e2) =</tspan></text>
</g>
<clipPath id="cp1520">
<path d="M 57.04786 70.56055 L 539.70278 70.56055 L 539.70278 783.6582 L 57.04786 783.6582 Z " fill-rule="evenodd"/>
</clipPath>
<g clip-path="url(#cp1520)">
<text fill="#333333" xml:space="preserve" transform="matrix(.7506297 0 0 .7506297 0 -26974.629)" font-size="13.33" font-family="Consolas"><tspan y="36518" x="427"> </tspan></text>
</g>
<clipPath id="cp1521">
<path d="M 57.04786 70.56055 L 539.70278 70.56055 L 539.70278 783.6582 L 57.04786 783.6582 Z " fill-rule="evenodd"/>
</clipPath>
<g clip-path="url(#cp1521)">
<text fill="#333333" xml:space="preserve" transform="matrix(.7506297 0 0 .7506297 0 -26974.629)" font-size="13.33" font-family="Consolas"><tspan y="36536" x="82.59375 89.921619">  </tspan></text>
<text fill="#333333" xml:space="preserve" transform="matrix(.7506297 0 0 .7506297 0 -26974.629)" font-size="13.33" font-family="Gautami"><tspan y="36536" x="97.24948">&#x200b;</tspan></text>
<text fill="#333333" xml:space="preserve" transform="matrix(.7506297 0 0 .7506297 0 -26974.629)" font-size="13.33" font-family="Consolas" font-weight="bold"><tspan y="36536" x="97.24948 104.57735">do</tspan></text>
</g>
<clipPath id="cp1522">
<path d="M 57.04786 70.56055 L 539.70278 70.56055 L 539.70278 783.6582 L 57.04786 783.6582 Z " fill-rule="evenodd"/>
</clipPath>
<g clip-path="url(#cp1522)">
<text fill="#333333" xml:space="preserve" transform="matrix(.7506297 0 0 .7506297 0 -26974.629)" font-size="13.33" font-family="Consolas"><tspan y="36536" x="111.890628"> </tspan></text>
</g>
<clipPath id="cp1523">
<path d="M 57.04786 70.56055 L 539.70278 70.56055 L 539.70278 783.6582 L 57.04786 783.6582 Z " fill-rule="evenodd"/>
</clipPath>
<g clip-path="url(#cp1523)">
<text fill="#333333" xml:space="preserve" transform="matrix(.7506297 0 0 .7506297 0 -26974.629)" font-size="13.33" font-family="Consolas"><tspan y="36536" x="119.203128"> </tspan></text>
</g>
<clipPath id="cp1524">
<path d="M 57.04786 70.56055 L 539.70278 70.56055 L 539.70278 783.6582 L 57.04786 783.6582 Z " fill-rule="evenodd"/>
</clipPath>
<g clip-path="url(#cp1524)">
<text fill="#333333" xml:space="preserve" transform="matrix(.7506297 0 0 .7506297 0 -26974.629)" font-size="13.33" font-family="Consolas"><tspan y="36554" x="82.59375 89.921619 97.24948 104.57735 111.90521 119.23308 126.56094 133.88881 141.21668 148.54454 155.8724 163.20027 170.52814 177.856 185.18387 192.51174 199.8396">    v1 &#x003c;- eval e1</tspan></text>
</g>
<clipPath id="cp1525">
<path d="M 57.04786 70.56055 L 539.70278 70.56055 L 539.70278 783.6582 L 57.04786 783.6582 Z " fill-rule="evenodd"/>
</clipPath>
<g clip-path="url(#cp1525)">
<text fill="#333333" xml:space="preserve" transform="matrix(.7506297 0 0 .7506297 0 -26974.629)" font-size="13.33" font-family="Consolas"><tspan y="36554" x="207.15625"> </tspan></text>
</g>
<clipPath id="cp1526">
<path d="M 57.04786 70.56055 L 539.70278 70.56055 L 539.70278 783.6582 L 57.04786 783.6582 Z " fill-rule="evenodd"/>
</clipPath>
<g clip-path="url(#cp1526)">
<text fill="#333333" xml:space="preserve" transform="matrix(.7506297 0 0 .7506297 0 -26974.629)" font-size="13.33" font-family="Consolas"><tspan y="36572" x="82.59375 89.921619 97.24948 104.57735 111.90521 119.23308 126.56094 133.88881 141.21668 148.54454 155.8724 163.20027 170.52814 177.856 185.18387 192.51174 199.8396">    v2 &#x003c;- eval e2</tspan></text>
</g>
<clipPath id="cp1527">
<path d="M 57.04786 70.56055 L 539.70278 70.56055 L 539.70278 783.6582 L 57.04786 783.6582 Z " fill-rule="evenodd"/>
</clipPath>
<g clip-path="url(#cp1527)">
<text fill="#333333" xml:space="preserve" transform="matrix(.7506297 0 0 .7506297 0 -26974.629)" font-size="13.33" font-family="Consolas"><tspan y="36572" x="207.15625"> </tspan></text>
</g>
<clipPath id="cp1528">
<path d="M 57.04786 70.56055 L 539.70278 70.56055 L 539.70278 783.6582 L 57.04786 783.6582 Z " fill-rule="evenodd"/>
</clipPath>
<g clip-path="url(#cp1528)">
<text fill="#333333" xml:space="preserve" transform="matrix(.7506297 0 0 .7506297 0 -26974.629)" font-size="13.33" font-family="Consolas"><tspan y="36590" x="82.59375 89.921619 97.24948 104.57735 111.90521 119.23308 126.56094 133.88881 141.21668 148.54454 155.8724 163.20027 170.52814 177.856 185.18387 192.51174 199.8396 207.16747 214.49533 221.8232 229.15106 236.47893 243.8068 251.13466 258.46253 265.7904 273.11827 280.4461 287.774 295.10188 302.42973 309.75758 317.08546">    return (greater_eq (v1) (v2))</tspan></text>
</g>
<clipPath id="cp1529">
<path d="M 57.04786 70.56055 L 539.70278 70.56055 L 539.70278 783.6582 L 57.04786 783.6582 Z " fill-rule="evenodd"/>
</clipPath>
<g clip-path="url(#cp1529)">
<text fill="#333333" xml:space="preserve" transform="matrix(.7506297 0 0 .7506297 0 -26974.629)" font-size="13.33" font-family="Consolas"><tspan y="36590" x="324.40626"> </tspan></text>
</g>
<clipPath id="cp1530">
<path d="M 57.04786 70.56055 L 539.70278 70.56055 L 539.70278 783.6582 L 57.04786 783.6582 Z " fill-rule="evenodd"/>
</clipPath>
<g clip-path="url(#cp1530)">
<text fill="#333333" xml:space="preserve" transform="matrix(.7506297 0 0 .7506297 0 -26974.629)" font-size="13.33" font-family="Consolas"><tspan y="36608" x="82.59375"> </tspan></text>
</g>
<clipPath id="cp1531">
<path d="M 57.04786 70.56055 L 539.70278 70.56055 L 539.70278 783.6582 L 57.04786 783.6582 Z " fill-rule="evenodd"/>
</clipPath>
<g clip-path="url(#cp1531)">
<text fill="#990000" xml:space="preserve" transform="matrix(.7506297 0 0 .7506297 0 -26974.629)" font-size="13.33" font-family="Consolas" font-weight="bold"><tspan y="36626" x="82.59375 89.921619 97.24948 104.57735">eval</tspan></text>
<path transform="matrix(.7506297,0,0,.7506297,0,-26974.629)" d="M 0 0 L 0 0 L 0 0 L 0 0 Z " fill="#990000"/>
<text fill-opacity="0" xml:space="preserve" transform="matrix(.7506297 0 0 .7506297 0 -26974.629)" font-size="13.33" font-family="Gautami"><tspan y="36626" x="111.90521">&#x200b;</tspan></text>
<text fill="#333333" xml:space="preserve" transform="matrix(.7506297 0 0 .7506297 0 -26974.629)" font-size="13.33" font-family="Consolas"><tspan y="36626" x="111.90521 119.23308"> (</tspan></text>
<text fill="#333333" xml:space="preserve" transform="matrix(.7506297 0 0 .7506297 0 -26974.629)" font-size="13.33" font-family="Gautami"><tspan y="36626" x="126.56094">&#x200b;</tspan></text>
<text fill="#445588" xml:space="preserve" transform="matrix(.7506297 0 0 .7506297 0 -26974.629)" font-size="13.33" font-family="Consolas" font-weight="bold"><tspan y="36626" x="126.56094 133.88881 141.21668 148.54454 155.8724 163.20027 170.52814 177.856 185.18387 192.51174 199.8396 207.16747 214.49533 221.8232 229.15106 236.47893 243.8068 251.13466 258.46253">ArithmeticLogicNode</tspan></text>
<path transform="matrix(.7506297,0,0,.7506297,0,-26974.629)" d="M 0 0 L 0 0 L 0 0 L 0 0 Z " fill="#445588"/>
<text fill-opacity="0" xml:space="preserve" transform="matrix(.7506297 0 0 .7506297 0 -26974.629)" font-size="13.33" font-family="Gautami"><tspan y="36626" x="265.7904">&#x200b;</tspan></text>
<text fill="#333333" xml:space="preserve" transform="matrix(.7506297 0 0 .7506297 0 -26974.629)" font-size="13.33" font-family="Consolas"><tspan y="36626" x="265.7904"> </tspan></text>
<text fill="#333333" xml:space="preserve" transform="matrix(.7506297 0 0 .7506297 0 -26974.629)" font-size="13.33" font-family="Gautami"><tspan y="36626" x="273.1183">&#x200b;</tspan></text>
<text fill="#445588" xml:space="preserve" transform="matrix(.7506297 0 0 .7506297 0 -26974.629)" font-size="13.33" font-family="Consolas" font-weight="bold"><tspan y="36626" x="273.11827 280.4461 287.774 295.10188">Less</tspan></text>
<path transform="matrix(.7506297,0,0,.7506297,0,-26974.629)" d="M 0 0 L 0 0 L 0 0 L 0 0 Z " fill="#445588"/>
<text fill-opacity="0" xml:space="preserve" transform="matrix(.7506297 0 0 .7506297 0 -26974.629)" font-size="13.33" font-family="Gautami"><tspan y="36626" x="302.42973">&#x200b;</tspan></text>
<text fill="#333333" xml:space="preserve" transform="matrix(.7506297 0 0 .7506297 0 -26974.629)" font-size="13.33" font-family="Consolas"><tspan y="36626" x="302.42973 309.75758 317.08546 324.41334 331.74119 339.06904 346.3969 353.7248 361.05265"> e1 e2) =</tspan></text>
</g>
<clipPath id="cp1532">
<path d="M 57.04786 70.56055 L 539.70278 70.56055 L 539.70278 783.6582 L 57.04786 783.6582 Z " fill-rule="evenodd"/>
</clipPath>
<g clip-path="url(#cp1532)">
<text fill="#333333" xml:space="preserve" transform="matrix(.7506297 0 0 .7506297 0 -26974.629)" font-size="13.33" font-family="Consolas"><tspan y="36626" x="368.375"> </tspan></text>
</g>
<clipPath id="cp1533">
<path d="M 57.04786 70.56055 L 539.70278 70.56055 L 539.70278 783.6582 L 57.04786 783.6582 Z " fill-rule="evenodd"/>
</clipPath>
<g clip-path="url(#cp1533)">
<text fill="#333333" xml:space="preserve" transform="matrix(.7506297 0 0 .7506297 0 -26974.629)" font-size="13.33" font-family="Consolas"><tspan y="36644" x="82.59375 89.921619">  </tspan></text>
<text fill="#333333" xml:space="preserve" transform="matrix(.7506297 0 0 .7506297 0 -26974.629)" font-size="13.33" font-family="Gautami"><tspan y="36644" x="97.24948">&#x200b;</tspan></text>
<text fill="#333333" xml:space="preserve" transform="matrix(.7506297 0 0 .7506297 0 -26974.629)" font-size="13.33" font-family="Consolas" font-weight="bold"><tspan y="36644" x="97.24948 104.57735">do</tspan></text>
</g>
<clipPath id="cp1534">
<path d="M 57.04786 70.56055 L 539.70278 70.56055 L 539.70278 783.6582 L 57.04786 783.6582 Z " fill-rule="evenodd"/>
</clipPath>
<g clip-path="url(#cp1534)">
<text fill="#333333" xml:space="preserve" transform="matrix(.7506297 0 0 .7506297 0 -26974.629)" font-size="13.33" font-family="Consolas"><tspan y="36644" x="111.890628"> </tspan></text>
</g>
<clipPath id="cp1535">
<path d="M 57.04786 70.56055 L 539.70278 70.56055 L 539.70278 783.6582 L 57.04786 783.6582 Z " fill-rule="evenodd"/>
</clipPath>
<g clip-path="url(#cp1535)">
<text fill="#333333" xml:space="preserve" transform="matrix(.7506297 0 0 .7506297 0 -26974.629)" font-size="13.33" font-family="Consolas"><tspan y="36644" x="119.203128"> </tspan></text>
</g>
<clipPath id="cp1536">
<path d="M 57.04786 70.56055 L 539.70278 70.56055 L 539.70278 783.6582 L 57.04786 783.6582 Z " fill-rule="evenodd"/>
</clipPath>
<g clip-path="url(#cp1536)">
<text fill="#333333" xml:space="preserve" transform="matrix(.7506297 0 0 .7506297 0 -26974.629)" font-size="13.33" font-family="Consolas"><tspan y="36662" x="82.59375 89.921619 97.24948 104.57735 111.90521 119.23308 126.56094 133.88881 141.21668 148.54454 155.8724 163.20027 170.52814 177.856 185.18387 192.51174 199.8396">    v1 &#x003c;- eval e1</tspan></text>
</g>
<clipPath id="cp1537">
<path d="M 57.04786 70.56055 L 539.70278 70.56055 L 539.70278 783.6582 L 57.04786 783.6582 Z " fill-rule="evenodd"/>
</clipPath>
<g clip-path="url(#cp1537)">
<text fill="#333333" xml:space="preserve" transform="matrix(.7506297 0 0 .7506297 0 -26974.629)" font-size="13.33" font-family="Consolas"><tspan y="36662" x="207.15625"> </tspan></text>
</g>
<clipPath id="cp1538">
<path d="M 57.04786 70.56055 L 539.70278 70.56055 L 539.70278 783.6582 L 57.04786 783.6582 Z " fill-rule="evenodd"/>
</clipPath>
<g clip-path="url(#cp1538)">
<text fill="#333333" xml:space="preserve" transform="matrix(.7506297 0 0 .7506297 0 -26974.629)" font-size="13.33" font-family="Consolas"><tspan y="36680" x="82.59375 89.921619 97.24948 104.57735 111.90521 119.23308 126.56094 133.88881 141.21668 148.54454 155.8724 163.20027 170.52814 177.856 185.18387 192.51174 199.8396">    v2 &#x003c;- eval e2</tspan></text>
</g>
<clipPath id="cp1539">
<path d="M 57.04786 70.56055 L 539.70278 70.56055 L 539.70278 783.6582 L 57.04786 783.6582 Z " fill-rule="evenodd"/>
</clipPath>
<g clip-path="url(#cp1539)">
<text fill="#333333" xml:space="preserve" transform="matrix(.7506297 0 0 .7506297 0 -26974.629)" font-size="13.33" font-family="Consolas"><tspan y="36680" x="207.15625"> </tspan></text>
</g>
<clipPath id="cp1540">
<path d="M 57.04786 70.56055 L 539.70278 70.56055 L 539.70278 783.6582 L 57.04786 783.6582 Z " fill-rule="evenodd"/>
</clipPath>
<g clip-path="url(#cp1540)">
<text fill="#333333" xml:space="preserve" transform="matrix(.7506297 0 0 .7506297 0 -26974.629)" font-size="13.33" font-family="Consolas"><tspan y="36698" x="82.59375 89.921619 97.24948 104.57735 111.90521 119.23308 126.56094 133.88881 141.21668 148.54454 155.8724 163.20027 170.52814 177.856 185.18387 192.51174 199.8396 207.16747 214.49533 221.8232 229.15106 236.47893 243.8068 251.13466 258.46253 265.7904 273.11827">    return (less (v1) (v2))</tspan></text>
</g>
<clipPath id="cp1541">
<path d="M 57.04786 70.56055 L 539.70278 70.56055 L 539.70278 783.6582 L 57.04786 783.6582 Z " fill-rule="evenodd"/>
</clipPath>
<g clip-path="url(#cp1541)">
<text fill="#333333" xml:space="preserve" transform="matrix(.7506297 0 0 .7506297 0 -26974.629)" font-size="13.33" font-family="Consolas"><tspan y="36698" x="280.4375"> </tspan></text>
</g>
<clipPath id="cp1542">
<path d="M 57.04786 70.56055 L 539.70278 70.56055 L 539.70278 783.6582 L 57.04786 783.6582 Z " fill-rule="evenodd"/>
</clipPath>
<g clip-path="url(#cp1542)">
<text fill="#990000" xml:space="preserve" transform="matrix(.7506297 0 0 .7506297 0 -26974.629)" font-size="13.33" font-family="Consolas" font-weight="bold"><tspan y="36716" x="82.59375 89.921619 97.24948 104.57735">eval</tspan></text>
<path transform="matrix(.7506297,0,0,.7506297,0,-26974.629)" d="M 0 0 L 0 0 L 0 0 L 0 0 Z " fill="#990000"/>
<text fill-opacity="0" xml:space="preserve" transform="matrix(.7506297 0 0 .7506297 0 -26974.629)" font-size="13.33" font-family="Gautami"><tspan y="36716" x="111.90521">&#x200b;</tspan></text>
<text fill="#333333" xml:space="preserve" transform="matrix(.7506297 0 0 .7506297 0 -26974.629)" font-size="13.33" font-family="Consolas"><tspan y="36716" x="111.90521 119.23308"> (</tspan></text>
<text fill="#333333" xml:space="preserve" transform="matrix(.7506297 0 0 .7506297 0 -26974.629)" font-size="13.33" font-family="Gautami"><tspan y="36716" x="126.56094">&#x200b;</tspan></text>
<text fill="#445588" xml:space="preserve" transform="matrix(.7506297 0 0 .7506297 0 -26974.629)" font-size="13.33" font-family="Consolas" font-weight="bold"><tspan y="36716" x="126.56094 133.88881 141.21668 148.54454 155.8724 163.20027 170.52814 177.856 185.18387 192.51174 199.8396 207.16747 214.49533 221.8232 229.15106 236.47893 243.8068 251.13466 258.46253">ArithmeticLogicNode</tspan></text>
<path transform="matrix(.7506297,0,0,.7506297,0,-26974.629)" d="M 0 0 L 0 0 L 0 0 L 0 0 Z " fill="#445588"/>
<text fill-opacity="0" xml:space="preserve" transform="matrix(.7506297 0 0 .7506297 0 -26974.629)" font-size="13.33" font-family="Gautami"><tspan y="36716" x="265.7904">&#x200b;</tspan></text>
<text fill="#333333" xml:space="preserve" transform="matrix(.7506297 0 0 .7506297 0 -26974.629)" font-size="13.33" font-family="Consolas"><tspan y="36716" x="265.7904"> </tspan></text>
<text fill="#333333" xml:space="preserve" transform="matrix(.7506297 0 0 .7506297 0 -26974.629)" font-size="13.33" font-family="Gautami"><tspan y="36716" x="273.1183">&#x200b;</tspan></text>
<text fill="#445588" xml:space="preserve" transform="matrix(.7506297 0 0 .7506297 0 -26974.629)" font-size="13.33" font-family="Consolas" font-weight="bold"><tspan y="36716" x="273.11827 280.4461 287.774 295.10188 302.42973 309.75758 317.08546 324.41334 331.74119">LessEqual</tspan></text>
<path transform="matrix(.7506297,0,0,.7506297,0,-26974.629)" d="M 0 0 L 0 0 L 0 0 L 0 0 Z " fill="#445588"/>
<text fill-opacity="0" xml:space="preserve" transform="matrix(.7506297 0 0 .7506297 0 -26974.629)" font-size="13.33" font-family="Gautami"><tspan y="36716" x="339.06904">&#x200b;</tspan></text>
<text fill="#333333" xml:space="preserve" transform="matrix(.7506297 0 0 .7506297 0 -26974.629)" font-size="13.33" font-family="Consolas"><tspan y="36716" x="339.06904 346.3969 353.72477 361.0526 368.3805 375.70838 383.03623 390.36408 397.69197"> e1 e2) =</tspan></text>
</g>
<clipPath id="cp1543">
<path d="M 57.04786 70.56055 L 539.70278 70.56055 L 539.70278 783.6582 L 57.04786 783.6582 Z " fill-rule="evenodd"/>
</clipPath>
<g clip-path="url(#cp1543)">
<text fill="#333333" xml:space="preserve" transform="matrix(.7506297 0 0 .7506297 0 -26974.629)" font-size="13.33" font-family="Consolas"><tspan y="36716" x="405.01564"> </tspan></text>
</g>
<clipPath id="cp1544">
<path d="M 57.04786 70.56055 L 539.70278 70.56055 L 539.70278 783.6582 L 57.04786 783.6582 Z " fill-rule="evenodd"/>
</clipPath>
<g clip-path="url(#cp1544)">
<text fill="#333333" xml:space="preserve" transform="matrix(.7506297 0 0 .7506297 0 -26974.629)" font-size="13.33" font-family="Consolas"><tspan y="36734" x="82.59375 89.921619">  </tspan></text>
<text fill="#333333" xml:space="preserve" transform="matrix(.7506297 0 0 .7506297 0 -26974.629)" font-size="13.33" font-family="Gautami"><tspan y="36734" x="97.24948">&#x200b;</tspan></text>
<text fill="#333333" xml:space="preserve" transform="matrix(.7506297 0 0 .7506297 0 -26974.629)" font-size="13.33" font-family="Consolas" font-weight="bold"><tspan y="36734" x="97.24948 104.57735">do</tspan></text>
</g>
<clipPath id="cp1545">
<path d="M 57.04786 70.56055 L 539.70278 70.56055 L 539.70278 783.6582 L 57.04786 783.6582 Z " fill-rule="evenodd"/>
</clipPath>
<g clip-path="url(#cp1545)">
<text fill="#333333" xml:space="preserve" transform="matrix(.7506297 0 0 .7506297 0 -26974.629)" font-size="13.33" font-family="Consolas"><tspan y="36734" x="111.890628"> </tspan></text>
</g>
<clipPath id="cp1546">
<path d="M 57.04786 70.56055 L 539.70278 70.56055 L 539.70278 783.6582 L 57.04786 783.6582 Z " fill-rule="evenodd"/>
</clipPath>
<g clip-path="url(#cp1546)">
<text fill="#333333" xml:space="preserve" transform="matrix(.7506297 0 0 .7506297 0 -26974.629)" font-size="13.33" font-family="Consolas"><tspan y="36734" x="119.203128"> </tspan></text>
</g>
<clipPath id="cp1547">
<path d="M 57.04786 70.56055 L 539.70278 70.56055 L 539.70278 783.6582 L 57.04786 783.6582 Z " fill-rule="evenodd"/>
</clipPath>
<g clip-path="url(#cp1547)">
<text fill="#333333" xml:space="preserve" transform="matrix(.7506297 0 0 .7506297 0 -26974.629)" font-size="13.33" font-family="Consolas"><tspan y="36752" x="82.59375 89.921619 97.24948 104.57735 111.90521 119.23308 126.56094 133.88881 141.21668 148.54454 155.8724 163.20027 170.52814 177.856 185.18387 192.51174 199.8396">    v1 &#x003c;- eval e1</tspan></text>
</g>
<clipPath id="cp1548">
<path d="M 57.04786 70.56055 L 539.70278 70.56055 L 539.70278 783.6582 L 57.04786 783.6582 Z " fill-rule="evenodd"/>
</clipPath>
<g clip-path="url(#cp1548)">
<text fill="#333333" xml:space="preserve" transform="matrix(.7506297 0 0 .7506297 0 -26974.629)" font-size="13.33" font-family="Consolas"><tspan y="36752" x="207.15625"> </tspan></text>
</g>
<clipPath id="cp1549">
<path d="M 57.04786 70.56055 L 539.70278 70.56055 L 539.70278 783.6582 L 57.04786 783.6582 Z " fill-rule="evenodd"/>
</clipPath>
<g clip-path="url(#cp1549)">
<text fill="#333333" xml:space="preserve" transform="matrix(.7506297 0 0 .7506297 0 -26974.629)" font-size="13.33" font-family="Consolas"><tspan y="36770" x="82.59375 89.921619 97.24948 104.57735 111.90521 119.23308 126.56094 133.88881 141.21668 148.54454 155.8724 163.20027 170.52814 177.856 185.18387 192.51174 199.8396">    v2 &#x003c;- eval e2</tspan></text>
</g>
<clipPath id="cp1550">
<path d="M 57.04786 70.56055 L 539.70278 70.56055 L 539.70278 783.6582 L 57.04786 783.6582 Z " fill-rule="evenodd"/>
</clipPath>
<g clip-path="url(#cp1550)">
<text fill="#333333" xml:space="preserve" transform="matrix(.7506297 0 0 .7506297 0 -26974.629)" font-size="13.33" font-family="Consolas"><tspan y="36770" x="207.15625"> </tspan></text>
</g>
<clipPath id="cp1551">
<path d="M 57.04786 70.56055 L 539.70278 70.56055 L 539.70278 783.6582 L 57.04786 783.6582 Z " fill-rule="evenodd"/>
</clipPath>
<g clip-path="url(#cp1551)">
<text fill="#333333" xml:space="preserve" transform="matrix(.7506297 0 0 .7506297 0 -26974.629)" font-size="13.33" font-family="Consolas"><tspan y="36788" x="82.59375 89.921619 97.24948 104.57735 111.90521 119.23308 126.56094 133.88881 141.21668 148.54454 155.8724 163.20027 170.52814 177.856 185.18387 192.51174 199.8396 207.16747 214.49533 221.8232 229.15106 236.47893 243.8068 251.13466 258.46253 265.7904 273.11827 280.4461 287.774 295.10188">    return (less_eq (v1) (v2))</tspan></text>
</g>
<clipPath id="cp1552">
<path d="M 57.04786 70.56055 L 539.70278 70.56055 L 539.70278 783.6582 L 57.04786 783.6582 Z " fill-rule="evenodd"/>
</clipPath>
<g clip-path="url(#cp1552)">
<text fill="#333333" xml:space="preserve" transform="matrix(.7506297 0 0 .7506297 0 -26974.629)" font-size="13.33" font-family="Consolas"><tspan y="36788" x="302.42189"> </tspan></text>
</g>
<clipPath id="cp1553">
<path d="M 57.04786 70.56055 L 539.70278 70.56055 L 539.70278 783.6582 L 57.04786 783.6582 Z " fill-rule="evenodd"/>
</clipPath>
<g clip-path="url(#cp1553)">
<text fill="#333333" xml:space="preserve" transform="matrix(.7506297 0 0 .7506297 0 -26974.629)" font-size="13.33" font-family="Consolas"><tspan y="36806" x="82.59375"> </tspan></text>
</g>
<clipPath id="cp1554">
<path d="M 57.04786 70.56055 L 539.70278 70.56055 L 539.70278 783.6582 L 57.04786 783.6582 Z " fill-rule="evenodd"/>
</clipPath>
<g clip-path="url(#cp1554)">
<text fill="#990000" xml:space="preserve" transform="matrix(.7506297 0 0 .7506297 0 -26974.629)" font-size="13.33" font-family="Consolas" font-weight="bold"><tspan y="36824" x="82.59375 89.921619 97.24948 104.57735">eval</tspan></text>
<path transform="matrix(.7506297,0,0,.7506297,0,-26974.629)" d="M 0 0 L 0 0 L 0 0 L 0 0 Z " fill="#990000"/>
<text fill-opacity="0" xml:space="preserve" transform="matrix(.7506297 0 0 .7506297 0 -26974.629)" font-size="13.33" font-family="Gautami"><tspan y="36824" x="111.90521">&#x200b;</tspan></text>
<text fill="#333333" xml:space="preserve" transform="matrix(.7506297 0 0 .7506297 0 -26974.629)" font-size="13.33" font-family="Consolas"><tspan y="36824" x="111.90521 119.23308"> (</tspan></text>
<text fill="#333333" xml:space="preserve" transform="matrix(.7506297 0 0 .7506297 0 -26974.629)" font-size="13.33" font-family="Gautami"><tspan y="36824" x="126.56094">&#x200b;</tspan></text>
<text fill="#445588" xml:space="preserve" transform="matrix(.7506297 0 0 .7506297 0 -26974.629)" font-size="13.33" font-family="Consolas" font-weight="bold"><tspan y="36824" x="126.56094 133.88881 141.21668 148.54454 155.8724 163.20027 170.52814 177.856 185.18387 192.51174 199.8396 207.16747 214.49533 221.8232 229.15106 236.47893 243.8068 251.13466 258.46253">ArithmeticLogicNode</tspan></text>
<path transform="matrix(.7506297,0,0,.7506297,0,-26974.629)" d="M 0 0 L 0 0 L 0 0 L 0 0 Z " fill="#445588"/>
<text fill-opacity="0" xml:space="preserve" transform="matrix(.7506297 0 0 .7506297 0 -26974.629)" font-size="13.33" font-family="Gautami"><tspan y="36824" x="265.7904">&#x200b;</tspan></text>
<text fill="#333333" xml:space="preserve" transform="matrix(.7506297 0 0 .7506297 0 -26974.629)" font-size="13.33" font-family="Consolas"><tspan y="36824" x="265.7904"> </tspan></text>
<text fill="#333333" xml:space="preserve" transform="matrix(.7506297 0 0 .7506297 0 -26974.629)" font-size="13.33" font-family="Gautami"><tspan y="36824" x="273.1183">&#x200b;</tspan></text>
<text fill="#445588" xml:space="preserve" transform="matrix(.7506297 0 0 .7506297 0 -26974.629)" font-size="13.33" font-family="Consolas" font-weight="bold"><tspan y="36824" x="273.11827 280.4461 287.774 295.10188 302.42973">Equal</tspan></text>
<path transform="matrix(.7506297,0,0,.7506297,0,-26974.629)" d="M 0 0 L 0 0 L 0 0 L 0 0 Z " fill="#445588"/>
<text fill-opacity="0" xml:space="preserve" transform="matrix(.7506297 0 0 .7506297 0 -26974.629)" font-size="13.33" font-family="Gautami"><tspan y="36824" x="309.75758">&#x200b;</tspan></text>
<text fill="#333333" xml:space="preserve" transform="matrix(.7506297 0 0 .7506297 0 -26974.629)" font-size="13.33" font-family="Consolas"><tspan y="36824" x="309.75758 317.08546 324.4133 331.74116 339.06904 346.3969 353.72477 361.0526 368.3805"> e1 e2) =</tspan></text>
</g>
<clipPath id="cp1555">
<path d="M 57.04786 70.56055 L 539.70278 70.56055 L 539.70278 783.6582 L 57.04786 783.6582 Z " fill-rule="evenodd"/>
</clipPath>
<g clip-path="url(#cp1555)">
<text fill="#333333" xml:space="preserve" transform="matrix(.7506297 0 0 .7506297 0 -26974.629)" font-size="13.33" font-family="Consolas"><tspan y="36824" x="375.70314"> </tspan></text>
</g>
<clipPath id="cp1556">
<path d="M 57.04786 70.56055 L 539.70278 70.56055 L 539.70278 783.6582 L 57.04786 783.6582 Z " fill-rule="evenodd"/>
</clipPath>
<g clip-path="url(#cp1556)">
<text fill="#333333" xml:space="preserve" transform="matrix(.7506297 0 0 .7506297 0 -26974.629)" font-size="13.33" font-family="Consolas"><tspan y="36842" x="82.59375 89.921619">  </tspan></text>
<text fill="#333333" xml:space="preserve" transform="matrix(.7506297 0 0 .7506297 0 -26974.629)" font-size="13.33" font-family="Gautami"><tspan y="36842" x="97.24948">&#x200b;</tspan></text>
<text fill="#333333" xml:space="preserve" transform="matrix(.7506297 0 0 .7506297 0 -26974.629)" font-size="13.33" font-family="Consolas" font-weight="bold"><tspan y="36842" x="97.24948 104.57735">do</tspan></text>
</g>
<clipPath id="cp1557">
<path d="M 57.04786 70.56055 L 539.70278 70.56055 L 539.70278 783.6582 L 57.04786 783.6582 Z " fill-rule="evenodd"/>
</clipPath>
<g clip-path="url(#cp1557)">
<text fill="#333333" xml:space="preserve" transform="matrix(.7506297 0 0 .7506297 0 -26974.629)" font-size="13.33" font-family="Consolas"><tspan y="36842" x="111.890628"> </tspan></text>
</g>
<clipPath id="cp1558">
<path d="M 57.04786 70.56055 L 539.70278 70.56055 L 539.70278 783.6582 L 57.04786 783.6582 Z " fill-rule="evenodd"/>
</clipPath>
<g clip-path="url(#cp1558)">
<text fill="#333333" xml:space="preserve" transform="matrix(.7506297 0 0 .7506297 0 -26974.629)" font-size="13.33" font-family="Consolas"><tspan y="36842" x="119.203128"> </tspan></text>
</g>
<clipPath id="cp1559">
<path d="M 57.04786 70.56055 L 539.70278 70.56055 L 539.70278 783.6582 L 57.04786 783.6582 Z " fill-rule="evenodd"/>
</clipPath>
<g clip-path="url(#cp1559)">
<text fill="#333333" xml:space="preserve" transform="matrix(.7506297 0 0 .7506297 0 -26974.629)" font-size="13.33" font-family="Consolas"><tspan y="36860" x="82.59375 89.921619 97.24948 104.57735 111.90521 119.23308 126.56094 133.88881 141.21668 148.54454 155.8724 163.20027 170.52814 177.856 185.18387 192.51174 199.8396">    v1 &#x003c;- eval e1</tspan></text>
</g>
<clipPath id="cp1560">
<path d="M 57.04786 70.56055 L 539.70278 70.56055 L 539.70278 783.6582 L 57.04786 783.6582 Z " fill-rule="evenodd"/>
</clipPath>
<g clip-path="url(#cp1560)">
<text fill="#333333" xml:space="preserve" transform="matrix(.7506297 0 0 .7506297 0 -26974.629)" font-size="13.33" font-family="Consolas"><tspan y="36860" x="207.15625"> </tspan></text>
</g>
<clipPath id="cp1561">
<path d="M 57.04786 70.56055 L 539.70278 70.56055 L 539.70278 783.6582 L 57.04786 783.6582 Z " fill-rule="evenodd"/>
</clipPath>
<g clip-path="url(#cp1561)">
<text fill="#333333" xml:space="preserve" transform="matrix(.7506297 0 0 .7506297 0 -26974.629)" font-size="13.33" font-family="Consolas"><tspan y="36878" x="82.59375 89.921619 97.24948 104.57735 111.90521 119.23308 126.56094 133.88881 141.21668 148.54454 155.8724 163.20027 170.52814 177.856 185.18387 192.51174 199.8396">    v2 &#x003c;- eval e2</tspan></text>
</g>
<clipPath id="cp1562">
<path d="M 57.04786 70.56055 L 539.70278 70.56055 L 539.70278 783.6582 L 57.04786 783.6582 Z " fill-rule="evenodd"/>
</clipPath>
<g clip-path="url(#cp1562)">
<text fill="#333333" xml:space="preserve" transform="matrix(.7506297 0 0 .7506297 0 -26974.629)" font-size="13.33" font-family="Consolas"><tspan y="36878" x="207.15625"> </tspan></text>
</g>
<clipPath id="cp1563">
<path d="M 57.04786 70.56055 L 539.70278 70.56055 L 539.70278 783.6582 L 57.04786 783.6582 Z " fill-rule="evenodd"/>
</clipPath>
<g clip-path="url(#cp1563)">
<text fill="#333333" xml:space="preserve" transform="matrix(.7506297 0 0 .7506297 0 -26974.629)" font-size="13.33" font-family="Consolas"><tspan y="36896" x="82.59375 89.921619 97.24948 104.57735 111.90521 119.23308 126.56094 133.88881 141.21668 148.54454 155.8724 163.20027 170.52814 177.856 185.18387 192.51174 199.8396 207.16747 214.49533 221.8232 229.15106 236.47893 243.8068 251.13466 258.46253">    return (eq (v1) (v2))</tspan></text>
</g>
<clipPath id="cp1564">
<path d="M 57.04786 70.56055 L 539.70278 70.56055 L 539.70278 783.6582 L 57.04786 783.6582 Z " fill-rule="evenodd"/>
</clipPath>
<g clip-path="url(#cp1564)">
<text fill="#333333" xml:space="preserve" transform="matrix(.7506297 0 0 .7506297 0 -26974.629)" font-size="13.33" font-family="Consolas"><tspan y="36896" x="265.78126"> </tspan></text>
</g>
<clipPath id="cp1565">
<path d="M 57.04786 70.56055 L 539.70278 70.56055 L 539.70278 783.6582 L 57.04786 783.6582 Z " fill-rule="evenodd"/>
</clipPath>
<g clip-path="url(#cp1565)">
<text fill="#990000" xml:space="preserve" transform="matrix(.7506297 0 0 .7506297 0 -26974.629)" font-size="13.33" font-family="Consolas" font-weight="bold"><tspan y="36914" x="82.59375 89.921619 97.24948 104.57735">eval</tspan></text>
<path transform="matrix(.7506297,0,0,.7506297,0,-26974.629)" d="M 0 0 L 0 0 L 0 0 L 0 0 Z " fill="#990000"/>
<text fill-opacity="0" xml:space="preserve" transform="matrix(.7506297 0 0 .7506297 0 -26974.629)" font-size="13.33" font-family="Gautami"><tspan y="36914" x="111.90521">&#x200b;</tspan></text>
<text fill="#333333" xml:space="preserve" transform="matrix(.7506297 0 0 .7506297 0 -26974.629)" font-size="13.33" font-family="Consolas"><tspan y="36914" x="111.90521 119.23308"> (</tspan></text>
<text fill="#333333" xml:space="preserve" transform="matrix(.7506297 0 0 .7506297 0 -26974.629)" font-size="13.33" font-family="Gautami"><tspan y="36914" x="126.56094">&#x200b;</tspan></text>
<text fill="#445588" xml:space="preserve" transform="matrix(.7506297 0 0 .7506297 0 -26974.629)" font-size="13.33" font-family="Consolas" font-weight="bold"><tspan y="36914" x="126.56094 133.88881 141.21668 148.54454 155.8724 163.20027 170.52814 177.856 185.18387 192.51174 199.8396 207.16747 214.49533 221.8232 229.15106 236.47893 243.8068 251.13466 258.46253">ArithmeticLogicNode</tspan></text>
<path transform="matrix(.7506297,0,0,.7506297,0,-26974.629)" d="M 0 0 L 0 0 L 0 0 L 0 0 Z " fill="#445588"/>
<text fill-opacity="0" xml:space="preserve" transform="matrix(.7506297 0 0 .7506297 0 -26974.629)" font-size="13.33" font-family="Gautami"><tspan y="36914" x="265.7904">&#x200b;</tspan></text>
<text fill="#333333" xml:space="preserve" transform="matrix(.7506297 0 0 .7506297 0 -26974.629)" font-size="13.33" font-family="Consolas"><tspan y="36914" x="265.7904"> </tspan></text>
<text fill="#333333" xml:space="preserve" transform="matrix(.7506297 0 0 .7506297 0 -26974.629)" font-size="13.33" font-family="Gautami"><tspan y="36914" x="273.1183">&#x200b;</tspan></text>
<text fill="#445588" xml:space="preserve" transform="matrix(.7506297 0 0 .7506297 0 -26974.629)" font-size="13.33" font-family="Consolas" font-weight="bold"><tspan y="36914" x="273.11827 280.4461 287.774 295.10188 302.42973 309.75758 317.08546 324.41334">NotEqual</tspan></text>
<path transform="matrix(.7506297,0,0,.7506297,0,-26974.629)" d="M 0 0 L 0 0 L 0 0 L 0 0 Z " fill="#445588"/>
<text fill-opacity="0" xml:space="preserve" transform="matrix(.7506297 0 0 .7506297 0 -26974.629)" font-size="13.33" font-family="Gautami"><tspan y="36914" x="331.74119">&#x200b;</tspan></text>
<text fill="#333333" xml:space="preserve" transform="matrix(.7506297 0 0 .7506297 0 -26974.629)" font-size="13.33" font-family="Consolas"><tspan y="36914" x="331.74119 339.06904 346.3969 353.7248 361.05265 368.3805 375.70838 383.03627 390.3641"> e1 e2) =</tspan></text>
</g>
<clipPath id="cp1566">
<path d="M 57.04786 70.56055 L 539.70278 70.56055 L 539.70278 783.6582 L 57.04786 783.6582 Z " fill-rule="evenodd"/>
</clipPath>
<g clip-path="url(#cp1566)">
<text fill="#333333" xml:space="preserve" transform="matrix(.7506297 0 0 .7506297 0 -26974.629)" font-size="13.33" font-family="Consolas"><tspan y="36914" x="397.6875"> </tspan></text>
</g>
<clipPath id="cp1567">
<path d="M 57.04786 70.56055 L 539.70278 70.56055 L 539.70278 783.6582 L 57.04786 783.6582 Z " fill-rule="evenodd"/>
</clipPath>
<g clip-path="url(#cp1567)">
<text fill="#333333" xml:space="preserve" transform="matrix(.7506297 0 0 .7506297 0 -26974.629)" font-size="13.33" font-family="Consolas"><tspan y="36932" x="82.59375 89.921619">  </tspan></text>
<text fill="#333333" xml:space="preserve" transform="matrix(.7506297 0 0 .7506297 0 -26974.629)" font-size="13.33" font-family="Gautami"><tspan y="36932" x="97.24948">&#x200b;</tspan></text>
<text fill="#333333" xml:space="preserve" transform="matrix(.7506297 0 0 .7506297 0 -26974.629)" font-size="13.33" font-family="Consolas" font-weight="bold"><tspan y="36932" x="97.24948 104.57735">do</tspan></text>
</g>
<clipPath id="cp1568">
<path d="M 57.04786 70.56055 L 539.70278 70.56055 L 539.70278 783.6582 L 57.04786 783.6582 Z " fill-rule="evenodd"/>
</clipPath>
<g clip-path="url(#cp1568)">
<text fill="#333333" xml:space="preserve" transform="matrix(.7506297 0 0 .7506297 0 -26974.629)" font-size="13.33" font-family="Consolas"><tspan y="36932" x="111.890628"> </tspan></text>
</g>
<clipPath id="cp1569">
<path d="M 57.04786 70.56055 L 539.70278 70.56055 L 539.70278 783.6582 L 57.04786 783.6582 Z " fill-rule="evenodd"/>
</clipPath>
<g clip-path="url(#cp1569)">
<text fill="#333333" xml:space="preserve" transform="matrix(.7506297 0 0 .7506297 0 -26974.629)" font-size="13.33" font-family="Consolas"><tspan y="36932" x="119.203128"> </tspan></text>
</g>
<clipPath id="cp1570">
<path d="M 57.04786 70.56055 L 539.70278 70.56055 L 539.70278 783.6582 L 57.04786 783.6582 Z " fill-rule="evenodd"/>
</clipPath>
<g clip-path="url(#cp1570)">
<text fill="#333333" xml:space="preserve" transform="matrix(.7506297 0 0 .7506297 0 -26974.629)" font-size="13.33" font-family="Consolas"><tspan y="36950" x="82.59375 89.921619 97.24948 104.57735 111.90521 119.23308 126.56094 133.88881 141.21668 148.54454 155.8724 163.20027 170.52814 177.856 185.18387 192.51174 199.8396">    v1 &#x003c;- eval e1</tspan></text>
</g>
<clipPath id="cp1571">
<path d="M 57.04786 70.56055 L 539.70278 70.56055 L 539.70278 783.6582 L 57.04786 783.6582 Z " fill-rule="evenodd"/>
</clipPath>
<g clip-path="url(#cp1571)">
<text fill="#333333" xml:space="preserve" transform="matrix(.7506297 0 0 .7506297 0 -26974.629)" font-size="13.33" font-family="Consolas"><tspan y="36950" x="207.15625"> </tspan></text>
</g>
<clipPath id="cp1572">
<path d="M 57.04786 70.56055 L 539.70278 70.56055 L 539.70278 783.6582 L 57.04786 783.6582 Z " fill-rule="evenodd"/>
</clipPath>
<g clip-path="url(#cp1572)">
<text fill="#333333" xml:space="preserve" transform="matrix(.7506297 0 0 .7506297 0 -26974.629)" font-size="13.33" font-family="Consolas"><tspan y="36968" x="82.59375 89.921619 97.24948 104.57735 111.90521 119.23308 126.56094 133.88881 141.21668 148.54454 155.8724 163.20027 170.52814 177.856 185.18387 192.51174 199.8396">    v2 &#x003c;- eval e2</tspan></text>
</g>
<clipPath id="cp1573">
<path d="M 57.04786 70.56055 L 539.70278 70.56055 L 539.70278 783.6582 L 57.04786 783.6582 Z " fill-rule="evenodd"/>
</clipPath>
<g clip-path="url(#cp1573)">
<text fill="#333333" xml:space="preserve" transform="matrix(.7506297 0 0 .7506297 0 -26974.629)" font-size="13.33" font-family="Consolas"><tspan y="36968" x="207.15625"> </tspan></text>
</g>
<clipPath id="cp1574">
<path d="M 0 0 L 596 0 L 596 842.95706 L 0 842.95706 Z " fill-rule="evenodd"/>
</clipPath>
<g clip-path="url(#cp1574)">
<text xml:space="preserve" transform="matrix(.7506297 0 0 .7506297 0 -26974.629)" font-size="16" font-family="TimesNewRomanPS" font-style="italic"><tspan y="37005" x="75.59375 79.59375 83.59375 87.59375 91.59375 95.59375 99.59375 103.59375 107.59375 111.59375 115.59375 119.59375 123.59375">             </tspan></text>
<text xml:space="preserve" transform="matrix(.7506297 0 -.18765743 .7506297 0 -26974.629)" font-size="16" font-family="Gautami"><tspan y="37005" x="9378.844">&#x200b;</tspan></text>
<text xml:space="preserve" transform="matrix(.7506297 0 0 .7506297 0 -26974.629)" font-size="16" font-family="TimesNewRomanPSMT"><tspan y="37005" x="127.59375 131.59375 139.59375"> 33</tspan></text>
<text xml:space="preserve" transform="matrix(.7506297 0 0 .7506297 0 -26974.629)" font-size="16" font-family="TimesNewRomanPSMT"><tspan y="37005" x="147.59375"> </tspan></text>
</g>
</g>
</svg>
