<?xml version="1.0" encoding="UTF-8" standalone="no"?>
<!DOCTYPE svg PUBLIC "-//W3C//DTD SVG 1.1//EN" "http://www.w3.org/Graphics/SVG/1.1/DTD/svg11.dtd">
<svg xmlns="http://www.w3.org/2000/svg" xmlns:xlink="http://www.w3.org/1999/xlink" version="1.1" width="596pt" height="843pt" viewBox="0 0 596 843">
<g enable-background="new">
<clipPath id="cp200">
<path d="M 0 0 L 596 0 L 596 842.95706 L 0 842.95706 Z " fill-rule="evenodd"/>
</clipPath>
<g clip-path="url(#cp200)">
<path transform="matrix(.7506297,0,0,.7506297,0,-8429.572)" d="M 0 11230 L 794 11230 L 794 12353 L 0 12353 Z " fill="#ffffff"/>
<path transform="matrix(.7506297,0,0,.7506297,0,-8429.572)" d="M 0 11230 L 794 11230 L 794 12353 L 0 12353 Z " fill="#ffffff"/>
<path transform="matrix(.7506297,0,0,.7506297,0,-8429.572)" d="M 0 0 L 794 0 L 794 44920 L 0 44920 Z " fill="#ffffff"/>
<path transform="matrix(.7506297,0,0,.7506297,0,-8429.572)" d="M 0 11230 L 794 11230 L 794 12353 L 0 12353 Z " fill="#ffffff"/>
<path transform="matrix(.7506297,0,0,.7506297,0,-8429.572)" d="M 0 11324 L 794 11324 L 794 12353 L 0 12353 Z " fill="#ffffff"/>
<text xml:space="preserve" transform="matrix(.7506297 0 0 .7506297 0 -8429.572)" font-size="32" font-family="TimesNewRomanPS" font-weight="bold"><tspan y="11374" x="75.59375 98.697757 116.48975 141.38576 164.48976 172.48976 193.83377 209.83377 227.62578 243.62578 261.4178 277.4178 293.4178">CSKN Language</tspan></text>
<text xml:space="preserve" transform="matrix(.7506297 0 0 .7506297 0 -8429.572)" font-size="32" font-family="TimesNewRomanPS" font-weight="bold"><tspan y="11374" x="307.64064"> </tspan></text>
<text xml:space="preserve" transform="matrix(.7506297 0 0 .7506297 0 -8429.572)" font-size="21.33" font-family="TimesNewRomanPS" font-weight="bold"><tspan y="11432" x="75.59375 89.81944 100.483509 112.3452 123.00926 134.87096 145.53502 156.19908 165.66553 170.99756 182.85926 192.3257 200.62577 210.09221 219.55866 225.4843 237.346 244.44843 250.37407 261.03816">Language description</tspan></text>
<text xml:space="preserve" transform="matrix(.7506297 0 0 .7506297 0 -8429.572)" font-size="21.33" font-family="TimesNewRomanPS" font-weight="bold"><tspan y="11432" x="272.89064"> </tspan></text>
<text xml:space="preserve" transform="matrix(.7506297 0 0 .7506297 0 -8429.572)" font-size="16" font-family="TimesNewRomanPSMT"><tspan y="11464" x="75.59375 85.36975 93.36975 100.473758 104.473758 115.14575 124.041759 135.59375 147.14575 151.14575 155.59375 162.69776 170.69776 178.69776 186.69776 193.80176 201.80176 208.90576 212.90576 217.35376 223.57776 227.57776 234.68177 242.68177 246.68177 253.78577 260.88978 268.88978 275.99378 281.32179 285.32179 289.76979 302.21778 310.21778 317.32179 322.64979 329.75379 334.20179 338.64979 346.64979 353.75379 357.75379 365.75379 371.0818 379.0818 387.0818 392.4098 399.5138 411.9618 424.4098 428.8578 436.8578 444.8578 448.8578 453.3058 460.4098 468.4098 476.4098 484.4098 491.5138 499.5138 506.6178 510.6178 517.7218 525.7218 538.1698 546.1698 554.1698 560.3938 567.4978 575.4978 579.4978 587.4978 595.4978 599.4978 604.8258 611.9298 623.4818 627.4818 634.5858 642.5858 655.0338 667.4818 675.4818 683.4818 687.9298">The CSKN language is an eager imperative programming language composed by few commonly</tspan></text>
<text xml:space="preserve" transform="matrix(.7506297 0 0 .7506297 0 -8429.572)" font-size="16" font-family="TimesNewRomanPSMT"><tspan y="11464" x="695.8594"> </tspan></text>
<text xml:space="preserve" transform="matrix(.7506297 0 0 .7506297 0 -8429.572)" font-size="16" font-family="TimesNewRomanPSMT"><tspan y="11486" x="75.59375 83.59375 89.81775 96.92175 104.92175 108.92175 116.02576 124.02576 136.47376 148.92176 156.02576 164.02576 172.02576 178.24976">used commands.</tspan></text>
<text xml:space="preserve" transform="matrix(.7506297 0 0 .7506297 0 -8429.572)" font-size="16" font-family="TimesNewRomanPSMT"><tspan y="11486" x="182.23438"> </tspan></text>
<text xml:space="preserve" transform="matrix(.7506297 0 0 .7506297 0 -8429.572)" font-size="16" font-family="TimesNewRomanPSMT"><tspan y="11486" x="186.23438"> </tspan></text>
<text xml:space="preserve" transform="matrix(.7506297 0 0 .7506297 0 -8429.572)" font-size="16" font-family="TimesNewRomanPSMT"><tspan y="11508" x="75.59375 84.48975 92.48975 99.59376 106.69776 111.14576 116.47376 120.92176 128.02576 135.12976 139.57776 144.02576 152.02576 156.02576">Specifically :</tspan></text>
<text xml:space="preserve" transform="matrix(.7506297 0 0 .7506297 0 -8429.572)" font-size="16" font-family="TimesNewRomanPSMT"><tspan y="11508" x="160.45313"> </tspan></text>
<text xml:space="preserve" transform="matrix(.7506297 0 0 .7506297 0 -8429.572)" font-size="16" font-family="ArialMT"><tspan y="11530" x="99.59375">&#x25cf;</tspan></text>
<text xml:space="preserve" transform="matrix(.7506297 0 0 .7506297 0 -8429.572)" font-size="16" font-family="TimesNewRomanPS" font-weight="bold"><tspan y="11530" x="123.59375 132.48975 139.59375 148.48975 157.38574 164.48975 173.38574 180.48975 184.93775 193.83374">Sequencing</tspan></text>
<path transform="matrix(.7506297,0,0,.7506297,0,-8429.572)" d="M 0 0 L 0 0 L 0 0 L 0 0 Z "/>
<text fill-opacity="0" xml:space="preserve" transform="matrix(.7506297 0 0 .7506297 0 -8429.572)" font-size="16" font-family="Gautami"><tspan y="11530" x="201.83594">&#x200b;</tspan></text>
<text xml:space="preserve" transform="matrix(.7506297 0 0 .7506297 0 -8429.572)" font-size="16" font-family="TimesNewRomanPSMT"><tspan y="11530" x="201.83594 206.28394 210.28394 217.38794 225.38794 232.49195 239.59595 247.59595 252.04395 259.14796 265.37196 269.37196 275.59596 280.04396 287.14796 291.59596 298.69996 311.14796 318.25196 326.25196 330.69996 336.92396 340.92396 345.37196 353.37196 357.37196 363.59596 370.69996 378.69996 386.69996 393.80397 401.80397 408.90797 416.01197">: executes statements in sequence;</tspan></text>
<text xml:space="preserve" transform="matrix(.7506297 0 0 .7506297 0 -8429.572)" font-size="16" font-family="TimesNewRomanPSMT"><tspan y="11530" x="420.42189"> </tspan></text>
<text xml:space="preserve" transform="matrix(.7506297 0 0 .7506297 0 -8429.572)" font-size="16" font-family="ArialMT"><tspan y="11552" x="99.59375">&#x25cf;</tspan></text>
<text xml:space="preserve" transform="matrix(.7506297 0 0 .7506297 0 -8429.572)" font-size="16" font-family="TimesNewRomanPS" font-weight="bold"><tspan y="11552" x="123.59375 135.14575 141.36975 147.59375 152.04175 160.04175 168.93775 182.26575 189.36975 198.26575">Assignment</tspan></text>
<path transform="matrix(.7506297,0,0,.7506297,0,-8429.572)" d="M 0 0 L 0 0 L 0 0 L 0 0 Z "/>
<text fill-opacity="0" xml:space="preserve" transform="matrix(.7506297 0 0 .7506297 0 -8429.572)" font-size="16" font-family="Gautami"><tspan y="11552" x="203.60157">&#x200b;</tspan></text>
<text xml:space="preserve" transform="matrix(.7506297 0 0 .7506297 0 -8429.572)" font-size="16" font-family="TimesNewRomanPSMT"><tspan y="11552" x="203.60157 208.04956 212.04956 216.49756 224.49756 230.72156 235.16956 240.49756 248.49756 255.60157 260.04957 264.49757 272.49757 280.49757 284.49757 288.94557 296.94557 304.04957 308.49757 312.49757 319.60157 325.82557 332.04957 336.49757 344.49757 352.49757 356.49757 363.60157 367.60157 375.60157 382.70558 387.15357 395.15357 402.25758 406.25758 410.70558 418.70558 422.70558 429.80958 433.80958 441.80958 448.91358 454.24159 458.68959 465.79359 473.79359 478.24159 485.34559 489.34559 493.79359 501.79359 508.89759 513.3456 517.3456 521.7936 528.0176 532.0176 539.1216 546.2256 550.6736 557.7776 565.7776 570.2256 577.3296 581.7776 588.8816 596.8816 600.8816 605.3296 610.6576 614.6576 619.1056 623.5536 627.5536 632.0016 638.2256 642.2256 653.7776 659.1056 663.5536 668.0016 672.4496 679.5536 687.5536 691.5536 699.5536">: instruction that assign a value to a variable that is calculated if it is written by</tspan></text>
<text xml:space="preserve" transform="matrix(.7506297 0 0 .7506297 0 -8429.572)" font-size="16" font-family="TimesNewRomanPSMT"><tspan y="11552" x="707.4531"> </tspan></text>
<text xml:space="preserve" transform="matrix(.7506297 0 0 .7506297 0 -8429.572)" font-size="16" font-family="TimesNewRomanPSMT"><tspan y="11574" x="123.59375 130.69776 138.69776 142.69776 149.80176 157.80176 165.80176 171.12976 178.23377 184.45777 190.68177 195.12976 203.12976 211.12976">an expression;</tspan></text>
<text xml:space="preserve" transform="matrix(.7506297 0 0 .7506297 0 -8429.572)" font-size="16" font-family="TimesNewRomanPSMT"><tspan y="11574" x="215.5625"> </tspan></text>
<text xml:space="preserve" transform="matrix(.7506297 0 0 .7506297 0 -8429.572)" font-size="16" font-family="ArialMT"><tspan y="11596" x="99.59375">&#x25cf;</tspan></text>
<text xml:space="preserve" transform="matrix(.7506297 0 0 .7506297 0 -8429.572)" font-size="16" font-family="TimesNewRomanPS" font-weight="bold"><tspan y="11596" x="123.59375 135.14575 143.14575 152.04175 160.93775 165.38574 170.71375 175.16175 183.16175 192.05774 200.05774">Conditional</tspan></text>
<path transform="matrix(.7506297,0,0,.7506297,0,-8429.572)" d="M 0 0 L 0 0 L 0 0 L 0 0 Z "/>
<text fill-opacity="0" xml:space="preserve" transform="matrix(.7506297 0 0 .7506297 0 -8429.572)" font-size="16" font-family="Gautami"><tspan y="11596" x="204.50782">&#x200b;</tspan></text>
<text xml:space="preserve" transform="matrix(.7506297 0 0 .7506297 0 -8429.572)" font-size="16" font-family="TimesNewRomanPSMT"><tspan y="11596" x="204.50782 208.95581 212.95581 220.05982 228.05982 236.05982 240.50782 245.83582 253.83582 258.2838 262.2838 268.5078 272.9558 278.2838 286.2838 293.38783 297.83583 305.83583 311.16383 318.26783 322.26783 326.71583 332.04383 337.37184 341.81983 349.81983 356.92384 364.92384 368.92384 373.37184 377.81983 385.81983 392.92384">: control structure if-then like;</tspan></text>
<text xml:space="preserve" transform="matrix(.7506297 0 0 .7506297 0 -8429.572)" font-size="16" font-family="TimesNewRomanPSMT"><tspan y="11596" x="397.32814"> </tspan></text>
<text xml:space="preserve" transform="matrix(.7506297 0 0 .7506297 0 -8429.572)" font-size="16" font-family="ArialMT"><tspan y="11618" x="99.59375">&#x25cf;</tspan></text>
<text xml:space="preserve" transform="matrix(.7506297 0 0 .7506297 0 -8429.572)" font-size="16" font-family="TimesNewRomanPS" font-weight="bold"><tspan y="11618" x="123.59375 139.59375 148.48975 152.93775 157.38574 164.48975 169.81775 174.26575 182.26575 190.26575">While-loop</tspan></text>
<path transform="matrix(.7506297,0,0,.7506297,0,-8429.572)" d="M 0 0 L 0 0 L 0 0 L 0 0 Z "/>
<text fill-opacity="0" xml:space="preserve" transform="matrix(.7506297 0 0 .7506297 0 -8429.572)" font-size="16" font-family="Gautami"><tspan y="11618" x="199.15625">&#x200b;</tspan></text>
<text xml:space="preserve" transform="matrix(.7506297 0 0 .7506297 0 -8429.572)" font-size="16" font-family="TimesNewRomanPSMT"><tspan y="11618" x="199.15625 203.60425 207.60425 212.05225 216.50025 223.60425 228.93225 236.03626 240.48426 244.93225 252.93225 260.03627 264.03627 271.14027 279.14027 287.14027 291.58827 296.91627 304.91627 309.36427 313.36427 319.58827 324.03627 329.36427 337.36427 344.46827 348.91627 356.91627 362.24427 369.34828 373.34828 384.90028 392.90028 397.34828 401.79627 408.90028 414.22828 422.22828 430.22828 434.22828 438.67628 443.12428 451.12428 458.22828">: iterative control structure while-do like;</tspan></text>
<text xml:space="preserve" transform="matrix(.7506297 0 0 .7506297 0 -8429.572)" font-size="16" font-family="TimesNewRomanPSMT"><tspan y="11618" x="462.625"> </tspan></text>
<text xml:space="preserve" transform="matrix(.7506297 0 0 .7506297 0 -8429.572)" font-size="16" font-family="TimesNewRomanPSMT"><tspan y="11640" x="75.59375"> </tspan></text>
<text xml:space="preserve" transform="matrix(.7506297 0 0 .7506297 0 -8429.572)" font-size="16" font-family="TimesNewRomanPSMT"><tspan y="11662" x="75.59375 86.26575 95.16175 106.71375 118.265758 122.265758 126.71375 132.93776 136.93776 144.04177 148.04177 152.48976 159.59377 167.59377 175.59377 183.59377 190.69777 198.69777 205.80178 209.80178 214.24977 222.24977 229.35378 233.80178 237.80178 244.90578 252.00978 259.11378 266.21778 274.21778 278.66578 282.66578 293.33778 301.33778 309.33778 313.78578 320.88978 327.99378 335.99378 339.99378 347.09779 355.09779 363.09779 367.09779 372.42579 380.42579 384.87379 391.97779 399.97779 407.0818 412.4098 416.4098 424.4098 431.5138 435.9618 443.9618 451.0658 457.2898 461.2898 468.3938 476.3938 484.3938 488.3938 495.4978 502.6018 510.6018 514.6018 521.7058 529.7058 536.8098 541.2578 549.2578 556.3618 560.8098 567.9138 571.9138 576.3618 584.3618 591.4658 595.4658 600.7938 608.7938 613.2418 617.6898 625.6898 637.2418 641.6898 649.6898 657.6898 661.6898 666.1378 674.1378 682.1378 689.2418 693.2418 701.2418">CSKN is a language that accept Boolean and Integer values and can evaluate the following type of</tspan></text>
<text xml:space="preserve" transform="matrix(.7506297 0 0 .7506297 0 -8429.572)" font-size="16" font-family="TimesNewRomanPSMT"><tspan y="11662" x="706.4844"> </tspan></text>
<text xml:space="preserve" transform="matrix(.7506297 0 0 .7506297 0 -8429.572)" font-size="16" font-family="TimesNewRomanPSMT"><tspan y="11684" x="75.59375 82.697757 88.02576 92.473758 96.92175 104.92175 117.36975 124.473758 128.92176 133.36975 140.47376 144.47376 151.57776 159.57776 167.57776 172.90576 180.00977 186.23377 192.45777 196.90576 204.90576 212.90576 219.12976">arithmetic expressions:</tspan></text>
<text xml:space="preserve" transform="matrix(.7506297 0 0 .7506297 0 -8429.572)" font-size="16" font-family="TimesNewRomanPSMT"><tspan y="11684" x="223.54688"> </tspan></text>
<text xml:space="preserve" transform="matrix(.7506297 0 0 .7506297 0 -8429.572)" font-size="16" font-family="ArialMT"><tspan y="11706" x="99.59375">&#x25cf;</tspan></text>
<text xml:space="preserve" transform="matrix(.7506297 0 0 .7506297 0 -8429.572)" font-size="16" font-family="TimesNewRomanPS" font-weight="bold"><tspan y="11706" x="123.59375 135.14575 144.04175 157.36975 166.26575 173.36975">Number</tspan></text>
<path transform="matrix(.7506297,0,0,.7506297,0,-8429.572)" d="M 0 0 L 0 0 L 0 0 L 0 0 Z "/>
<text fill-opacity="0" xml:space="preserve" transform="matrix(.7506297 0 0 .7506297 0 -8429.572)" font-size="16" font-family="Gautami"><tspan y="11706" x="180.47657">&#x200b;</tspan></text>
<text xml:space="preserve" transform="matrix(.7506297 0 0 .7506297 0 -8429.572)" font-size="16" font-family="TimesNewRomanPSMT"><tspan y="11706" x="180.47657 184.92456 188.92456 200.47657 208.47657 216.47657 220.47657 228.47657">: Any n </tspan></text>
<text xml:space="preserve" transform="matrix(.7506297 0 0 .7506297 0 -8429.572)" font-size="16" font-family="MS"><tspan y="11706" x="232.47657">&#x220a;</tspan></text>
<text xml:space="preserve" transform="matrix(.7506297 0 0 .7506297 0 -8429.572)" font-size="16" font-family="TimesNewRomanPSMT"><tspan y="11706" x="240.47657"> </tspan></text>
<text xml:space="preserve" transform="matrix(.7506297 0 0 .7506297 0 -8429.572)" font-size="16" font-family="MS"><tspan y="11706" x="244.47657">&#x2124;</tspan></text>
<text xml:space="preserve" transform="matrix(.7506297 0 0 .7506297 0 -8429.572)" font-size="16" font-family="TimesNewRomanPSMT"><tspan y="11706" x="252.47657">;</tspan></text>
<text xml:space="preserve" transform="matrix(.7506297 0 0 .7506297 0 -8429.572)" font-size="16" font-family="TimesNewRomanPSMT"><tspan y="11706" x="256.92189"> </tspan></text>
<text xml:space="preserve" transform="matrix(.7506297 0 0 .7506297 0 -8429.572)" font-size="16" font-family="ArialMT"><tspan y="11728" x="99.59375">&#x25cf;</tspan></text>
<text xml:space="preserve" transform="matrix(.7506297 0 0 .7506297 0 -8429.572)" font-size="16" font-family="TimesNewRomanPS" font-weight="bold"><tspan y="11728" x="123.59375 134.26575 142.26575 149.36975 157.36975 162.69776 167.14575 175.14575">Location</tspan></text>
<path transform="matrix(.7506297,0,0,.7506297,0,-8429.572)" d="M 0 0 L 0 0 L 0 0 L 0 0 Z "/>
<text fill-opacity="0" xml:space="preserve" transform="matrix(.7506297 0 0 .7506297 0 -8429.572)" font-size="16" font-family="Gautami"><tspan y="11728" x="184.03907">&#x200b;</tspan></text>
<text xml:space="preserve" transform="matrix(.7506297 0 0 .7506297 0 -8429.572)" font-size="16" font-family="TimesNewRomanPSMT"><tspan y="11728" x="184.03907 188.48706 192.48706 199.59107 207.59107 215.59107 220.03907 227.14307 235.14307 239.59107 243.59107 251.59107 256.91908 260.91908 268.02308 272.02308 280.02308 287.12709 292.45509 296.90309 304.00709 312.00709 316.45509 323.55909">: content of a variable;</tspan></text>
<text xml:space="preserve" transform="matrix(.7506297 0 0 .7506297 0 -8429.572)" font-size="16" font-family="TimesNewRomanPSMT"><tspan y="11728" x="327.96876"> </tspan></text>
<text xml:space="preserve" transform="matrix(.7506297 0 0 .7506297 0 -8429.572)" font-size="16" font-family="ArialMT"><tspan y="11750" x="99.59375">&#x25cf;</tspan></text>
<text xml:space="preserve" transform="matrix(.7506297 0 0 .7506297 0 -8429.572)" font-size="16" font-family="TimesNewRomanPS" font-weight="bold"><tspan y="11750" x="123.59375 132.48975 141.38574 154.71375 158.71375 162.71375 171.60974 180.50574 189.40174 194.72974 201.83374 209.83374 216.93775 222.26575 226.71375 234.71375 243.60974 247.60974 251.60974 261.38575 268.48976 276.48976 285.38575 294.28175 301.38575 306.71376 310.71376 314.71376 326.26576 330.71376 338.71376 343.16175 349.38575 353.83375 361.83375">Sum, Subtraction, Product, Division</tspan></text>
<path transform="matrix(.7506297,0,0,.7506297,0,-8429.572)" d="M 0 0 L 0 0 L 0 0 L 0 0 Z "/>
<text fill-opacity="0" xml:space="preserve" transform="matrix(.7506297 0 0 .7506297 0 -8429.572)" font-size="16" font-family="Gautami"><tspan y="11750" x="370.73439">&#x200b;</tspan></text>
<text xml:space="preserve" transform="matrix(.7506297 0 0 .7506297 0 -8429.572)" font-size="16" font-family="TimesNewRomanPSMT"><tspan y="11750" x="370.73439 375.18238 379.18238 386.28639 393.39039 401.39039 409.39039 417.39039 421.83839 428.94239 436.0464 440.4944 444.4944 451.5984 456.9264 461.3744 465.8224 473.8224 486.2704 493.3744 497.8224 502.2704 509.3744 516.4784 520.9264 524.9264 532.9264 540.9264 548.0304 553.3584 560.4624 564.9104 569.3584 577.3584 585.3584 591.5824 595.5824 607.1344 611.5824 616.0304 624.0304 628.0304 636.0304 640.4784 648.4784 652.9264 659.1504 663.5984 671.5984 679.5984 683.5984 688.0464 696.0464 703.1504">: canonical arithmetical operations with division that</tspan></text>
<text xml:space="preserve" transform="matrix(.7506297 0 0 .7506297 0 -8429.572)" font-size="16" font-family="TimesNewRomanPSMT"><tspan y="11750" x="707.53128"> </tspan></text>
<text xml:space="preserve" transform="matrix(.7506297 0 0 .7506297 0 -8429.572)" font-size="16" font-family="TimesNewRomanPSMT"><tspan y="11772" x="123.59375 128.92176 136.02576 140.47376 148.47376 153.80176 161.80176 168.02576 172.02576 176.47376 184.47376 191.57776 195.57776 203.57776 211.57776 219.57776 224.02576 228.47376 235.57776 243.57776 248.02576 252.02576 260.02577 265.35377 269.35377 273.80177 281.80177 288.90577 292.90577 300.90577 308.90577 316.00978 321.33778 328.44178 332.88978 337.33778 345.33778 353.33778">returns the quotient of the operation;</tspan></text>
<text xml:space="preserve" transform="matrix(.7506297 0 0 .7506297 0 -8429.572)" font-size="16" font-family="TimesNewRomanPSMT"><tspan y="11772" x="357.75"> </tspan></text>
<text xml:space="preserve" transform="matrix(.7506297 0 0 .7506297 0 -8429.572)" font-size="16" font-family="TimesNewRomanPSMT"><tspan y="11794" x="75.59375 82.697757 90.697757 98.697757 102.697757 110.697757 118.697757 126.697757 131.14575 138.24976 145.35376 153.35376 157.35376 164.45777 172.45777 180.45777 185.78577 192.88977 199.11377 205.33777 209.78577 217.78577 225.78577 232.00977">and boolean expressions:</tspan></text>
<text xml:space="preserve" transform="matrix(.7506297 0 0 .7506297 0 -8429.572)" font-size="16" font-family="TimesNewRomanPSMT"><tspan y="11794" x="236.4375"> </tspan></text>
<text xml:space="preserve" transform="matrix(.7506297 0 0 .7506297 0 -8429.572)" font-size="16" font-family="ArialMT"><tspan y="11816" x="99.59375">&#x25cf;</tspan></text>
<text xml:space="preserve" transform="matrix(.7506297 0 0 .7506297 0 -8429.572)" font-size="16" font-family="TimesNewRomanPS" font-weight="bold"><tspan y="11816" x="123.59375 134.26575 142.26575 150.26575 154.71375 161.81775 169.81775">Boolean</tspan></text>
<path transform="matrix(.7506297,0,0,.7506297,0,-8429.572)" d="M 0 0 L 0 0 L 0 0 L 0 0 Z "/>
<text fill-opacity="0" xml:space="preserve" transform="matrix(.7506297 0 0 .7506297 0 -8429.572)" font-size="16" font-family="Gautami"><tspan y="11816" x="178.71094">&#x200b;</tspan></text>
<text xml:space="preserve" transform="matrix(.7506297 0 0 .7506297 0 -8429.572)" font-size="16" font-family="TimesNewRomanPSMT"><tspan y="11816" x="178.71094 183.15894 187.15894 195.15894">: b </tspan></text>
<text xml:space="preserve" transform="matrix(.7506297 0 0 .7506297 0 -8429.572)" font-size="16" font-family="MS"><tspan y="11816" x="199.15625">&#x220a;</tspan></text>
<text xml:space="preserve" transform="matrix(.7506297 0 0 .7506297 0 -8429.572)" font-size="16" font-family="TimesNewRomanPSMT"><tspan y="11816" x="207.15625 211.15625 218.83625 228.61225 233.94025 241.94025 249.04425 253.04425 257.04426 265.94026 273.04426 277.49226 283.71626 290.82026 298.50025"> {True, False};</tspan></text>
<text xml:space="preserve" transform="matrix(.7506297 0 0 .7506297 0 -8429.572)" font-size="16" font-family="TimesNewRomanPSMT"><tspan y="11816" x="302.9375"> </tspan></text>
<text xml:space="preserve" transform="matrix(.7506297 0 0 .7506297 0 -8429.572)" font-size="16" font-family="ArialMT"><tspan y="11838" x="99.59375">&#x25cf;</tspan></text>
<text xml:space="preserve" transform="matrix(.7506297 0 0 .7506297 0 -8429.572)" font-size="16" font-family="TimesNewRomanPS" font-weight="bold"><tspan y="11838" x="123.59375 134.26575 142.26575 149.36975 157.36975 162.69776 167.14575 175.14575">Location</tspan></text>
<path transform="matrix(.7506297,0,0,.7506297,0,-8429.572)" d="M 0 0 L 0 0 L 0 0 L 0 0 Z "/>
<text fill-opacity="0" xml:space="preserve" transform="matrix(.7506297 0 0 .7506297 0 -8429.572)" font-size="16" font-family="Gautami"><tspan y="11838" x="184.03907">&#x200b;</tspan></text>
<text xml:space="preserve" transform="matrix(.7506297 0 0 .7506297 0 -8429.572)" font-size="16" font-family="TimesNewRomanPSMT"><tspan y="11838" x="184.03907 188.48706 192.48706 199.59107 207.59107 215.59107 220.03907 227.14307 235.14307 239.59107 243.59107 251.59107 256.91908 260.91908 268.02308 272.02308 280.02308 287.12709 292.45509 296.90309 304.00709 312.00709 316.45509 323.55909">: content of a variable;</tspan></text>
<text xml:space="preserve" transform="matrix(.7506297 0 0 .7506297 0 -8429.572)" font-size="16" font-family="TimesNewRomanPSMT"><tspan y="11838" x="327.96876"> </tspan></text>
<text xml:space="preserve" transform="matrix(.7506297 0 0 .7506297 0 -8429.572)" font-size="16" font-family="ArialMT"><tspan y="11860" x="99.59375">&#x25cf;</tspan></text>
<text xml:space="preserve" transform="matrix(.7506297 0 0 .7506297 0 -8429.572)" font-size="16" font-family="TimesNewRomanPS" font-weight="bold"><tspan y="11860" x="123.59375 135.14575 144.04175 152.93775 156.93775 160.93775 173.38574 180.48975 184.48975 188.48975 200.04175 208.04175">And, Or, Not</tspan></text>
<path transform="matrix(.7506297,0,0,.7506297,0,-8429.572)" d="M 0 0 L 0 0 L 0 0 L 0 0 Z "/>
<text fill-opacity="0" xml:space="preserve" transform="matrix(.7506297 0 0 .7506297 0 -8429.572)" font-size="16" font-family="Gautami"><tspan y="11860" x="213.375">&#x200b;</tspan></text>
<text xml:space="preserve" transform="matrix(.7506297 0 0 .7506297 0 -8429.572)" font-size="16" font-family="TimesNewRomanPSMT"><tspan y="11860" x="213.375 217.823 221.823 228.927 236.031 244.031 252.031 260.031 264.479 271.583 278.687 283.135 287.135 291.583 299.583 307.583 312.031 319.135 323.135 331.135 339.135 346.239 351.56703 358.67103 363.11903 367.56703 375.56703 383.56703 389.79103">: canonical logic operations;</tspan></text>
<text xml:space="preserve" transform="matrix(.7506297 0 0 .7506297 0 -8429.572)" font-size="16" font-family="TimesNewRomanPSMT"><tspan y="11860" x="394.20314"> </tspan></text>
<text xml:space="preserve" transform="matrix(.7506297 0 0 .7506297 0 -8429.572)" font-size="16" font-family="ArialMT"><tspan y="11882" x="99.59375">&#x25cf;</tspan></text>
<text xml:space="preserve" transform="matrix(.7506297 0 0 .7506297 0 -8429.572)" font-size="16" font-family="TimesNewRomanPS" font-weight="bold"><tspan y="11882" x="123.59375 132.71375 136.71375 140.71375 149.83374 158.95374 162.95374 166.95374 176.07373 180.07373 184.07373 193.19373 202.31372 206.31372 210.31372 219.43372 228.55371 232.55371 236.55371 241.00171">&#x003c;, &#x003c;=, &#x003e;, &#x003e;=, ==, /=</tspan></text>
<path transform="matrix(.7506297,0,0,.7506297,0,-8429.572)" d="M 0 0 L 0 0 L 0 0 L 0 0 Z "/>
<text fill-opacity="0" xml:space="preserve" transform="matrix(.7506297 0 0 .7506297 0 -8429.572)" font-size="16" font-family="Gautami"><tspan y="11882" x="250.09375">&#x200b;</tspan></text>
<text xml:space="preserve" transform="matrix(.7506297 0 0 .7506297 0 -8429.572)" font-size="16" font-family="TimesNewRomanPSMT"><tspan y="11882" x="250.09375 254.54175 258.54176 265.64576 272.74977 280.74977 288.74977 296.74977 301.19776 308.30177 315.40577 319.85377 323.85377 328.30177 336.30177 340.74977 347.85377 353.18177 361.18177 366.50978 373.61378 378.06178 385.16578 389.61378 394.06178 402.06178 410.06178 414.06178 422.06178 427.38978 431.38978 435.83778 443.83778 450.94178 457.16578 464.26979 468.26979 476.26979 484.26979 491.37379 496.70179 503.8058 508.25379 516.2538 521.5818 527.8058 531.8058 535.8058 542.9098 550.9098 563.3578 571.3578 578.4618 583.7898 590.8938 597.1178 601.1178 605.5658 617.1178 625.1178 629.1178 636.2218 641.5498 645.9978 650.4458 658.4458 670.8938 677.9978 682.4458 686.8938">: canonical interpretation of these operators, compares two arithmetic</tspan></text>
<text xml:space="preserve" transform="matrix(.7506297 0 0 .7506297 0 -8429.572)" font-size="16" font-family="TimesNewRomanPSMT"><tspan y="11882" x="693.9219"> </tspan></text>
<text xml:space="preserve" transform="matrix(.7506297 0 0 .7506297 0 -8429.572)" font-size="16" font-family="TimesNewRomanPSMT"><tspan y="11904" x="123.59375 130.69776 138.69776 146.69776 152.02576 159.12976 165.35376 171.57776 176.02576 184.02576 192.02576 196.02576 203.12976 211.12976 219.12976 223.12976 228.45777 235.56177 240.00977 248.00977 253.33777 261.33778 267.56178 271.56178 278.66578 282.66578 290.66578 298.66578 306.66578 311.11378 318.21778 325.32179 333.32179 337.32179 345.32179 352.42579 356.87379 364.87379 371.97779">expression and returns a boolean value.</tspan></text>
<text xml:space="preserve" transform="matrix(.7506297 0 0 .7506297 0 -8429.572)" font-size="16" font-family="TimesNewRomanPSMT"><tspan y="11904" x="375.95314"> </tspan></text>
<text xml:space="preserve" transform="matrix(.7506297 0 0 .7506297 0 -8429.572)" font-size="16" font-family="TimesNewRomanPSMT"><tspan y="11904" x="379.95314"> </tspan></text>
<text xml:space="preserve" transform="matrix(.7506297 0 0 .7506297 0 -8429.572)" font-size="16" font-family="TimesNewRomanPSMT"><tspan y="11926" x="75.59375"> </tspan></text>
<text xml:space="preserve" transform="matrix(.7506297 0 0 .7506297 0 -8429.572)" font-size="16" font-family="TimesNewRomanPSMT"><tspan y="11948" x="75.59375"> </tspan></text>
<text xml:space="preserve" transform="matrix(.7506297 0 0 .7506297 0 -8429.572)" font-size="21.33" font-family="TimesNewRomanPS" font-weight="bold"><tspan y="11999" x="75.59375"> </tspan></text>
<text xml:space="preserve" transform="matrix(.7506297 0 0 .7506297 0 -8429.572)" font-size="21.33" font-family="TimesNewRomanPS" font-weight="bold"><tspan y="11999" x="175.59375"> </tspan></text>
<text xml:space="preserve" transform="matrix(.7506297 0 0 .7506297 0 -8429.572)" font-size="16" font-family="TimesNewRomanPS" font-style="italic"><tspan y="12299" x="75.59375 79.59375 83.59375 87.59375 91.59375 95.59375 99.59375 103.59375 107.59375 111.59375 115.59375 119.59375 123.59375">             </tspan></text>
<text xml:space="preserve" transform="matrix(.7506297 0 -.18765743 .7506297 0 -8429.572)" font-size="16" font-family="Gautami"><tspan y="12299" x="3202.3438">&#x200b;</tspan></text>
<text xml:space="preserve" transform="matrix(.7506297 0 0 .7506297 0 -8429.572)" font-size="16" font-family="TimesNewRomanPSMT"><tspan y="12299" x="127.59375 131.59375 139.59375"> 11</tspan></text>
<text xml:space="preserve" transform="matrix(.7506297 0 0 .7506297 0 -8429.572)" font-size="16" font-family="TimesNewRomanPSMT"><tspan y="12299" x="147.59375"> </tspan></text>
</g>
</g>
</svg>
