<?xml version="1.0" encoding="UTF-8" standalone="no"?>
<!DOCTYPE svg PUBLIC "-//W3C//DTD SVG 1.1//EN" "http://www.w3.org/Graphics/SVG/1.1/DTD/svg11.dtd">
<svg xmlns="http://www.w3.org/2000/svg" xmlns:xlink="http://www.w3.org/1999/xlink" version="1.1" width="596pt" height="843pt" viewBox="0 0 596 843">
<g enable-background="new">
<clipPath id="cp237">
<path d="M 0 0 L 596 0 L 596 842.95706 L 0 842.95706 Z " fill-rule="evenodd"/>
</clipPath>
<g clip-path="url(#cp237)">
<path transform="matrix(.7506297,0,0,.7506297,0,-10115.486)" d="M 0 13476 L 794 13476 L 794 14599 L 0 14599 Z " fill="#ffffff"/>
<path transform="matrix(.7506297,0,0,.7506297,0,-10115.486)" d="M 0 13476 L 794 13476 L 794 14599 L 0 14599 Z " fill="#ffffff"/>
<path transform="matrix(.7506297,0,0,.7506297,0,-10115.486)" d="M 0 0 L 794 0 L 794 44920 L 0 44920 Z " fill="#ffffff"/>
<path transform="matrix(.7506297,0,0,.7506297,0,-10115.486)" d="M 0 13476 L 794 13476 L 794 14599 L 0 14599 Z " fill="#ffffff"/>
<path transform="matrix(.7506297,0,0,.7506297,0,-10115.486)" d="M 0 13570 L 794 13570 L 794 14599 L 0 14599 Z " fill="#ffffff"/>
<text fill="#434343" xml:space="preserve" transform="matrix(.7506297 0 0 .7506297 0 -10115.486)" font-size="18.66" font-family="TimesNewRomanPSMT"><tspan y="13604" x="75.59375 86.98973 95.27026 101.48294 115.99437 121.17767 130.5058 138.78633 143.96964">Terminals</tspan></text>
<text fill="#434343" xml:space="preserve" transform="matrix(.7506297 0 0 .7506297 0 -10115.486)" font-size="18.66" font-family="TimesNewRomanPS" font-weight="bold"><tspan y="13604" x="151.21875"> </tspan></text>
<path transform="matrix(.7506297,0,0,.7506297,0,-10115.486)" d="M 104 13625 L 720 13625 L 720 13626 L 104 13626 Z "/>
<path transform="matrix(.7506297,0,0,.7506297,0,-10115.486)" d="M 104 13813 L 720 13813 L 720 13814 L 104 13814 Z "/>
<path transform="matrix(.7506297,0,0,.7506297,0,-10115.486)" d="M 104 13625 L 105 13625 L 105 13814 L 104 13814 Z "/>
<path transform="matrix(.7506297,0,0,.7506297,0,-10115.486)" d="M 719 13625 L 720 13625 L 720 13814 L 719 13814 Z "/>
</g>
<clipPath id="cp238">
<path d="M 78.816127 112.59473 L 539.70278 112.59473 L 539.70278 252.96192 L 78.816127 252.96192 Z " fill-rule="evenodd"/>
</clipPath>
<g clip-path="url(#cp238)">
<text xml:space="preserve" transform="matrix(.7506297 0 0 .7506297 0 -10115.486)" font-size="16" font-family="TimesNewRomanPS" font-weight="bold"><tspan y="13659" x="138.59375 147.71375 156.60974 164.60974 169.93775 178.83374 185.93775 193.93775 198.38574 207.50574 211.50574 216.83374 222.16175">&#x003c;natural&#x003e; ::=</tspan></text>
<path transform="matrix(.7506297,0,0,.7506297,0,-10115.486)" d="M 0 0 L 0 0 L 0 0 L 0 0 Z "/>
<text fill-opacity="0" xml:space="preserve" transform="matrix(.7506297 0 0 .7506297 0 -10115.486)" font-size="16" font-family="Gautami"><tspan y="13659" x="231.27344">&#x200b;</tspan></text>
<text xml:space="preserve" transform="matrix(.7506297 0 0 .7506297 0 -10115.486)" font-size="16" font-family="TimesNewRomanPSMT"><tspan y="13659" x="231.27344 235.27344 239.27344 247.27344">  0 </tspan></text>
<text xml:space="preserve" transform="matrix(.7506297 0 0 .7506297 0 -10115.486)" font-size="16" font-family="Gautami"><tspan y="13659" x="251.27344">&#x200b;</tspan></text>
<text xml:space="preserve" transform="matrix(.7506297 0 0 .7506297 0 -10115.486)" font-size="26.66" font-family="TimesNewRomanPSMT"><tspan y="13659" x="251.27344 256.6099">| </tspan></text>
<text xml:space="preserve" transform="matrix(.7506297 0 0 .7506297 0 -10115.486)" font-size="26.66" font-family="Gautami"><tspan y="13659" x="263.27397">&#x200b;</tspan></text>
<text xml:space="preserve" transform="matrix(.7506297 0 0 .7506297 0 -10115.486)" font-size="16" font-family="TimesNewRomanPSMT"><tspan y="13659" x="263.27397 271.27397">1 </tspan></text>
<text xml:space="preserve" transform="matrix(.7506297 0 0 .7506297 0 -10115.486)" font-size="16" font-family="Gautami"><tspan y="13659" x="275.27397">&#x200b;</tspan></text>
<text xml:space="preserve" transform="matrix(.7506297 0 0 .7506297 0 -10115.486)" font-size="26.66" font-family="TimesNewRomanPSMT"><tspan y="13659" x="275.27397 280.6104">| </tspan></text>
<text xml:space="preserve" transform="matrix(.7506297 0 0 .7506297 0 -10115.486)" font-size="26.66" font-family="Gautami"><tspan y="13659" x="287.27449">&#x200b;</tspan></text>
<text xml:space="preserve" transform="matrix(.7506297 0 0 .7506297 0 -10115.486)" font-size="16" font-family="TimesNewRomanPSMT"><tspan y="13659" x="287.27449 295.27449">2 </tspan></text>
<text xml:space="preserve" transform="matrix(.7506297 0 0 .7506297 0 -10115.486)" font-size="16" font-family="Gautami"><tspan y="13659" x="299.27449">&#x200b;</tspan></text>
<text xml:space="preserve" transform="matrix(.7506297 0 0 .7506297 0 -10115.486)" font-size="24" font-family="TimesNewRomanPSMT"><tspan y="13659" x="299.27449 305.27449 311.27449">...</tspan></text>
</g>
<clipPath id="cp239">
<path d="M 78.816127 112.59473 L 539.70278 112.59473 L 539.70278 252.96192 L 78.816127 252.96192 Z " fill-rule="evenodd"/>
</clipPath>
<g clip-path="url(#cp239)">
<text xml:space="preserve" transform="matrix(.7506297 0 0 .7506297 0 -10115.486)" font-size="24" font-family="TimesNewRomanPS" font-weight="bold"><tspan y="13659" x="317.26564"> </tspan></text>
</g>
<clipPath id="cp240">
<path d="M 78.816127 112.59473 L 539.70278 112.59473 L 539.70278 252.96192 L 78.816127 252.96192 Z " fill-rule="evenodd"/>
</clipPath>
<g clip-path="url(#cp240)">
<text xml:space="preserve" transform="matrix(.7506297 0 0 .7506297 0 -10115.486)" font-size="16" font-family="TimesNewRomanPS" font-weight="bold"><tspan y="13707" x="138.59375 147.71375 156.60974 164.60974 172.60974 177.05774 185.05774 193.05774 201.05774 205.50574 214.62574 218.62574 223.95374 229.28174">&#x003c;bool_val&#x003e; ::=</tspan></text>
<path transform="matrix(.7506297,0,0,.7506297,0,-10115.486)" d="M 0 0 L 0 0 L 0 0 L 0 0 Z "/>
<text fill-opacity="0" xml:space="preserve" transform="matrix(.7506297 0 0 .7506297 0 -10115.486)" font-size="16" font-family="Gautami"><tspan y="13707" x="238.39063">&#x200b;</tspan></text>
<text xml:space="preserve" transform="matrix(.7506297 0 0 .7506297 0 -10115.486)" font-size="16" font-family="TimesNewRomanPSMT"><tspan y="13707" x="238.39063 242.39063 252.16663 262.83863 274.39064 284.16664"> TRUE </tspan></text>
<text xml:space="preserve" transform="matrix(.7506297 0 0 .7506297 0 -10115.486)" font-size="16" font-family="Gautami"><tspan y="13707" x="288.16407">&#x200b;</tspan></text>
<text xml:space="preserve" transform="matrix(.7506297 0 0 .7506297 0 -10115.486)" font-size="26.66" font-family="TimesNewRomanPSMT"><tspan y="13707" x="288.16407">|</tspan></text>
<text xml:space="preserve" transform="matrix(.7506297 0 0 .7506297 0 -10115.486)" font-size="26.66" font-family="Gautami"><tspan y="13707" x="293.50053">&#x200b;</tspan></text>
<text xml:space="preserve" transform="matrix(.7506297 0 0 .7506297 0 -10115.486)" font-size="16" font-family="TimesNewRomanPSMT"><tspan y="13707" x="293.50053 297.50053 306.3965 317.94853 327.72453 336.6205"> FALSE</tspan></text>
</g>
<clipPath id="cp241">
<path d="M 78.816127 112.59473 L 539.70278 112.59473 L 539.70278 252.96192 L 78.816127 252.96192 Z " fill-rule="evenodd"/>
</clipPath>
<g clip-path="url(#cp241)">
<text xml:space="preserve" transform="matrix(.7506297 0 0 .7506297 0 -10115.486)" font-size="16" font-family="TimesNewRomanPSMT"><tspan y="13707" x="346.39064"> </tspan></text>
</g>
<clipPath id="cp242">
<path d="M 78.816127 112.59473 L 539.70278 112.59473 L 539.70278 252.96192 L 78.816127 252.96192 Z " fill-rule="evenodd"/>
</clipPath>
<g clip-path="url(#cp242)">
<text xml:space="preserve" transform="matrix(.7506297 0 0 .7506297 0 -10115.486)" font-size="16" font-family="TimesNewRomanPSMT"><tspan y="13707" x="350.39064"> </tspan></text>
</g>
<clipPath id="cp243">
<path d="M 78.816127 112.59473 L 539.70278 112.59473 L 539.70278 252.96192 L 78.816127 252.96192 Z " fill-rule="evenodd"/>
</clipPath>
<g clip-path="url(#cp243)">
<text xml:space="preserve" transform="matrix(.7506297 0 0 .7506297 0 -10115.486)" font-size="16" font-family="TimesNewRomanPS" font-weight="bold"><tspan y="13745" x="138.59375 147.71375 152.16175 161.05774 168.16175 177.05774 182.38574 186.83374 192.16175 196.60974 203.71375 210.81775">&#x003c;identifier&#x003e;</tspan></text>
<path transform="matrix(.7506297,0,0,.7506297,0,-10115.486)" d="M 0 0 L 0 0 L 0 0 L 0 0 Z "/>
<text fill-opacity="0" xml:space="preserve" transform="matrix(.7506297 0 0 .7506297 0 -10115.486)" font-size="16" font-family="Gautami"><tspan y="13745" x="219.92188">&#x200b;</tspan></text>
<text xml:space="preserve" transform="matrix(.7506297 0 0 .7506297 0 -10115.486)" font-size="16" font-family="TimesNewRomanPS" font-style="italic"><tspan y="13745" x="219.92188"> </tspan></text>
<text xml:space="preserve" transform="matrix(.7506297 0 -.18765743 .7506297 0 -10115.486)" font-size="16" font-family="Gautami"><tspan y="13745" x="3660.1719">&#x200b;</tspan></text>
<text xml:space="preserve" transform="matrix(.7506297 0 0 .7506297 0 -10115.486)" font-size="16" font-family="TimesNewRomanPS" font-weight="bold"><tspan y="13745" x="223.92188 229.24988 234.57788">::=</tspan></text>
<path transform="matrix(.7506297,0,0,.7506297,0,-10115.486)" d="M 0 0 L 0 0 L 0 0 L 0 0 Z "/>
<text fill-opacity="0" xml:space="preserve" transform="matrix(.7506297 0 0 .7506297 0 -10115.486)" font-size="16" font-family="Gautami"><tspan y="13745" x="243.69532">&#x200b;</tspan></text>
<text xml:space="preserve" transform="matrix(.7506297 0 0 .7506297 0 -10115.486)" font-size="16" font-family="TimesNewRomanPSMT"><tspan y="13745" x="243.69532 247.69532 259.2473 263.2473 267.6953 275.6953 287.2473 294.35133 299.67933 303.67933 310.78334 317.88734 324.11134 331.21534 335.21534 342.31935 346.76734 354.76734 362.76734 369.87135 377.87135 384.97535 389.42335 393.87135 400.97535 404.97535 412.07936 420.07936 427.18336 432.51136 439.61537 446.71937 451.16737 458.27137 463.59938 467.59938 472.92738 480.92738 485.37538 489.82337 497.82337 509.37538 516.4794 524.4794 528.4794 536.4794 544.4794 548.4794 555.5834 563.5834 571.5834 575.5834 582.6874 587.1354 595.1354 603.1354 610.2394 618.2394 626.2394 638.6874 645.7914 651.1194 655.5674 662.6714 666.6714 672.8954 677.3434 682.6714 687.1194 695.1194"> A lower case alphabetic character followed by any alphanumeric string</tspan></text>
</g>
<clipPath id="cp244">
<path d="M 78.816127 112.59473 L 539.70278 112.59473 L 539.70278 252.96192 L 78.816127 252.96192 Z " fill-rule="evenodd"/>
</clipPath>
<g clip-path="url(#cp244)">
<text xml:space="preserve" transform="matrix(.7506297 0 0 .7506297 0 -10115.486)" font-size="16" font-family="TimesNewRomanPSMT"><tspan y="13745" x="703.0469"> </tspan></text>
</g>
<clipPath id="cp245">
<path d="M 78.816127 112.59473 L 539.70278 112.59473 L 539.70278 252.96192 L 78.816127 252.96192 Z " fill-rule="evenodd"/>
</clipPath>
<g clip-path="url(#cp245)">
<text xml:space="preserve" transform="matrix(.7506297 0 0 .7506297 0 -10115.486)" font-size="16" font-family="TimesNewRomanPSMT"><tspan y="13774" x="138.59375 143.92176 155.47376 159.92176 164.36975 172.36975 176.36975 180.36975 184.36975 188.36975 192.36975 200.36975 208.36975 212.36975 218.59375 226.59375 233.69776 240.80176 247.90576 251.90576 256.35377 264.35377 268.35377 276.35377 283.45777 287.90577 299.45777 306.56178 313.66578 321.66578 326.99378">(with     no space in between).</tspan></text>
</g>
<clipPath id="cp246">
<path d="M 78.816127 112.59473 L 539.70278 112.59473 L 539.70278 252.96192 L 78.816127 252.96192 Z " fill-rule="evenodd"/>
</clipPath>
<g clip-path="url(#cp246)">
<text xml:space="preserve" transform="matrix(.7506297 0 0 .7506297 0 -10115.486)" font-size="16" font-family="TimesNewRomanPSMT"><tspan y="13774" x="330.96876"> </tspan></text>
</g>
<clipPath id="cp247">
<path d="M 78.816127 112.59473 L 539.70278 112.59473 L 539.70278 252.96192 L 78.816127 252.96192 Z " fill-rule="evenodd"/>
</clipPath>
<g clip-path="url(#cp247)">
<text xml:space="preserve" transform="matrix(.7506297 0 0 .7506297 0 -10115.486)" font-size="16" font-family="TimesNewRomanPS" font-weight="bold"><tspan y="13803" x="110.59375"> </tspan></text>
</g>
<clipPath id="cp248">
<path d="M 0 0 L 596 0 L 596 842.95706 L 0 842.95706 Z " fill-rule="evenodd"/>
</clipPath>
<g clip-path="url(#cp248)">
<text xml:space="preserve" transform="matrix(.7506297 0 0 .7506297 0 -10115.486)" font-size="16" font-family="TimesNewRomanPS" font-weight="bold"><tspan y="13830" x="103.59375"> </tspan></text>
<text fill="#434343" xml:space="preserve" transform="matrix(.7506297 0 0 .7506297 0 -10115.486)" font-size="18.66" font-family="TimesNewRomanPSMT"><tspan y="13883" x="75.59375 85.96947 92.182147 101.51027 110.838397 117.05107 125.331607 139.84304 144.5071 149.17116 156.43143 164.71196 174.04009 183.36821 191.64875 200.97687 209.2574 217.53794 222.202 230.48253 239.81066 249.13878 253.80284 261.0631 266.2464 274.52696 279.71028 287.99079 302.5022 310.78276 320.11088">Program, sequence and statement</tspan></text>
<text fill="#434343" xml:space="preserve" transform="matrix(.7506297 0 0 .7506297 0 -10115.486)" font-size="18.66" font-family="TimesNewRomanPSMT"><tspan y="13883" x="325.28126"> </tspan></text>
<text xml:space="preserve" transform="matrix(.7506297 0 0 .7506297 0 -10115.486)" font-size="16" font-family="ArialMT"><tspan y="13911" x="99.59375">&#x25cf;</tspan></text>
<text xml:space="preserve" transform="matrix(.7506297 0 0 .7506297 0 -10115.486)" font-size="16" font-family="TimesNewRomanPSMT"><tspan y="13911" x="123.59375 133.36975 141.36975 148.47376 152.47376 160.47376 165.80176 173.80176 181.80176 187.12976 194.23377 206.68177 210.68177 218.68177 226.68177 234.68177 241.78577 245.78577">The program node &#x003c;</tspan></text>
<text xml:space="preserve" transform="matrix(.7506297 0 0 .7506297 0 -10115.486)" font-size="16" font-family="Gautami"><tspan y="13911" x="254.79688">&#x200b;</tspan></text>
<text xml:space="preserve" transform="matrix(.7506297 0 0 .7506297 0 -10115.486)" font-size="16" font-family="TimesNewRomanPS" font-weight="bold"><tspan y="13911" x="254.79688 263.69288 270.79689 278.79689 286.79689 293.90089 301.90089 315.22889 324.34889">program&#x003e; </tspan></text>
<path transform="matrix(.7506297,0,0,.7506297,0,-10115.486)" d="M 0 0 L 0 0 L 0 0 L 0 0 Z "/>
<text fill-opacity="0" xml:space="preserve" transform="matrix(.7506297 0 0 .7506297 0 -10115.486)" font-size="16" font-family="Gautami"><tspan y="13911" x="328.34376">&#x200b;</tspan></text>
<text xml:space="preserve" transform="matrix(.7506297 0 0 .7506297 0 -10115.486)" font-size="16" font-family="TimesNewRomanPSMT"><tspan y="13911" x="328.34376 332.79176 339.01576 343.01576 347.46376 355.46376 362.56776 366.56776 371.89576 379.89576 387.89576 392.34376 396.34376 404.34376 409.67176 413.67176 418.11976 426.11976 433.22377 437.22377 441.67176 446.99977 454.10377 461.20777 465.20777 469.20777 473.65577 479.87977 483.87977 491.87977 499.87977 504.32777 511.43177 518.53579 522.98379 527.43179 535.43179 542.53579 546.53579 550.98379 557.20779 561.20779 567.43179 571.87979 584.32778 592.32778 596.77578 604.77578 608.77578 616.77578 624.77578 632.77578 640.77578 648.77578 652.77578 657.22378 665.22378">is the root of the tree, is objective is simply bound the</tspan></text>
<text xml:space="preserve" transform="matrix(.7506297 0 0 .7506297 0 -10115.486)" font-size="16" font-family="TimesNewRomanPSMT"><tspan y="13911" x="672.28128"> </tspan></text>
<text xml:space="preserve" transform="matrix(.7506297 0 0 .7506297 0 -10115.486)" font-size="16" font-family="TimesNewRomanPSMT"><tspan y="13933" x="123.59375 131.59375 136.92176 144.92176 152.92176 158.24976 165.35376 177.80176 181.80176 189.80176 196.90576 201.35376 212.90576 220.00977 227.11377 235.11377 239.11377 243.56177 251.56177 258.66578 262.66578 267.11378 278.66578 286.66578 290.66578 298.66578 303.99378 311.09779 318.20179 325.3058 331.5298">program between the two braces.</tspan></text>
<text xml:space="preserve" transform="matrix(.7506297 0 0 .7506297 0 -10115.486)" font-size="16" font-family="TimesNewRomanPSMT"><tspan y="13933" x="335.5"> </tspan></text>
<text xml:space="preserve" transform="matrix(.7506297 0 0 .7506297 0 -10115.486)" font-size="16" font-family="ArialMT"><tspan y="13955" x="99.59375">&#x25cf;</tspan></text>
<text xml:space="preserve" transform="matrix(.7506297 0 0 .7506297 0 -10115.486)" font-size="16" font-family="TimesNewRomanPSMT"><tspan y="13955" x="123.59375 133.36975 141.36975 148.47376 152.47376 158.69776 165.80176 173.80176 181.80176 188.90576 196.90576 204.00977 211.11377 215.11377 223.11377 231.11377 239.11377 246.21778 250.21778">The sequence node &#x003c;</tspan></text>
<text xml:space="preserve" transform="matrix(.7506297 0 0 .7506297 0 -10115.486)" font-size="16" font-family="Gautami"><tspan y="13955" x="259.22657">&#x200b;</tspan></text>
<text xml:space="preserve" transform="matrix(.7506297 0 0 .7506297 0 -10115.486)" font-size="16" font-family="TimesNewRomanPS" font-weight="bold"><tspan y="13955" x="259.22657 265.45057 274.34657 283.24256">sqnc</tspan></text>
<path transform="matrix(.7506297,0,0,.7506297,0,-10115.486)" d="M 0 0 L 0 0 L 0 0 L 0 0 Z "/>
<text fill-opacity="0" xml:space="preserve" transform="matrix(.7506297 0 0 .7506297 0 -10115.486)" font-size="16" font-family="Gautami"><tspan y="13955" x="290.35157">&#x200b;</tspan></text>
<text xml:space="preserve" transform="matrix(.7506297 0 0 .7506297 0 -10115.486)" font-size="16" font-family="TimesNewRomanPSMT"><tspan y="13955" x="290.35157 299.37556 303.37556 309.59956 317.59956 322.04756 326.49555 330.94355 334.94355 342.04756 349.15156 356.25556 364.25556 368.25556 372.70356 380.70356 388.70356 396.70356 401.15156 405.15156 409.59956 417.59956 421.59956 427.82356 432.27156 439.37556 443.82356 450.92756 463.37556 470.47956 478.47956 482.92756 489.15156 493.15156 498.47956 502.47956 511.50355 517.72756 522.17556 534.62356 543.6475 547.6475 552.9755 556.9755 568.5275 576.5275 580.9755 588.0795 596.0795 600.0795 607.18356 615.18356 623.18356 629.40756 633.40756 644.95956 649.40756 653.8555 661.8555 665.8555">&#x003e; split each input in statements ( &#x003c;stm&#x003e; ) which ends with a</tspan></text>
<text xml:space="preserve" transform="matrix(.7506297 0 0 .7506297 0 -10115.486)" font-size="16" font-family="TimesNewRomanPSMT"><tspan y="13955" x="672.90628"> </tspan></text>
<text xml:space="preserve" transform="matrix(.7506297 0 0 .7506297 0 -10115.486)" font-size="16" font-family="TimesNewRomanPSMT"><tspan y="13977" x="123.59375 129.81775 136.92176 149.36975 153.81775 160.92176 168.92176 173.36975 181.36975 189.36975">semicolon.</tspan></text>
<text xml:space="preserve" transform="matrix(.7506297 0 0 .7506297 0 -10115.486)" font-size="16" font-family="TimesNewRomanPSMT"><tspan y="13977" x="193.35938"> </tspan></text>
<text xml:space="preserve" transform="matrix(.7506297 0 0 .7506297 0 -10115.486)" font-size="16" font-family="TimesNewRomanPSMT"><tspan y="13977" x="197.35938"> </tspan></text>
<text xml:space="preserve" transform="matrix(.7506297 0 0 .7506297 0 -10115.486)" font-size="16" font-family="ArialMT"><tspan y="13999" x="99.59375">&#x25cf;</tspan></text>
<text xml:space="preserve" transform="matrix(.7506297 0 0 .7506297 0 -10115.486)" font-size="16" font-family="TimesNewRomanPSMT"><tspan y="13999" x="123.59375 133.36975 141.36975 148.47376 152.47376 158.69776 163.14575 170.24976 174.69776 181.80176 194.24976 201.35376 209.35376 213.80176 217.80176 225.80176 233.80176 241.80176 248.90576 252.90576">The statement node &#x003c;</tspan></text>
<text xml:space="preserve" transform="matrix(.7506297 0 0 .7506297 0 -10115.486)" font-size="16" font-family="Gautami"><tspan y="13999" x="261.90626">&#x200b;</tspan></text>
<text xml:space="preserve" transform="matrix(.7506297 0 0 .7506297 0 -10115.486)" font-size="16" font-family="TimesNewRomanPS" font-weight="bold"><tspan y="13999" x="261.90626 268.13026 273.45826">stm</tspan></text>
<path transform="matrix(.7506297,0,0,.7506297,0,-10115.486)" d="M 0 0 L 0 0 L 0 0 L 0 0 Z "/>
<text fill-opacity="0" xml:space="preserve" transform="matrix(.7506297 0 0 .7506297 0 -10115.486)" font-size="16" font-family="Gautami"><tspan y="13999" x="286.78907">&#x200b;</tspan></text>
<text xml:space="preserve" transform="matrix(.7506297 0 0 .7506297 0 -10115.486)" font-size="16" font-family="TimesNewRomanPSMT"><tspan y="13999" x="286.78907 295.81306 299.81306 304.26106 310.48506 314.48506 322.48506 328.70906 335.81306 343.81306 347.81306 352.26106 360.26106 364.26106 372.26106 377.58906 385.58906 393.58906 401.58906 408.69306 415.79707 419.79707 426.90107 430.90107 438.00508 446.00508 458.45307 470.90107 478.00508 486.00508 494.00508 498.00508 506.00508 511.33308 515.33309 522.4371 530.4371 534.4371 541.5411 549.5411 557.5411 562.8691 569.9731 576.1971 582.4211 586.8691 594.8691 602.8691">&#x003e; is used to produce a command or an expression.</tspan></text>
<text xml:space="preserve" transform="matrix(.7506297 0 0 .7506297 0 -10115.486)" font-size="16" font-family="TimesNewRomanPSMT"><tspan y="13999" x="606.84378"> </tspan></text>
<text fill="#434343" xml:space="preserve" transform="matrix(.7506297 0 0 .7506297 0 -10115.486)" font-size="18.66" font-family="TimesNewRomanPSMT"><tspan y="14045" x="75.59375 88.03732 97.36545 111.87688 126.388309 134.66884 143.99697 153.32509">Commands</tspan></text>
<text fill="#434343" xml:space="preserve" transform="matrix(.7506297 0 0 .7506297 0 -10115.486)" font-size="18.66" font-family="TimesNewRomanPSMT"><tspan y="14045" x="160.57813"> </tspan></text>
<text xml:space="preserve" transform="matrix(.7506297 0 0 .7506297 0 -10115.486)" font-size="16" font-family="TimesNewRomanPSMT"><tspan y="14073" x="75.59375 85.36975 93.36975 100.473758 104.473758 112.473758 120.473758 124.92175 132.02576 139.12976 143.57776 148.02576 156.02576 163.12976 167.12976 175.12976 180.45777 184.45777 191.56177 199.56177 212.00977 224.45777 231.56177 239.56177 247.56177 251.56177 256.00978 262.23377 266.23377 270.68177 278.68177 282.68177 290.68177 296.00978 304.00978 312.00978 320.00978 327.11378 334.21778 338.21778 342.66578 350.66578 357.76979 361.76979 366.21778 377.76979 385.76979 389.76979 396.87379 404.87379 412.87379 417.32179 422.64979 430.64979 435.09779 439.09779 445.32179 449.76979 455.09779 463.09779 470.20179 474.64979 482.64979 487.97779 495.0818 499.0818 503.5298 508.8578 512.8578 519.9618 527.9618 535.9618 539.9618 551.5138 559.5138 563.9618 568.4098 575.5138 579.5138 586.6178 594.6178 602.6178 606.6178 614.6178 619.0658 627.0658 634.1698 638.1698 642.6178 650.6178">The objective of command is to produce the two control structure if and while and give the</tspan></text>
<text xml:space="preserve" transform="matrix(.7506297 0 0 .7506297 0 -10115.486)" font-size="16" font-family="TimesNewRomanPSMT"><tspan y="14073" x="657.6406"> </tspan></text>
<text xml:space="preserve" transform="matrix(.7506297 0 0 .7506297 0 -10115.486)" font-size="16" font-family="TimesNewRomanPSMT"><tspan y="14095" x="75.59375 83.59375 91.59375 97.81775 104.04175 108.489749 116.489749 120.937747 125.38574 129.83374 134.28174 142.28174 146.28174 150.72974 158.72974 162.72974 169.83374 176.05774 182.28174 186.72974 194.72974 202.72974 206.72974 213.83374 217.83374 224.05774 232.05774 239.16175 246.26575 250.71375 256.04176 260.48976 267.59376 271.59376 278.69776 286.69776 294.69776 300.02577 307.12977 313.35377 319.57777 324.02577 332.02577 340.02577 344.02577 348.47377 356.47377 360.47377 367.57777 375.57777 379.57777 384.02577 392.02577 399.12977 407.12977 411.57777 416.02577 421.35377 425.80177 432.90577 438.23377">possibility to assign a specific expression to an identifier.</tspan></text>
<text xml:space="preserve" transform="matrix(.7506297 0 0 .7506297 0 -10115.486)" font-size="16" font-family="TimesNewRomanPSMT"><tspan y="14095" x="442.1875"> </tspan></text>
<text xml:space="preserve" transform="matrix(.7506297 0 0 .7506297 0 -10115.486)" font-size="16" font-family="TimesNewRomanPSMT"><tspan y="14117" x="75.59375 89.81775 97.81775 103.14575 110.249759 114.249759 122.249759 127.57776 134.68177 141.78577 146.23377 152.45777 159.56177 164.00977 172.00977 176.00977 180.45777 188.45777 195.56177 199.56177 204.00977 209.33777 213.33777 220.44178 228.44178 236.44178 240.88977 246.21778 254.21778 258.66578 262.66578 268.88978 273.33778 278.66578 286.66578 293.76979 298.21778 306.21778 311.54579 318.64979 322.64979 327.09779 333.32179 337.32179 344.42579 352.42579 364.87379 372.87379 380.87379 387.09779 394.20179 402.20179 406.20179 414.20179 422.20179 426.20179 430.64979 438.64979 445.75379 449.75379 457.75379 464.8578 472.8578 484.4098 492.4098 497.7378 505.7378 509.7378 515.0658 523.9618 527.9618 531.9618 539.0658 547.0658 551.0658 558.1698 566.1698 574.1698 579.4978 586.6018 592.8258 599.0498 603.4978 611.4978 619.4978 623.4978 632.5218 639.6258 647.6258 655.6258 660.9538">More precisely the if control structure is composed by the keyword IF, an expression &#x003c;expr&#x003e;</tspan></text>
<text xml:space="preserve" transform="matrix(.7506297 0 0 .7506297 0 -10115.486)" font-size="16" font-family="TimesNewRomanPSMT"><tspan y="14117" x="669.9219"> </tspan></text>
<text xml:space="preserve" transform="matrix(.7506297 0 0 .7506297 0 -10115.486)" font-size="16" font-family="TimesNewRomanPSMT"><tspan y="14139" x="75.59375 82.697757 90.697757 97.80176 102.249759 110.249759 116.473758 123.57776 127.57776 135.57776 142.68177 147.12976 158.68177 165.78577 172.88977 180.88977 184.88977 191.11377 199.11377 207.11377 214.21778 219.54578 226.64978 230.64978 238.64978 243.97779 251.08179 258.1858 266.1858 273.2898 277.7378 283.9618 287.9618 295.0658 303.0658 311.0658 315.0658 319.0658 326.1698 330.1698 338.1698 343.4978 351.4978 359.4978 364.8258 371.9298 384.3778 388.3778 397.4018 405.4018 410.7298 418.7298 426.7298 432.0578 439.1618 451.6098 460.6338 465.0818 469.0818 473.5298 481.5298 488.6338 492.6338 504.1858 512.1858 516.6338 521.0818 528.1858 532.1858 538.4098 542.8578 548.1858 556.1858 563.2898 567.7378 575.7378 581.0658 588.1698 592.1698 596.6178 602.8418 606.8418 613.0658 617.5138 629.9618 634.4098 638.8578 645.9618 651.2898 655.2898 659.7378 667.7378 671.7378 676.1858 684.1858 691.2898 695.2898 700.6178">enclose between square brackets and  a program &#x003c;program&#x003e;; the while structure is similar to the IF</tspan></text>
<text xml:space="preserve" transform="matrix(.7506297 0 0 .7506297 0 -10115.486)" font-size="16" font-family="TimesNewRomanPSMT"><tspan y="14139" x="709.4375"> </tspan></text>
<text xml:space="preserve" transform="matrix(.7506297 0 0 .7506297 0 -10115.486)" font-size="16" font-family="TimesNewRomanPSMT"><tspan y="14161" x="75.59375 81.81775 86.26575 91.59375 99.59375 106.697757 111.14575 119.14575 124.473758 131.57776 135.57776 143.57776 151.57776 156.02576 160.02576 164.47376 168.92176 174.24976 180.47376 184.47376 189.80176 196.90576 204.90576 212.00977 219.11377 223.56177 227.56177 232.00977 240.00977 247.11377 251.11377 257.33778 261.78578 268.88978 273.33778 280.44178 292.88978 299.99378 307.99378 312.44178 318.66578 322.66578 334.21778 342.21778 346.66578 351.11378 358.21778 362.21778 366.66578 374.66578 381.76979 385.76979 392.87379 400.87379 408.87379 416.87379 421.32179 425.76979 430.21778 438.21778 446.21778 450.21778 454.66578 460.88978 464.88978 469.33778 474.66578 482.66578 489.76979 493.76979 500.87379 507.09779 511.09779 515.5458 523.5458 530.6498 534.6498 541.7538 548.8578 556.8578 564.8578 572.8578 577.3058 584.4098 591.5138 595.9618 599.9618 607.9618 615.0658 620.3938 624.8418 632.8418 637.2898 641.7378 646.1858 654.1858 662.1858">structure but it&#x2019;s repeat the statements while the condition is true as the canonical definition.</tspan></text>
<text xml:space="preserve" transform="matrix(.7506297 0 0 .7506297 0 -10115.486)" font-size="16" font-family="TimesNewRomanPSMT"><tspan y="14161" x="666.0781"> </tspan></text>
<text xml:space="preserve" transform="matrix(.7506297 0 0 .7506297 0 -10115.486)" font-size="16" font-family="TimesNewRomanPSMT"><tspan y="14183" x="75.59375"> </tspan></text>
<text fill="#434343" xml:space="preserve" transform="matrix(.7506297 0 0 .7506297 0 -10115.486)" font-size="18.66" font-family="TimesNewRomanPSMT"><tspan y="14229" x="75.59375 86.98973 96.317859 105.64598 111.85866 120.13919 127.39946 134.65973 139.84304 149.17116 158.49929 165.75955 170.94286 175.60692 189.07987 195.29254 200.47585 205.65915 214.98728 229.4987 237.77924 242.96254 248.14585 256.4264 261.09046 269.37098 278.6991 288.02723 292.69129 305.13487 314.46299 323.7911 328.97444 337.25495 345.53547">Expressions: Arithmetic and Boolean</tspan></text>
<text fill="#434343" xml:space="preserve" transform="matrix(.7506297 0 0 .7506297 0 -10115.486)" font-size="18.66" font-family="TimesNewRomanPSMT"><tspan y="14229" x="354.85939"> </tspan></text>
<text xml:space="preserve" transform="matrix(.7506297 0 0 .7506297 0 -10115.486)" font-size="16" font-family="TimesNewRomanPSMT"><tspan y="14265" x="75.59375 85.36975 93.36975 101.36975 106.697757 113.80176 120.02576 126.249759 130.69776 138.69776 146.69776 150.69776 159.72176 166.82576 174.82576 182.82576 188.15377 197.17777 201.17777 208.28177 215.38578 223.38578 227.38578 235.38578 242.48978 246.48978 253.59378 261.59379 265.59379 272.69779 278.0258 282.4738 286.92179 294.92179 307.36979 314.4738 318.92179 323.36979 330.4738 334.4738 341.5778 349.5778 357.5778 362.9058 370.0098 376.2338 382.4578 386.9058 394.9058 402.9058 406.9058 415.92979 423.03379 430.1378 438.1378 446.1378 451.4658 460.48979 464.48979 472.48979 477.81779 481.81779 488.92179 492.92179 500.92179 508.92179 516.92178 521.36978 528.47378 535.57778 543.57778 547.57778 554.68179 562.68179 570.68179 576.00979 583.1138 589.33779 595.56179 600.00979 608.00979 616.00979 620.00979 629.03378 637.03378 644.13778 652.13778 660.13778 665.46578 674.48977">Expression &#x003c;expr&#x003e; can be an arithmetic expression &#x003c;aexpr&#x003e; or a boolean expression &#x003c;bexpr&#x003e;:</tspan></text>
<text xml:space="preserve" transform="matrix(.7506297 0 0 .7506297 0 -10115.486)" font-size="16" font-family="TimesNewRomanPSMT"><tspan y="14265" x="678.875"> </tspan></text>
<text xml:space="preserve" transform="matrix(.7506297 0 0 .7506297 0 -10115.486)" font-size="16" font-family="TimesNewRomanPSMT"><tspan y="14287" x="75.59375"> </tspan></text>
<text xml:space="preserve" transform="matrix(.7506297 0 0 .7506297 0 -10115.486)" font-size="16" font-family="ArialMT"><tspan y="14309" x="99.59375">&#x25cf;</tspan></text>
<text xml:space="preserve" transform="matrix(.7506297 0 0 .7506297 0 -10115.486)" font-size="16" font-family="TimesNewRomanPSMT"><tspan y="14309" x="123.59375 130.69776 136.02576 140.47376 144.92176 152.92176 165.36975 172.47376 176.92176 181.36975 188.47376 192.47376 199.57776 207.57776 215.57776 220.90576 228.00977 234.23377 240.45777 244.90576 252.90576 260.90577 267.12977 271.57777 275.57777 282.68177 289.78578 297.78578 305.78578">arithmetic expressions: aexpr</tspan></text>
<text xml:space="preserve" transform="matrix(.7506297 0 0 .7506297 0 -10115.486)" font-size="16" font-family="TimesNewRomanPSMT"><tspan y="14309" x="311.07814"> </tspan></text>
<text xml:space="preserve" transform="matrix(.7506297 0 0 .7506297 0 -10115.486)" font-size="16" font-family="TimesNewRomanPSMT"><tspan y="14338" x="103.59375 115.14575 123.14575 127.14575 134.24976 142.24976 150.24976 154.69776 159.14575 163.59375 171.59375 178.69776 182.69776 189.80176 197.80176 205.80176 211.12976 218.23377 224.45777 230.68177 235.12976 243.12976 251.12976 255.12976 259.57777 267.57777 274.68177 279.12977 283.12977 289.35377 293.80177 300.90577 306.23377 310.68177 316.90577 320.90577 332.45777 336.90577 341.35377 349.35377 353.35377 360.45777 368.45777 372.45777 381.48176 388.58576 393.03376 400.13777 405.46577 417.91377 426.93775 430.93775 436.26576 444.26576 448.71376 453.16175 461.16175 472.71376 479.81776 487.81776 491.81776 499.81776 507.81776 511.81776 518.92178 523.36978 527.81777 535.81777 542.92178 548.24978 552.24978 560.24978 564.69778 572.69778 578.92178 582.92178 590.92178 596.24978 600.24978 612.69778 617.14578 625.14578 633.14578 639.36978 643.36978 647.36978 652.69778 660.69778 665.14578 669.59378 677.59378 689.14578 696.24978">An additive expression that starts with an &#x003c;aterm&#x003e; followed by either plus or minus, followed</tspan></text>
<text xml:space="preserve" transform="matrix(.7506297 0 0 .7506297 0 -10115.486)" font-size="16" font-family="TimesNewRomanPSMT"><tspan y="14338" x="704.1875"> </tspan></text>
<text xml:space="preserve" transform="matrix(.7506297 0 0 .7506297 0 -10115.486)" font-size="16" font-family="TimesNewRomanPSMT"><tspan y="14360" x="103.59375 111.59375 119.59375 123.59375 130.69776 138.69776 146.69776 151.14575 159.14575 166.24976 171.57776 175.57776 184.60176 191.70577 198.80977 206.80977 214.80977 220.13777 229.16178">by another &#x003c;aexpr&#x003e;.</tspan></text>
<text xml:space="preserve" transform="matrix(.7506297 0 0 .7506297 0 -10115.486)" font-size="16" font-family="TimesNewRomanPSMT"><tspan y="14360" x="233.14063"> </tspan></text>
<text xml:space="preserve" transform="matrix(.7506297 0 0 .7506297 0 -10115.486)" font-size="16" font-family="TimesNewRomanPSMT"><tspan y="14382" x="103.59375 113.36975 121.36975 125.81775 132.04175 136.04175 140.48975 146.71375 150.71375 157.81775 161.81775 166.26575 174.26575 182.26575 186.71375 193.81775 200.92176 205.36975 209.36975 214.69776 221.80176 228.90576 236.90576 242.23377 248.45777 252.90576 260.90577 268.00978 272.00978 280.00978 287.11378 292.44178 296.88978 304.88978 309.33778 313.78578 318.23377 326.23377 334.23377 338.23377 343.56178 351.56178 356.88978 360.88978 368.88978 375.99378 381.32179 387.54579 391.99378 399.99378 407.99378 411.99378 419.09779 427.09779 435.09779 440.42579 447.5298 453.75379 459.97779 464.42579 472.42579 480.42579 486.64979 490.64979 498.64979 503.97779 507.97779 512.4258 520.4258 527.5298 531.5298 535.9778 543.9778 551.9778 559.0818 563.0818 572.1058 579.2098 583.6578 590.7618 596.0898 608.5378 617.56179 621.56179 630.58578 634.58578 643.60977 650.71377 655.16177 662.26577 667.59378 680.04177 689.06576 693.06576">This is a typical recursive definition for parsing expressions of the type &#x003c;aterm&#x003e; + &#x003c;aterm&#x003e; -</tspan></text>
<text xml:space="preserve" transform="matrix(.7506297 0 0 .7506297 0 -10115.486)" font-size="16" font-family="TimesNewRomanPSMT"><tspan y="14382" x="698.3125"> </tspan></text>
<text xml:space="preserve" transform="matrix(.7506297 0 0 .7506297 0 -10115.486)" font-size="16" font-family="TimesNewRomanPSMT"><tspan y="14404" x="103.59375 112.61775 119.721759 124.169757 131.27376 136.60176 149.04976 158.07376 162.07376 166.07376 170.07376 174.07376 178.07376 185.17777 189.62577 196.72977 200.72977 204.72977 208.72977 218.50577 226.50577 233.60977 246.05777 254.05777 258.50578 265.60978 270.05778 274.05778 282.05778 286.05778 291.38578 295.38578 303.38578 307.38578 316.40977 320.40977 328.40977">&#x003c;aterm&#x003e; ... etc.. Example: x - 5 + y.</tspan></text>
<text xml:space="preserve" transform="matrix(.7506297 0 0 .7506297 0 -10115.486)" font-size="16" font-family="TimesNewRomanPSMT"><tspan y="14404" x="332.375"> </tspan></text>
<text xml:space="preserve" transform="matrix(.7506297 0 0 .7506297 0 -10115.486)" font-size="16" font-family="TimesNewRomanPSMT"><tspan y="14426" x="103.59375 115.14575 119.14575 123.59375 131.59375 139.59375 146.69776 151.14575 159.14575 163.14575 172.16976 179.27376 183.72176 190.82576 196.15377 208.60176 217.62577 221.62577 226.07376 232.29776 236.29776 243.40177 247.84976 254.07376 262.07377 266.07377 273.17778 281.17778 289.17778 295.40177 299.84977 307.84977 314.95378 320.28178 327.38578 335.38578 339.38578 346.48979 354.48979 358.48979 367.51377 374.61778 381.72178 389.72178 397.72178 403.04978 412.07377 416.07377 420.07377 427.17778 431.17778 439.17778 443.17778 447.17778 455.17778 463.17778">A lonely &#x003c;aterm&#x003e; is also considered an &#x003c;aexpr&#x003e;, e.g  44.</tspan></text>
<text xml:space="preserve" transform="matrix(.7506297 0 0 .7506297 0 -10115.486)" font-size="16" font-family="TimesNewRomanPSMT"><tspan y="14426" x="467.14064"> </tspan></text>
<text xml:space="preserve" transform="matrix(.7506297 0 0 .7506297 0 -10115.486)" font-size="16" font-family="TimesNewRomanPSMT"><tspan y="14448" x="103.59375 112.61775 119.721759 124.169757 131.27376 136.60176 149.04976 155.27376 164.29776 168.29776 175.40177 180.72977 187.83377 191.83377 204.28177 212.28177 217.60977 224.71378 228.71378 233.16178 237.60977 245.60977 253.60977 258.05778 262.50578 270.50578 274.50578 282.50578 290.50578 298.50578 306.50578 314.50578 318.50578 322.95378 330.95378 338.05778 346.05778 350.05778 359.08177 366.18577 373.28977 381.28977 389.28977 394.61778 403.64176 407.64176 411.64176 418.74577 426.74577 432.07377 437.40177 444.50578 450.72978 458.72978 466.72978 474.72978 482.72978 487.17778 495.17778 503.17778 507.17778 511.62577 519.62576 523.62576 531.62576 536.0737 544.0737 552.0737 559.17776 564.50576 568.50576 576.50576 581.83377 588.93777 596.04177 603.14578 611.14578 618.24978 626.24978 633.35379 640.45779 644.45779 652.45779">&#x003c;aterms&#x003e; are more tightly bound than &#x003c;aexpr&#x003e;, corresponding to higher precedence of</tspan></text>
<text xml:space="preserve" transform="matrix(.7506297 0 0 .7506297 0 -10115.486)" font-size="16" font-family="TimesNewRomanPSMT"><tspan y="14448" x="657.71878"> </tspan></text>
<text xml:space="preserve" transform="matrix(.7506297 0 0 .7506297 0 -10115.486)" font-size="16" font-family="TimesNewRomanPSMT"><tspan y="14470" x="103.59375 116.04175 124.04175 128.48975 132.93775 137.38574 145.38574 149.83374 154.28174 161.38574 168.48975 172.93775 177.38574 185.38574 192.48975 196.48975 204.48975 210.71375 214.71375 218.71375 225.81775 233.81775 241.81775 246.26575 250.71375 255.16175 263.16175 270.26576 274.26576 282.26576 290.26576 297.36976 302.69776 309.80177 314.24977 322.24977 327.57777 333.80177">multiplicative vs. additive operators.</tspan></text>
<text xml:space="preserve" transform="matrix(.7506297 0 0 .7506297 0 -10115.486)" font-size="16" font-family="TimesNewRomanPSMT"><tspan y="14470" x="337.75"> </tspan></text>
<text xml:space="preserve" transform="matrix(.7506297 0 0 .7506297 0 -10115.486)" font-size="16" font-family="TimesNewRomanPSMT"><tspan y="14470" x="341.75"> </tspan></text>
<text xml:space="preserve" transform="matrix(.7506297 0 0 .7506297 0 -10115.486)" font-size="16" font-family="TimesNewRomanPS" font-style="italic"><tspan y="14545" x="75.59375 79.59375 83.59375 87.59375 91.59375 95.59375 99.59375 103.59375 107.59375 111.59375 115.59375 119.59375 123.59375">             </tspan></text>
<text xml:space="preserve" transform="matrix(.7506297 0 -.18765743 .7506297 0 -10115.486)" font-size="16" font-family="Gautami"><tspan y="14545" x="3763.8438">&#x200b;</tspan></text>
<text xml:space="preserve" transform="matrix(.7506297 0 0 .7506297 0 -10115.486)" font-size="16" font-family="TimesNewRomanPSMT"><tspan y="14545" x="127.59375 131.59375 139.59375"> 13</tspan></text>
<text xml:space="preserve" transform="matrix(.7506297 0 0 .7506297 0 -10115.486)" font-size="16" font-family="TimesNewRomanPSMT"><tspan y="14545" x="147.59375"> </tspan></text>
</g>
</g>
</svg>
