<?xml version="1.0" encoding="UTF-8" standalone="no"?>
<!DOCTYPE svg PUBLIC "-//W3C//DTD SVG 1.1//EN" "http://www.w3.org/Graphics/SVG/1.1/DTD/svg11.dtd">
<svg xmlns="http://www.w3.org/2000/svg" xmlns:xlink="http://www.w3.org/1999/xlink" version="1.1" width="596pt" height="843pt" viewBox="0 0 596 843">
<g enable-background="new">
<clipPath id="cp23">
<path d="M 0 0 L 596 0 L 596 842.95706 L 0 842.95706 Z " fill-rule="evenodd"/>
</clipPath>
<g clip-path="url(#cp23)">
<path transform="matrix(.7506297,0,0,.7506297,0,-4214.786)" d="M 0 5615 L 794 5615 L 794 6738 L 0 6738 Z " fill="#ffffff"/>
<path transform="matrix(.7506297,0,0,.7506297,0,-4214.786)" d="M 0 5615 L 794 5615 L 794 6738 L 0 6738 Z " fill="#ffffff"/>
<path transform="matrix(.7506297,0,0,.7506297,0,-4214.786)" d="M 0 0 L 794 0 L 794 44920 L 0 44920 Z " fill="#ffffff"/>
<path transform="matrix(.7506297,0,0,.7506297,0,-4214.786)" d="M 0 5615 L 794 5615 L 794 6738 L 0 6738 Z " fill="#ffffff"/>
<path transform="matrix(.7506297,0,0,.7506297,0,-4214.786)" d="M 0 5709 L 794 5709 L 794 6738 L 0 6738 Z " fill="#ffffff"/>
<text xml:space="preserve" transform="matrix(.7506297 0 0 .7506297 0 -4214.786)" font-size="16" font-family="TimesNewRomanPSMT"><tspan y="5725" x="75.59375 87.14575 91.59375 99.59375 106.697757 110.697757 117.80176 121.80176 127.12976 135.12976 143.12976 150.23377 154.68177 159.12976 167.12976 175.12976 179.12976 183.12976 190.23377 194.23377 202.23377">Give a function, e.g </tspan></text>
<text xml:space="preserve" transform="matrix(.7506297 0 0 .7506297 0 -4214.786)" font-size="16" font-family="Gautami"><tspan y="5725" x="206.21875">&#x200b;</tspan></text>
<text xml:space="preserve" transform="matrix(.7506297 0 0 .7506297 0 -4214.786)" font-size="16" font-family="TimesNewRomanPS" font-style="italic"><tspan y="5725" x="206.21875 210.66675 215.99475 220.44275 225.77075 229.77075">f(t) ,</tspan></text>
<text xml:space="preserve" transform="matrix(.7506297 0 -.18765743 .7506297 0 -4214.786)" font-size="16" font-family="Gautami"><tspan y="5725" x="1665.0156">&#x200b;</tspan></text>
<text xml:space="preserve" transform="matrix(.7506297 0 0 .7506297 0 -4214.786)" font-size="16" font-family="TimesNewRomanPSMT"><tspan y="5725" x="233.76563 237.76563 242.21363 250.21363 257.31764 261.31764 268.42164 275.52565 283.52565 290.62965 295.95765 299.95765 306.18165 310.62965 315.95765 323.06166 327.50965 334.61366 342.61366 350.61366 354.61366 360.83766 368.83766 376.83766 384.83766 391.94166 398.16566 402.61366 406.61366 411.06166 419.06166 423.06166 430.16566 438.16566 445.26966 449.71766 457.71766 464.82167 469.26966 476.37367 480.37367 484.82167 492.82167 499.92567 503.92567 511.02967 516.35769 524.35769 532.35769 544.80569 551.90969 559.90969 564.35769 568.35769 572.80569 576.80569 582.13369 586.58169 594.58169 601.68569 606.13369 610.13369 617.2377 624.3417 632.3417 636.3417 644.3417 651.4457 655.4457 662.5497 666.5497 672.7737 677.2217 689.6697 697.6697 702.1177"> the eager strategy suggest to evaluate the argument t (that can be a simple</tspan></text>
<text xml:space="preserve" transform="matrix(.7506297 0 0 .7506297 0 -4214.786)" font-size="16" font-family="TimesNewRomanPSMT"><tspan y="5725" x="709.1406"> </tspan></text>
<text xml:space="preserve" transform="matrix(.7506297 0 0 .7506297 0 -4214.786)" font-size="16" font-family="TimesNewRomanPSMT"><tspan y="5747" x="75.59375 83.59375 90.697757 96.02576 100.473758 107.57776 115.57776 120.02576 127.12976 131.12976 139.12976 144.45777 148.45777 152.90576 160.90576 168.00977 172.00977 177.33777 184.44178 190.66577 198.66577 203.11377 207.56177 211.56177 219.56177 224.88977 228.88977 235.99378 243.99378 251.99378 256.44178 264.44178 271.54579 276.87379 280.87379 286.20179 294.20179 302.20179 309.3058 313.75379 318.20179 326.20179 334.20179 339.5298 343.5298 348.8578 353.3058 358.6338 364.8578 369.3058 373.3058 380.4098 388.4098 396.4098 400.4098 408.4098 416.4098 423.5138 430.6178 434.6178 441.7218 445.7218 451.0498 458.1538 464.3778 472.3778 476.8258 481.2738 485.2738 489.7218 495.9458 499.9458 507.9458 515.9458 520.3938 527.4978 531.9458 539.9458 547.0498 555.0498 559.0498 563.0498 568.3778 576.3778 581.7058 585.7058 592.8098 600.8098 607.9138 620.3618 628.3618 632.8098 639.9138 643.9138 651.0178 659.0178 663.0178 667.4658 675.4658 679.9138 687.0178 695.0178 702.1218">variable or the result of another function) first and once a result is obtained, for example an integer</tspan></text>
<text xml:space="preserve" transform="matrix(.7506297 0 0 .7506297 0 -4214.786)" font-size="16" font-family="TimesNewRomanPSMT"><tspan y="5747" x="707.3594"> </tspan></text>
<text xml:space="preserve" transform="matrix(.7506297 0 0 .7506297 0 -4214.786)" font-size="16" font-family="TimesNewRomanPSMT"><tspan y="5769" x="75.59375 83.59375 87.59375 91.59375 96.04175 104.04175 108.04175 112.489749 120.489749 127.59375 135.59375 139.59375 147.59375 152.92176 160.92176 168.02576 175.12976 182.23377 190.23377 194.23377 205.78577 210.23377 214.68177 222.68177 226.68177 231.12976 239.12976 246.23377 250.23377 257.33778 265.33778 272.44178 276.88978 284.88978 291.99378 296.44178 300.88978 308.88978 316.88978 320.88978 328.88978 334.21778">n, to then proceed with the evaluation of </tspan></text>
<text xml:space="preserve" transform="matrix(.7506297 0 0 .7506297 0 -4214.786)" font-size="16" font-family="Gautami"><tspan y="5769" x="338.1797">&#x200b;</tspan></text>
<text xml:space="preserve" transform="matrix(.7506297 0 0 .7506297 0 -4214.786)" font-size="16" font-family="TimesNewRomanPS" font-style="italic"><tspan y="5769" x="338.1797">f</tspan></text>
<text xml:space="preserve" transform="matrix(.7506297 0 -.18765743 .7506297 0 -4214.786)" font-size="16" font-family="Gautami"><tspan y="5769" x="1784.875">&#x200b;</tspan></text>
<text xml:space="preserve" transform="matrix(.7506297 0 0 .7506297 0 -4214.786)" font-size="16" font-family="TimesNewRomanPSMT"><tspan y="5769" x="342.625 347.953 355.953 361.281 365.729 369.729 374.177 382.177 386.177 390.625 398.625 405.729 409.729 415.953 423.057 431.057 437.281 444.385 448.385 452.833 460.833 467.937 472.385 476.385 483.489 489.713 493.713 499.937 507.937 515.937 523.937 527.937 535.041 541.265 545.265 549.713 557.713 564.817 568.817 575.921 581.249 589.249 597.249 609.697 616.801 624.801 629.249 633.249 637.697 643.921 647.921 653.249 660.353 667.45706 675.45706 679.45706 683.905 688.353 692.353 696.801">(n); in the sense that as soon as the argument is read it is</tspan></text>
<text xml:space="preserve" transform="matrix(.7506297 0 0 .7506297 0 -4214.786)" font-size="16" font-family="TimesNewRomanPSMT"><tspan y="5769" x="702.9844"> </tspan></text>
<text xml:space="preserve" transform="matrix(.7506297 0 0 .7506297 0 -4214.786)" font-size="16" font-family="TimesNewRomanPSMT"><tspan y="5791" x="75.59375 80.04175 92.489749 104.937747 112.04175 120.04175 124.489749 131.59375 136.04175 143.14575 147.59375 155.59375 159.59375 166.69776 174.69776 181.80176 186.24976 194.24976 201.35376 205.80176 212.90576 220.90576">immediately evaluated.</tspan></text>
<text xml:space="preserve" transform="matrix(.7506297 0 0 .7506297 0 -4214.786)" font-size="16" font-family="TimesNewRomanPSMT"><tspan y="5791" x="224.85938"> </tspan></text>
<text xml:space="preserve" transform="matrix(.7506297 0 0 .7506297 0 -4214.786)" font-size="16" font-family="TimesNewRomanPSMT"><tspan y="5813" x="75.59375 85.36975 93.36975 100.473758 104.473758 108.92175 116.02576 123.12976 131.12976 135.12976 141.35376 145.80176 151.12976 158.23377 162.68177 169.78577 177.78577 185.78577 189.78577 195.11377 202.21778 208.44178 212.44178 216.88977 224.88977 231.99378 235.99378 243.99378 251.09778 263.54579 270.64979 274.64979 280.87379 288.87379 296.87379 304.87379 311.97779 318.20179 322.64979 327.97779 331.97779 339.97779 347.0818 353.3058 359.5298 363.5298 371.5298 375.97779 381.3058 388.4098 395.5138 399.9618 404.4098 412.4098 416.4098 420.8578 428.8578 432.8578 437.3058 445.3058 452.4098 456.4098 464.4098 471.5138 476.8418 481.2898 489.2898 493.7378 498.1858 502.6338 510.6338 518.6338 522.6338 530.6338 535.9618 539.9618 544.4098 552.4098 559.5138 563.5138 568.8418 576.8418 584.8418 591.9458 596.3938 600.8418 608.8418 616.8418 620.8418 624.8418 631.9458 639.9458 647.9458 651.9458 656.3938 661.7218 665.7218 670.1698 678.1698">The lazy strategy (as the name suggest) pass directly to the definition of the function, and if the</tspan></text>
<text xml:space="preserve" transform="matrix(.7506297 0 0 .7506297 0 -4214.786)" font-size="16" font-family="TimesNewRomanPSMT"><tspan y="5813" x="685.1875"> </tspan></text>
<text xml:space="preserve" transform="matrix(.7506297 0 0 .7506297 0 -4214.786)" font-size="16" font-family="TimesNewRomanPSMT"><tspan y="5835" x="75.59375 83.59375 90.697757 95.14575 103.14575 110.249759 114.249759 122.249759 127.57776 131.57776 138.68177 142.68177 149.78577 156.88977 162.21778 166.66577 173.76978 178.21778 186.21778 190.21778 197.32178 202.64978 210.64978 218.64978 231.09778 238.20178 246.20178 250.64978 254.64978 259.09779 263.09779 267.54579 273.76979 277.76979 285.76979 292.87379 299.97779 307.97779 315.0818 323.0818 327.0818 331.5298 339.5298 345.75379 350.20179 354.20179 358.64979 366.64979 373.75379 381.75379 385.75379 390.20179 398.20179 405.3058 409.3058 416.4098 424.4098 431.5138 435.9618 443.9618 451.0658 455.5138 459.9618 467.9618 475.9618 479.9618 487.9618 493.2898 497.2898 501.7378 509.7378 516.8418 520.8418 525.2898 529.2898 536.3938 541.7218 549.7218 557.7218 570.1698 577.2738 585.2738 589.7218 593.7218 598.1698 604.3938 608.3938 616.3938 623.4978 628.8258 634.1538 642.1538 647.4818 659.9298 667.0338 675.0338">value of a certain argument t is needed just then the evaluation of the t argument is performed.</tspan></text>
<text xml:space="preserve" transform="matrix(.7506297 0 0 .7506297 0 -4214.786)" font-size="16" font-family="TimesNewRomanPSMT"><tspan y="5835" x="678.9375"> </tspan></text>
<text xml:space="preserve" transform="matrix(.7506297 0 0 .7506297 0 -4214.786)" font-size="16" font-family="TimesNewRomanPSMT"><tspan y="5857" x="75.59375 85.36975 93.36975 100.473758 104.473758 108.92175 120.473758 128.47376 132.47376 139.57776 147.57776 155.57776 160.02576 167.12976 174.23377 180.45777 184.45777 192.45777 199.56177 207.56177 214.66577 218.66577 226.66577 233.76978 239.99378 244.44178 248.88977 256.88978 260.88978 268.88978 273.33778 278.66578 283.99378 291.09779 296.42579 303.5298 311.5298 315.97779 319.97779 327.0818 332.4098 337.7378 344.8418 351.9458 356.3938 362.6178">The two choices have vastly different effects.</tspan></text>
<text xml:space="preserve" transform="matrix(.7506297 0 0 .7506297 0 -4214.786)" font-size="16" font-family="TimesNewRomanPSMT"><tspan y="5857" x="366.57814"> </tspan></text>
<text xml:space="preserve" transform="matrix(.7506297 0 0 .7506297 0 -4214.786)" font-size="16" font-family="TimesNewRomanPSMT"><tspan y="5879" x="75.59375 80.92175 86.249759 90.249759 97.35376 101.35376 108.45776 115.56177 120.88977 125.33777 132.44178 136.88977 144.88977 148.88977 155.99378 161.32178 169.32178 177.32178 189.76978 196.87378 204.87378 209.32178 213.32178 217.76978 221.76978 226.21778 232.44178 236.44178 241.76978 247.09778 254.20178 262.20179 270.20179 277.3058 285.3058 289.75379 294.20179 302.20179 306.20179 314.20179 320.42579 327.5298 331.5298 335.97779 343.97779 347.97779 352.42579 360.42579 367.5298 371.5298 379.5298 386.6338 391.9618 396.4098 404.4098 408.8578 413.3058 417.75379 425.75379 433.75379 437.75379 445.75379 451.0818 455.0818 459.5298 467.5298 474.6338 478.6338 483.9618 491.9618 499.9618 507.0658 511.5138 515.9618 523.9618 531.9618 535.9618 539.9618 547.0658 551.0658 558.1698 565.2738 569.7218 574.1698 579.4978 587.4978 595.4978 600.8258 608.8258 615.9298 628.3778 635.4818 639.4818 645.7058 650.1538 655.4818 662.5858 667.0338 674.1378 682.1378">If a certain argument t is frequently use in the definition of the function, a call-by-name strategy</tspan></text>
<text xml:space="preserve" transform="matrix(.7506297 0 0 .7506297 0 -4214.786)" font-size="16" font-family="TimesNewRomanPSMT"><tspan y="5879" x="690.03128"> </tspan></text>
<text xml:space="preserve" transform="matrix(.7506297 0 0 .7506297 0 -4214.786)" font-size="16" font-family="TimesNewRomanPSMT"><tspan y="5901" x="75.59375 87.14575 91.59375 96.04175 100.489749 104.489749 109.81775 114.26575 119.59375 126.697757 134.69776 141.80176 146.24976 154.24976 161.35376 165.80176 172.90576 176.90576 184.00977 191.11377 198.21778 206.21778 210.21778 214.66577 219.11377 231.56177 238.66577 242.66577 247.11377 255.11377 262.21778 266.21778 273.32179 278.64979 286.64979 294.64979 307.09779 314.20179 322.20179 326.64979 330.64979 335.09779 341.32179 345.32179 353.32179 360.42579 367.5298 375.5298 382.6338 390.6338 394.6338 399.0818 407.0818 411.0818 415.5298 423.5298 430.6338 434.6338 442.6338 449.7378 455.0658 459.5138 467.5138 471.9618 476.4098 480.8578 488.8578 496.8578 500.8578 504.8578 511.9618 515.9618 523.0658 530.1698 534.6178 539.0658 544.3938 552.3938 560.3938 565.7218 573.7218 580.8258 585.2738 593.2738 600.3778 604.3778 610.6018 615.0498 620.3778 627.4818 631.9298 639.0338 647.0338 655.0338 659.0338 663.4818 671.4818 677.7058 682.1538 689.2578 696.3618">will ri-evaluate each time the argument is needed in the definition, a call-by-value strategy instead</tspan></text>
<text xml:space="preserve" transform="matrix(.7506297 0 0 .7506297 0 -4214.786)" font-size="16" font-family="TimesNewRomanPSMT"><tspan y="5901" x="704.2344"> </tspan></text>
<text xml:space="preserve" transform="matrix(.7506297 0 0 .7506297 0 -4214.786)" font-size="16" font-family="TimesNewRomanPSMT"><tspan y="5923" x="75.59375 87.14575 91.59375 96.04175 100.489749 104.489749 111.59375 118.697757 123.14575 130.24976 138.24976 142.69776 149.80176 154.24976 161.35376 165.35376 170.68177 175.12976 180.45777 186.68177 191.12976 195.12976 202.23377 206.68177 211.12976 215.12976 219.57776 227.57776 234.68177 238.68177 245.78577 251.11377 259.11378 267.11378 279.56178 286.66578 294.66578 299.11378 305.33778 309.33778 316.44178 324.44178 332.44178 336.44178 340.88978 348.88978 355.99378 363.99378 367.99378 379.54579 383.99378 388.44178 392.88978 396.88978 404.88978 410.21778 418.21778 425.32179 432.42579 439.5298 447.5298 451.5298 463.0818 467.5298 471.97779 479.97779 483.97779 488.42579 496.42579 503.5298 507.5298 514.6338 522.6338 529.7378 534.1858 542.1858 549.2898 553.7378 558.1858 566.1858 574.1858 578.1858 586.1858 591.5138 595.5138 599.9618 607.9618 615.0658 619.0658 624.3938 632.3938 640.3938 647.4978 651.9458 656.3938 664.3938 672.3938">will calculate first all the arguments and then will proceed with the evaluation of the function.</tspan></text>
<text xml:space="preserve" transform="matrix(.7506297 0 0 .7506297 0 -4214.786)" font-size="16" font-family="TimesNewRomanPSMT"><tspan y="5923" x="676.28128"> </tspan></text>
<text xml:space="preserve" transform="matrix(.7506297 0 0 .7506297 0 -4214.786)" font-size="16" font-family="TimesNewRomanPSMT"><tspan y="5945" x="75.59375 87.14575 95.14575 99.14575 103.59375 111.59375 118.697757 122.697757 130.69776 135.14575 143.14575 150.24976 155.57776 159.57776 167.57776 174.68177 182.68177 190.68177 194.68177 198.68177 203.12976 208.45777 212.45777 216.90576 224.90576 232.00977 236.00977 243.11377 251.11377 258.21778 262.66578 270.66578 277.76979 282.21778 286.66578 294.66578 302.66578 306.66578 314.66578 319.99378 323.99378 331.09779 339.09779 343.09779 350.20179 355.5298 363.5298 371.5298 383.97779 391.0818 399.0818 403.5298 407.5298 412.8578 424.4098 432.4098 436.8578 443.9618 451.9618 455.9618 468.4098 475.5138 483.5138 487.5138 495.5138 502.6178 510.6178 517.7218 523.0498 527.0498 535.0498 542.1538 546.1538 554.1538 560.3778 567.4818 575.4818 579.4818 583.9298 591.9298 595.9298 600.3778 608.3778 615.4818 619.4818 624.8098 632.8098 640.8098 647.9138 652.3618 656.8098 664.8098 672.8098 678.1378">On the other hand, if the evaluation of an argument (which may never be used in the function),</tspan></text>
<text xml:space="preserve" transform="matrix(.7506297 0 0 .7506297 0 -4214.786)" font-size="16" font-family="TimesNewRomanPSMT"><tspan y="5945" x="682.0625"> </tspan></text>
<text xml:space="preserve" transform="matrix(.7506297 0 0 .7506297 0 -4214.786)" font-size="16" font-family="TimesNewRomanPSMT"><tspan y="5967" x="75.59375 80.04175 87.14575 94.249759 102.249759 108.473758 112.473758 116.92175 124.92175 128.92176 136.02576 140.02576 148.02576 152.47376 160.47376 167.57776 172.90576 180.90576 188.00977 196.00977 203.11377 210.21778 214.21778 218.21778 222.66577 227.11377 233.33777 237.33777 245.33777 249.78577 257.78578 264.88978 270.21778 278.21778 285.32179 293.32179 300.42579 307.5298 311.5298 318.6338 325.7378 333.7378 337.7378 345.7378 352.8418 359.9458 367.9458 372.3938 379.4978 385.7218 391.9458 396.3938 404.3938 408.3938 415.4978 422.6018 430.6018 436.8258 443.9298 447.9298 452.3778 460.3778 467.4818 471.4818 479.4818 483.9298 491.9298 499.0338 504.36183 512.3618 519.4658 527.4658 534.5698 541.6738 545.6738 553.6738 559.00186 563.00186 567.4498 575.4498 582.55386 586.55386 593.65786 598.10586 602.55386 606.55386 611.88186 619.88186 627.88186 634.98587 639.43386 643.88186 651.88186 659.88186">leads to a divergence, its divergence can needlessly cause the divergence of the all function.</tspan></text>
<text xml:space="preserve" transform="matrix(.7506297 0 0 .7506297 0 -4214.786)" font-size="16" font-family="TimesNewRomanPSMT"><tspan y="5967" x="663.78128"> </tspan></text>
<text xml:space="preserve" transform="matrix(.7506297 0 0 .7506297 0 -4214.786)" font-size="16" font-family="TimesNewRomanPSMT"><tspan y="5989" x="75.59375 80.92175 88.92175 92.92175 100.92175 108.92175 114.249759 118.249759 122.697757 135.14575 143.14575 147.59375 154.69776 167.14575 174.24976 182.24976 186.69776 193.80176 198.24976 202.69776 210.69776 218.69776 222.69776 234.24976 241.35376 245.35376 253.35376 260.45777 268.45777 275.56178 279.56178 286.66578 294.66578 302.66578 308.88978 315.99378 323.99378 327.99378 332.44178 340.44178 344.44178 352.44178 358.66578 365.76979 369.76979 376.87379 384.87379 388.87379 395.97779 403.0818 411.0818 418.1858 423.5138 427.5138 434.6178 442.6178 450.6178 455.9458 463.9458 471.0498 478.1538 486.1538">In our implementation we have chosen to use an eager approach.</tspan></text>
<text xml:space="preserve" transform="matrix(.7506297 0 0 .7506297 0 -4214.786)" font-size="16" font-family="TimesNewRomanPSMT"><tspan y="5989" x="490.09376"> </tspan></text>
<text xml:space="preserve" transform="matrix(.7506297 0 0 .7506297 0 -4214.786)" font-size="21.33" font-family="TimesNewRomanPS" font-weight="bold"><tspan y="6040" x="75.59375 92.18346 102.84752 111.14758 123.00928 132.47573 138.40137 144.32701 151.42945 156.76148 169.78955 181.65125 193.51294 202.97939 210.08182 220.74588 230.21233 235.54436 240.87639 256.27888 268.14057 280.00227 285.92793 291.85359 301.32 311.98408 319.0865 325.01216 335.6762 345.14265 350.47468 361.13874 373.00044 384.86213 390.19416 410.32466 420.9887 432.8504 443.51448 455.37617">Haskell: Functor, Applicative and Monads</tspan></text>
<text xml:space="preserve" transform="matrix(.7506297 0 0 .7506297 0 -4214.786)" font-size="21.33" font-family="TimesNewRomanPS" font-weight="bold"><tspan y="6040" x="463.67189"> </tspan></text>
<text fill="#434343" xml:space="preserve" transform="matrix(.7506297 0 0 .7506297 0 -4214.786)" font-size="18.66" font-family="TimesNewRomanPSMT"><tspan y="6088" x="75.59375 85.96947 95.29759 104.62572 112.90625 118.089557 127.41768 133.63036">Functors</tspan></text>
<text fill="#434343" xml:space="preserve" transform="matrix(.7506297 0 0 .7506297 0 -4214.786)" font-size="18.66" font-family="TimesNewRomanPSMT"><tspan y="6088" x="140.89063"> </tspan></text>
<text xml:space="preserve" transform="matrix(.7506297 0 0 .7506297 0 -4214.786)" font-size="16" font-family="TimesNewRomanPSMT"><tspan y="6116" x="75.59375 80.92175 88.92175 92.92175 104.473758 111.57776 117.80176 125.80176 132.90576 137.35376 141.80176 145.80176 149.80176 155.12976 163.12976 171.12976 178.23377 182.68177 187.12976 195.12976 203.12976 209.35376 213.35376 221.35376 226.68177 230.68177 235.12976 243.12976 251.12976 258.23377 262.23377 269.33778 273.33778 278.66578 287.68977 291.68977 299.68977 303.68977 308.13777 313.46577 320.56977 328.56977 334.79377 340.12178 348.12178 353.44978 365.89778 369.89778 377.89778 385.00178 389.44978 397.44978 404.55378 410.77778 414.77778 422.77778 428.10578 432.10578 436.55378 444.55378 452.55378 459.65779 463.65779 470.76179 474.76179 479.20979 487.20979 491.65779 499.65779 503.65779 511.65779 518.7618 523.2098 531.2098 538.3138 544.5378 548.5378 556.5378 561.8658 565.8658 570.3138 578.3138 586.3138 593.4178 597.4178 605.4178 609.4178 613.4178 622.3138 630.3138 635.6418 639.6418 646.7458 654.7458 661.8498 674.2978 682.2978 686.7458 693.8498">In Haskell, functions of type a -&#x003e; b transform values of type a into values of type b. For example,</tspan></text>
<text xml:space="preserve" transform="matrix(.7506297 0 0 .7506297 0 -4214.786)" font-size="16" font-family="TimesNewRomanPSMT"><tspan y="6116" x="697.78128"> </tspan></text>
<text xml:space="preserve" transform="matrix(.7506297 0 0 .7506297 0 -4214.786)" font-size="16" font-family="TimesNewRomanPSMT"><tspan y="6138" x="75.59375 80.04175 88.04175 95.14575 99.14575 104.473758 113.49776 121.49776 126.82576 130.82576 135.27376 139.72176 143.72176 149.04976 157.04976 161.49776 165.49776 170.82576 179.84976 183.84976 189.17777 197.17777 201.62577 205.62577 210.95377 218.95377 226.95377 234.05777 238.50577 242.95377 250.95377 258.95378 262.95378 267.40177 275.40177 282.50578 287.83378 294.93778 307.38578 314.48979 322.48979 326.93778 333.16178 337.16178 344.26579 348.26579 356.26579 364.26579 376.71379 384.71379 391.81779 397.14579 401.14579 409.14579 417.14579 421.14579 429.14579 433.14579 437.14579 444.2498 452.2498 460.2498 464.2498 468.69779 476.69779 483.8018 487.8018 494.0258 502.0258 510.0258 521.57778 525.57778 530.02578 534.47378 538.47378 543.80178 551.80178 556.24978 560.24978 565.57778 574.60177 578.60177 587.49777 591.94577 597.27377 601.72177 609.72177 617.72177 621.72177 626.16976 634.16976 639.49777 647.49777 653.72177 657.72177 664.82577 668.82577 676.82577 684.82577 697.27377 705.27377 712.37777">the (+1) :: Int -&#x003e; Int function increments a number by 1, and the show :: Int -&#x003e; String turns a number</tspan></text>
<text xml:space="preserve" transform="matrix(.7506297 0 0 .7506297 0 -4214.786)" font-size="16" font-family="TimesNewRomanPSMT"><tspan y="6138" x="717.6406"> </tspan></text>
<text xml:space="preserve" transform="matrix(.7506297 0 0 .7506297 0 -4214.786)" font-size="16" font-family="TimesNewRomanPSMT"><tspan y="6160" x="75.59375 80.04175 88.04175 92.489749 100.489749 104.489749 108.937747 113.38574 119.60974 123.60974 129.83374 134.28174 139.60974 144.05774 152.05774 160.05774 164.05774 169.38574 176.48975 184.48975 189.81775 196.92176 203.14575 210.24976 218.24976 222.69776 229.80176 234.24976 238.69776 246.69776 254.69776 258.69776 262.69776 273.36976 281.36976 285.81776 289.81776 301.36976 309.36976 316.47377 320.92176 324.92176 329.36976 334.69776 338.69776 346.69776 354.69776 362.69776 368.02577 372.02577 380.02577 387.12977 391.57777 399.57777 406.68177 410.68177 422.23377 429.33778 435.56178 439.56178 446.66578 454.66578 461.76979 466.21778 474.21778 480.44178 487.54579 495.54579 499.54579 503.99378 511.99378 515.9938 522.2178 530.2178 542.6658 549.7698 553.7698 559.9938 567.9938 573.3218 577.7698 581.7698 589.7698 595.0978 599.0978 606.2018 610.2018 617.3058 625.3058 633.3058 637.7538 644.8578 649.3058 657.3058 664.4098 669.7378">into its string representation. But what if your value was enclosed in some sort of a container?</tspan></text>
<text xml:space="preserve" transform="matrix(.7506297 0 0 .7506297 0 -4214.786)" font-size="16" font-family="TimesNewRomanPSMT"><tspan y="6160" x="676.7656"> </tspan></text>
<text xml:space="preserve" transform="matrix(.7506297 0 0 .7506297 0 -4214.786)" font-size="16" font-family="TimesNewRomanPSMT"><tspan y="6182" x="75.59375 85.36975 93.36975 100.473758 104.92175 108.92175 113.36975 119.59375 123.59375 128.04175 136.04175 143.14575 147.14575 151.59375 159.59375 166.69776 173.80176 177.80176 185.80176 192.90576 200.90576 205.35376 213.35376 221.35376 225.35376 229.80176 237.80176 244.90576 248.90576 254.23377 262.23377 270.23377 277.33778 281.78578 289.78578 295.11378 299.11378 306.21778 310.66578 318.66578 325.76979 333.76979 339.09779 346.20179">That is the idea behind the functor algebra.</tspan></text>
<text xml:space="preserve" transform="matrix(.7506297 0 0 .7506297 0 -4214.786)" font-size="16" font-family="TimesNewRomanPSMT"><tspan y="6182" x="350.15626"> </tspan></text>
<text xml:space="preserve" transform="matrix(.7506297 0 0 .7506297 0 -4214.786)" font-size="16" font-family="TimesNewRomanPSMT"><tspan y="6182" x="354.15626"> </tspan></text>
<text xml:space="preserve" transform="matrix(.7506297 0 0 .7506297 0 -4214.786)" font-size="16" font-family="TimesNewRomanPSMT"><tspan y="6204" x="75.59375 85.36975 93.36975 100.473758 104.473758 111.57776 116.02576 123.12976 129.35376 135.57776 139.57776 147.57776 152.90576 156.90576 161.35376 169.35376 177.35376 184.45777 190.68177 194.68177 199.12976 207.12976 214.23377 218.68177 222.68177 226.68177 232.90576 240.90576 248.90576 256.90577 264.90577 270.23377 274.68177 278.68177 284.90577 292.90577 300.00978 308.00978 312.00978 319.11378 323.11378 335.56178 342.66578 350.66578 358.66578 363.11378 371.11378 379.11378 383.11378 388.44178 396.44178 404.44178 411.54579 415.99378 420.44178 428.44178 436.44178 440.44178 447.54579 452.87379 459.97779 463.97779 471.0818 478.1858 482.6338 487.0818 494.1858 502.1858 506.1858 511.5138 519.5138 527.5138 534.6178 539.0658 547.0658 552.3938 558.6178 562.6178 566.6178 571.9458 579.9458 583.9458 595.4978 602.6018 608.8258 616.8258 623.9298 628.3778 632.8258 636.8258 640.8258 645.2738 653.2738 657.7218 663.9458 667.9458 675.0498 683.0498 691.0498 698.1538 705.2578 713.2578">The class of types that  support such a mapping function are called functors. In Haskell, this concept</tspan></text>
<text xml:space="preserve" transform="matrix(.7506297 0 0 .7506297 0 -4214.786)" font-size="16" font-family="TimesNewRomanPSMT"><tspan y="6204" x="717.625"> </tspan></text>
<text xml:space="preserve" transform="matrix(.7506297 0 0 .7506297 0 -4214.786)" font-size="16" font-family="TimesNewRomanPSMT"><tspan y="6226" x="75.59375 80.04175 86.26575 90.26575 97.36975 104.473758 112.473758 116.92175 124.92175 130.24976 137.35376 145.35376 149.35376 157.35376 165.35376 169.35376 173.80176 181.80176 188.90576 192.90576 198.23377 206.23377 210.68177 215.12976 223.12976 234.68177 239.12976 247.12976 255.12976 259.12977 266.23377 270.68177 277.78578 284.00978 290.23377 294.23377 302.23377 309.33778 316.44178 320.88978 327.99378 333.32179 340.42579 344.87379 349.32179 357.32179 365.32179 369.32179 373.76979 381.76979 385.76979 390.21778 398.21778 405.32179 409.32179 415.54579 419.99378 427.09779 435.09779 443.09779 450.20179 455.5298 463.5298 467.5298 475.5298 480.8578 487.9618 492.4098 500.4098 508.4098 515.5138">is captured by the following class declaration in the standard prelude:</tspan></text>
<text xml:space="preserve" transform="matrix(.7506297 0 0 .7506297 0 -4214.786)" font-size="16" font-family="TimesNewRomanPSMT"><tspan y="6226" x="519.8906"> </tspan></text>
<text xml:space="preserve" transform="matrix(.7506297 0 0 .7506297 0 -4214.786)" font-size="16" font-family="TimesNewRomanPSMT"><tspan y="6226" x="523.8906"> </tspan></text>
<text xml:space="preserve" transform="matrix(.7506297 0 0 .7506297 0 -4214.786)" font-size="16" font-family="TimesNewRomanPSMT"><tspan y="6248" x="75.59375"> </tspan></text>
<path transform="matrix(.7506297,0,0,.7506297,0,-4214.786)" d="M 76 6254 L 719 6254 L 719 6304 L 76 6304 Z " fill="#f8f8f8"/>
</g>
<clipPath id="cp24">
<path d="M 57.04786 479.65235 L 539.70278 479.65235 L 539.70278 517.1836 L 57.04786 517.1836 Z " fill-rule="evenodd"/>
</clipPath>
<g clip-path="url(#cp24)">
<path transform="matrix(.7506297,0,0,.7506297,0,-4214.786)" d="M 83 6261 L 236 6261 L 236 6277 L 83 6277 Z " fill="#f8f8f8"/>
</g>
<clipPath id="cp25">
<path d="M 57.04786 479.65235 L 539.70278 479.65235 L 539.70278 517.1836 L 57.04786 517.1836 Z " fill-rule="evenodd"/>
</clipPath>
<g clip-path="url(#cp25)">
<path transform="matrix(.7506297,0,0,.7506297,0,-4214.786)" d="M 83 6279 L 302 6279 L 302 6295 L 83 6295 Z " fill="#f8f8f8"/>
</g>
<clipPath id="cp26">
<path d="M 57.04786 479.65235 L 539.70278 479.65235 L 539.70278 517.1836 L 57.04786 517.1836 Z " fill-rule="evenodd"/>
</clipPath>
<g clip-path="url(#cp26)">
<text fill="#333333" xml:space="preserve" transform="matrix(.7506297 0 0 .7506297 0 -4214.786)" font-size="13.33" font-family="Consolas" font-weight="bold"><tspan y="6274" x="82.59375 89.921619 97.24948 104.57735 111.90521">class</tspan></text>
<path transform="matrix(.7506297,0,0,.7506297,0,-4214.786)" d="M 0 0 L 0 0 L 0 0 L 0 0 Z " fill="#333333"/>
<text fill-opacity="0" xml:space="preserve" transform="matrix(.7506297 0 0 .7506297 0 -4214.786)" font-size="13.33" font-family="Gautami"><tspan y="6274" x="119.23308">&#x200b;</tspan></text>
<text fill="#333333" xml:space="preserve" transform="matrix(.7506297 0 0 .7506297 0 -4214.786)" font-size="13.33" font-family="Consolas"><tspan y="6274" x="119.23308"> </tspan></text>
<text fill="#333333" xml:space="preserve" transform="matrix(.7506297 0 0 .7506297 0 -4214.786)" font-size="13.33" font-family="Gautami"><tspan y="6274" x="126.56094">&#x200b;</tspan></text>
<text fill="#445588" xml:space="preserve" transform="matrix(.7506297 0 0 .7506297 0 -4214.786)" font-size="13.33" font-family="Consolas" font-weight="bold"><tspan y="6274" x="126.56094 133.88881 141.21668 148.54454 155.8724 163.20027 170.52814">Functor</tspan></text>
<path transform="matrix(.7506297,0,0,.7506297,0,-4214.786)" d="M 0 0 L 0 0 L 0 0 L 0 0 Z " fill="#445588"/>
<text fill-opacity="0" xml:space="preserve" transform="matrix(.7506297 0 0 .7506297 0 -4214.786)" font-size="13.33" font-family="Gautami"><tspan y="6274" x="177.856">&#x200b;</tspan></text>
<text fill="#333333" xml:space="preserve" transform="matrix(.7506297 0 0 .7506297 0 -4214.786)" font-size="13.33" font-family="Consolas"><tspan y="6274" x="177.856 185.18387 192.51174"> f </tspan></text>
<text fill="#333333" xml:space="preserve" transform="matrix(.7506297 0 0 .7506297 0 -4214.786)" font-size="13.33" font-family="Gautami"><tspan y="6274" x="199.8396">&#x200b;</tspan></text>
<text fill="#333333" xml:space="preserve" transform="matrix(.7506297 0 0 .7506297 0 -4214.786)" font-size="13.33" font-family="Consolas" font-weight="bold"><tspan y="6274" x="199.8396 207.16747 214.49533 221.8232 229.15106">where</tspan></text>
</g>
<clipPath id="cp27">
<path d="M 57.04786 479.65235 L 539.70278 479.65235 L 539.70278 517.1836 L 57.04786 517.1836 Z " fill-rule="evenodd"/>
</clipPath>
<g clip-path="url(#cp27)">
<text fill="#333333" xml:space="preserve" transform="matrix(.7506297 0 0 .7506297 0 -4214.786)" font-size="13.33" font-family="Consolas"><tspan y="6274" x="236.46875"> </tspan></text>
</g>
<clipPath id="cp28">
<path d="M 57.04786 479.65235 L 539.70278 479.65235 L 539.70278 517.1836 L 57.04786 517.1836 Z " fill-rule="evenodd"/>
</clipPath>
<g clip-path="url(#cp28)">
<text fill="#990000" xml:space="preserve" transform="matrix(.7506297 0 0 .7506297 0 -4214.786)" font-size="13.33" font-family="Consolas" font-weight="bold"><tspan y="6292" x="82.59375 89.921619 97.24948 104.57735">fmap</tspan></text>
<path transform="matrix(.7506297,0,0,.7506297,0,-4214.786)" d="M 0 0 L 0 0 L 0 0 L 0 0 Z " fill="#990000"/>
<text fill-opacity="0" xml:space="preserve" transform="matrix(.7506297 0 0 .7506297 0 -4214.786)" font-size="13.33" font-family="Gautami"><tspan y="6292" x="111.90521">&#x200b;</tspan></text>
<text fill="#333333" xml:space="preserve" transform="matrix(.7506297 0 0 .7506297 0 -4214.786)" font-size="13.33" font-family="Consolas"><tspan y="6292" x="111.90521 119.23308 126.56094 133.88881 141.21668 148.54454 155.8724 163.20027 170.52814 177.856 185.18387 192.51174 199.8396 207.16747 214.49533 221.8232 229.15106 236.47893 243.8068 251.13466 258.46253 265.7904 273.11827 280.4461 287.774 295.10188"> :: (a -&#x003e; b) -&#x003e; f a -&#x003e; f b</tspan></text>
</g>
<clipPath id="cp29">
<path d="M 57.04786 479.65235 L 539.70278 479.65235 L 539.70278 517.1836 L 57.04786 517.1836 Z " fill-rule="evenodd"/>
</clipPath>
<g clip-path="url(#cp29)">
<text fill="#333333" xml:space="preserve" transform="matrix(.7506297 0 0 .7506297 0 -4214.786)" font-size="13.33" font-family="Consolas"><tspan y="6292" x="302.42189"> </tspan></text>
</g>
<clipPath id="cp30">
<path d="M 0 0 L 596 0 L 596 842.95706 L 0 842.95706 Z " fill-rule="evenodd"/>
</clipPath>
<g clip-path="url(#cp30)">
<text fill="#333333" xml:space="preserve" transform="matrix(.7506297 0 0 .7506297 0 -4214.786)" font-size="16" font-family="Consolas"><tspan y="6320" x="75.59375"> </tspan></text>
<text xml:space="preserve" transform="matrix(.7506297 0 0 .7506297 0 -4214.786)" font-size="16" font-family="TimesNewRomanPSMT"><tspan y="6342" x="75.59375 85.36975 93.36975 100.473758 104.92175 108.92175 113.36975 119.59375 123.59375 127.59375 132.92176 140.92176 146.24976 150.24976 157.35376 161.35376 169.35376 176.45777 181.78577 188.88977 201.33777 208.44178 212.88977 219.99378 225.32178 229.76978 235.99378 243.09778 251.09778 255.09778 259.54579 267.54579 275.54579 282.64979 286.64979 291.97779 295.97779 300.42579 308.42579 312.42579 320.42579 327.5298 331.5298 338.6338 346.6338 350.6338 355.0818 363.0818 369.3058 373.75379 380.8578 388.8578 395.9618 403.0658 407.0658 415.0658 420.3938 424.3938 428.8418 436.8418 443.9458 447.9458 455.0498 459.4978 466.6018 472.8258 479.0498 483.0498 491.9458 499.9458 507.9458 515.0498 519.4978 527.4978 532.8258 536.8258 540.8258 545.2738 549.7218 553.7218 566.1698 574.1698 580.3938 584.8418 588.8418 595.0658 603.0658 611.0658 619.0658 627.0658 632.3938 636.8418 640.8418 647.9458 651.9458 657.2738 665.2738 673.2738 680.3778 684.8258 689.2738 697.2738">That is, for a parameterised type f to be an instance of the class Functor, it must support a function</tspan></text>
<text xml:space="preserve" transform="matrix(.7506297 0 0 .7506297 0 -4214.786)" font-size="16" font-family="TimesNewRomanPSMT"><tspan y="6342" x="705.1875"> </tspan></text>
<text xml:space="preserve" transform="matrix(.7506297 0 0 .7506297 0 -4214.786)" font-size="16" font-family="TimesNewRomanPSMT"><tspan y="6364" x="75.59375 80.92175 93.36975 100.473758 108.473758 112.473758 120.473758 125.80176 129.80176 134.24976 142.24976 149.35376 153.35376 159.57776 167.57776 174.68177 181.78577 186.23377 191.56177 196.00977 203.11377 211.11377 215.11377 219.56177 227.56177 235.56177 242.66577 246.66577 250.66577 260.44178 268.44178 275.54579 279.54579 283.99378 291.99378 296.44178 304.44178 308.88978 313.33778 317.78578 325.78578 333.78578 337.78578 342.23377 348.45777 352.45777 356.90577 364.90577 372.00978 376.45777 380.45777 385.78578 398.23377 405.33778 413.33778 417.33778 421.78578 428.88978 436.88978 443.99378 450.21778 454.21778 461.32179 465.32179 470.64979 478.64979 486.64979 493.75379 498.20179 502.64979 510.64979 518.6498 522.6498 530.6498 535.9778 539.9778 544.4258 552.4258 560.4258 567.5298 571.5298 578.6338 582.6338 587.9618 596.9858 600.9858 608.9858 612.9858 620.0898 628.0898 636.0898 640.0898 647.1938 651.1938 657.4178 661.8658 667.1938 675.1938 682.2978 686.7458 694.7458 700.0738">fmap of the specified type. The intuition is that fmap takes a function of type a -&#x003e; b and a structure</tspan></text>
<text xml:space="preserve" transform="matrix(.7506297 0 0 .7506297 0 -4214.786)" font-size="16" font-family="TimesNewRomanPSMT"><tspan y="6364" x="707.0781"> </tspan></text>
<text xml:space="preserve" transform="matrix(.7506297 0 0 .7506297 0 -4214.786)" font-size="16" font-family="TimesNewRomanPSMT"><tspan y="6386" x="75.59375 83.59375 88.92175 92.92175 97.36975 105.36975 113.36975 120.473758 124.473758 129.80176 133.80176 140.90576 144.90576 156.45777 164.45777 172.45777 178.68177 185.78577 189.78577 196.88977 201.33777 208.44178 220.88977 227.99378 235.99378 240.44178 246.66577 250.66577 258.66578 265.76979 273.76979 280.87379 284.87379 289.32179 297.32179 305.32179 312.42579 316.42579 323.5298 327.5298 331.5298 338.6338 346.6338 354.6338 358.6338 365.7378 373.7378 381.7378 386.1858 390.6338 397.7378 403.9618 407.9618 412.4098 420.4098 427.5138 431.5138 436.8418 444.8418 452.8418 459.9458 464.3938 468.8418 476.8418 484.8418 488.8418 493.2898 501.2898 505.2898 512.3938 519.4978 526.6018 534.6018 538.6018 544.8258 552.8258 559.9298 567.9298 571.9298 579.0338 583.4818 590.5858 603.0338 610.1378 618.1378 622.5858 626.5858 631.0338 639.0338 643.0338 651.0338 655.4818 663.4818 670.5858 674.5858">of type f a whose elements have type a, and applies the function to each such element to give a</tspan></text>
<text xml:space="preserve" transform="matrix(.7506297 0 0 .7506297 0 -4214.786)" font-size="16" font-family="TimesNewRomanPSMT"><tspan y="6386" x="681.59378"> </tspan></text>
<text xml:space="preserve" transform="matrix(.7506297 0 0 .7506297 0 -4214.786)" font-size="16" font-family="TimesNewRomanPSMT"><tspan y="6408" x="75.59375 81.81775 86.26575 91.59375 99.59375 106.697757 111.14575 119.14575 124.473758 131.57776 135.57776 143.57776 148.90576 152.90576 157.35376 165.35376 173.35376 180.45777 184.45777 189.78577 193.78577 201.78577 205.78577 217.33777 225.33777 233.33777 239.56177 246.66577 250.66577 257.76979 262.21778 269.32179 281.76979 288.87379 296.87379 301.32179 307.54579 311.54579 319.54579 327.54579 339.09779 343.09779 351.09779 358.20179 366.20179 373.3058 377.3058 381.75379 389.75379 397.75379 404.8578 408.8578 416.8578 420.8578 424.8578 434.6338 442.6338 449.7378 453.7378 459.0658 466.1698 473.2738 477.7218 481.7218 486.1698 494.1698 501.2738 505.7218 509.7218 515.0498 519.0498 531.4978 539.4978 545.7218 550.1698 554.1698 562.1698 569.2738 573.2738 580.3778 584.3778 592.3778 599.4818 604.8098 611.9138 624.3618 631.4658 635.9138 643.0178 648.3458 652.7938 659.0178 666.1218 674.1218 678.1218 682.5698 690.5698 698.5698 705.6738">structure of type f b whose elements now have type b. The fact that f must be a parameterised type,</tspan></text>
<text xml:space="preserve" transform="matrix(.7506297 0 0 .7506297 0 -4214.786)" font-size="16" font-family="TimesNewRomanPSMT"><tspan y="6408" x="709.59378"> </tspan></text>
<text xml:space="preserve" transform="matrix(.7506297 0 0 .7506297 0 -4214.786)" font-size="16" font-family="TimesNewRomanPSMT"><tspan y="6430" x="75.59375 80.04175 88.04175 95.14575 99.59375 103.59375 108.04175 114.26575 118.26575 122.26575 129.36975 133.36975 137.81775 145.81775 153.81775 160.92176 164.92176 169.36975 177.36975 184.47376 188.92176 192.92176 197.36975 204.47376 212.47376 219.57776 225.80176 229.80176 236.90576 244.90576 252.90576 257.35377 265.35377 272.45777 277.78578 281.78578 286.23377 294.23377 302.23377 309.33778 313.33778 320.44178 326.66578 330.66578 337.76979 341.76979 349.76979 356.87379 362.20179 369.3058 381.75379 388.8578 393.3058 400.4098 405.7378 409.7378 413.7378 418.1858 424.4098 428.4098 436.4098 443.5138 447.9618 455.0658 460.3938 472.8418 477.2898 485.2898 492.3938 500.3938 504.3938 511.4978 519.4978 523.9458 531.9458 544.3938 551.4978 555.9458 560.3938 567.4978 574.6018 579.0498 583.4978 591.4978 595.4978 603.4978 611.4978 616.8258 621.2738 629.2738 637.2738 641.2738 645.7218 653.7218 661.7218">that is, a type that takes another type as a parameter, is determined automatically during type</tspan></text>
<text xml:space="preserve" transform="matrix(.7506297 0 0 .7506297 0 -4214.786)" font-size="16" font-family="TimesNewRomanPSMT"><tspan y="6430" x="668.71878"> </tspan></text>
<text xml:space="preserve" transform="matrix(.7506297 0 0 .7506297 0 -4214.786)" font-size="16" font-family="TimesNewRomanPSMT"><tspan y="6452" x="75.59375 80.04175 88.04175 93.36975 100.473758 105.80176 112.90576 120.90576 128.00977 135.11377 139.11377 147.11377 155.11377 159.11377 167.11377 171.56177 176.88977 181.33777 189.33777 196.44178 200.44178 208.44178 213.76978 217.76978 222.21778 230.21778 237.32178 241.32178 248.42578 256.42579 264.42579 268.87379 273.32179 280.42579 287.5298 291.97779 296.42579 304.42579 312.42579 316.42579 324.42579 329.75379 333.75379 339.0818 343.0818 347.5298 355.5298 359.5298 363.97779 371.97779 379.0818 383.0818 387.5298 395.5298 403.5298 410.6338 416.8578 420.8578 427.9618 431.9618 439.0658 447.0658 455.0658 459.0658 467.0658 471.0658 475.5138 483.5138 487.5138 491.9618 499.9618 507.0658 511.0658 517.2898 525.2898 532.3938 539.4978 543.9458 549.2738 553.7218 560.8258 568.8258 572.8258 577.2738 585.2738 593.2738 600.3778 604.3778 609.7058 617.7058 623.0338 627.0338 632.3618 644.8098 651.9138 659.9138 663.9138 668.3618 676.3618 680.3618 684.8098 692.8098">inference by virtue of the application of f to the types a and b in the specified type for fmap in the</tspan></text>
<text xml:space="preserve" transform="matrix(.7506297 0 0 .7506297 0 -4214.786)" font-size="16" font-family="TimesNewRomanPSMT"><tspan y="6452" x="699.8125"> </tspan></text>
<text xml:space="preserve" transform="matrix(.7506297 0 0 .7506297 0 -4214.786)" font-size="16" font-family="TimesNewRomanPSMT"><tspan y="6474" x="75.59375 82.697757 87.14575 94.249759 100.473758 106.697757 110.697757 118.697757 125.80176 132.90576 137.35376 144.45777 149.78577 156.88977 161.33777 165.78577 173.78577 181.78577">class declaration.</tspan></text>
<text xml:space="preserve" transform="matrix(.7506297 0 0 .7506297 0 -4214.786)" font-size="16" font-family="TimesNewRomanPSMT"><tspan y="6474" x="185.76563"> </tspan></text>
<text xml:space="preserve" transform="matrix(.7506297 0 0 .7506297 0 -4214.786)" font-size="16" font-family="TimesNewRomanPSMT"><tspan y="6496" x="75.59375 87.14575 93.36975 97.36975 108.92175 116.02576 120.02576 131.57776 139.57776 147.57776 152.02576 160.02576 164.02576 171.12976 179.12976 187.12976 194.23377 201.33777 205.78577 209.78577 213.78577 218.23377 226.23377 233.33777 237.33777 241.78577 249.78577 257.78578 264.88978 268.88978 276.88978 282.21778 286.21778 290.66578 295.11378 301.33778 305.78578 312.00978 316.00978 323.11378 330.21778 338.21778 342.21778 350.21778 357.32179 361.32179 373.76979 380.87379 388.87379 395.97779 399.97779 404.42579 412.42579 416.87379 424.87379 428.87379 435.97779 439.97779 445.3058 453.3058 461.3058 468.4098 472.8578 480.8578 486.1858 490.1858 498.1858 506.1858 510.1858 516.4098 520.8578 533.3058 541.3058 545.7538 553.7538 557.7538 565.7538 572.8578 578.1858 582.6338 590.6338 595.0818 603.0818 611.0818 615.0818 620.4098 632.8578 639.9618 647.9618 651.9618 656.4098 664.4098 668.4098 676.4098 683.5138 687.5138 691.9618 699.9618">As we would expect, the type of lists can be made into a functor by simply defining fmap to be the</tspan></text>
<text xml:space="preserve" transform="matrix(.7506297 0 0 .7506297 0 -4214.786)" font-size="16" font-family="TimesNewRomanPSMT"><tspan y="6496" x="706.9844"> </tspan></text>
<text xml:space="preserve" transform="matrix(.7506297 0 0 .7506297 0 -4214.786)" font-size="16" font-family="TimesNewRomanPSMT"><tspan y="6518" x="75.59375 80.92175 88.92175 96.92175 104.02576 108.473758 112.92175 120.92175 128.92176 132.92176 145.36975 152.47376 160.47376 164.47376 168.47376 180.02576 188.02576 196.02576 200.47376 208.47376 215.57776 220.90576 224.90576 232.00977 240.00977 247.11377 259.56178 267.56178 272.00978 279.11378 283.11378 290.21778 297.32179 305.32179 309.32179 317.32179 324.42579 328.42579 332.87379 340.87379 347.97779 351.97779 359.97779 367.97779 372.42579 376.87379 381.32179 386.64979 391.09779 399.09779 403.09779 407.54579 415.54579 423.54579 430.64979 434.64979 448.87379 455.97779 463.97779 471.97779 479.0818 483.0818 490.1858 494.1858 498.6338 506.6338 513.7378 518.1858 522.1858 527.5138 534.6178 542.6178 547.9458 555.0498 561.2738 568.3778 576.3778 580.8258 587.0498 591.0498 599.0498 606.1538 610.6018 618.6018 625.7058 631.9298 635.9298 643.9298 649.2578 653.2578 657.7058 665.7058 673.7058 680.8098 684.8098">function map. Another example can be the built-in type Maybe a that represents values of type a</tspan></text>
<text xml:space="preserve" transform="matrix(.7506297 0 0 .7506297 0 -4214.786)" font-size="16" font-family="TimesNewRomanPSMT"><tspan y="6518" x="691.8281"> </tspan></text>
<text xml:space="preserve" transform="matrix(.7506297 0 0 .7506297 0 -4214.786)" font-size="16" font-family="TimesNewRomanPSMT"><tspan y="6540" x="75.59375 80.04175 88.04175 95.14575 99.59375 103.59375 116.04175 123.14575 131.14575 135.14575 142.24976 146.69776 151.14575 159.14575 166.24976 171.57776 175.57776 180.90576 188.00977 192.45777 196.90576 200.90576 208.90576 214.23377 218.23377 224.45777 232.45777 239.56177 246.66577 253.76978 260.87379 268.87379">that may either fail or succeed:</tspan></text>
<text xml:space="preserve" transform="matrix(.7506297 0 0 .7506297 0 -4214.786)" font-size="16" font-family="TimesNewRomanPSMT"><tspan y="6540" x="273.28126"> </tspan></text>
<text xml:space="preserve" transform="matrix(.7506297 0 0 .7506297 0 -4214.786)" font-size="16" font-family="TimesNewRomanPSMT"><tspan y="6540" x="277.28126"> </tspan></text>
<text xml:space="preserve" transform="matrix(.7506297 0 0 .7506297 0 -4214.786)" font-size="16" font-family="TimesNewRomanPSMT"><tspan y="6562" x="75.59375"> </tspan></text>
<path transform="matrix(.7506297,0,0,.7506297,0,-4214.786)" d="M 76 6568 L 719 6568 L 719 6600 L 76 6600 Z " fill="#f8f8f8"/>
</g>
<clipPath id="cp31">
<path d="M 57.04786 715.3501 L 539.70278 715.3501 L 539.70278 739.3701 L 57.04786 739.3701 Z " fill-rule="evenodd"/>
</clipPath>
<g clip-path="url(#cp31)">
<path transform="matrix(.7506297,0,0,.7506297,0,-4214.786)" d="M 83 6575 L 310 6575 L 310 6591 L 83 6591 Z " fill="#f8f8f8"/>
</g>
<clipPath id="cp32">
<path d="M 57.04786 715.3501 L 539.70278 715.3501 L 539.70278 739.3701 L 57.04786 739.3701 Z " fill-rule="evenodd"/>
</clipPath>
<g clip-path="url(#cp32)">
<text fill="#333333" xml:space="preserve" transform="matrix(.7506297 0 0 .7506297 0 -4214.786)" font-size="13.33" font-family="Consolas" font-weight="bold"><tspan y="6588" x="82.59375 89.921619 97.24948 104.57735">data</tspan></text>
<path transform="matrix(.7506297,0,0,.7506297,0,-4214.786)" d="M 0 0 L 0 0 L 0 0 L 0 0 Z " fill="#333333"/>
<text fill-opacity="0" xml:space="preserve" transform="matrix(.7506297 0 0 .7506297 0 -4214.786)" font-size="13.33" font-family="Gautami"><tspan y="6588" x="111.90521">&#x200b;</tspan></text>
<text fill="#333333" xml:space="preserve" transform="matrix(.7506297 0 0 .7506297 0 -4214.786)" font-size="13.33" font-family="Consolas"><tspan y="6588" x="111.90521"> </tspan></text>
<text fill="#333333" xml:space="preserve" transform="matrix(.7506297 0 0 .7506297 0 -4214.786)" font-size="13.33" font-family="Gautami"><tspan y="6588" x="119.23308">&#x200b;</tspan></text>
<text fill="#445588" xml:space="preserve" transform="matrix(.7506297 0 0 .7506297 0 -4214.786)" font-size="13.33" font-family="Consolas" font-weight="bold"><tspan y="6588" x="119.23308 126.56094 133.88881 141.21668 148.54454">Maybe</tspan></text>
<path transform="matrix(.7506297,0,0,.7506297,0,-4214.786)" d="M 0 0 L 0 0 L 0 0 L 0 0 Z " fill="#445588"/>
<text fill-opacity="0" xml:space="preserve" transform="matrix(.7506297 0 0 .7506297 0 -4214.786)" font-size="13.33" font-family="Gautami"><tspan y="6588" x="155.8724">&#x200b;</tspan></text>
<text fill="#333333" xml:space="preserve" transform="matrix(.7506297 0 0 .7506297 0 -4214.786)" font-size="13.33" font-family="Consolas"><tspan y="6588" x="155.8724 163.20027 170.52814 177.856 185.18387"> a = </tspan></text>
<text fill="#333333" xml:space="preserve" transform="matrix(.7506297 0 0 .7506297 0 -4214.786)" font-size="13.33" font-family="Gautami"><tspan y="6588" x="192.51174">&#x200b;</tspan></text>
<text fill="#445588" xml:space="preserve" transform="matrix(.7506297 0 0 .7506297 0 -4214.786)" font-size="13.33" font-family="Consolas" font-weight="bold"><tspan y="6588" x="192.51174 199.8396 207.16747 214.49533 221.8232 229.15106 236.47893">Nothing</tspan></text>
<path transform="matrix(.7506297,0,0,.7506297,0,-4214.786)" d="M 0 0 L 0 0 L 0 0 L 0 0 Z " fill="#445588"/>
<text fill-opacity="0" xml:space="preserve" transform="matrix(.7506297 0 0 .7506297 0 -4214.786)" font-size="13.33" font-family="Gautami"><tspan y="6588" x="243.8068">&#x200b;</tspan></text>
<text fill="#333333" xml:space="preserve" transform="matrix(.7506297 0 0 .7506297 0 -4214.786)" font-size="13.33" font-family="Consolas"><tspan y="6588" x="243.8068 251.13466 258.46253"> | </tspan></text>
<text fill="#333333" xml:space="preserve" transform="matrix(.7506297 0 0 .7506297 0 -4214.786)" font-size="13.33" font-family="Gautami"><tspan y="6588" x="265.7904">&#x200b;</tspan></text>
<text fill="#445588" xml:space="preserve" transform="matrix(.7506297 0 0 .7506297 0 -4214.786)" font-size="13.33" font-family="Consolas" font-weight="bold"><tspan y="6588" x="265.7904 273.1183 280.44615 287.774">Just</tspan></text>
<path transform="matrix(.7506297,0,0,.7506297,0,-4214.786)" d="M 0 0 L 0 0 L 0 0 L 0 0 Z " fill="#445588"/>
<text fill-opacity="0" xml:space="preserve" transform="matrix(.7506297 0 0 .7506297 0 -4214.786)" font-size="13.33" font-family="Gautami"><tspan y="6588" x="295.10188">&#x200b;</tspan></text>
<text fill="#333333" xml:space="preserve" transform="matrix(.7506297 0 0 .7506297 0 -4214.786)" font-size="13.33" font-family="Consolas"><tspan y="6588" x="295.10188 302.42976"> a</tspan></text>
</g>
<clipPath id="cp33">
<path d="M 57.04786 715.3501 L 539.70278 715.3501 L 539.70278 739.3701 L 57.04786 739.3701 Z " fill-rule="evenodd"/>
</clipPath>
<g clip-path="url(#cp33)">
<text fill="#333333" xml:space="preserve" transform="matrix(.7506297 0 0 .7506297 0 -4214.786)" font-size="13.33" font-family="Consolas"><tspan y="6588" x="309.75"> </tspan></text>
</g>
<clipPath id="cp34">
<path d="M 57.04786 715.3501 L 539.70278 715.3501 L 539.70278 739.3701 L 57.04786 739.3701 Z " fill-rule="evenodd"/>
</clipPath>
<g clip-path="url(#cp34)">
<text xml:space="preserve" transform="matrix(.7506297 0 0 .7506297 0 -4214.786)" font-size="13.33" font-family="TimesNewRomanPSMT"><tspan y="6588" x="317.0625"> </tspan></text>
</g>
<clipPath id="cp35">
<path d="M 0 0 L 596 0 L 596 842.95706 L 0 842.95706 Z " fill-rule="evenodd"/>
</clipPath>
<g clip-path="url(#cp35)">
<text xml:space="preserve" transform="matrix(.7506297 0 0 .7506297 0 -4214.786)" font-size="16" font-family="TimesNewRomanPSMT"><tspan y="6616" x="75.59375"> </tspan></text>
<text xml:space="preserve" transform="matrix(.7506297 0 0 .7506297 0 -4214.786)" font-size="16" font-family="TimesNewRomanPSMT"><tspan y="6638" x="75.59375 80.92175 85.36975 89.36975 93.81775 100.04175 104.04175 110.26575 114.713748 120.04175 127.14575 131.59375 139.59375 147.59375 152.04175 157.36975 165.36975 170.69776 182.24976 189.35376 194.68177 202.68177 206.68177 211.12976 219.12976 223.12976 235.57776 242.68177 250.68177 257.78578 261.78578 266.23377 274.23377 281.33778 285.33778 299.56178 306.66578 314.66578 322.66578 329.76979 333.76979 338.21778 346.21778 354.21778 361.32179 365.32179 369.76979 377.76979 382.21778 390.21778 394.21778 401.32179 405.32179 410.64979 418.64979 426.64979 433.75379 438.20179 446.20179 451.5298 455.5298 463.5298 471.5298 475.5298 483.5298 490.6338 495.9618 500.4098 508.4098 512.8578 520.8578 528.8578 532.8578 539.9618 543.9618 549.2898 557.2898 565.2898 572.3938 576.8418 581.2898 589.2898 597.2898 601.2898 606.6178 619.0658 626.1698 634.1698 638.1698 646.1698 651.4978 655.4978 659.9458 667.9458">It is straightforward to make the Maybe type into a functor by defining a function fmap of the</tspan></text>
<text xml:space="preserve" transform="matrix(.7506297 0 0 .7506297 0 -4214.786)" font-size="16" font-family="TimesNewRomanPSMT"><tspan y="6638" x="674.96878"> </tspan></text>
<text xml:space="preserve" transform="matrix(.7506297 0 0 .7506297 0 -4214.786)" font-size="16" font-family="TimesNewRomanPS" font-style="italic"><tspan y="6684" x="75.59375 79.59375 83.59375 87.59375 91.59375 95.59375 99.59375 103.59375 107.59375 111.59375 115.59375 119.59375 123.59375">             </tspan></text>
<text xml:space="preserve" transform="matrix(.7506297 0 -.18765743 .7506297 0 -4214.786)" font-size="16" font-family="Gautami"><tspan y="6684" x="1798.5938">&#x200b;</tspan></text>
<text xml:space="preserve" transform="matrix(.7506297 0 0 .7506297 0 -4214.786)" font-size="16" font-family="TimesNewRomanPSMT"><tspan y="6684" x="127.59375 131.59375"> 6</tspan></text>
<text xml:space="preserve" transform="matrix(.7506297 0 0 .7506297 0 -4214.786)" font-size="16" font-family="TimesNewRomanPSMT"><tspan y="6684" x="139.59375"> </tspan></text>
</g>
</g>
</svg>
