<?xml version="1.0" encoding="UTF-8" standalone="no"?>
<!DOCTYPE svg PUBLIC "-//W3C//DTD SVG 1.1//EN" "http://www.w3.org/Graphics/SVG/1.1/DTD/svg11.dtd">
<svg xmlns="http://www.w3.org/2000/svg" xmlns:xlink="http://www.w3.org/1999/xlink" version="1.1" width="596pt" height="843pt" viewBox="0 0 596 843">
<g enable-background="new">
<clipPath id="cp16">
<path d="M 0 0 L 596 0 L 596 842.95718 L 0 842.95718 Z " fill-rule="evenodd"/>
</clipPath>
<g clip-path="url(#cp16)">
<path transform="matrix(.7506297,0,0,.7506297,0,-842.95718)" d="M 0 1123 L 794 1123 L 794 2246 L 0 2246 Z " fill="#ffffff"/>
<path transform="matrix(.7506297,0,0,.7506297,0,-842.95718)" d="M 0 1123 L 794 1123 L 794 2246 L 0 2246 Z " fill="#ffffff"/>
<path transform="matrix(.7506297,0,0,.7506297,0,-842.95718)" d="M 0 0 L 794 0 L 794 44920 L 0 44920 Z " fill="#ffffff"/>
<path transform="matrix(.7506297,0,0,.7506297,0,-842.95718)" d="M 0 1123 L 794 1123 L 794 2246 L 0 2246 Z " fill="#ffffff"/>
<path transform="matrix(.7506297,0,0,.7506297,0,-842.95718)" d="M 0 1217 L 794 1217 L 794 2246 L 0 2246 Z " fill="#ffffff"/>
<text xml:space="preserve" transform="matrix(.7506297 0 0 .7506297 0 -842.95718)" font-size="16" font-family="TimesNewRomanPSMT"><tspan y="1233" x="85.59375"> </tspan></text>
<text xml:space="preserve" transform="matrix(.7506297 0 0 .7506297 0 -842.95718)" font-size="16" font-family="TimesNewRomanPS" font-weight="bold"><tspan y="1260" x="75.59375 81.81775 90.71375 96.041759 103.14576 111.14576 120.04176 128.93776 136.04177 141.36977 145.81777 153.81777">Introduction</tspan></text>
<path transform="matrix(.7506297,0,0,.7506297,0,-842.95718)" d="M 0 0 L 0 0 L 0 0 L 0 0 Z "/>
<text fill-opacity="0" xml:space="preserve" transform="matrix(.7506297 0 0 .7506297 0 -842.95718)" font-size="16" font-family="Gautami"><tspan y="1260" x="162.71875">&#x200b;</tspan></text>
<text xml:space="preserve" transform="matrix(.7506297 0 0 .7506297 0 -842.95718)" font-size="16" font-family="TimesNewRomanPS" font-weight="bold"><tspan y="1260" x="162.71875"> </tspan></text>
<path transform="matrix(.7506297,0,0,.7506297,0,-842.95718)" d="M 0 0 L 0 0 L 0 0 L 0 0 Z "/>
<text fill-opacity="0" xml:space="preserve" transform="matrix(.7506297 0 0 .7506297 0 -842.95718)" font-size="16" font-family="Gautami"><tspan y="1260" x="166.71875">&#x200b;</tspan></text>
<text xml:space="preserve" transform="matrix(.7506297 0 0 .7506297 0 -842.95718)" font-size="16" font-family="TimesNewRomanPS" font-weight="bold"><tspan y="1260" x="166.71875">4</tspan></text>
<text xml:space="preserve" transform="matrix(.7506297 0 0 .7506297 0 -842.95718)" font-size="16" font-family="TimesNewRomanPS" font-weight="bold"><tspan y="1260" x="174.71875"> </tspan></text>
<text xml:space="preserve" transform="matrix(.7506297 0 0 .7506297 0 -842.95718)" font-size="16" font-family="TimesNewRomanPS" font-weight="bold"><tspan y="1293" x="75.59375 86.26575 95.16175 102.265758 110.265758 117.36976 125.36976 129.36975 138.26575 146.26575 153.36975 162.26575 170.26575 177.36975 185.36975 194.26575 203.16175">Theory background</tspan></text>
<path transform="matrix(.7506297,0,0,.7506297,0,-842.95718)" d="M 0 0 L 0 0 L 0 0 L 0 0 Z "/>
<text fill-opacity="0" xml:space="preserve" transform="matrix(.7506297 0 0 .7506297 0 -842.95718)" font-size="16" font-family="Gautami"><tspan y="1293" x="212.0625">&#x200b;</tspan></text>
<text xml:space="preserve" transform="matrix(.7506297 0 0 .7506297 0 -842.95718)" font-size="16" font-family="TimesNewRomanPS" font-weight="bold"><tspan y="1293" x="212.0625"> </tspan></text>
<path transform="matrix(.7506297,0,0,.7506297,0,-842.95718)" d="M 0 0 L 0 0 L 0 0 L 0 0 Z "/>
<text fill-opacity="0" xml:space="preserve" transform="matrix(.7506297 0 0 .7506297 0 -842.95718)" font-size="16" font-family="Gautami"><tspan y="1293" x="216.0625">&#x200b;</tspan></text>
<text xml:space="preserve" transform="matrix(.7506297 0 0 .7506297 0 -842.95718)" font-size="16" font-family="TimesNewRomanPS" font-weight="bold"><tspan y="1293" x="216.0625">4</tspan></text>
<text xml:space="preserve" transform="matrix(.7506297 0 0 .7506297 0 -842.95718)" font-size="16" font-family="TimesNewRomanPS" font-weight="bold"><tspan y="1293" x="224.0625"> </tspan></text>
<text xml:space="preserve" transform="matrix(.7506297 0 0 .7506297 0 -842.95718)" font-size="16" font-family="TimesNewRomanPSMT"><tspan y="1317" x="99.59375 108.48975 115.59376 120.92176 127.14576 134.24976">Parser</tspan></text>
<text xml:space="preserve" transform="matrix(.7506297 0 0 .7506297 0 -842.95718)" font-size="16" font-family="Gautami"><tspan y="1317" x="139.57813">&#x200b;</tspan></text>
<text xml:space="preserve" transform="matrix(.7506297 0 0 .7506297 0 -842.95718)" font-size="16" font-family="TimesNewRomanPSMT"><tspan y="1317" x="139.57813"> </tspan></text>
<text xml:space="preserve" transform="matrix(.7506297 0 0 .7506297 0 -842.95718)" font-size="16" font-family="Gautami"><tspan y="1317" x="143.57813">&#x200b;</tspan></text>
<text xml:space="preserve" transform="matrix(.7506297 0 0 .7506297 0 -842.95718)" font-size="16" font-family="TimesNewRomanPSMT"><tspan y="1317" x="143.57813">4</tspan></text>
<text xml:space="preserve" transform="matrix(.7506297 0 0 .7506297 0 -842.95718)" font-size="16" font-family="TimesNewRomanPSMT"><tspan y="1317" x="151.57813"> </tspan></text>
<text xml:space="preserve" transform="matrix(.7506297 0 0 .7506297 0 -842.95718)" font-size="16" font-family="TimesNewRomanPSMT"><tspan y="1340" x="99.59375 111.14575 119.14575 125.36975 129.81775 135.14575 142.24976 149.35376 153.80176 157.80176 166.69776 174.69776 182.69776 187.14575 194.24976 202.24976 206.24976 216.02576 221.35376 228.45777 235.56177 239.56177 244.88977 256.44178 265.33778 275.11378">Abstract Syntax Tree (AST)</tspan></text>
<text xml:space="preserve" transform="matrix(.7506297 0 0 .7506297 0 -842.95718)" font-size="16" font-family="Gautami"><tspan y="1340" x="280.4297">&#x200b;</tspan></text>
<text xml:space="preserve" transform="matrix(.7506297 0 0 .7506297 0 -842.95718)" font-size="16" font-family="TimesNewRomanPSMT"><tspan y="1340" x="280.4297"> </tspan></text>
<text xml:space="preserve" transform="matrix(.7506297 0 0 .7506297 0 -842.95718)" font-size="16" font-family="Gautami"><tspan y="1340" x="284.4297">&#x200b;</tspan></text>
<text xml:space="preserve" transform="matrix(.7506297 0 0 .7506297 0 -842.95718)" font-size="16" font-family="TimesNewRomanPSMT"><tspan y="1340" x="284.4297">4</tspan></text>
<text xml:space="preserve" transform="matrix(.7506297 0 0 .7506297 0 -842.95718)" font-size="16" font-family="TimesNewRomanPSMT"><tspan y="1340" x="292.42189"> </tspan></text>
<text xml:space="preserve" transform="matrix(.7506297 0 0 .7506297 0 -842.95718)" font-size="16" font-family="TimesNewRomanPSMT"><tspan y="1363" x="99.59375 109.36975 116.473758 124.473758 131.57776 136.90576 140.90576 145.35376 153.35376 157.80176 164.90576 170.23377 178.23377 183.56177 190.66577 195.11377 202.21778 206.66577 211.11377 219.11377">Eager interpretation</tspan></text>
<text xml:space="preserve" transform="matrix(.7506297 0 0 .7506297 0 -842.95718)" font-size="16" font-family="Gautami"><tspan y="1363" x="227.08594">&#x200b;</tspan></text>
<text xml:space="preserve" transform="matrix(.7506297 0 0 .7506297 0 -842.95718)" font-size="16" font-family="TimesNewRomanPSMT"><tspan y="1363" x="227.08594"> </tspan></text>
<text xml:space="preserve" transform="matrix(.7506297 0 0 .7506297 0 -842.95718)" font-size="16" font-family="Gautami"><tspan y="1363" x="231.08594">&#x200b;</tspan></text>
<text xml:space="preserve" transform="matrix(.7506297 0 0 .7506297 0 -842.95718)" font-size="16" font-family="TimesNewRomanPSMT"><tspan y="1363" x="231.08594">5</tspan></text>
<text xml:space="preserve" transform="matrix(.7506297 0 0 .7506297 0 -842.95718)" font-size="16" font-family="TimesNewRomanPSMT"><tspan y="1363" x="239.07813"> </tspan></text>
<text xml:space="preserve" transform="matrix(.7506297 0 0 .7506297 0 -842.95718)" font-size="16" font-family="TimesNewRomanPSMT"><tspan y="1386" x="99.59375 111.14575 118.249759 124.473758 132.47376 139.57776 144.02576 148.47376 152.92176 156.92176 165.81775 173.81775 181.81775 188.92176 193.36975 201.36975 206.69776 210.69776 214.69776 226.24976 234.24976 242.24976 246.69776 251.14575 258.24977 265.35377 269.80177 274.24977 282.24977 289.35377 293.35377 300.45777 308.45777 316.45777 320.45777 334.68177 342.68177 350.68177 357.78578 365.78578">Haskell: Functor, Applicative and Monads</tspan></text>
<text xml:space="preserve" transform="matrix(.7506297 0 0 .7506297 0 -842.95718)" font-size="16" font-family="Gautami"><tspan y="1386" x="371.98439">&#x200b;</tspan></text>
<text xml:space="preserve" transform="matrix(.7506297 0 0 .7506297 0 -842.95718)" font-size="16" font-family="TimesNewRomanPSMT"><tspan y="1386" x="371.98439"> </tspan></text>
<text xml:space="preserve" transform="matrix(.7506297 0 0 .7506297 0 -842.95718)" font-size="16" font-family="Gautami"><tspan y="1386" x="375.98439">&#x200b;</tspan></text>
<text xml:space="preserve" transform="matrix(.7506297 0 0 .7506297 0 -842.95718)" font-size="16" font-family="TimesNewRomanPSMT"><tspan y="1386" x="375.98439">5</tspan></text>
<text xml:space="preserve" transform="matrix(.7506297 0 0 .7506297 0 -842.95718)" font-size="16" font-family="TimesNewRomanPSMT"><tspan y="1386" x="383.98439"> </tspan></text>
<text xml:space="preserve" transform="matrix(.7506297 0 0 .7506297 0 -842.95718)" font-size="16" font-family="TimesNewRomanPSMT"><tspan y="1409" x="123.59375 132.48975 140.48975 148.48975 155.59375 160.04175 168.04175 173.36975">Functors</tspan></text>
<text xml:space="preserve" transform="matrix(.7506297 0 0 .7506297 0 -842.95718)" font-size="16" font-family="Gautami"><tspan y="1409" x="179.59375">&#x200b;</tspan></text>
<text xml:space="preserve" transform="matrix(.7506297 0 0 .7506297 0 -842.95718)" font-size="16" font-family="TimesNewRomanPSMT"><tspan y="1409" x="179.59375"> </tspan></text>
<text xml:space="preserve" transform="matrix(.7506297 0 0 .7506297 0 -842.95718)" font-size="16" font-family="Gautami"><tspan y="1409" x="183.59375">&#x200b;</tspan></text>
<text xml:space="preserve" transform="matrix(.7506297 0 0 .7506297 0 -842.95718)" font-size="16" font-family="TimesNewRomanPSMT"><tspan y="1409" x="183.59375">5</tspan></text>
<text xml:space="preserve" transform="matrix(.7506297 0 0 .7506297 0 -842.95718)" font-size="16" font-family="TimesNewRomanPSMT"><tspan y="1409" x="191.59375"> </tspan></text>
<text xml:space="preserve" transform="matrix(.7506297 0 0 .7506297 0 -842.95718)" font-size="16" font-family="TimesNewRomanPSMT"><tspan y="1432" x="123.59375 135.14575 143.14575 151.14575 155.59375 160.04175 167.14575 174.24976 178.69776 183.14575 191.14575 198.24976">Applicatives</tspan></text>
<text xml:space="preserve" transform="matrix(.7506297 0 0 .7506297 0 -842.95718)" font-size="16" font-family="Gautami"><tspan y="1432" x="204.46094">&#x200b;</tspan></text>
<text xml:space="preserve" transform="matrix(.7506297 0 0 .7506297 0 -842.95718)" font-size="16" font-family="TimesNewRomanPSMT"><tspan y="1432" x="204.46094"> </tspan></text>
<text xml:space="preserve" transform="matrix(.7506297 0 0 .7506297 0 -842.95718)" font-size="16" font-family="Gautami"><tspan y="1432" x="208.46094">&#x200b;</tspan></text>
<text xml:space="preserve" transform="matrix(.7506297 0 0 .7506297 0 -842.95718)" font-size="16" font-family="TimesNewRomanPSMT"><tspan y="1432" x="208.46094">6</tspan></text>
<text xml:space="preserve" transform="matrix(.7506297 0 0 .7506297 0 -842.95718)" font-size="16" font-family="TimesNewRomanPSMT"><tspan y="1432" x="216.45313"> </tspan></text>
<text xml:space="preserve" transform="matrix(.7506297 0 0 .7506297 0 -842.95718)" font-size="16" font-family="TimesNewRomanPSMT"><tspan y="1455" x="123.59375 137.81775 145.81775 153.81775 160.92176 168.92176">Monads</tspan></text>
<text xml:space="preserve" transform="matrix(.7506297 0 0 .7506297 0 -842.95718)" font-size="16" font-family="Gautami"><tspan y="1455" x="175.14844">&#x200b;</tspan></text>
<text xml:space="preserve" transform="matrix(.7506297 0 0 .7506297 0 -842.95718)" font-size="16" font-family="TimesNewRomanPSMT"><tspan y="1455" x="175.14844"> </tspan></text>
<text xml:space="preserve" transform="matrix(.7506297 0 0 .7506297 0 -842.95718)" font-size="16" font-family="Gautami"><tspan y="1455" x="179.14844">&#x200b;</tspan></text>
<text xml:space="preserve" transform="matrix(.7506297 0 0 .7506297 0 -842.95718)" font-size="16" font-family="TimesNewRomanPSMT"><tspan y="1455" x="179.14844">8</tspan></text>
<text xml:space="preserve" transform="matrix(.7506297 0 0 .7506297 0 -842.95718)" font-size="16" font-family="TimesNewRomanPSMT"><tspan y="1455" x="187.14063"> </tspan></text>
<text xml:space="preserve" transform="matrix(.7506297 0 0 .7506297 0 -842.95718)" font-size="16" font-family="TimesNewRomanPS" font-weight="bold"><tspan y="1487" x="75.59375 87.14575 96.041759 108.48975 120.041759 124.041759 134.71376 142.71376 151.60976 159.60976 168.50576 176.50576 184.50576">CSKN Language</tspan></text>
<path transform="matrix(.7506297,0,0,.7506297,0,-842.95718)" d="M 0 0 L 0 0 L 0 0 L 0 0 Z "/>
<text fill-opacity="0" xml:space="preserve" transform="matrix(.7506297 0 0 .7506297 0 -842.95718)" font-size="16" font-family="Gautami"><tspan y="1487" x="191.61719">&#x200b;</tspan></text>
<text xml:space="preserve" transform="matrix(.7506297 0 0 .7506297 0 -842.95718)" font-size="16" font-family="TimesNewRomanPS" font-weight="bold"><tspan y="1487" x="191.61719"> </tspan></text>
<path transform="matrix(.7506297,0,0,.7506297,0,-842.95718)" d="M 0 0 L 0 0 L 0 0 L 0 0 Z "/>
<text fill-opacity="0" xml:space="preserve" transform="matrix(.7506297 0 0 .7506297 0 -842.95718)" font-size="16" font-family="Gautami"><tspan y="1487" x="195.61719">&#x200b;</tspan></text>
<text xml:space="preserve" transform="matrix(.7506297 0 0 .7506297 0 -842.95718)" font-size="16" font-family="TimesNewRomanPS" font-weight="bold"><tspan y="1487" x="195.61719 203.61719">10</tspan></text>
<text xml:space="preserve" transform="matrix(.7506297 0 0 .7506297 0 -842.95718)" font-size="16" font-family="TimesNewRomanPS" font-weight="bold"><tspan y="1487" x="211.60938"> </tspan></text>
<text xml:space="preserve" transform="matrix(.7506297 0 0 .7506297 0 -842.95718)" font-size="16" font-family="TimesNewRomanPSMT"><tspan y="1511" x="99.59375 109.36975 116.473758 124.473758 132.47376 140.47376 147.57776 155.57776 162.68177 166.68177 174.68177 181.78577 188.00977 195.11377 200.44178 204.88977 212.88977 217.33777 221.78577 229.78577">Language description</tspan></text>
<text xml:space="preserve" transform="matrix(.7506297 0 0 .7506297 0 -842.95718)" font-size="16" font-family="Gautami"><tspan y="1511" x="237.76563">&#x200b;</tspan></text>
<text xml:space="preserve" transform="matrix(.7506297 0 0 .7506297 0 -842.95718)" font-size="16" font-family="TimesNewRomanPSMT"><tspan y="1511" x="237.76563"> </tspan></text>
<text xml:space="preserve" transform="matrix(.7506297 0 0 .7506297 0 -842.95718)" font-size="16" font-family="Gautami"><tspan y="1511" x="241.76563">&#x200b;</tspan></text>
<text xml:space="preserve" transform="matrix(.7506297 0 0 .7506297 0 -842.95718)" font-size="16" font-family="TimesNewRomanPSMT"><tspan y="1511" x="241.76563 249.76563">10</tspan></text>
<text xml:space="preserve" transform="matrix(.7506297 0 0 .7506297 0 -842.95718)" font-size="16" font-family="TimesNewRomanPSMT"><tspan y="1511" x="257.76564"> </tspan></text>
<text xml:space="preserve" transform="matrix(.7506297 0 0 .7506297 0 -842.95718)" font-size="16" font-family="TimesNewRomanPSMT"><tspan y="1534" x="99.59375 110.26575 121.81775 130.71375 134.71375 146.26575 151.59375 158.69776 171.14575 183.59375 190.69776">BNF Grammar</tspan></text>
<text xml:space="preserve" transform="matrix(.7506297 0 0 .7506297 0 -842.95718)" font-size="16" font-family="Gautami"><tspan y="1534" x="196.02344">&#x200b;</tspan></text>
<text xml:space="preserve" transform="matrix(.7506297 0 0 .7506297 0 -842.95718)" font-size="16" font-family="TimesNewRomanPSMT"><tspan y="1534" x="196.02344"> </tspan></text>
<text xml:space="preserve" transform="matrix(.7506297 0 0 .7506297 0 -842.95718)" font-size="16" font-family="Gautami"><tspan y="1534" x="200.02344">&#x200b;</tspan></text>
<text xml:space="preserve" transform="matrix(.7506297 0 0 .7506297 0 -842.95718)" font-size="16" font-family="TimesNewRomanPSMT"><tspan y="1534" x="200.02344 208.02344">11</tspan></text>
<text xml:space="preserve" transform="matrix(.7506297 0 0 .7506297 0 -842.95718)" font-size="16" font-family="TimesNewRomanPSMT"><tspan y="1534" x="216.01563"> </tspan></text>
<text xml:space="preserve" transform="matrix(.7506297 0 0 .7506297 0 -842.95718)" font-size="16" font-family="TimesNewRomanPSMT"><tspan y="1557" x="123.59375 133.36975 140.47376 145.80176 158.24976 162.69776 170.69776 177.80176 182.24976">Terminals</tspan></text>
<text xml:space="preserve" transform="matrix(.7506297 0 0 .7506297 0 -842.95718)" font-size="16" font-family="Gautami"><tspan y="1557" x="188.46094">&#x200b;</tspan></text>
<text xml:space="preserve" transform="matrix(.7506297 0 0 .7506297 0 -842.95718)" font-size="16" font-family="TimesNewRomanPSMT"><tspan y="1557" x="188.46094"> </tspan></text>
<text xml:space="preserve" transform="matrix(.7506297 0 0 .7506297 0 -842.95718)" font-size="16" font-family="Gautami"><tspan y="1557" x="192.46094">&#x200b;</tspan></text>
<text xml:space="preserve" transform="matrix(.7506297 0 0 .7506297 0 -842.95718)" font-size="16" font-family="TimesNewRomanPSMT"><tspan y="1557" x="192.46094 200.46094">12</tspan></text>
<text xml:space="preserve" transform="matrix(.7506297 0 0 .7506297 0 -842.95718)" font-size="16" font-family="TimesNewRomanPSMT"><tspan y="1557" x="208.45313"> </tspan></text>
<text xml:space="preserve" transform="matrix(.7506297 0 0 .7506297 0 -842.95718)" font-size="16" font-family="TimesNewRomanPSMT"><tspan y="1580" x="123.59375 132.48975 137.81775 145.81775 153.81775 159.14575 166.24976 178.69776 182.69776 186.69776 192.92176 200.02576 208.02576 216.02576 223.12976 231.12976 238.23377 245.33777 249.33777 256.44178 264.44178 272.44178 276.44178 282.66578 287.11378 294.21778 298.66578 305.76979 318.21778 325.32179 333.32179">Program, sequence and statement</tspan></text>
<text xml:space="preserve" transform="matrix(.7506297 0 0 .7506297 0 -842.95718)" font-size="16" font-family="Gautami"><tspan y="1580" x="337.7422">&#x200b;</tspan></text>
<text xml:space="preserve" transform="matrix(.7506297 0 0 .7506297 0 -842.95718)" font-size="16" font-family="TimesNewRomanPSMT"><tspan y="1580" x="337.7422"> </tspan></text>
<text xml:space="preserve" transform="matrix(.7506297 0 0 .7506297 0 -842.95718)" font-size="16" font-family="Gautami"><tspan y="1580" x="341.7422">&#x200b;</tspan></text>
<text xml:space="preserve" transform="matrix(.7506297 0 0 .7506297 0 -842.95718)" font-size="16" font-family="TimesNewRomanPSMT"><tspan y="1580" x="341.7422 349.7422">12</tspan></text>
<text xml:space="preserve" transform="matrix(.7506297 0 0 .7506297 0 -842.95718)" font-size="16" font-family="TimesNewRomanPSMT"><tspan y="1580" x="357.73439"> </tspan></text>
<text xml:space="preserve" transform="matrix(.7506297 0 0 .7506297 0 -842.95718)" font-size="16" font-family="TimesNewRomanPSMT"><tspan y="1603" x="123.59375 134.26575 142.26575 154.71375 167.16175 174.26575 182.26575 190.26575">Commands</tspan></text>
<text xml:space="preserve" transform="matrix(.7506297 0 0 .7506297 0 -842.95718)" font-size="16" font-family="Gautami"><tspan y="1603" x="196.48438">&#x200b;</tspan></text>
<text xml:space="preserve" transform="matrix(.7506297 0 0 .7506297 0 -842.95718)" font-size="16" font-family="TimesNewRomanPSMT"><tspan y="1603" x="196.48438"> </tspan></text>
<text xml:space="preserve" transform="matrix(.7506297 0 0 .7506297 0 -842.95718)" font-size="16" font-family="Gautami"><tspan y="1603" x="200.48438">&#x200b;</tspan></text>
<text xml:space="preserve" transform="matrix(.7506297 0 0 .7506297 0 -842.95718)" font-size="16" font-family="TimesNewRomanPSMT"><tspan y="1603" x="200.48438 208.48438">12</tspan></text>
<text xml:space="preserve" transform="matrix(.7506297 0 0 .7506297 0 -842.95718)" font-size="16" font-family="TimesNewRomanPSMT"><tspan y="1603" x="216.48438"> </tspan></text>
<text xml:space="preserve" transform="matrix(.7506297 0 0 .7506297 0 -842.95718)" font-size="16" font-family="TimesNewRomanPSMT"><tspan y="1626" x="123.59375 133.36975 141.36975 149.36975 154.69776 161.80176 168.02576 174.24976 178.69776 186.69776 194.69776 200.92176 205.36975 209.36975 220.92176 226.24976 230.69776 235.14575 243.14575 255.59375 262.69776 267.14576 271.59376 278.69776 282.69776 289.80177 297.80177 305.80177 309.80177 320.47377 328.47377 336.47377 340.92176 348.02577 355.12977">Expressions: Arithmetic and Boolean</tspan></text>
<text xml:space="preserve" transform="matrix(.7506297 0 0 .7506297 0 -842.95718)" font-size="16" font-family="Gautami"><tspan y="1626" x="363.10157">&#x200b;</tspan></text>
<text xml:space="preserve" transform="matrix(.7506297 0 0 .7506297 0 -842.95718)" font-size="16" font-family="TimesNewRomanPSMT"><tspan y="1626" x="363.10157"> </tspan></text>
<text xml:space="preserve" transform="matrix(.7506297 0 0 .7506297 0 -842.95718)" font-size="16" font-family="Gautami"><tspan y="1626" x="367.10157">&#x200b;</tspan></text>
<text xml:space="preserve" transform="matrix(.7506297 0 0 .7506297 0 -842.95718)" font-size="16" font-family="TimesNewRomanPSMT"><tspan y="1626" x="367.10157 375.10157">12</tspan></text>
<text xml:space="preserve" transform="matrix(.7506297 0 0 .7506297 0 -842.95718)" font-size="16" font-family="TimesNewRomanPSMT"><tspan y="1626" x="383.09376"> </tspan></text>
<text xml:space="preserve" transform="matrix(.7506297 0 0 .7506297 0 -842.95718)" font-size="16" font-family="TimesNewRomanPS" font-weight="bold"><tspan y="1658" x="75.59375 87.14575 94.249759 101.35376 110.24976 114.69776 120.025768 127.12977 134.23377 139.56177 148.45777 155.56177">Architecture</tspan></text>
<path transform="matrix(.7506297,0,0,.7506297,0,-842.95718)" d="M 0 0 L 0 0 L 0 0 L 0 0 Z "/>
<text fill-opacity="0" xml:space="preserve" transform="matrix(.7506297 0 0 .7506297 0 -842.95718)" font-size="16" font-family="Gautami"><tspan y="1658" x="162.65625">&#x200b;</tspan></text>
<text xml:space="preserve" transform="matrix(.7506297 0 0 .7506297 0 -842.95718)" font-size="16" font-family="TimesNewRomanPS" font-weight="bold"><tspan y="1658" x="162.65625"> </tspan></text>
<path transform="matrix(.7506297,0,0,.7506297,0,-842.95718)" d="M 0 0 L 0 0 L 0 0 L 0 0 Z "/>
<text fill-opacity="0" xml:space="preserve" transform="matrix(.7506297 0 0 .7506297 0 -842.95718)" font-size="16" font-family="Gautami"><tspan y="1658" x="166.65625">&#x200b;</tspan></text>
<text xml:space="preserve" transform="matrix(.7506297 0 0 .7506297 0 -842.95718)" font-size="16" font-family="TimesNewRomanPS" font-weight="bold"><tspan y="1658" x="166.65625 174.65625">15</tspan></text>
<text xml:space="preserve" transform="matrix(.7506297 0 0 .7506297 0 -842.95718)" font-size="16" font-family="TimesNewRomanPS" font-weight="bold"><tspan y="1658" x="182.65625"> </tspan></text>
<text xml:space="preserve" transform="matrix(.7506297 0 0 .7506297 0 -842.95718)" font-size="16" font-family="TimesNewRomanPSMT"><tspan y="1682" x="99.59375 111.14575 118.249759 124.473758 128.92176 136.92176">Design</tspan></text>
<text xml:space="preserve" transform="matrix(.7506297 0 0 .7506297 0 -842.95718)" font-size="16" font-family="Gautami"><tspan y="1682" x="144.92188">&#x200b;</tspan></text>
<text xml:space="preserve" transform="matrix(.7506297 0 0 .7506297 0 -842.95718)" font-size="16" font-family="TimesNewRomanPSMT"><tspan y="1682" x="144.92188"> </tspan></text>
<text xml:space="preserve" transform="matrix(.7506297 0 0 .7506297 0 -842.95718)" font-size="16" font-family="Gautami"><tspan y="1682" x="148.92188">&#x200b;</tspan></text>
<text xml:space="preserve" transform="matrix(.7506297 0 0 .7506297 0 -842.95718)" font-size="16" font-family="TimesNewRomanPSMT"><tspan y="1682" x="148.92188 156.92188">15</tspan></text>
<text xml:space="preserve" transform="matrix(.7506297 0 0 .7506297 0 -842.95718)" font-size="16" font-family="TimesNewRomanPSMT"><tspan y="1682" x="164.92188"> </tspan></text>
<text xml:space="preserve" transform="matrix(.7506297 0 0 .7506297 0 -842.95718)" font-size="16" font-family="TimesNewRomanPSMT"><tspan y="1705" x="99.59375 108.48975 115.59376 120.92176 127.14576 131.59377 139.59377">Parsing</tspan></text>
<text xml:space="preserve" transform="matrix(.7506297 0 0 .7506297 0 -842.95718)" font-size="16" font-family="Gautami"><tspan y="1705" x="147.59375">&#x200b;</tspan></text>
<text xml:space="preserve" transform="matrix(.7506297 0 0 .7506297 0 -842.95718)" font-size="16" font-family="TimesNewRomanPSMT"><tspan y="1705" x="147.59375"> </tspan></text>
<text xml:space="preserve" transform="matrix(.7506297 0 0 .7506297 0 -842.95718)" font-size="16" font-family="Gautami"><tspan y="1705" x="151.59375">&#x200b;</tspan></text>
<text xml:space="preserve" transform="matrix(.7506297 0 0 .7506297 0 -842.95718)" font-size="16" font-family="TimesNewRomanPSMT"><tspan y="1705" x="151.59375 159.59375">15</tspan></text>
<text xml:space="preserve" transform="matrix(.7506297 0 0 .7506297 0 -842.95718)" font-size="16" font-family="TimesNewRomanPSMT"><tspan y="1705" x="167.59375"> </tspan></text>
<text xml:space="preserve" transform="matrix(.7506297 0 0 .7506297 0 -842.95718)" font-size="16" font-family="TimesNewRomanPSMT"><tspan y="1728" x="99.59375 109.36975 117.36975 124.473758 128.92176 136.92176 144.02576 148.47376 152.92176 160.92176">Evaluation</tspan></text>
<text xml:space="preserve" transform="matrix(.7506297 0 0 .7506297 0 -842.95718)" font-size="16" font-family="Gautami"><tspan y="1728" x="168.90625">&#x200b;</tspan></text>
<text xml:space="preserve" transform="matrix(.7506297 0 0 .7506297 0 -842.95718)" font-size="16" font-family="TimesNewRomanPSMT"><tspan y="1728" x="168.90625"> </tspan></text>
<text xml:space="preserve" transform="matrix(.7506297 0 0 .7506297 0 -842.95718)" font-size="16" font-family="Gautami"><tspan y="1728" x="172.90625">&#x200b;</tspan></text>
<text xml:space="preserve" transform="matrix(.7506297 0 0 .7506297 0 -842.95718)" font-size="16" font-family="TimesNewRomanPSMT"><tspan y="1728" x="172.90625 180.90625">15</tspan></text>
<text xml:space="preserve" transform="matrix(.7506297 0 0 .7506297 0 -842.95718)" font-size="16" font-family="TimesNewRomanPSMT"><tspan y="1728" x="188.90625"> </tspan></text>
<text xml:space="preserve" transform="matrix(.7506297 0 0 .7506297 0 -842.95718)" font-size="16" font-family="TimesNewRomanPS" font-weight="bold"><tspan y="1760" x="75.59375 81.81775 95.14575 104.041759 108.48975 115.59376 128.92176 136.02576 144.92176 150.24976 158.24976 163.57776 168.02576 176.02576">Implementation</tspan></text>
<path transform="matrix(.7506297,0,0,.7506297,0,-842.95718)" d="M 0 0 L 0 0 L 0 0 L 0 0 Z "/>
<text fill-opacity="0" xml:space="preserve" transform="matrix(.7506297 0 0 .7506297 0 -842.95718)" font-size="16" font-family="Gautami"><tspan y="1760" x="184.92188">&#x200b;</tspan></text>
<text xml:space="preserve" transform="matrix(.7506297 0 0 .7506297 0 -842.95718)" font-size="16" font-family="TimesNewRomanPS" font-weight="bold"><tspan y="1760" x="184.92188"> </tspan></text>
<path transform="matrix(.7506297,0,0,.7506297,0,-842.95718)" d="M 0 0 L 0 0 L 0 0 L 0 0 Z "/>
<text fill-opacity="0" xml:space="preserve" transform="matrix(.7506297 0 0 .7506297 0 -842.95718)" font-size="16" font-family="Gautami"><tspan y="1760" x="188.92188">&#x200b;</tspan></text>
<text xml:space="preserve" transform="matrix(.7506297 0 0 .7506297 0 -842.95718)" font-size="16" font-family="TimesNewRomanPS" font-weight="bold"><tspan y="1760" x="188.92188 196.92188">16</tspan></text>
<text xml:space="preserve" transform="matrix(.7506297 0 0 .7506297 0 -842.95718)" font-size="16" font-family="TimesNewRomanPS" font-weight="bold"><tspan y="1760" x="204.92188"> </tspan></text>
<text xml:space="preserve" transform="matrix(.7506297 0 0 .7506297 0 -842.95718)" font-size="16" font-family="TimesNewRomanPSMT"><tspan y="1784" x="99.59375 108.48975 115.59376 120.92176 127.14576 134.24976">Parser</tspan></text>
<text xml:space="preserve" transform="matrix(.7506297 0 0 .7506297 0 -842.95718)" font-size="16" font-family="Gautami"><tspan y="1784" x="139.57813">&#x200b;</tspan></text>
<text xml:space="preserve" transform="matrix(.7506297 0 0 .7506297 0 -842.95718)" font-size="16" font-family="TimesNewRomanPSMT"><tspan y="1784" x="139.57813"> </tspan></text>
<text xml:space="preserve" transform="matrix(.7506297 0 0 .7506297 0 -842.95718)" font-size="16" font-family="Gautami"><tspan y="1784" x="143.57813">&#x200b;</tspan></text>
<text xml:space="preserve" transform="matrix(.7506297 0 0 .7506297 0 -842.95718)" font-size="16" font-family="TimesNewRomanPSMT"><tspan y="1784" x="143.57813 151.57813">16</tspan></text>
<text xml:space="preserve" transform="matrix(.7506297 0 0 .7506297 0 -842.95718)" font-size="16" font-family="TimesNewRomanPSMT"><tspan y="1784" x="159.57813"> </tspan></text>
<text xml:space="preserve" transform="matrix(.7506297 0 0 .7506297 0 -842.95718)" font-size="16" font-family="TimesNewRomanPSMT"><tspan y="1807" x="123.59375 134.26575 141.36975 147.59375 152.04175 159.14575 163.14575 171.14575 178.24976 183.57776 188.02576 196.02576 200.47376 204.92176 209.36975 217.36975 225.36975 231.59375 236.04175 240.04175 248.93775 256.93775 264.93775 272.04176 276.48976 284.48976 289.81776 293.81776 297.81776 309.36976 317.36976 325.36976 329.81776 334.26576 341.36976 348.47377 352.92176 357.36976 365.36976 372.47377 376.47377 380.47377 394.69776 402.69776 410.69776 417.80177 425.80177 429.80177 436.90577 444.90577 452.90577 456.90577 468.45777 472.90577 477.35377 484.45777 489.78578 497.78578 504.88978 509.33778 513.78579 521.78579">Basic definitions: Functor, Applicative, Monad and Alternative</tspan></text>
<text xml:space="preserve" transform="matrix(.7506297 0 0 .7506297 0 -842.95718)" font-size="16" font-family="Gautami"><tspan y="1807" x="528.83596">&#x200b;</tspan></text>
<text xml:space="preserve" transform="matrix(.7506297 0 0 .7506297 0 -842.95718)" font-size="16" font-family="TimesNewRomanPSMT"><tspan y="1807" x="528.83596"> </tspan></text>
<text xml:space="preserve" transform="matrix(.7506297 0 0 .7506297 0 -842.95718)" font-size="16" font-family="Gautami"><tspan y="1807" x="532.83596">&#x200b;</tspan></text>
<text xml:space="preserve" transform="matrix(.7506297 0 0 .7506297 0 -842.95718)" font-size="16" font-family="TimesNewRomanPSMT"><tspan y="1807" x="532.83596 540.83596">16</tspan></text>
<text xml:space="preserve" transform="matrix(.7506297 0 0 .7506297 0 -842.95718)" font-size="16" font-family="TimesNewRomanPSMT"><tspan y="1807" x="548.8281"> </tspan></text>
<text xml:space="preserve" transform="matrix(.7506297 0 0 .7506297 0 -842.95718)" font-size="16" font-family="TimesNewRomanPSMT"><tspan y="1830" x="123.59375 134.26575 141.36975 147.59375 152.04175 159.14575 163.14575 172.04175 179.14575 184.47376 190.69776 197.80176 203.12976 209.35376 213.35376 218.68177 224.00977 229.33777 237.33777 249.78577 253.78577 261.78578 269.78578 277.78578 285.78578">Basic Parsers (from book)</tspan></text>
<text xml:space="preserve" transform="matrix(.7506297 0 0 .7506297 0 -842.95718)" font-size="16" font-family="Gautami"><tspan y="1830" x="291.10939">&#x200b;</tspan></text>
<text xml:space="preserve" transform="matrix(.7506297 0 0 .7506297 0 -842.95718)" font-size="16" font-family="TimesNewRomanPSMT"><tspan y="1830" x="291.10939"> </tspan></text>
<text xml:space="preserve" transform="matrix(.7506297 0 0 .7506297 0 -842.95718)" font-size="16" font-family="Gautami"><tspan y="1830" x="295.10939">&#x200b;</tspan></text>
<text xml:space="preserve" transform="matrix(.7506297 0 0 .7506297 0 -842.95718)" font-size="16" font-family="TimesNewRomanPSMT"><tspan y="1830" x="295.10939 303.10939">18</tspan></text>
<text xml:space="preserve" transform="matrix(.7506297 0 0 .7506297 0 -842.95718)" font-size="16" font-family="TimesNewRomanPSMT"><tspan y="1830" x="311.10939"> </tspan></text>
<text xml:space="preserve" transform="matrix(.7506297 0 0 .7506297 0 -842.95718)" font-size="16" font-family="TimesNewRomanPSMT"><tspan y="1853" x="123.59375 133.36975 140.47376 145.80176 158.24976 162.69776 170.69776 177.80176 182.24976 188.47376 192.47376 201.36975 208.47376 213.80176 220.02576 227.12976 232.45777">Terminals Parsers</tspan></text>
<text xml:space="preserve" transform="matrix(.7506297 0 0 .7506297 0 -842.95718)" font-size="16" font-family="Gautami"><tspan y="1853" x="238.67188">&#x200b;</tspan></text>
<text xml:space="preserve" transform="matrix(.7506297 0 0 .7506297 0 -842.95718)" font-size="16" font-family="TimesNewRomanPSMT"><tspan y="1853" x="238.67188"> </tspan></text>
<text xml:space="preserve" transform="matrix(.7506297 0 0 .7506297 0 -842.95718)" font-size="16" font-family="Gautami"><tspan y="1853" x="242.67188">&#x200b;</tspan></text>
<text xml:space="preserve" transform="matrix(.7506297 0 0 .7506297 0 -842.95718)" font-size="16" font-family="TimesNewRomanPSMT"><tspan y="1853" x="242.67188 250.67188">21</tspan></text>
<text xml:space="preserve" transform="matrix(.7506297 0 0 .7506297 0 -842.95718)" font-size="16" font-family="TimesNewRomanPSMT"><tspan y="1853" x="258.67189"> </tspan></text>
<text xml:space="preserve" transform="matrix(.7506297 0 0 .7506297 0 -842.95718)" font-size="16" font-family="TimesNewRomanPSMT"><tspan y="1876" x="123.59375 133.36975 141.36975 149.36975 154.69776 161.80176 168.02576 174.24976 178.69776 186.69776 194.69776 200.92176 205.36975 216.92176 222.24976 226.69776 231.14575 239.14575 251.59375 258.69776 263.14576 267.59376 274.69776 278.69776 287.59376 294.69776 300.02577 306.24977 313.35377 318.68177">Expressions:Arithmetic Parsers</tspan></text>
<text xml:space="preserve" transform="matrix(.7506297 0 0 .7506297 0 -842.95718)" font-size="16" font-family="Gautami"><tspan y="1876" x="324.89064">&#x200b;</tspan></text>
<text xml:space="preserve" transform="matrix(.7506297 0 0 .7506297 0 -842.95718)" font-size="16" font-family="TimesNewRomanPSMT"><tspan y="1876" x="324.89064"> </tspan></text>
<text xml:space="preserve" transform="matrix(.7506297 0 0 .7506297 0 -842.95718)" font-size="16" font-family="Gautami"><tspan y="1876" x="328.89064">&#x200b;</tspan></text>
<text xml:space="preserve" transform="matrix(.7506297 0 0 .7506297 0 -842.95718)" font-size="16" font-family="TimesNewRomanPSMT"><tspan y="1876" x="328.89064 336.89064">22</tspan></text>
<text xml:space="preserve" transform="matrix(.7506297 0 0 .7506297 0 -842.95718)" font-size="16" font-family="TimesNewRomanPSMT"><tspan y="1876" x="344.89064"> </tspan></text>
<text xml:space="preserve" transform="matrix(.7506297 0 0 .7506297 0 -842.95718)" font-size="16" font-family="TimesNewRomanPSMT"><tspan y="1899" x="123.59375 133.36975 141.36975 149.36975 154.69776 161.80176 168.02576 174.24976 178.69776 186.69776 194.69776 200.92176 205.36975 209.36975 220.04175 228.04175 236.04175 240.48975 247.59375 254.69776 262.69776 266.69776 275.59376 282.69776 288.02577 294.24977 301.35377 306.68177">Expressions: Boolean Parsers</tspan></text>
<text xml:space="preserve" transform="matrix(.7506297 0 0 .7506297 0 -842.95718)" font-size="16" font-family="Gautami"><tspan y="1899" x="312.89845">&#x200b;</tspan></text>
<text xml:space="preserve" transform="matrix(.7506297 0 0 .7506297 0 -842.95718)" font-size="16" font-family="TimesNewRomanPSMT"><tspan y="1899" x="312.89845"> </tspan></text>
<text xml:space="preserve" transform="matrix(.7506297 0 0 .7506297 0 -842.95718)" font-size="16" font-family="Gautami"><tspan y="1899" x="316.89845">&#x200b;</tspan></text>
<text xml:space="preserve" transform="matrix(.7506297 0 0 .7506297 0 -842.95718)" font-size="16" font-family="TimesNewRomanPSMT"><tspan y="1899" x="316.89845 324.89845">23</tspan></text>
<text xml:space="preserve" transform="matrix(.7506297 0 0 .7506297 0 -842.95718)" font-size="16" font-family="TimesNewRomanPSMT"><tspan y="1899" x="332.89064"> </tspan></text>
<text xml:space="preserve" transform="matrix(.7506297 0 0 .7506297 0 -842.95718)" font-size="16" font-family="TimesNewRomanPSMT"><tspan y="1922" x="123.59375 133.36975 141.36975 149.36975 154.69776 161.80176 168.02576 174.24976 178.69776 186.69776 194.69776">Expressions</tspan></text>
<text xml:space="preserve" transform="matrix(.7506297 0 0 .7506297 0 -842.95718)" font-size="16" font-family="Gautami"><tspan y="1922" x="200.92188">&#x200b;</tspan></text>
<text xml:space="preserve" transform="matrix(.7506297 0 0 .7506297 0 -842.95718)" font-size="16" font-family="TimesNewRomanPSMT"><tspan y="1922" x="200.92188"> </tspan></text>
<text xml:space="preserve" transform="matrix(.7506297 0 0 .7506297 0 -842.95718)" font-size="16" font-family="Gautami"><tspan y="1922" x="204.92188">&#x200b;</tspan></text>
<text xml:space="preserve" transform="matrix(.7506297 0 0 .7506297 0 -842.95718)" font-size="16" font-family="TimesNewRomanPSMT"><tspan y="1922" x="204.92188 212.92188">24</tspan></text>
<text xml:space="preserve" transform="matrix(.7506297 0 0 .7506297 0 -842.95718)" font-size="16" font-family="TimesNewRomanPSMT"><tspan y="1922" x="220.92188"> </tspan></text>
<text xml:space="preserve" transform="matrix(.7506297 0 0 .7506297 0 -842.95718)" font-size="16" font-family="TimesNewRomanPSMT"><tspan y="1945" x="123.59375 134.26575 142.26575 154.71375 167.16175 174.26575 182.26575 190.26575 196.48975 200.48975 209.38574 216.48975 221.81775 228.04175 235.14575 240.47376">Commands Parsers</tspan></text>
<text xml:space="preserve" transform="matrix(.7506297 0 0 .7506297 0 -842.95718)" font-size="16" font-family="Gautami"><tspan y="1945" x="246.69532">&#x200b;</tspan></text>
<text xml:space="preserve" transform="matrix(.7506297 0 0 .7506297 0 -842.95718)" font-size="16" font-family="TimesNewRomanPSMT"><tspan y="1945" x="246.69532"> </tspan></text>
<text xml:space="preserve" transform="matrix(.7506297 0 0 .7506297 0 -842.95718)" font-size="16" font-family="Gautami"><tspan y="1945" x="250.69532">&#x200b;</tspan></text>
<text xml:space="preserve" transform="matrix(.7506297 0 0 .7506297 0 -842.95718)" font-size="16" font-family="TimesNewRomanPSMT"><tspan y="1945" x="250.69532 258.6953">25</tspan></text>
<text xml:space="preserve" transform="matrix(.7506297 0 0 .7506297 0 -842.95718)" font-size="16" font-family="TimesNewRomanPSMT"><tspan y="1945" x="266.6875"> </tspan></text>
<text xml:space="preserve" transform="matrix(.7506297 0 0 .7506297 0 -842.95718)" font-size="16" font-family="TimesNewRomanPSMT"><tspan y="1968" x="123.59375 132.48975 136.93775 144.04175 148.48975 155.59375 168.04175 175.14575 183.14575 187.59375 193.81775 197.81775 201.81775 210.71375 217.81775 225.81775 233.81775 240.92176 248.92176 256.02577 263.12977 267.12977 274.23377 282.23377 290.23377 294.23377 303.12977 308.45777 316.45777 324.45777 329.78578 336.88978 349.33778">Statements, Sequence and Programs</tspan></text>
<text xml:space="preserve" transform="matrix(.7506297 0 0 .7506297 0 -842.95718)" font-size="16" font-family="Gautami"><tspan y="1968" x="355.53907">&#x200b;</tspan></text>
<text xml:space="preserve" transform="matrix(.7506297 0 0 .7506297 0 -842.95718)" font-size="16" font-family="TimesNewRomanPSMT"><tspan y="1968" x="355.53907"> </tspan></text>
<text xml:space="preserve" transform="matrix(.7506297 0 0 .7506297 0 -842.95718)" font-size="16" font-family="Gautami"><tspan y="1968" x="359.53907">&#x200b;</tspan></text>
<text xml:space="preserve" transform="matrix(.7506297 0 0 .7506297 0 -842.95718)" font-size="16" font-family="TimesNewRomanPSMT"><tspan y="1968" x="359.53907 367.53907">26</tspan></text>
<text xml:space="preserve" transform="matrix(.7506297 0 0 .7506297 0 -842.95718)" font-size="16" font-family="TimesNewRomanPSMT"><tspan y="1968" x="375.53126"> </tspan></text>
<text xml:space="preserve" transform="matrix(.7506297 0 0 .7506297 0 -842.95718)" font-size="16" font-family="TimesNewRomanPSMT"><tspan y="1991" x="99.59375 109.36975 117.36975 124.473758 128.92176 136.92176 144.02576 148.47376 152.92176 160.92176">Evaluation</tspan></text>
<text xml:space="preserve" transform="matrix(.7506297 0 0 .7506297 0 -842.95718)" font-size="16" font-family="Gautami"><tspan y="1991" x="168.90625">&#x200b;</tspan></text>
<text xml:space="preserve" transform="matrix(.7506297 0 0 .7506297 0 -842.95718)" font-size="16" font-family="TimesNewRomanPSMT"><tspan y="1991" x="168.90625"> </tspan></text>
<text xml:space="preserve" transform="matrix(.7506297 0 0 .7506297 0 -842.95718)" font-size="16" font-family="Gautami"><tspan y="1991" x="172.90625">&#x200b;</tspan></text>
<text xml:space="preserve" transform="matrix(.7506297 0 0 .7506297 0 -842.95718)" font-size="16" font-family="TimesNewRomanPSMT"><tspan y="1991" x="172.90625 180.90625">27</tspan></text>
<text xml:space="preserve" transform="matrix(.7506297 0 0 .7506297 0 -842.95718)" font-size="16" font-family="TimesNewRomanPSMT"><tspan y="1991" x="188.90625"> </tspan></text>
<text xml:space="preserve" transform="matrix(.7506297 0 0 .7506297 0 -842.95718)" font-size="16" font-family="TimesNewRomanPSMT"><tspan y="2014" x="123.59375 135.14575 142.24976 146.69776 154.69776 161.80176 165.80176 172.02576 176.47376 181.80176 189.80176 196.90576 201.35376 209.35376 214.68177">Value structure</tspan></text>
<text xml:space="preserve" transform="matrix(.7506297 0 0 .7506297 0 -842.95718)" font-size="16" font-family="Gautami"><tspan y="2014" x="221.77344">&#x200b;</tspan></text>
<text xml:space="preserve" transform="matrix(.7506297 0 0 .7506297 0 -842.95718)" font-size="16" font-family="TimesNewRomanPSMT"><tspan y="2014" x="221.77344"> </tspan></text>
<text xml:space="preserve" transform="matrix(.7506297 0 0 .7506297 0 -842.95718)" font-size="16" font-family="Gautami"><tspan y="2014" x="225.77344">&#x200b;</tspan></text>
<text xml:space="preserve" transform="matrix(.7506297 0 0 .7506297 0 -842.95718)" font-size="16" font-family="TimesNewRomanPSMT"><tspan y="2014" x="225.77344 233.77344">27</tspan></text>
<text xml:space="preserve" transform="matrix(.7506297 0 0 .7506297 0 -842.95718)" font-size="16" font-family="TimesNewRomanPSMT"><tspan y="2014" x="241.76563"> </tspan></text>
<text xml:space="preserve" transform="matrix(.7506297 0 0 .7506297 0 -842.95718)" font-size="16" font-family="TimesNewRomanPSMT"><tspan y="2037" x="123.59375 132.48975 136.93775 144.93775 150.26575 157.36975 161.81775 165.81775 171.14575 178.24976 185.35376 193.35376 197.35376 204.45777 212.45777 220.45777 224.45777 236.00977 241.33777 245.78577 250.23377 257.33778 261.33778 269.33778 276.44178 281.76979 286.21778 293.32179 301.32179 305.76979 312.87379 319.09779 323.09779 327.54579 335.54579 339.54579 351.99378 359.09779 371.54579 379.54579 384.87379">Store: read and write variables in memory</tspan></text>
<text xml:space="preserve" transform="matrix(.7506297 0 0 .7506297 0 -842.95718)" font-size="16" font-family="Gautami"><tspan y="2037" x="392.83595">&#x200b;</tspan></text>
<text xml:space="preserve" transform="matrix(.7506297 0 0 .7506297 0 -842.95718)" font-size="16" font-family="TimesNewRomanPSMT"><tspan y="2037" x="392.83595"> </tspan></text>
<text xml:space="preserve" transform="matrix(.7506297 0 0 .7506297 0 -842.95718)" font-size="16" font-family="Gautami"><tspan y="2037" x="396.83595">&#x200b;</tspan></text>
<text xml:space="preserve" transform="matrix(.7506297 0 0 .7506297 0 -842.95718)" font-size="16" font-family="TimesNewRomanPSMT"><tspan y="2037" x="396.83595 404.83595">28</tspan></text>
<text xml:space="preserve" transform="matrix(.7506297 0 0 .7506297 0 -842.95718)" font-size="16" font-family="TimesNewRomanPSMT"><tspan y="2037" x="412.82814"> </tspan></text>
<text xml:space="preserve" transform="matrix(.7506297 0 0 .7506297 0 -842.95718)" font-size="16" font-family="TimesNewRomanPSMT"><tspan y="2060" x="123.59375 128.92176 136.92176 141.36975 148.47376 153.80176 161.80176 167.12976 174.23377 178.68177 185.78577 191.11377 195.11377 199.56177 207.56177 215.56177 222.66577 227.11377 231.11377 240.00977 248.00977 256.00978 263.11378 267.56178 275.56178 280.88978 284.88978 288.88978 300.44178 308.44178 316.44178 320.88978 325.33778 332.44178 339.54579 343.99378 348.44178 356.44178 363.54579 367.54579 374.64979 382.64979 390.64979 394.64979 408.87379 416.87379 424.87379 431.97779 439.97779">Interpreter type: Functor, Applicative and Monand</tspan></text>
<text xml:space="preserve" transform="matrix(.7506297 0 0 .7506297 0 -842.95718)" font-size="16" font-family="Gautami"><tspan y="2060" x="447.9375">&#x200b;</tspan></text>
<text xml:space="preserve" transform="matrix(.7506297 0 0 .7506297 0 -842.95718)" font-size="16" font-family="TimesNewRomanPSMT"><tspan y="2060" x="447.9375"> </tspan></text>
<text xml:space="preserve" transform="matrix(.7506297 0 0 .7506297 0 -842.95718)" font-size="16" font-family="Gautami"><tspan y="2060" x="451.9375">&#x200b;</tspan></text>
<text xml:space="preserve" transform="matrix(.7506297 0 0 .7506297 0 -842.95718)" font-size="16" font-family="TimesNewRomanPSMT"><tspan y="2060" x="451.9375 459.9375">29</tspan></text>
<text xml:space="preserve" transform="matrix(.7506297 0 0 .7506297 0 -842.95718)" font-size="16" font-family="TimesNewRomanPSMT"><tspan y="2060" x="467.9375"> </tspan></text>
<text xml:space="preserve" transform="matrix(.7506297 0 0 .7506297 0 -842.95718)" font-size="16" font-family="TimesNewRomanPSMT"><tspan y="2083" x="123.59375 133.36975 141.36975 148.47376 155.57776 163.57776 168.02576 172.47376 180.47376 188.47376 192.47376 200.47376 205.80176 209.80176 216.90576 224.90576 237.35376 249.80176 256.90577 264.90577 272.90577 279.12977 283.12977 287.12977 293.35377 297.80177 304.90577 309.35377 316.45777 328.90577 336.00978 344.00978 348.45777 354.68177 358.68177 365.78578 373.78578 381.78578 385.78578 392.00978 399.11378 407.11378 415.11378 422.21778 430.21778 437.32179 444.42579">Execution of commands, statements and sequences</tspan></text>
<text xml:space="preserve" transform="matrix(.7506297 0 0 .7506297 0 -842.95718)" font-size="16" font-family="Gautami"><tspan y="2083" x="450.60939">&#x200b;</tspan></text>
<text xml:space="preserve" transform="matrix(.7506297 0 0 .7506297 0 -842.95718)" font-size="16" font-family="TimesNewRomanPSMT"><tspan y="2083" x="450.60939"> </tspan></text>
<text xml:space="preserve" transform="matrix(.7506297 0 0 .7506297 0 -842.95718)" font-size="16" font-family="Gautami"><tspan y="2083" x="454.60939">&#x200b;</tspan></text>
<text xml:space="preserve" transform="matrix(.7506297 0 0 .7506297 0 -842.95718)" font-size="16" font-family="TimesNewRomanPSMT"><tspan y="2083" x="454.60939 462.60939">30</tspan></text>
<text xml:space="preserve" transform="matrix(.7506297 0 0 .7506297 0 -842.95718)" font-size="16" font-family="TimesNewRomanPSMT"><tspan y="2083" x="470.60939"> </tspan></text>
<text xml:space="preserve" transform="matrix(.7506297 0 0 .7506297 0 -842.95718)" font-size="16" font-family="TimesNewRomanPSMT"><tspan y="2106" x="123.59375 133.36975 141.36975 148.47376 152.92176 160.92176 168.02576 172.47376 176.92176 184.92176 192.92176 196.92176 204.92176 210.24976 214.24976 221.35376 229.35376 237.35376 242.68177 249.78577 256.00978 262.23377 266.68177 274.68177 282.68177">Evaluation of expressions</tspan></text>
<text xml:space="preserve" transform="matrix(.7506297 0 0 .7506297 0 -842.95718)" font-size="16" font-family="Gautami"><tspan y="2106" x="288.89064">&#x200b;</tspan></text>
<text xml:space="preserve" transform="matrix(.7506297 0 0 .7506297 0 -842.95718)" font-size="16" font-family="TimesNewRomanPSMT"><tspan y="2106" x="288.89064"> </tspan></text>
<text xml:space="preserve" transform="matrix(.7506297 0 0 .7506297 0 -842.95718)" font-size="16" font-family="Gautami"><tspan y="2106" x="292.89064">&#x200b;</tspan></text>
<text xml:space="preserve" transform="matrix(.7506297 0 0 .7506297 0 -842.95718)" font-size="16" font-family="TimesNewRomanPSMT"><tspan y="2106" x="292.89064 300.89064">31</tspan></text>
<text xml:space="preserve" transform="matrix(.7506297 0 0 .7506297 0 -842.95718)" font-size="16" font-family="TimesNewRomanPSMT"><tspan y="2106" x="308.89064"> </tspan></text>
<text xml:space="preserve" transform="matrix(.7506297 0 0 .7506297 0 -842.95718)" font-size="16" font-family="TimesNewRomanPSMT"><tspan y="2138" x="75.59375"> </tspan></text>
<text xml:space="preserve" transform="matrix(.7506297 0 0 .7506297 0 -842.95718)" font-size="16" font-family="TimesNewRomanPSMT"><tspan y="2138" x="175.59375"> </tspan></text>
<text xml:space="preserve" transform="matrix(.7506297 0 0 .7506297 0 -842.95718)" font-size="16" font-family="TimesNewRomanPS" font-style="italic"><tspan y="2192" x="75.59375 79.59375 83.59375 87.59375 91.59375 95.59375 99.59375 103.59375 107.59375 111.59375 115.59375 119.59375 123.59375">             </tspan></text>
<text xml:space="preserve" transform="matrix(.7506297 0 -.18765743 .7506297 0 -842.95718)" font-size="16" font-family="Gautami"><tspan y="2192" x="675.59378">&#x200b;</tspan></text>
<text xml:space="preserve" transform="matrix(.7506297 0 0 .7506297 0 -842.95718)" font-size="16" font-family="TimesNewRomanPSMT"><tspan y="2192" x="127.59375 131.59375"> 2</tspan></text>
<text xml:space="preserve" transform="matrix(.7506297 0 0 .7506297 0 -842.95718)" font-size="16" font-family="TimesNewRomanPSMT"><tspan y="2192" x="139.59375"> </tspan></text>
</g>
</g>
</svg>
