<?xml version="1.0" encoding="UTF-8" standalone="no"?>
<!DOCTYPE svg PUBLIC "-//W3C//DTD SVG 1.1//EN" "http://www.w3.org/Graphics/SVG/1.1/DTD/svg11.dtd">
<svg xmlns="http://www.w3.org/2000/svg" xmlns:xlink="http://www.w3.org/1999/xlink" version="1.1" width="596pt" height="843pt" viewBox="0 0 596 843">
<g enable-background="new">
<clipPath id="cp189">
<path d="M 0 0 L 596 0 L 596 842.9575 L 0 842.9575 Z " fill-rule="evenodd"/>
</clipPath>
<g clip-path="url(#cp189)">
<path transform="matrix(.7506297,0,0,.7506297,0,-7586.6149)" d="M 0 10107 L 794 10107 L 794 11230 L 0 11230 Z " fill="#ffffff"/>
<path transform="matrix(.7506297,0,0,.7506297,0,-7586.6149)" d="M 0 10107 L 794 10107 L 794 11230 L 0 11230 Z " fill="#ffffff"/>
<path transform="matrix(.7506297,0,0,.7506297,0,-7586.6149)" d="M 0 0 L 794 0 L 794 44920 L 0 44920 Z " fill="#ffffff"/>
<path transform="matrix(.7506297,0,0,.7506297,0,-7586.6149)" d="M 0 10107 L 794 10107 L 794 11230 L 0 11230 Z " fill="#ffffff"/>
<path transform="matrix(.7506297,0,0,.7506297,0,-7586.6149)" d="M 0 10201 L 794 10201 L 794 11230 L 0 11230 Z " fill="#ffffff"/>
<path transform="matrix(.7506297,0,0,.7506297,0,-7586.6149)" d="M 76 10201 L 719 10201 L 719 10269 L 76 10269 Z " fill="#f8f8f8"/>
</g>
<clipPath id="cp190">
<path d="M 57.04786 70.55908 L 539.70278 70.55908 L 539.70278 121.60205 L 57.04786 121.60205 Z " fill-rule="evenodd"/>
</clipPath>
<g clip-path="url(#cp190)">
<path transform="matrix(.7506297,0,0,.7506297,0,-7586.6149)" d="M 83 10208 L 229 10208 L 229 10224 L 83 10224 Z " fill="#f8f8f8"/>
</g>
<clipPath id="cp191">
<path d="M 57.04786 70.55908 L 539.70278 70.55908 L 539.70278 121.60205 L 57.04786 121.60205 Z " fill-rule="evenodd"/>
</clipPath>
<g clip-path="url(#cp191)">
<path transform="matrix(.7506297,0,0,.7506297,0,-7586.6149)" d="M 83 10226 L 302 10226 L 302 10242 L 83 10242 Z " fill="#f8f8f8"/>
</g>
<clipPath id="cp192">
<path d="M 57.04786 70.55908 L 539.70278 70.55908 L 539.70278 121.60205 L 57.04786 121.60205 Z " fill-rule="evenodd"/>
</clipPath>
<g clip-path="url(#cp192)">
<path transform="matrix(.7506297,0,0,.7506297,0,-7586.6149)" d="M 83 10244 L 214 10244 L 214 10260 L 83 10260 Z " fill="#f8f8f8"/>
</g>
<clipPath id="cp193">
<path d="M 57.04786 70.55908 L 539.70278 70.55908 L 539.70278 121.60205 L 57.04786 121.60205 Z " fill-rule="evenodd"/>
</clipPath>
<g clip-path="url(#cp193)">
<text fill="#333333" xml:space="preserve" transform="matrix(.7506297 0 0 .7506297 0 -7586.6149)" font-size="13.33" font-family="Consolas"><tspan y="10221" x="82.59375 89.921619 97.24948 104.57735 111.90521 119.23308 126.56094 133.88881 141.21668 148.54454 155.8724 163.20027 170.52814 177.856 185.18387 192.51174 199.8396 207.16747 214.49533 221.8232"> filename &#x003c;- getLine</tspan></text>
</g>
<clipPath id="cp194">
<path d="M 57.04786 70.55908 L 539.70278 70.55908 L 539.70278 121.60205 L 57.04786 121.60205 Z " fill-rule="evenodd"/>
</clipPath>
<g clip-path="url(#cp194)">
<text fill="#333333" xml:space="preserve" transform="matrix(.7506297 0 0 .7506297 0 -7586.6149)" font-size="13.33" font-family="Consolas"><tspan y="10221" x="229.14063"> </tspan></text>
</g>
<clipPath id="cp195">
<path d="M 57.04786 70.55908 L 539.70278 70.55908 L 539.70278 121.60205 L 57.04786 121.60205 Z " fill-rule="evenodd"/>
</clipPath>
<g clip-path="url(#cp195)">
<text fill="#333333" xml:space="preserve" transform="matrix(.7506297 0 0 .7506297 0 -7586.6149)" font-size="13.33" font-family="Consolas"><tspan y="10239" x="82.59375 89.921619 97.24948 104.57735 111.90521 119.23308 126.56094 133.88881 141.21668 148.54454 155.8724 163.20027 170.52814 177.856 185.18387 192.51174 199.8396 207.16747 214.49533 221.8232 229.15106 236.47893 243.8068 251.13466 258.46253 265.7904 273.11827 280.4461 287.774 295.10188"> contents &#x003c;- readFile filename</tspan></text>
</g>
<clipPath id="cp196">
<path d="M 57.04786 70.55908 L 539.70278 70.55908 L 539.70278 121.60205 L 57.04786 121.60205 Z " fill-rule="evenodd"/>
</clipPath>
<g clip-path="url(#cp196)">
<text fill="#333333" xml:space="preserve" transform="matrix(.7506297 0 0 .7506297 0 -7586.6149)" font-size="13.33" font-family="Consolas"><tspan y="10239" x="302.42189"> </tspan></text>
</g>
<clipPath id="cp197">
<path d="M 57.04786 70.55908 L 539.70278 70.55908 L 539.70278 121.60205 L 57.04786 121.60205 Z " fill-rule="evenodd"/>
</clipPath>
<g clip-path="url(#cp197)">
<text fill="#333333" xml:space="preserve" transform="matrix(.7506297 0 0 .7506297 0 -7586.6149)" font-size="13.33" font-family="Consolas"><tspan y="10257" x="82.59375 89.921619 97.24948 104.57735 111.90521 119.23308 126.56094 133.88881 141.21668 148.54454 155.8724 163.20027 170.52814 177.856 185.18387 192.51174 199.8396 207.16747"> putStrLn contents</tspan></text>
</g>
<clipPath id="cp198">
<path d="M 57.04786 70.55908 L 539.70278 70.55908 L 539.70278 121.60205 L 57.04786 121.60205 Z " fill-rule="evenodd"/>
</clipPath>
<g clip-path="url(#cp198)">
<text xml:space="preserve" transform="matrix(.7506297 0 0 .7506297 0 -7586.6149)" font-size="13.33" font-family="TimesNewRomanPSMT"><tspan y="10257" x="214.48438"> </tspan></text>
</g>
<clipPath id="cp199">
<path d="M 0 0 L 596 0 L 596 842.9575 L 0 842.9575 Z " fill-rule="evenodd"/>
</clipPath>
<g clip-path="url(#cp199)">
<text xml:space="preserve" transform="matrix(.7506297 0 0 .7506297 0 -7586.6149)" font-size="13.33" font-family="TimesNewRomanPSMT"><tspan y="10282" x="75.59375"> </tspan></text>
<text xml:space="preserve" transform="matrix(.7506297 0 0 .7506297 0 -7586.6149)" font-size="16" font-family="TimesNewRomanPSMT"><tspan y="10303" x="75.59375 80.92175 88.92175 92.92175 100.02576 104.02576 110.249759 114.697757 127.14575 131.59375 136.04175 143.14575 148.47376 152.47376 164.92176 172.02576 180.02576 188.02576 195.12976 200.45777 204.45777 208.90576 216.90576 220.90576 226.23377 234.23377 242.23377 249.33777 253.78577 261.78578 267.11378 273.33778 277.33778 284.44178 292.44178 300.44178 304.44178 311.54579 319.54579 327.54579 331.99378 336.44178 343.54579 350.64979 355.09779 359.54579 367.54579 374.64979 380.87379 384.87379 388.87379 393.32179 401.32179 408.42579 412.42579 416.87379 428.42579 436.42579 440.42579 452.87379 460.87379 468.87379 475.97779 483.97779 488.42579 495.5298 499.5298 507.5298 512.8578 517.3058 529.7538 534.2018 538.6498 543.0978 551.0978 558.2018 564.4258 568.4258 575.5298 580.8578 587.9618 591.9618 597.2898 604.3938 612.3938 620.3938 624.8418 630.1698 637.2738 645.2738 649.2738 653.7218 661.7218 665.7218 671.9458 679.0498 683.4978 687.9458 694.1698 699.4978">In a similar manner to functors and applicatives, the two monadic primitives are required to satisfy</tspan></text>
<text xml:space="preserve" transform="matrix(.7506297 0 0 .7506297 0 -7586.6149)" font-size="16" font-family="TimesNewRomanPSMT"><tspan y="10303" x="707.40628"> </tspan></text>
<text xml:space="preserve" transform="matrix(.7506297 0 0 .7506297 0 -7586.6149)" font-size="16" font-family="TimesNewRomanPSMT"><tspan y="10325" x="75.59375 81.81775 89.81775 102.26575 109.36975 113.36975 120.473758 128.47376 136.47376 143.57776 148.02576 152.47376 160.47376 168.47376 175.57776 180.02576 184.02576 188.47376 195.57776 207.12976 213.35376">some equational laws:</tspan></text>
<text xml:space="preserve" transform="matrix(.7506297 0 0 .7506297 0 -7586.6149)" font-size="16" font-family="TimesNewRomanPSMT"><tspan y="10325" x="217.78125"> </tspan></text>
<text xml:space="preserve" transform="matrix(.7506297 0 0 .7506297 0 -7586.6149)" font-size="16" font-family="TimesNewRomanPSMT"><tspan y="10347" x="99.59375">-</tspan></text>
<text xml:space="preserve" transform="matrix(.7506297 0 0 .7506297 0 -7586.6149)" font-size="16" font-family="TimesNewRomanPSMT"><tspan y="10347" x="123.59375 128.92176 136.02576 140.47376 148.47376 153.80176 161.80176 165.80176 173.80176 177.80176 186.82576 195.84976 204.87377 208.87377 214.20177 218.20177 222.20177 226.20177 235.22577 239.22577 243.22577 248.55377 252.55377">return x &#x003e;&#x003e;= f   =  f x</tspan></text>
<text xml:space="preserve" transform="matrix(.7506297 0 0 .7506297 0 -7586.6149)" font-size="16" font-family="TimesNewRomanPSMT"><tspan y="10347" x="260.54689"> </tspan></text>
<text xml:space="preserve" transform="matrix(.7506297 0 0 .7506297 0 -7586.6149)" font-size="16" font-family="TimesNewRomanPSMT"><tspan y="10369" x="99.59375">-</tspan></text>
<text xml:space="preserve" transform="matrix(.7506297 0 0 .7506297 0 -7586.6149)" font-size="16" font-family="TimesNewRomanPSMT"><tspan y="10369" x="123.59375 136.04175 144.04175 148.04175 157.06575 166.08975 175.11376 179.11376 184.44176 191.54576 195.99376 203.99376 209.32176 217.32176 221.32176 225.32176 234.34577 238.34577 242.34577 254.79376">mx &#x003e;&#x003e;= return  =  mx</tspan></text>
<text xml:space="preserve" transform="matrix(.7506297 0 0 .7506297 0 -7586.6149)" font-size="16" font-family="TimesNewRomanPSMT"><tspan y="10369" x="262.78126"> </tspan></text>
<text xml:space="preserve" transform="matrix(.7506297 0 0 .7506297 0 -7586.6149)" font-size="16" font-family="TimesNewRomanPSMT"><tspan y="10391" x="99.59375">-</tspan></text>
<text xml:space="preserve" transform="matrix(.7506297 0 0 .7506297 0 -7586.6149)" font-size="16" font-family="TimesNewRomanPSMT"><tspan y="10391" x="123.59375 128.92176 141.36975 149.36975 153.36975 162.39376 171.41776 180.44176 184.44176 189.76976 195.09777 199.09777 208.12177 217.14577 226.16977 230.16977 238.16977 242.16977 246.16977 255.19377 259.1938 263.1938 275.64179 283.64179 287.64179 296.66578 305.68977 314.71376 318.71376 324.04176 328.48976 336.48976 340.48976 345.81776 354.84175 358.84175 364.16975 369.49775 373.49775 381.49775 385.49775 394.52174 403.54573 412.5697 416.5697 424.5697 429.8977">(mx &#x003e;&#x003e;= f) &#x003e;&#x003e;= g  =  mx &#x003e;&#x003e;= (\x -&#x003e; (f x &#x003e;&#x003e;= g))</tspan></text>
<text xml:space="preserve" transform="matrix(.7506297 0 0 .7506297 0 -7586.6149)" font-size="16" font-family="TimesNewRomanPSMT"><tspan y="10391" x="435.20314"> </tspan></text>
<text xml:space="preserve" transform="matrix(.7506297 0 0 .7506297 0 -7586.6149)" font-size="16" font-family="TimesNewRomanPSMT"><tspan y="10413" x="75.59375 85.36975 93.36975 100.473758 104.473758 109.80176 114.249759 119.57776 125.80176 130.24976 134.24976 141.35376 149.35376 157.35376 164.45777 168.90576 173.35376 181.35376 189.35376 193.35376 199.57776 204.02576 211.12976 215.57776 222.68177 228.90576 232.90576 237.35376 245.35376 252.45777 256.90577 260.90577 265.35377 270.68177 274.68177 286.23377 293.33778 297.33778 302.66578 309.76979 314.21778 322.21778 327.54579 335.54579 339.54579 346.64979 350.64979 358.64979 365.75379 370.20179 378.20179 385.3058 389.3058 396.4098 404.4098 412.4098 416.4098 420.8578 428.8578 435.9618 443.9618 447.9618 453.2898 460.3938 467.4978 475.4978 479.4978 483.9458 491.9458 496.3938 502.6178 506.6178 511.0658 519.0658 523.5138 531.5138 535.5138 542.6178 546.6178 559.0658 567.0658 575.0658 582.1698 590.1698 594.6178 601.7218 605.7218 611.0498 619.0498 627.0498 634.1538 638.6018 643.0498 651.0498 659.0498 663.0498 667.0498 671.4978 679.4978 683.9458">The first equation states that if we return a value and then feed this into a monadic function, this</tspan></text>
<text xml:space="preserve" transform="matrix(.7506297 0 0 .7506297 0 -7586.6149)" font-size="16" font-family="TimesNewRomanPSMT"><tspan y="10413" x="690.0781"> </tspan></text>
<text xml:space="preserve" transform="matrix(.7506297 0 0 .7506297 0 -7586.6149)" font-size="16" font-family="TimesNewRomanPSMT"><tspan y="10435" x="75.59375 81.81775 89.81775 97.81775 105.81775 110.26575 118.26575 122.26575 130.26575 134.71375 142.71375 149.81775 153.81775 158.26575 166.26575 173.36975 177.36975 183.59375 190.69776 203.14575 210.24976 214.24976 219.57776 226.68177 232.90576 240.90576 245.35376 249.80176 253.80176 260.90577 267.12977 271.12977 277.35377 281.80177 294.24977 302.24977 306.69776 314.69776 318.69776 325.80177 333.80177 341.80177 346.24977 354.24977 358.69776 366.69776 374.69776 378.69776 383.14576 391.14576 398.24977 402.24977 407.57777 415.57777 423.57777 430.68177 435.12977 439.57777 447.57777 455.57777 459.57777 464.02577 472.02577 476.02577 480.47377 488.47377 495.57777 499.57777 507.57777 514.68179 519.12979 527.12979 534.23379 538.23379 542.23379 553.78579 561.78579 568.8898 573.33779 577.78579 585.78579 589.78579 593.78579 598.23379 606.23379 613.33779 617.33779 623.56179 630.6658 637.7698 645.7698 653.7698">should give the same result as simply applying the function to the value. Dually, the second</tspan></text>
<text xml:space="preserve" transform="matrix(.7506297 0 0 .7506297 0 -7586.6149)" font-size="16" font-family="TimesNewRomanPSMT"><tspan y="10435" x="661.6875"> </tspan></text>
<text xml:space="preserve" transform="matrix(.7506297 0 0 .7506297 0 -7586.6149)" font-size="16" font-family="TimesNewRomanPSMT"><tspan y="10457" x="75.59375 82.697757 90.697757 98.697757 105.80176 110.249759 114.697757 122.697757 130.69776 134.69776 140.92176 145.36975 152.47376 156.92176 164.02576 170.24976 174.24976 178.69776 186.69776 193.80176 198.24976 202.24976 206.69776 212.02576 216.02576 227.57776 234.68177 238.68177 244.00977 251.11377 258.21778 266.21778 270.21778 274.66578 282.66578 289.76979 293.76979 299.09779 306.20179 312.42579 320.42579 324.87379 329.32179 333.32179 341.32179 346.64979 350.64979 357.75379 361.75379 374.20179 382.20179 390.20179 397.3058 405.3058 409.75379 416.8578 420.8578 427.9618 435.9618 448.4098 456.4098 464.4098 468.8578 475.9618 480.4098 484.8578 492.8578 500.8578 504.8578 509.3058 517.3058 521.7538 529.7538 533.7538 538.2018 546.2018 553.3058 557.3058 562.6338 570.6338 578.6338 585.7378 590.1858 594.6338 602.6338 610.6338 614.6338 619.9618 627.0658 631.5138 639.5138 644.8418 652.8418 656.8418 660.8418 665.2898 673.2898 677.7378">equation states that if we feed the result of a monadic computation into the function return, this</tspan></text>
<text xml:space="preserve" transform="matrix(.7506297 0 0 .7506297 0 -7586.6149)" font-size="16" font-family="TimesNewRomanPSMT"><tspan y="10457" x="683.8594"> </tspan></text>
<text xml:space="preserve" transform="matrix(.7506297 0 0 .7506297 0 -7586.6149)" font-size="16" font-family="TimesNewRomanPSMT"><tspan y="10479" x="75.59375 81.81775 89.81775 97.81775 105.81775 110.26575 118.26575 122.26575 130.26575 134.71375 142.71375 149.81775 153.81775 158.26575 166.26575 173.36975 177.36975 183.59375 190.69776 203.14575 210.24976 214.24976 219.57776 226.68177 232.90576 240.90576 245.35376 249.80176 253.80176 260.90577 267.12977 271.12977 277.35377 281.80177 294.24977 302.24977 306.69776 314.69776 318.69776 326.69776 333.80177 339.12977 344.45777 352.45777 357.78578 370.23377 374.68177 382.68177 390.68177 394.68177 399.12977 407.12977 414.23377 418.23377 425.33778 433.33778 445.78578 453.78578 461.78578 466.23377 473.33778 477.78578 482.23377 490.23377 498.23377 502.23377 506.23377 516.00979 524.00979 532.00979 539.1138 543.56179 551.56179 558.6658 563.9938 567.9938 571.9938 576.4418 584.4418 591.5458 597.7698 604.8738 608.8738 613.3218 624.8738 632.8738 636.8738 643.9778 651.9778 659.9778 667.0818 671.5298 675.9778 683.9778 691.9778">should give the same result as simply performing the computation. Together, these two equations</tspan></text>
<text xml:space="preserve" transform="matrix(.7506297 0 0 .7506297 0 -7586.6149)" font-size="16" font-family="TimesNewRomanPSMT"><tspan y="10479" x="698.125"> </tspan></text>
<text xml:space="preserve" transform="matrix(.7506297 0 0 .7506297 0 -7586.6149)" font-size="16" font-family="TimesNewRomanPSMT"><tspan y="10501" x="75.59375 81.81775 86.26575 93.36975 97.81775 104.92175 108.92175 112.92175 125.36975 133.36975 141.36975 149.36975 153.81775 161.81775 165.81775 170.26575 178.26575 185.36975 189.36975 194.69776 201.80176 208.90576 213.35376 217.35376 221.80176 229.80176 236.90576 241.35376 245.35376 249.80176 257.80177 264.90577 268.90577 275.12977 282.23377 289.33778 297.33778 305.33778 313.33778 317.33778 324.44178 329.76979 337.76979 345.76979 358.21778 365.32179 373.32179 377.76979 381.76979 386.21778 394.21778 398.21778 407.24177 416.26576 425.28974 429.28974 433.73774 441.73774 449.73774 457.73774 462.18574 470.18574 477.28974 483.51374 487.51374 494.61775 498.61775 506.61775 511.06575 519.06576 527.06576 531.51376 539.51376 547.51376 551.51376 559.51376 567.51376 574.61776 579.94577 587.04977 591.49777 595.94577 603.94577 611.94577 615.94577 619.94577 624.39376 632.39376 639.49777 643.94577 647.94577 653.27377 660.37777 664.82577 672.82577 678.15377 686.15377 690.15377 694.60177">state, modulo the fact that the second argument to &#x003e;&#x003e;= involves a binding operation, that return is</tspan></text>
<text xml:space="preserve" transform="matrix(.7506297 0 0 .7506297 0 -7586.6149)" font-size="16" font-family="TimesNewRomanPSMT"><tspan y="10501" x="700.7344"> </tspan></text>
<text xml:space="preserve" transform="matrix(.7506297 0 0 .7506297 0 -7586.6149)" font-size="16" font-family="TimesNewRomanPSMT"><tspan y="10523" x="75.59375 80.04175 88.04175 95.14575 99.14575 103.59375 111.59375 118.697757 126.697757 131.14575 135.59375 140.04175 148.04175 152.04175 157.36975 165.36975 170.69776 174.69776 179.14575 187.14575 194.24976 198.24976 207.27376 216.29776 225.32176 229.32176 237.32176 245.32176 252.42577 257.75376 264.85777 269.30577 277.30577 282.63377 286.63377 290.63377 300.40977 308.40977 315.51377 319.51377 323.96177 331.96177 336.40977 341.73777 349.73777 353.73777 360.84178 368.84178 376.84178 383.94578 388.39378 392.84178 400.84178 408.84178 412.84178 419.94578 427.94578 435.94578 443.04978 450.15379 455.48179 463.48179 469.70579 473.70579 478.15379 486.15379 493.25779 497.25779 501.70579 506.15379 514.1538 522.1538 526.1538 534.1538 541.2578 545.7058 557.2578 564.3618 571.4658 579.4658 583.4658 592.4898 601.5138 610.5378 614.5378 621.6418 629.6418 637.6418 641.6418 646.0898 650.5378 656.7618 663.8658 668.3138 673.6418 677.6418 681.6418 688.7458 696.7458">the identity for the &#x003e;&#x003e;= operator. The third equation concerns the link between &#x003e;&#x003e;= and itself, and</tspan></text>
<text xml:space="preserve" transform="matrix(.7506297 0 0 .7506297 0 -7586.6149)" font-size="16" font-family="TimesNewRomanPSMT"><tspan y="10523" x="704.65628"> </tspan></text>
<text xml:space="preserve" transform="matrix(.7506297 0 0 .7506297 0 -7586.6149)" font-size="16" font-family="TimesNewRomanPSMT"><tspan y="10545" x="75.59375 82.697757 90.697757 98.697757 104.02576 111.12976 117.35376 123.57776 130.68177 136.90576 140.90576 146.23377 153.33777 161.33777 168.44178 172.88977 180.88977 184.88977 197.33777 205.33777 213.33777 221.33777 225.78577 233.78577 237.78577 245.78577 250.23377 258.23377 266.23377 270.68177 278.68177 286.68177 292.00978 296.00978 300.45777 308.45777 315.56178 320.00978 324.00978 333.03376 342.05775 351.08174 355.08174 359.52973 365.75373 369.75373 376.85774 383.08174 389.30574 397.30574 404.40974 408.85774 415.96174 420.40974 424.85774 432.85774 439.96174">expresses (again modulo binding) that &#x003e;&#x003e;= is associative.</tspan></text>
<text xml:space="preserve" transform="matrix(.7506297 0 0 .7506297 0 -7586.6149)" font-size="16" font-family="TimesNewRomanPSMT"><tspan y="10545" x="443.92189"> </tspan></text>
<text xml:space="preserve" transform="matrix(.7506297 0 0 .7506297 0 -7586.6149)" font-size="16" font-family="TimesNewRomanPSMT"><tspan y="10545" x="447.92189"> </tspan></text>
<text xml:space="preserve" transform="matrix(.7506297 0 0 .7506297 0 -7586.6149)" font-size="16" font-family="TimesNewRomanPSMT"><tspan y="10567" x="75.59375"> </tspan></text>
<text xml:space="preserve" transform="matrix(.7506297 0 0 .7506297 0 -7586.6149)" font-size="16" font-family="TimesNewRomanPSMT"><tspan y="10589" x="75.59375"> </tspan></text>
<text xml:space="preserve" transform="matrix(.7506297 0 0 .7506297 0 -7586.6149)" font-size="16" font-family="TimesNewRomanPSMT"><tspan y="10611" x="75.59375"> </tspan></text>
<text xml:space="preserve" transform="matrix(.7506297 0 0 .7506297 0 -7586.6149)" font-size="16" font-family="TimesNewRomanPSMT"><tspan y="10633" x="75.59375"> </tspan></text>
<text xml:space="preserve" transform="matrix(.7506297 0 0 .7506297 0 -7586.6149)" font-size="32" font-family="TimesNewRomanPS" font-weight="bold"><tspan y="10697" x="75.59375"> </tspan></text>
<text xml:space="preserve" transform="matrix(.7506297 0 0 .7506297 0 -7586.6149)" font-size="32" font-family="TimesNewRomanPS" font-weight="bold"><tspan y="10697" x="175.59375"> </tspan></text>
<text xml:space="preserve" transform="matrix(.7506297 0 0 .7506297 0 -7586.6149)" font-size="16" font-family="TimesNewRomanPS" font-style="italic"><tspan y="11176" x="75.59375 79.59375 83.59375 87.59375 91.59375 95.59375 99.59375 103.59375 107.59375 111.59375 115.59375 119.59375 123.59375">             </tspan></text>
<text xml:space="preserve" transform="matrix(.7506297 0 -.18765743 .7506297 0 -7586.6149)" font-size="16" font-family="Gautami"><tspan y="11176" x="2921.5938">&#x200b;</tspan></text>
<text xml:space="preserve" transform="matrix(.7506297 0 0 .7506297 0 -7586.6149)" font-size="16" font-family="TimesNewRomanPSMT"><tspan y="11176" x="127.59375 131.59375 139.59375"> 10</tspan></text>
<text xml:space="preserve" transform="matrix(.7506297 0 0 .7506297 0 -7586.6149)" font-size="16" font-family="TimesNewRomanPSMT"><tspan y="11176" x="147.59375"> </tspan></text>
</g>
</g>
</svg>
