<?xml version="1.0" encoding="UTF-8" standalone="no"?>
<!DOCTYPE svg PUBLIC "-//W3C//DTD SVG 1.1//EN" "http://www.w3.org/Graphics/SVG/1.1/DTD/svg11.dtd">
<svg xmlns="http://www.w3.org/2000/svg" xmlns:xlink="http://www.w3.org/1999/xlink" version="1.1" width="596pt" height="843pt" viewBox="0 0 596 843">
<g enable-background="new">
<clipPath id="cp18">
<path d="M 0 0 L 596 0 L 596 842.95706 L 0 842.95706 Z " fill-rule="evenodd"/>
</clipPath>
<g clip-path="url(#cp18)">
<path transform="matrix(.7506297,0,0,.7506297,0,-2528.8717)" d="M 0 3369 L 794 3369 L 794 4492 L 0 4492 Z " fill="#ffffff"/>
<path transform="matrix(.7506297,0,0,.7506297,0,-2528.8717)" d="M 0 3369 L 794 3369 L 794 4492 L 0 4492 Z " fill="#ffffff"/>
<path transform="matrix(.7506297,0,0,.7506297,0,-2528.8717)" d="M 0 0 L 794 0 L 794 44920 L 0 44920 Z " fill="#ffffff"/>
<path transform="matrix(.7506297,0,0,.7506297,0,-2528.8717)" d="M 0 3369 L 794 3369 L 794 4492 L 0 4492 Z " fill="#ffffff"/>
<path transform="matrix(.7506297,0,0,.7506297,0,-2528.8717)" d="M 0 3463 L 794 3463 L 794 4492 L 0 4492 Z " fill="#ffffff"/>
<text xml:space="preserve" transform="matrix(.7506297 0 0 .7506297 0 -2528.8717)" font-size="32" font-family="TimesNewRomanPS" font-weight="bold"><tspan y="3513" x="75.59375 88.04175 105.83375 116.489749 130.69776 146.69776 164.48976 182.28177 196.48978 207.14579 216.04178 232.04178">Introduction</tspan></text>
<text xml:space="preserve" transform="matrix(.7506297 0 0 .7506297 0 -2528.8717)" font-size="32" font-family="TimesNewRomanPS" font-weight="bold"><tspan y="3513" x="249.84375"> </tspan></text>
<text xml:space="preserve" transform="matrix(.7506297 0 0 .7506297 0 -2528.8717)" font-size="16" font-family="TimesNewRomanPSMT"><tspan y="3550" x="75.59375 80.92175 88.92175 92.92175 97.36975 105.36975 109.81775 116.04175 120.04175 128.04175 136.04175 143.14575 151.14575 163.59375 170.69776 178.69776 183.14575 187.14575 198.69776 205.80176 209.80176 221.35376 225.80176 230.24976 234.69776 238.69776 244.02576 248.47376 253.80176 260.02577 264.47377 268.47377 276.47377 283.57777 291.57777 298.68177 302.68177 309.78578 313.78578 320.00978 332.45777 339.56178 344.00978 348.45777 352.45777 356.90577 364.90577 372.00978 380.00978 385.33778 393.33778 397.33778 405.33778 409.78578 416.00978 423.11378 431.11378 437.33778 443.56178 448.00978 456.00978 464.00978 468.00978 475.11378 483.11378 491.11378 499.11378 503.56178 507.56178 512.00979 520.00979 527.1138 531.1138 543.56179 550.6658 555.1138 563.1138 567.1138 574.2178 582.2178 590.2178 597.3218 604.4258 612.4258 616.8738 620.8738 628.8738 635.9778 643.9778 648.4258 656.4258 664.4258 668.4258 672.8738 680.8738">In this document we will first have a small theory discussion about the main concept behind the</tspan></text>
<text xml:space="preserve" transform="matrix(.7506297 0 0 .7506297 0 -2528.8717)" font-size="16" font-family="TimesNewRomanPSMT"><tspan y="3550" x="687.8906"> </tspan></text>
<text xml:space="preserve" transform="matrix(.7506297 0 0 .7506297 0 -2528.8717)" font-size="16" font-family="TimesNewRomanPSMT"><tspan y="3572" x="75.59375 80.04175 92.489749 100.489749 104.937747 112.04175 124.489749 131.59375 139.59375 144.04175 151.14575 155.59375 160.04175 168.04175 176.04175 180.04175 188.04175 193.36975 197.36975 201.36975 209.36975 217.36975 222.69776 226.69776 232.92176 240.92176 247.14575 251.59375 258.69776 271.14576 275.14576 283.14576 290.24977 295.57777 300.02577 308.02577 312.47377 320.47377 328.47377 332.47377 344.02577 352.02577 359.12977 363.57777 367.57777 372.02577 378.24977 382.24977 389.35377 393.35377 401.35377 408.45777 413.78578 420.00978 427.11378 432.44178 436.44178 443.54579 451.54579 459.54579 463.54579 467.99378 475.99378 483.09779 487.09779 498.64979 507.54579 517.3218 521.3218 527.5458 531.9938 537.3218 545.3218 552.4258 556.8738 564.8738 570.2018 577.3058 581.3058 585.3058 590.6338 598.6338 603.0818 607.5298 615.5298 627.0818 634.1858 642.1858 646.1858 654.1858 662.1858 666.1858">implementation of  our system defining what is a parser and the AST structure, followed by a</tspan></text>
<text xml:space="preserve" transform="matrix(.7506297 0 0 .7506297 0 -2528.8717)" font-size="16" font-family="TimesNewRomanPSMT"><tspan y="3572" x="673.21878"> </tspan></text>
<text xml:space="preserve" transform="matrix(.7506297 0 0 .7506297 0 -2528.8717)" font-size="16" font-family="TimesNewRomanPSMT"><tspan y="3594" x="75.59375 83.59375 90.697757 96.92175 104.02576 109.35376 113.80176 121.80176 126.249759 130.69776 138.69776 146.69776 150.69776 157.80176 165.80176 173.80176 181.80176 186.24976 190.24976 194.69776 202.69776 209.80176 213.80176 220.90576 228.00977 236.00977 243.11377 248.44178 252.44178 259.54579 267.54579 274.64979 279.09779 287.09779 294.20179 298.64979 305.75379 309.75379 315.97779 320.42579 325.75379 332.8578 337.3058 344.4098 352.4098 360.4098 364.4098 371.5138 379.5138 387.5138 391.5138 398.6178 402.6178 410.6178 418.6178 423.0658 430.1698 438.1698 442.1698 450.1698 457.2738 463.4978 470.6018 475.9298 480.3778 488.3778 492.8258 497.2738 505.2738 513.2738 517.2738 524.3778 532.3778 540.3778 548.3778 552.8258 556.8258 562.1538 570.1538 578.1538 585.2578 589.7058 597.7058 603.0338 607.0338 611.0338 618.1378 626.1378 634.1378 638.5858 643.0338 650.1378 657.2418 661.6898 666.1378 674.1378 681.2418 685.2418 692.3458 700.3458">description about the eager evaluate strategy and a quick description about functor, applicative and</tspan></text>
<text xml:space="preserve" transform="matrix(.7506297 0 0 .7506297 0 -2528.8717)" font-size="16" font-family="TimesNewRomanPSMT"><tspan y="3594" x="708.2344"> </tspan></text>
<text xml:space="preserve" transform="matrix(.7506297 0 0 .7506297 0 -2528.8717)" font-size="16" font-family="TimesNewRomanPSMT"><tspan y="3616" x="75.59375 88.04175 96.04175 104.04175 111.14575 119.14575 123.14575 127.59375 135.59375 139.59375 147.59375 154.69776 160.92176 168.92176 176.02576 180.47376 184.92176">monad in haskell.</tspan></text>
<text xml:space="preserve" transform="matrix(.7506297 0 0 .7506297 0 -2528.8717)" font-size="16" font-family="TimesNewRomanPSMT"><tspan y="3616" x="188.90625"> </tspan></text>
<text xml:space="preserve" transform="matrix(.7506297 0 0 .7506297 0 -2528.8717)" font-size="16" font-family="TimesNewRomanPSMT"><tspan y="3638" x="75.59375 85.36975 92.473758 96.92175 104.02576 109.35376 113.35376 124.90576 132.00977 136.00977 147.56177 152.00977 156.45777 160.90576 164.90576 172.90576 180.90576 184.90576 197.35376 205.35376 212.45777 220.45777 224.45777 232.45777 240.45777 244.45777 252.45777 259.56178 264.00978 271.11378 275.56178 280.00978 284.00978 291.11378 299.11378 307.11378 315.11378 319.56178 323.56178 328.00978 336.00978 343.11378 347.11378 355.11378 360.44178 367.54579 379.99378 392.44178 399.54579 404.87379 408.87379 416.87379 422.20179 426.20179 430.64979 438.64979 445.75379 449.75379 460.42579 469.32179 480.87379 492.42579 496.42579 500.87379 507.97779 515.9778 523.9778 531.9778 539.0818 547.0818 554.1858 558.1858 566.1858 573.2898 579.5138 586.6178 591.9458 596.3938 604.3938 611.4978 619.4978 623.4978 631.4978 639.4978 643.4978 654.1698 665.7218">Later we will go much on detail about the grammar of the CSKN language described by BNF</tspan></text>
<text xml:space="preserve" transform="matrix(.7506297 0 0 .7506297 0 -2528.8717)" font-size="16" font-family="TimesNewRomanPSMT"><tspan y="3638" x="674.5469"> </tspan></text>
<text xml:space="preserve" transform="matrix(.7506297 0 0 .7506297 0 -2528.8717)" font-size="16" font-family="TimesNewRomanPSMT"><tspan y="3660" x="75.59375 83.59375 91.59375 96.04175 103.14575 107.59375 112.04175 120.04175 128.04175 132.04175 139.14575 147.14575 155.14575 159.14575 170.69776 177.80176 181.80176 193.35376 197.80176 202.24976 206.69776 210.69776 218.69776 225.80176 232.02576 239.12976 244.45777 248.90576 256.90577 264.00978 268.00978 272.45777 280.45777 287.56178 291.56178 298.66578 303.99378 311.09779 319.09779 323.54579 327.99378 335.09779 342.20179 346.64979 354.64979 359.97779 367.0818 371.0818 379.0818 384.4098 388.4098 392.8578 400.8578 407.9618 411.9618 418.1858 426.1858 432.4098 436.8578 443.9618 456.4098 460.4098 467.5138 475.5138 483.5138 487.9618 495.0658 499.5138 507.5138 511.9618 519.9618 527.9618 531.9618 536.4098 544.4098 551.5138 555.5138 561.7378 566.1858 574.1858 582.1858 586.6338 593.7378 597.7378 605.7378 612.8418 618.1698 622.6178 628.8418">notation and we will describe the architecture of the system explaining the single parts.</tspan></text>
<text xml:space="preserve" transform="matrix(.7506297 0 0 .7506297 0 -2528.8717)" font-size="16" font-family="TimesNewRomanPSMT"><tspan y="3660" x="632.75"> </tspan></text>
<text xml:space="preserve" transform="matrix(.7506297 0 0 .7506297 0 -2528.8717)" font-size="16" font-family="TimesNewRomanPSMT"><tspan y="3682" x="75.59375 84.48975 88.93775 96.93775 104.041759 108.48975 112.93775 120.93775 124.93775 136.48975 143.59375 147.59375 159.14575 163.59375 168.04175 172.48975 176.48975 184.48975 189.81775 197.81775 205.81775 213.81775 220.04175 227.14575 231.14575 237.36975 245.36975 257.81776 264.92176 268.92176 276.02577 284.02577 291.12977 303.57777 311.57777 316.02577 323.12977 327.12977 331.57777 339.57777 343.57777 348.02577 353.35377 361.35377 365.35377 369.80177 377.80177 384.90577 388.90577 395.12977 403.12977 409.35377 413.80177 420.90577 433.35377 437.35377 444.45777 452.45777 460.45777 464.45777 476.00978 483.11378 487.11378 498.66578 503.11378 507.56178 512.00979 516.00979 523.1138 531.1138 539.1138 543.56179 550.6658 555.1138 563.1138 567.1138 579.56179 587.56179 592.8898 599.9938 603.9938 608.4418 616.4418 620.4418 628.4418 635.5458 639.9938 647.0978 651.5458 655.9938 659.9938 666.2178 674.2178 686.6658">Finally we will propose some example to try the system and we will explain more in detail some</tspan></text>
<text xml:space="preserve" transform="matrix(.7506297 0 0 .7506297 0 -2528.8717)" font-size="16" font-family="TimesNewRomanPSMT"><tspan y="3682" x="693.6875"> </tspan></text>
<text xml:space="preserve" transform="matrix(.7506297 0 0 .7506297 0 -2528.8717)" font-size="16" font-family="TimesNewRomanPSMT"><tspan y="3704" x="75.59375 83.59375 91.59375 99.59375 103.59375 108.04175 113.36975 117.81775 125.81775 130.26575 137.36975 141.81775 145.81775 150.26575 162.71375 170.71375 175.16175 182.26575 194.71375 201.81775 209.81775 214.26575 221.36975 225.81775 230.26575 238.26575 246.26575 250.26575 258.26576 263.59376 267.59376 272.04176 280.04176 287.14576 291.14576 297.36976 305.36976 311.59376 316.04176 323.14576 335.59376">non trivial implementation of the system.</tspan></text>
<text xml:space="preserve" transform="matrix(.7506297 0 0 .7506297 0 -2528.8717)" font-size="16" font-family="TimesNewRomanPSMT"><tspan y="3704" x="339.54689"> </tspan></text>
<text xml:space="preserve" transform="matrix(.7506297 0 0 .7506297 0 -2528.8717)" font-size="16" font-family="TimesNewRomanPSMT"><tspan y="3704" x="343.54689"> </tspan></text>
<text xml:space="preserve" transform="matrix(.7506297 0 0 .7506297 0 -2528.8717)" font-size="32" font-family="TimesNewRomanPS" font-weight="bold"><tspan y="3768" x="75.59375"> </tspan></text>
<text xml:space="preserve" transform="matrix(.7506297 0 0 .7506297 0 -2528.8717)" font-size="32" font-family="TimesNewRomanPS" font-weight="bold"><tspan y="3768" x="175.59375"> </tspan></text>
<text xml:space="preserve" transform="matrix(.7506297 0 0 .7506297 0 -2528.8717)" font-size="16" font-family="TimesNewRomanPS" font-style="italic"><tspan y="4438" x="75.59375 79.59375 83.59375 87.59375 91.59375 95.59375 99.59375 103.59375 107.59375 111.59375 115.59375 119.59375 123.59375">             </tspan></text>
<text xml:space="preserve" transform="matrix(.7506297 0 -.18765743 .7506297 0 -2528.8717)" font-size="16" font-family="Gautami"><tspan y="4438" x="1237.0938">&#x200b;</tspan></text>
<text xml:space="preserve" transform="matrix(.7506297 0 0 .7506297 0 -2528.8717)" font-size="16" font-family="TimesNewRomanPSMT"><tspan y="4438" x="127.59375 131.59375"> 4</tspan></text>
<text xml:space="preserve" transform="matrix(.7506297 0 0 .7506297 0 -2528.8717)" font-size="16" font-family="TimesNewRomanPSMT"><tspan y="4438" x="139.59375"> </tspan></text>
</g>
</g>
</svg>
