<?xml version="1.0" encoding="UTF-8" standalone="no"?>
<!DOCTYPE svg PUBLIC "-//W3C//DTD SVG 1.1//EN" "http://www.w3.org/Graphics/SVG/1.1/DTD/svg11.dtd">
<svg xmlns="http://www.w3.org/2000/svg" xmlns:xlink="http://www.w3.org/1999/xlink" version="1.1" width="596pt" height="843pt" viewBox="0 0 596 843">
<g enable-background="new">
<clipPath id="cp17">
<path d="M 0 0 L 596 0 L 596 842.9573 L 0 842.9573 Z " fill-rule="evenodd"/>
</clipPath>
<g clip-path="url(#cp17)">
<path transform="matrix(.7506297,0,0,.7506297,0,-1685.9143)" d="M 0 2246 L 794 2246 L 794 3369 L 0 3369 Z " fill="#ffffff"/>
<path transform="matrix(.7506297,0,0,.7506297,0,-1685.9143)" d="M 0 2246 L 794 2246 L 794 3369 L 0 3369 Z " fill="#ffffff"/>
<path transform="matrix(.7506297,0,0,.7506297,0,-1685.9143)" d="M 0 0 L 794 0 L 794 44920 L 0 44920 Z " fill="#ffffff"/>
<path transform="matrix(.7506297,0,0,.7506297,0,-1685.9143)" d="M 0 2246 L 794 2246 L 794 3369 L 0 3369 Z " fill="#ffffff"/>
<path transform="matrix(.7506297,0,0,.7506297,0,-1685.9143)" d="M 0 2340 L 794 2340 L 794 3369 L 0 3369 Z " fill="#ffffff"/>
<text xml:space="preserve" transform="matrix(.7506297 0 0 .7506297 0 -1685.9143)" font-size="16" font-family="TimesNewRomanPS" font-weight="bold"><tspan y="2369" x="75.59375 87.14575 93.36975 101.36975 109.36975 116.473758 120.473758 128.47376 137.36975 146.26575 150.26575 157.36975 165.36975 173.36975 186.69776 195.59375 200.04175 207.14575">Usage and examples</tspan></text>
<path transform="matrix(.7506297,0,0,.7506297,0,-1685.9143)" d="M 0 0 L 0 0 L 0 0 L 0 0 Z "/>
<text fill-opacity="0" xml:space="preserve" transform="matrix(.7506297 0 0 .7506297 0 -1685.9143)" font-size="16" font-family="Gautami"><tspan y="2369" x="213.375">&#x200b;</tspan></text>
<text xml:space="preserve" transform="matrix(.7506297 0 0 .7506297 0 -1685.9143)" font-size="16" font-family="TimesNewRomanPS" font-weight="bold"><tspan y="2369" x="213.375"> </tspan></text>
<path transform="matrix(.7506297,0,0,.7506297,0,-1685.9143)" d="M 0 0 L 0 0 L 0 0 L 0 0 Z "/>
<text fill-opacity="0" xml:space="preserve" transform="matrix(.7506297 0 0 .7506297 0 -1685.9143)" font-size="16" font-family="Gautami"><tspan y="2369" x="217.375">&#x200b;</tspan></text>
<text xml:space="preserve" transform="matrix(.7506297 0 0 .7506297 0 -1685.9143)" font-size="16" font-family="TimesNewRomanPS" font-weight="bold"><tspan y="2369" x="217.375 225.375">34</tspan></text>
<text xml:space="preserve" transform="matrix(.7506297 0 0 .7506297 0 -1685.9143)" font-size="16" font-family="TimesNewRomanPS" font-weight="bold"><tspan y="2369" x="233.375"> </tspan></text>
<text xml:space="preserve" transform="matrix(.7506297 0 0 .7506297 0 -1685.9143)" font-size="16" font-family="TimesNewRomanPSMT"><tspan y="2393" x="99.59375 110.26575 118.26575 130.71375 143.16175 150.26575 158.26575 166.26575 170.26575 180.04175 184.48975 192.48975 199.59375 203.59375 208.92176 216.92176 221.36975 228.47376 233.80176 241.80176 247.12976 254.23377 258.68177 265.78578">Command Line Interpreter</tspan></text>
<text xml:space="preserve" transform="matrix(.7506297 0 0 .7506297 0 -1685.9143)" font-size="16" font-family="Gautami"><tspan y="2393" x="271.08595">&#x200b;</tspan></text>
<text xml:space="preserve" transform="matrix(.7506297 0 0 .7506297 0 -1685.9143)" font-size="16" font-family="TimesNewRomanPSMT"><tspan y="2393" x="271.08595"> </tspan></text>
<text xml:space="preserve" transform="matrix(.7506297 0 0 .7506297 0 -1685.9143)" font-size="16" font-family="Gautami"><tspan y="2393" x="275.08595">&#x200b;</tspan></text>
<text xml:space="preserve" transform="matrix(.7506297 0 0 .7506297 0 -1685.9143)" font-size="16" font-family="TimesNewRomanPSMT"><tspan y="2393" x="275.08595 283.08595">34</tspan></text>
<text xml:space="preserve" transform="matrix(.7506297 0 0 .7506297 0 -1685.9143)" font-size="16" font-family="TimesNewRomanPSMT"><tspan y="2393" x="291.07814"> </tspan></text>
<text xml:space="preserve" transform="matrix(.7506297 0 0 .7506297 0 -1685.9143)" font-size="16" font-family="TimesNewRomanPSMT"><tspan y="2416" x="99.59375 110.26575 118.26575 126.26575 130.26575 138.26575 143.59375 151.59375 159.59375 164.92176 172.02576 184.47376">Run programs</tspan></text>
<text xml:space="preserve" transform="matrix(.7506297 0 0 .7506297 0 -1685.9143)" font-size="16" font-family="Gautami"><tspan y="2416" x="190.69532">&#x200b;</tspan></text>
<text xml:space="preserve" transform="matrix(.7506297 0 0 .7506297 0 -1685.9143)" font-size="16" font-family="TimesNewRomanPSMT"><tspan y="2416" x="190.69532"> </tspan></text>
<text xml:space="preserve" transform="matrix(.7506297 0 0 .7506297 0 -1685.9143)" font-size="16" font-family="Gautami"><tspan y="2416" x="194.69532">&#x200b;</tspan></text>
<text xml:space="preserve" transform="matrix(.7506297 0 0 .7506297 0 -1685.9143)" font-size="16" font-family="TimesNewRomanPSMT"><tspan y="2416" x="194.69532 202.69532">36</tspan></text>
<text xml:space="preserve" transform="matrix(.7506297 0 0 .7506297 0 -1685.9143)" font-size="16" font-family="TimesNewRomanPSMT"><tspan y="2416" x="210.6875"> </tspan></text>
<text xml:space="preserve" transform="matrix(.7506297 0 0 .7506297 0 -1685.9143)" font-size="16" font-family="TimesNewRomanPSMT"><tspan y="2439" x="99.59375 108.48975 115.59376 128.04177 136.04177 140.48976 147.59377 151.59377 159.59377 164.92177 172.92177 180.92177 186.24977 193.35378 205.80178">Sample programs</tspan></text>
<text xml:space="preserve" transform="matrix(.7506297 0 0 .7506297 0 -1685.9143)" font-size="16" font-family="Gautami"><tspan y="2439" x="212.01563">&#x200b;</tspan></text>
<text xml:space="preserve" transform="matrix(.7506297 0 0 .7506297 0 -1685.9143)" font-size="16" font-family="TimesNewRomanPSMT"><tspan y="2439" x="212.01563"> </tspan></text>
<text xml:space="preserve" transform="matrix(.7506297 0 0 .7506297 0 -1685.9143)" font-size="16" font-family="Gautami"><tspan y="2439" x="216.01563">&#x200b;</tspan></text>
<text xml:space="preserve" transform="matrix(.7506297 0 0 .7506297 0 -1685.9143)" font-size="16" font-family="TimesNewRomanPSMT"><tspan y="2439" x="216.01563 224.01563">37</tspan></text>
<text xml:space="preserve" transform="matrix(.7506297 0 0 .7506297 0 -1685.9143)" font-size="16" font-family="TimesNewRomanPSMT"><tspan y="2439" x="232.01563"> </tspan></text>
<text xml:space="preserve" transform="matrix(.7506297 0 0 .7506297 0 -1685.9143)" font-size="16" font-family="TimesNewRomanPSMT"><tspan y="2464" x="75.59375"> </tspan></text>
<text xml:space="preserve" transform="matrix(.7506297 0 0 .7506297 0 -1685.9143)" font-size="32" font-family="TimesNewRomanPS" font-weight="bold"><tspan y="2528" x="75.59375"> </tspan></text>
<text xml:space="preserve" transform="matrix(.7506297 0 0 .7506297 0 -1685.9143)" font-size="32" font-family="TimesNewRomanPS" font-weight="bold"><tspan y="2599" x="75.59375"> </tspan></text>
<text xml:space="preserve" transform="matrix(.7506297 0 0 .7506297 0 -1685.9143)" font-size="32" font-family="TimesNewRomanPS" font-weight="bold"><tspan y="2670" x="75.59375"> </tspan></text>
<text xml:space="preserve" transform="matrix(.7506297 0 0 .7506297 0 -1685.9143)" font-size="32" font-family="TimesNewRomanPS" font-weight="bold"><tspan y="2670" x="175.59375"> </tspan></text>
<text xml:space="preserve" transform="matrix(.7506297 0 0 .7506297 0 -1685.9143)" font-size="16" font-family="TimesNewRomanPS" font-style="italic"><tspan y="3315" x="75.59375 79.59375 83.59375 87.59375 91.59375 95.59375 99.59375 103.59375 107.59375 111.59375 115.59375 119.59375 123.59375">             </tspan></text>
<text xml:space="preserve" transform="matrix(.7506297 0 -.18765743 .7506297 0 -1685.9143)" font-size="16" font-family="Gautami"><tspan y="3315" x="956.34378">&#x200b;</tspan></text>
<text xml:space="preserve" transform="matrix(.7506297 0 0 .7506297 0 -1685.9143)" font-size="16" font-family="TimesNewRomanPSMT"><tspan y="3315" x="127.59375 131.59375"> 3</tspan></text>
<text xml:space="preserve" transform="matrix(.7506297 0 0 .7506297 0 -1685.9143)" font-size="16" font-family="TimesNewRomanPSMT"><tspan y="3315" x="139.59375"> </tspan></text>
</g>
</g>
</svg>
