<?xml version="1.0" encoding="UTF-8" standalone="no"?>
<!DOCTYPE svg PUBLIC "-//W3C//DTD SVG 1.1//EN" "http://www.w3.org/Graphics/SVG/1.1/DTD/svg11.dtd">
<svg xmlns="http://www.w3.org/2000/svg" xmlns:xlink="http://www.w3.org/1999/xlink" version="1.1" width="596pt" height="843pt" viewBox="0 0 596 843">
<g enable-background="new">
<clipPath id="cp249">
<path d="M 0 0 L 596 0 L 596 842.95706 L 0 842.95706 Z " fill-rule="evenodd"/>
</clipPath>
<g clip-path="url(#cp249)">
<path transform="matrix(.7506297,0,0,.7506297,0,-10958.443)" d="M 0 14599 L 794 14599 L 794 15722 L 0 15722 Z " fill="#ffffff"/>
<path transform="matrix(.7506297,0,0,.7506297,0,-10958.443)" d="M 0 14599 L 794 14599 L 794 15722 L 0 15722 Z " fill="#ffffff"/>
<path transform="matrix(.7506297,0,0,.7506297,0,-10958.443)" d="M 0 0 L 794 0 L 794 44920 L 0 44920 Z " fill="#ffffff"/>
<path transform="matrix(.7506297,0,0,.7506297,0,-10958.443)" d="M 0 14599 L 794 14599 L 794 15722 L 0 15722 Z " fill="#ffffff"/>
<path transform="matrix(.7506297,0,0,.7506297,0,-10958.443)" d="M 0 14693 L 794 14693 L 794 15722 L 0 15722 Z " fill="#ffffff"/>
<text xml:space="preserve" transform="matrix(.7506297 0 0 .7506297 0 -10958.443)" font-size="16" font-family="TimesNewRomanPSMT"><tspan y="14709" x="103.59375 118.697757 125.80176 128.68177 133.12976 137.57776 141.57776 148.68177 156.68177 164.68177 170.90576 175.35376 183.35376 190.45777 195.78577 199.78577 204.23377 215.78577 223.78577 227.78577 233.11377 241.11377 246.44178 258.88978 265.11378 269.11378 277.11378 282.44178 286.44178 290.88978 297.99378 303.32179 315.76979 321.99378 326.44178 330.44178 339.46577 346.56977 351.89778 359.00178 366.10578 370.55378 378.55378 383.88179 392.90577 396.90577 402.23377 410.23377 414.68177 419.12977 427.12977 438.68177 445.78578 453.78578 457.78578 465.78578 473.78578 477.78578 484.88978 488.88978 501.33778 509.33778 513.78579 518.23379 522.68179 530.68179 535.12979 539.57778 546.68179 553.78579 558.23379 562.68179 570.68179 578.68179 582.68179 590.68179 596.00979 600.00979 608.00979 612.45779 620.45779 624.90579 631.12979 635.57778 643.57778 651.57778 655.57778 661.80178 666.24978 674.24978 682.24978">We'll consider two forms or terms: &#x003c;afactor&#x003e; followed by a multiplication or division sign,</tspan></text>
<text xml:space="preserve" transform="matrix(.7506297 0 0 .7506297 0 -10958.443)" font-size="16" font-family="TimesNewRomanPSMT"><tspan y="14709" x="686.1719"> </tspan></text>
<text xml:space="preserve" transform="matrix(.7506297 0 0 .7506297 0 -10958.443)" font-size="16" font-family="TimesNewRomanPSMT"><tspan y="14731" x="103.59375 108.92175 116.92175 121.36975 125.81775 133.81775 145.36975 152.47376 160.47376 164.47376 172.47376 180.47376 184.47376 191.57776 199.57776 207.57776 212.02576 220.02576 227.12976 232.45777 236.45777 245.48177 252.58577 257.03379 264.1378 269.4658 281.9138 290.93778 294.93778 298.93778 308.71379 316.71379 321.16178 327.38578 331.38578 339.38578 344.71379 352.71379 360.71379 368.71379 375.81779 380.26579 384.71379 392.71379 400.71379 404.71379 411.81779 419.81779 425.14579 430.4738 437.5778 443.8018 451.8018 459.8018 467.8018 475.8018 482.0258 486.0258 490.4738 498.4738 502.4738 506.92179 514.02578 519.35379 531.80178 538.02578 542.02578 550.02578 555.35379 559.35379 563.80178 571.80178 578.90579 582.90579 588.23379 596.23379 601.56179 614.00979 618.00979 627.03378 634.13778 639.46578 646.56979 653.67379 658.12179 666.12179 671.44979 680.47378 684.47378">followed by another &#x003c;aterm&#x003e;. This production corresponds to terms of the form &#x003c;afactor&#x003e; *</tspan></text>
<text xml:space="preserve" transform="matrix(.7506297 0 0 .7506297 0 -10958.443)" font-size="16" font-family="TimesNewRomanPSMT"><tspan y="14731" x="692.40628"> </tspan></text>
<text xml:space="preserve" transform="matrix(.7506297 0 0 .7506297 0 -10958.443)" font-size="16" font-family="TimesNewRomanPSMT"><tspan y="14753" x="103.59375 112.61775 119.721759 125.04976 132.15377 139.25777 143.70577 151.70577 157.03377 166.05777 170.05777 174.50577 178.50577 187.52977 194.63378 199.96178 207.06578 214.16979 218.61779 226.61779 231.94579 240.96979 244.96979 248.96979 252.96979 256.9698 260.9698 264.9698 274.7458 282.7458 289.8498 302.2978 310.2978 314.7458 321.8498 326.2978 330.2978 338.2978 342.2978 350.2978 354.2978 362.2978 366.2978 370.7458 378.7458">&#x003c;afactor&#x003e; / &#x003c;afactor&#x003e; .... Example: 2 * x /2.</tspan></text>
<text xml:space="preserve" transform="matrix(.7506297 0 0 .7506297 0 -10958.443)" font-size="16" font-family="TimesNewRomanPSMT"><tspan y="14753" x="382.70314"> </tspan></text>
<text xml:space="preserve" transform="matrix(.7506297 0 0 .7506297 0 -10958.443)" font-size="16" font-family="TimesNewRomanPSMT"><tspan y="14775" x="103.59375 115.14575 123.14575 127.14575 136.16976 143.27376 147.72176 154.82576 160.15377 172.60176 181.62577 185.62577 192.72977 200.72977 208.72977 213.17777 221.17777 225.17777 232.28177 236.72977 242.95377 250.95377 254.95377 262.95378 270.05778 274.05778 281.16178 285.16178 289.60978 297.60978 305.60978 312.71379 317.16178 325.16178 329.16178 338.18577 345.28977 350.61778 357.72178 364.82579 369.27378 377.27378 382.60179 391.62577 395.62577 399.62577 409.40177 417.40177 424.50578 436.95378 444.95378 449.40177 456.50578 460.95378 464.95378 472.95378 480.95378">An &#x003c;aterm&#x003e; could also be a lonely &#x003c;afactor&#x003e;. Example: 44.</tspan></text>
<text xml:space="preserve" transform="matrix(.7506297 0 0 .7506297 0 -10958.443)" font-size="16" font-family="TimesNewRomanPSMT"><tspan y="14775" x="484.89064"> </tspan></text>
<text xml:space="preserve" transform="matrix(.7506297 0 0 .7506297 0 -10958.443)" font-size="16" font-family="TimesNewRomanPSMT"><tspan y="14797" x="103.59375 112.48975 116.93775 124.93775 132.04175 136.48975 140.93775 148.93775 152.93775 156.93775 161.38574 169.38574 176.48975 180.48975 192.93775 200.93775 207.16175 211.60974 215.60974 220.05774 224.50574 232.50574 240.50574 244.95374 249.40174 257.40174 261.40174 269.40174 277.40174 285.40174 293.40174 301.40174 305.40174 313.40174 318.72975 326.72975 334.72975 342.72975 349.83375 354.28175 358.72975 366.72975 374.72975 378.72975 383.17774 389.40174 393.40174 397.84974 405.84974 412.95375 417.40174 421.40174 429.40174 434.72975 438.72975 443.17774 451.17774 458.28175 462.28175 471.30574 478.40974 483.73774 490.84175 497.94575 502.39375 510.39375 515.72177 524.7457 528.7457 532.7457 544.2977 552.2977 556.7457 563.84976 571.84976 575.84976 582.95376 590.05776 598.05776 602.05776 610.05776 617.16177 621.16177 629.16177 637.16177 644.26577 648.26577 656.26577 661.59378">Finally, the most tightly bound production is that of the &#x003c;afactor&#x003e;, which can be one of:</tspan></text>
<text xml:space="preserve" transform="matrix(.7506297 0 0 .7506297 0 -10958.443)" font-size="16" font-family="TimesNewRomanPSMT"><tspan y="14797" x="665.96878"> </tspan></text>
<text xml:space="preserve" transform="matrix(.7506297 0 0 .7506297 0 -10958.443)" font-size="16" font-family="TimesNewRomanPSMT"><tspan y="14819" x="103.59375 115.14575 119.14575 128.16976 136.16976 143.27376 147.72176 155.72176 161.04976 168.15377 172.60176 181.62577 185.62577 189.62577 194.07376 198.52176 206.52176 213.62577 217.62577 225.62577 233.62577 241.62577 246.07376 250.07376 257.17778 265.17778 269.17778 278.20176 282.64976 290.64976 297.75376 305.75376 310.20176 314.64976 319.97776 324.42576 331.52976 336.85777 345.88175 349.88175 355.20976 363.20976 370.31376 375.64176 380.08976 387.19377 395.19377 399.64176 406.74577 410.74577 418.74577 425.84977 438.29777 445.40177 450.72978 454.72978 458.72978 463.17778 467.62577 475.62577 482.72978 486.72978 494.72978 502.72978 510.72978 515.1778 519.1778 526.2818 530.2818 538.2818 546.2818 553.3858 558.7138 566.7138 570.7138 578.7138 583.1618 591.1618 597.3858 601.3858 609.3858 614.7138 618.7138 631.1618 635.6098 643.6098 651.6098 657.8338 661.8338 666.2818 674.2818 678.2818 683.6098 688.9378 696.9378 704.9378">A &#x003c;natural&#x003e;, like 147; an &#x003c;identifier&#x003e; (variable name), like x11; a unary plus or minus in front</tspan></text>
<text xml:space="preserve" transform="matrix(.7506297 0 0 .7506297 0 -10958.443)" font-size="16" font-family="TimesNewRomanPSMT"><tspan y="14819" x="709.2969"> </tspan></text>
<text xml:space="preserve" transform="matrix(.7506297 0 0 .7506297 0 -10958.443)" font-size="16" font-family="TimesNewRomanPSMT"><tspan y="14841" x="103.59375 111.59375 116.92175 120.92175 128.02576 136.02576 140.02576 149.04976 156.15377 161.48177 168.58577 175.68978 180.13777 188.13777 193.46578 202.48978 206.48978 210.48978 214.93778 219.38578 227.38578 234.48978 238.48978 243.81778 251.81778 255.81778 263.81779 269.14579 273.14579 282.16978 290.16978 298.16978 302.61778 306.61778 313.72178 317.72178 325.72178 332.82579 338.15379 345.25779 353.25779 357.70579 365.70579 372.80979 379.03379 383.48179 390.5858 397.6898 405.6898 409.6898 418.71379 425.81779 432.92179 440.92179 448.92179 454.2498 463.27378 467.27378 471.27378 475.72178 480.16978 488.16978 495.27378 499.27378 504.60179 511.70579 515.7058 524.7298 528.7298 536.7298 541.1778 549.1778 554.5058">of an &#x003c;afactor&#x003e;, like -x or +12; a parenthesized &#x003c;aexpr&#x003e;, like (a + b/2).</tspan></text>
<text xml:space="preserve" transform="matrix(.7506297 0 0 .7506297 0 -10958.443)" font-size="16" font-family="TimesNewRomanPSMT"><tspan y="14841" x="558.4375"> </tspan></text>
<text xml:space="preserve" transform="matrix(.7506297 0 0 .7506297 0 -10958.443)" font-size="16" font-family="TimesNewRomanPSMT"><tspan y="14863" x="123.59375"> </tspan></text>
<text xml:space="preserve" transform="matrix(.7506297 0 0 .7506297 0 -10958.443)" font-size="16" font-family="ArialMT"><tspan y="14892" x="99.59375">&#x25cf;</tspan></text>
<text xml:space="preserve" transform="matrix(.7506297 0 0 .7506297 0 -10958.443)" font-size="16" font-family="TimesNewRomanPSMT"><tspan y="14892" x="123.59375 131.59375 139.59375 147.59375 152.04175 159.14575 166.24976 174.24976 178.24976 185.35376 193.35376 201.35376 206.68177 213.78577 220.00977 226.23377 230.68177 238.68177 246.68177 252.90576 257.35377 261.35377 269.35377 276.45777 284.45777 292.45777">boolean expressions: bexpr</tspan></text>
<text xml:space="preserve" transform="matrix(.7506297 0 0 .7506297 0 -10958.443)" font-size="16" font-family="TimesNewRomanPSMT"><tspan y="14892" x="297.76564"> </tspan></text>
<text xml:space="preserve" transform="matrix(.7506297 0 0 .7506297 0 -10958.443)" font-size="16" font-family="TimesNewRomanPSMT"><tspan y="14921" x="103.59375 115.14575 119.14575 127.14575 135.14575 143.14575 147.59375 154.69776 161.80176 169.80176 173.80176 180.90576 188.90576 196.90576 202.23377 209.33777 215.56177 221.78577 226.23377 234.23377 242.23377 246.23377 250.68177 258.68177 265.78578 270.23377 274.23377 280.45777 284.90577 292.00978 297.33778 301.78578 308.00978 312.00978 323.56178 328.00978 332.45777 340.45777 344.45777 351.56178 355.56178 364.58576 372.58576 377.03376 384.13777 389.46577 401.91377 410.93775 414.93775 420.26576 428.26576 432.71376 437.16175 445.16175 456.71376 463.81776 471.81776 475.81776 483.81776 491.81776 495.81776 502.92176 507.36976 511.81776 519.81777 526.92178 532.24978 536.24978 547.80178 559.35379 570.90579 574.90579 582.90579 588.23379 592.23379 603.78579 614.45779 618.45779 622.90579 630.90579 638.90579 643.35379 650.45779 657.56179">A boolean expression that starts with a &#x003c;bterm&#x003e; followed by either AND or OR logical</tspan></text>
<text xml:space="preserve" transform="matrix(.7506297 0 0 .7506297 0 -10958.443)" font-size="16" font-family="TimesNewRomanPSMT"><tspan y="14921" x="661.9531"> </tspan></text>
<text xml:space="preserve" transform="matrix(.7506297 0 0 .7506297 0 -10958.443)" font-size="16" font-family="TimesNewRomanPSMT"><tspan y="14943" x="103.59375 111.59375 119.59375 126.697757 132.02576 139.12976 143.57776 148.02576 156.02576 164.02576 170.24976 174.24976 178.24976 183.57776 191.57776 196.02576 200.47376 208.47376 220.02576 227.12976 235.12976 239.12976 247.12976 255.12976 259.12977 266.23377 274.23377 282.23377 286.68177 294.68177 301.78578 307.11378 311.11378 320.13777 328.13777 335.24177 343.24177 351.24177 356.56977 365.59376">operations, followed by another &#x003c;bexpr&#x003e;.</tspan></text>
<text xml:space="preserve" transform="matrix(.7506297 0 0 .7506297 0 -10958.443)" font-size="16" font-family="TimesNewRomanPSMT"><tspan y="14943" x="369.5625"> </tspan></text>
<text xml:space="preserve" transform="matrix(.7506297 0 0 .7506297 0 -10958.443)" font-size="16" font-family="TimesNewRomanPSMT"><tspan y="14965" x="103.59375 112.48975 120.48975 124.48975 128.93776 133.38576 137.38576 141.83376 148.05776 152.05776 160.05776 168.05776 174.28176 180.50576 184.95375 192.95375 197.40175 204.50576 208.50576 212.95375 220.95375 228.05776 232.05776 237.38576 244.48976 251.59377 259.59376 264.92176 271.14576 275.59376 283.59376 290.69776 294.69776 302.69776 309.80177 315.12977 319.57777 327.57777 332.02577 336.47377 340.92176 348.92176 356.92176 360.92176 366.24977 374.24977 379.57777 383.57777 391.57777 398.68177 404.00978 410.23377 414.68177 422.68177 430.68177 434.68177 441.78578 449.78578 457.78578 463.11378 470.21778 476.44178 482.66578 487.11378 495.11378 503.11378 509.33778 513.33779 521.33779 526.6658 530.6658 535.1138 543.1138 550.2178 554.2178 558.6658 566.6658 574.6658 581.7698 585.7698 594.79379 602.79379 607.24179 614.34579 619.67379 632.12179 641.14578 645.14578 656.69778 668.24978">So it is possible the recursive definition for parsing expressions of the type &#x003c;bterm&#x003e; AND</tspan></text>
<text xml:space="preserve" transform="matrix(.7506297 0 0 .7506297 0 -10958.443)" font-size="16" font-family="TimesNewRomanPSMT"><tspan y="14965" x="679.75"> </tspan></text>
<text xml:space="preserve" transform="matrix(.7506297 0 0 .7506297 0 -10958.443)" font-size="16" font-family="TimesNewRomanPSMT"><tspan y="14987" x="103.59375 112.61775 120.61775 125.06575 132.16976 137.49776 149.94576 158.96976 162.96976 168.29776 172.29776 181.32176 189.32176 193.76976 200.87377 206.20177 218.64977 227.67377 231.67377 235.67377 239.67377 243.67377 247.67377 254.77777 259.22578 266.32978 270.32978 274.32978 278.32978 288.10578 296.10578 303.20979 315.65779 323.65779 328.10578 335.20979 339.65779 343.65779 351.65779 355.65779 367.20979 378.76179 390.31379 394.31379 404.08979 414.76179 426.31379 436.08979 440.08979 451.64179 462.31379 466.31379 474.31379">&#x003c;bterm&#x003e; - &#x003c;bterm&#x003e; ... etc.. Example: x AND TRUE OR y.</tspan></text>
<text xml:space="preserve" transform="matrix(.7506297 0 0 .7506297 0 -10958.443)" font-size="16" font-family="TimesNewRomanPSMT"><tspan y="14987" x="478.28126"> </tspan></text>
<text xml:space="preserve" transform="matrix(.7506297 0 0 .7506297 0 -10958.443)" font-size="16" font-family="TimesNewRomanPSMT"><tspan y="15009" x="103.59375 115.14575 119.14575 123.59375 131.59375 139.59375 146.69776 151.14575 159.14575 163.14575 172.16976 180.16976 184.61775 191.72176 197.04976 209.49776 218.52176 222.52176 226.96976 233.19376 237.19376 244.29776 248.74576 254.96976 262.96977 266.96977 274.07377 282.07377 290.07377 296.29777 300.74577 308.74577 315.84977 321.17778 328.28178 336.28178 340.28178 347.38578 355.38578 359.38578 368.40977 376.40977 383.51377 391.51377 399.51377 404.84178 413.86576 417.86576 421.86576 431.64176 439.64176 446.74577 459.19377 467.19377 471.64176 478.74577 483.19377 487.19377 496.08976 507.64176 517.4177 526.3137 536.0897">A lonely &#x003c;bterm&#x003e; is also considered an &#x003c;bexpr&#x003e;. Example: FALSE.</tspan></text>
<text xml:space="preserve" transform="matrix(.7506297 0 0 .7506297 0 -10958.443)" font-size="16" font-family="TimesNewRomanPSMT"><tspan y="15009" x="540.0469"> </tspan></text>
<text xml:space="preserve" transform="matrix(.7506297 0 0 .7506297 0 -10958.443)" font-size="16" font-family="TimesNewRomanPSMT"><tspan y="15031" x="103.59375 115.14575 119.14575 128.16976 136.16976 143.27376 151.27376 159.27376 164.60176 173.62577 177.62577 184.72977 191.83377 199.83377 203.83377 211.83377 218.93778 222.93778 230.04178 234.48978 240.71378 248.71378 252.71378 259.81779 267.81779 280.26579 288.26579 296.26579 302.48979 309.59379 317.59379 321.59379 329.59379 337.59379 341.59379 348.69779 352.69779 361.72178 369.72178 374.16978 381.27378 386.60179 399.04978 408.07377 412.07377 417.40177 425.40177 429.84977 434.29777 442.29777 453.84977 460.95378 466.28178 470.28178 478.28178 486.28178 490.28178 494.72978 502.72978 509.83378 513.83377 521.83377 529.83377 536.93777 542.26577 549.36978 553.81777 561.81777 567.14578 573.36978 577.36978 588.92178 599.59378 609.36978 620.92178 630.69778 640.47378 651.14578">A &#x003c;bexpr&#x003e; can be also composed by a &#x003c;bterm&#x003e; follower by the operators GREATER,</tspan></text>
<text xml:space="preserve" transform="matrix(.7506297 0 0 .7506297 0 -10958.443)" font-size="16" font-family="TimesNewRomanPSMT"><tspan y="15031" x="655.09378"> </tspan></text>
<text xml:space="preserve" transform="matrix(.7506297 0 0 .7506297 0 -10958.443)" font-size="16" font-family="TimesNewRomanPSMT"><tspan y="15053" x="103.59375 115.14575 125.81775 135.59375 147.14575 156.92176 166.69776 177.36975 185.36975 195.14575 206.69776 218.24976 229.80176 239.57776 243.57776 247.57776 257.35377 267.12977 276.02577 284.92176 288.92176 292.92176 302.69776 312.47377 321.36976 330.26576 338.26576 348.04176 359.59376 371.14576 382.69776 392.47377 396.47377 400.47377 410.24977 421.80177 433.35377 444.90577 454.68177 458.68177 462.68177 474.23377 485.78578 495.56178 503.56178 513.33779 524.8898 536.4418 547.9938 557.7698 561.7698 568.8738 576.8738 584.8738 588.8738 595.9778 603.9778 607.9778 617.0018 624.1058 631.2098 639.2098 647.2098 652.5378 661.56179">GREATER_EQUAL, LESS, LESS_EQUAL, EQUAL, NOT_EQUAL and an &#x003c;aexpr&#x003e;.</tspan></text>
<text xml:space="preserve" transform="matrix(.7506297 0 0 .7506297 0 -10958.443)" font-size="16" font-family="TimesNewRomanPSMT"><tspan y="15053" x="665.5625"> </tspan></text>
<text xml:space="preserve" transform="matrix(.7506297 0 0 .7506297 0 -10958.443)" font-size="16" font-family="TimesNewRomanPSMT"><tspan y="15075" x="103.59375 113.36975 121.36975 125.81775 132.04175 136.04175 148.48975 155.59375 163.59375 170.69776 176.92176 180.92176 185.36975 189.81775 193.81775 201.81775 209.81775 216.04175 222.26575 226.71375 234.71375 239.16175 246.26575 250.26575 254.71375 262.71376 266.71376 274.71376 281.81776 287.14576 291.59376 299.59376 306.69776 310.69776 317.80177 325.80177 338.24977 346.24977 353.35377 358.68177 363.12977 369.35377 377.35377 385.35377 391.57777 395.57777 403.57777 410.68177 415.12977 426.68177 433.78578 440.88978 448.88978 452.88978 459.99378 465.32179 469.76979 474.21778 482.21778 494.66578 501.76979 506.21778 510.66578 517.7698 521.7698 528.8738 536.8738 544.8738 550.2018 557.3058 563.5298 569.7538 574.2018 582.2018 590.2018 596.4258 600.4258 604.8738 609.3218 617.3218 624.4258 628.4258 636.4258 645.44979">This makes it possible to define comparisons between arithmetic expressions like 4+5</tspan></text>
<text xml:space="preserve" transform="matrix(.7506297 0 0 .7506297 0 -10958.443)" font-size="16" font-family="TimesNewRomanPSMT"><tspan y="15075" x="653.375"> </tspan></text>
<text xml:space="preserve" transform="matrix(.7506297 0 0 .7506297 0 -10958.443)" font-size="16" font-family="TimesNewRomanPSMT"><tspan y="15097" x="103.59375 115.14575 125.81775 135.59375 147.14575 156.92176 166.69776 177.36975 181.36975 189.36975 194.69776 202.69776">GREATER 6-5.</tspan></text>
<text xml:space="preserve" transform="matrix(.7506297 0 0 .7506297 0 -10958.443)" font-size="16" font-family="TimesNewRomanPSMT"><tspan y="15097" x="206.6875"> </tspan></text>
<text xml:space="preserve" transform="matrix(.7506297 0 0 .7506297 0 -10958.443)" font-size="16" font-family="TimesNewRomanPSMT"><tspan y="15119" x="103.59375 112.61775 120.61775 125.06575 132.16976 137.49776 149.94576 156.16976 165.19376 169.19376 176.29776 181.62577 188.72977 192.72977 200.72977 206.05777 210.05777 214.50577 222.50577 229.60977 233.60977 238.05777 246.05777 254.05777 261.16178 265.60978 269.60978 278.63377 285.73777 292.84178 300.84178 308.84178 314.16978 323.19377 327.19377 332.52177 340.52177 345.84977 349.84977 353.84977 360.95378 368.95378 376.95378 382.28178 387.60978 395.60978 403.60978 408.05778 412.50578 420.50578 428.50578 432.50578 439.60978 447.60978 451.60978 460.63377 467.73777 474.84178 482.84178 490.84178 496.16978 505.19377 509.19377 520.7457 525.1937 529.6417 537.6417 541.6417 548.7457 556.7457 564.7457 569.1937 577.1937 584.2977 589.62576 594.0737 598.0737 605.17776 609.17776 618.2017 626.2017 634.2017 642.2017 646.6497 654.6497 662.6497 669.7537 674.2017 683.2257 687.2257 691.2257 695.6737 700.1217 708.1217">&#x003c;bterms&#x003e; are of the type: &#x003c;aexpr&#x003e; for  confronting an &#x003c;aexpr&#x003e; with another; a &#x003c;bool_val&#x003e;, like</tspan></text>
<text xml:space="preserve" transform="matrix(.7506297 0 0 .7506297 0 -10958.443)" font-size="16" font-family="TimesNewRomanPSMT"><tspan y="15119" x="715.1406"> </tspan></text>
<text xml:space="preserve" transform="matrix(.7506297 0 0 .7506297 0 -10958.443)" font-size="16" font-family="TimesNewRomanPSMT"><tspan y="15141" x="103.59375 113.36975 124.04175 135.59375 145.36975 149.36975 157.36975 162.69776 166.69776 175.59375 187.14575 196.92176 205.81775 215.59375 220.04175 224.04175 231.14575 239.14575 243.14575 252.16976 256.61778 264.61778 271.72178 279.72178 284.16978 288.61778 293.94578 298.39378 305.49778 310.82579 319.84977 323.84977 329.17778 337.17778 344.28178 349.60978 354.05778 361.16178 369.16178 373.60978 380.71379 384.71379 392.71379 399.81779 412.26579 419.36979 424.69779 428.69779 432.69779 437.14579 441.59379 449.59379 456.69779 460.69779 468.69779 476.69779 481.14579 485.14579 492.2498 496.2498 504.2498 512.24978 519.35379 524.68179 532.68179 536.68179 548.23379 559.78579 569.56179 573.56179 581.56179 589.56179 596.6658 601.9938 609.0978 613.5458 621.5458 626.8738 630.8738 635.3218 643.3218 647.3218 652.6498 657.9778 665.9778 673.9778 678.4258 682.4258 690.4258 695.7538 699.7538">TRUE or FALSE; an &#x003c;identifier&#x003e; (variable name), like b1; a unary NOT operator in front of a</tspan></text>
<text xml:space="preserve" transform="matrix(.7506297 0 0 .7506297 0 -10958.443)" font-size="16" font-family="TimesNewRomanPSMT"><tspan y="15141" x="706.78128"> </tspan></text>
<text xml:space="preserve" transform="matrix(.7506297 0 0 .7506297 0 -10958.443)" font-size="16" font-family="TimesNewRomanPSMT"><tspan y="15163" x="103.59375 112.61775 120.61775 125.06575 132.16976 137.49776 149.94576 158.96976 162.96976 166.96976 171.41776 175.86576 183.86576 190.96976 194.96976 206.52176 218.07376 227.84976 231.84976 239.84976 243.84976 251.84976 257.17778 261.17778 272.72978 284.28178 294.05778 298.05778 307.83378 318.50578 330.05778 339.83378 344.28178 348.28178 355.38578 359.38578 367.38578 374.48979 379.81779 386.92179 394.92179 399.36979 407.36979 414.4738 420.69779 425.14579 432.2498 439.3538 447.3538 451.3538 460.37779 468.37779 475.48179 483.48179 491.48179 496.80979 505.83378 509.83378 513.83377 518.28176 522.72976 530.72976 537.83377 541.83377 547.16177 554.26577 558.26577 569.81777 581.36978 592.92178 596.92178 608.47378 620.02578 629.80178 633.80178 641.80178 649.80178 655.12979">&#x003c;bterm&#x003e;, like NOT x or NOT TRUE; a parenthesized &#x003c;bexpr&#x003e;, like (a AND NOT b2).</tspan></text>
<text xml:space="preserve" transform="matrix(.7506297 0 0 .7506297 0 -10958.443)" font-size="13.33" font-family="TimesNewRomanPSMT"><tspan y="15163" x="659.09378"> </tspan></text>
<text xml:space="preserve" transform="matrix(.7506297 0 0 .7506297 0 -10958.443)" font-size="13.33" font-family="TimesNewRomanPSMT"><tspan y="15182" x="75.59375"> </tspan></text>
<text fill="#434343" xml:space="preserve" transform="matrix(.7506297 0 0 .7506297 0 -10958.443)" font-size="18.66" font-family="TimesNewRomanPSMT"><tspan y="15225" x="75.59375"> </tspan></text>
<text xml:space="preserve" transform="matrix(.7506297 0 0 .7506297 0 -10958.443)" font-size="32" font-family="TimesNewRomanPS" font-weight="bold"><tspan y="15290" x="75.59375"> </tspan></text>
<text xml:space="preserve" transform="matrix(.7506297 0 0 .7506297 0 -10958.443)" font-size="32" font-family="TimesNewRomanPS" font-weight="bold"><tspan y="15290" x="175.59375"> </tspan></text>
<text xml:space="preserve" transform="matrix(.7506297 0 0 .7506297 0 -10958.443)" font-size="16" font-family="TimesNewRomanPS" font-style="italic"><tspan y="15668" x="75.59375 79.59375 83.59375 87.59375 91.59375 95.59375 99.59375 103.59375 107.59375 111.59375 115.59375 119.59375 123.59375">             </tspan></text>
<text xml:space="preserve" transform="matrix(.7506297 0 -.18765743 .7506297 0 -10958.443)" font-size="16" font-family="Gautami"><tspan y="15668" x="4044.5938">&#x200b;</tspan></text>
<text xml:space="preserve" transform="matrix(.7506297 0 0 .7506297 0 -10958.443)" font-size="16" font-family="TimesNewRomanPSMT"><tspan y="15668" x="127.59375 131.59375 139.59375"> 14</tspan></text>
<text xml:space="preserve" transform="matrix(.7506297 0 0 .7506297 0 -10958.443)" font-size="16" font-family="TimesNewRomanPSMT"><tspan y="15668" x="147.59375"> </tspan></text>
</g>
</g>
</svg>
